<?xml version="1.0" encoding="UTF-8"?>
<svg width="172.7mm" height="51.715mm" version="1.1" viewBox="0 0 172.7 51.715" xmlns="http://www.w3.org/2000/svg"><g transform="translate(86.368 -177.11)"><g transform="matrix(1.8086 0 0 1.8086 -174.32 -289.03)"><g transform="matrix(.55005 0 0 .55005 64.13 125.18)"><g stroke-width="1.5949"><path d="m101.74 265.83c-0.76785-4.0782-0.48117-8.2917-0.52253-12.441-0.028-2.8066 0.0792-8.0338 1.6367-9.542 1.1682-1.1313 1.9973-1.0926 4.2808-1.1917 3.2657-0.14164 5.213 1.5934 5.7982 4.3906 0.38682 1.849 0.47686 3.8303 0.52477 5.7081 0.0777 3.0444 0.24701 6.0005 0.28371 9.0424 0.0261 2.1644 0.0559 4.5606-1.206 6.4092-1.0478 1.5348-2.2232 1.6729-3.9369 1.7805-2.3181 0.1455-6.1347-0.31111-6.8587-4.1565zm8.8358-2.3024c0-3.0915-7e-3 -9.1348-0.21887-11.712-0.13975-1.6985 0.1422-4.0318-1.0334-5.365-0.92898-1.0534-3.2712-0.87274-4.2398 0.0224-1.1943 1.1038-0.81768 4.3216-0.81872 4.8198-6e-3 3.1165-0.56428 12.982 1.1426 14.265 2.8914 2.1734 5.1682 0.41634 5.1682-2.0302z"/><path d="m45.663 269.99c-1.2996-0.0409-5.1225 0.22137-5.5111-0.11905-0.25313-0.22176-0.28333-11.912-0.29185-13.913-0.02611-6.1323-0.42214-13.021-0.03794-13.157 0.69534-0.24507 4.92-0.28412 5.9736-0.0189 1.5834 0.3986 2.4436 1.084 3.4714 2.441 1.5621 2.0626 1.4258 5.0427 1.7165 7.4861 0.369 3.101 0.32298 5.8841 0.4471 9.0084 0.0888 2.2355-0.0651 5.4656-1.277 6.6706-0.70772 0.70367-2.5441 1.6644-4.4907 1.6013zm0.53128-3.0417c1.0569-0.16068 2.4318-2.2285 2.4912-3.7614 0.17423-4.4978-0.27717-8.3303-0.74763-14.486-0.29288-3.8321-4.7433-3.08-4.9691-2.6949-0.33113 0.56488-0.13073 4.7576-0.0855 8.9421 0.0236 2.1832 0.0912 11.493 0.49893 11.997 0.88616 0.33433 1.8927 0.14379 2.8121 4e-3z"/><path d="m81.99 269.72c-2.1138-0.11126-4.0018-1.3289-4.6547-2.4732-0.47246-0.68171 0.69266-3.2754 1.6044-2.5791 0.32518 0.24833 4.5151 3.8129 6.0968-0.0842 0.74986-1.8476-1.8889-5.71-3.2569-7.5613-1.8273-2.473-3.3286-4.0693-3.9264-7.1494-0.28543-1.4706-0.46731-2.5156 0.12426-3.9212 0.73944-1.757 3.0356-2.7963 5.0533-3.1317 2.5231-0.41944 3.8841 0.37321 4.2772 0.87888 0.49702 0.63934-0.2321 2.832-0.5995 2.8071-1.1315-0.0767-2.3641-1.7155-4.8122-0.43361-1.3811 0.72317-1.4431 1.8512-1.0314 3.1818 0.56759 1.8346 1.5329 3.5739 3.1774 5.8403 1.2338 1.7005 3.1044 4.0783 3.7771 6.0738 0.47738 1.4163 0.59746 4.2611-0.1567 5.5626-1.3442 2.3199-3.4855 3.1044-5.6726 2.9893z"/><path d="m93.802 269.78c0-0.61109 0.0214-12.136-0.20603-16.606-0.12133-2.297 0.0753-4.9897-0.34245-7.2551-0.8697 0.0271-2.8242 0.38281-3.6442 0.0807-0.46449-0.17112-0.78241-3.3111 0.13507-3.2082 2.4066 0.26974 8.0766-0.53532 10.08 0.0547 0.49286 0.20149 0.46437 2.2106 0.11075 2.586-0.37862 0.40189-3.0157-2e-3 -3.5453 0.24051-0.33806 0.15468-0.0181 1.4213-2.1e-4 2.4288 0.0304 1.7121 1.0476 20.979 0.9363 21.651-0.0561 0.3385-3.5243 0.23939-3.5243 0.0278z"/></g><path d="m10.124 269.8c-2.0594-0.25895-2.759-0.96972-4.0614-2.91-0.99619-1.4842-0.97205-2.7335-1.0743-4.5415-0.20103-3.3284-0.3097-6.6632-0.47815-9.9941-0.0795-2.7709-0.22104-8.7706 0.28194-9.3704 0.29435-0.35097 3.24-0.54955 3.3862 0.0254 0.16365 0.64363-0.0187 5.0661-0.0441 7.3638 0.0182 2.7611-0.0426 6.2079 0.31101 8.9464 0.12296 1.6755 0.17713 3.7351 0.6992 5.3362 0.70616 1.1891 1.7537 1.6511 3.0748 1.2368 1.5715-0.24327 2.2799-2.9688 2.2797-4.2268 0.27997-3.6697 0.48992-6.1564 0.3957-9.8312-0.17478-2.2517-0.43286-8.513 0.03411-8.7598s2.243-0.72027 3.0954-0.23357c0.56358 0.32182-0.15286 8.1718 0.04599 10.851 0.05552 3.1844 0.20263 6.3829-0.05933 9.5596-1.1711 5.1592-4.5655 6.9662-7.8868 6.5486z" stroke-width="1.5763"/><g stroke-width="1.5949"><path d="m21.289 269.67c-0.42641-0.30689-0.08729-2.1999-0.13073-3.705-0.10558-3.6588-0.05081-7.9794-0.02557-11.455 0.02276-3.134-0.3021-11.225 0.0023-11.559 0.3705-0.40689 0.46489-0.3596 2.0008-0.1423 0.65955 0.0933 1.3415 2.0049 2.0009 3.2556 1.3171 2.4981 2.5625 4.9424 3.944 7.4112 1.312 2.3447 2.8115 4.5588 4.1693 6.8636 0.35006 0.59421 1.0887 2.6259 1.1017 1.1534 0.03503-3.9648-0.63906-17.66-0.30785-18.577 0.18365-0.48829 2.2038-0.46151 2.8168-0.16159 0.40127 0.19633 0.37093 6.0723 0.41835 7.8987 0.16628 6.4043 1.2254 18.687 0.89157 19.18-0.30466 0.44999-2.4984 0.24801-2.8716 0.0249-1.8542-3.1286-4.0687-6.4482-5.9092-9.2505-1.321-2.0338-2.4563-4.006-3.5242-6.1869-0.43231-1.0824-1.8135-3.2048-1.6998-1.6785 0.05641 2.2107 0.22519 5.9922 0.23932 8.216 0.01729 2.7212 0.32998 8.4867-0.08606 8.8025-1.1777 0.0516-1.9926 0.52097-3.03-0.0894z"/><path d="m134.57 269.67c-0.5328-0.47146 0.32026-10.992-0.84121-12.821-0.92637-1.4584-2.3124-5.6738-3.0905-7.2001-1.0265-2.0137-3.4957-6.4939-2.7763-6.7505 1.2954-0.462 2.1153-0.10176 2.563-3e-3 0.5471 0.1208 1.7464 3.0158 2.2573 4.0953 1.0622 2.2443 1.2717 2.944 2.1914 5.2468 0.24828 0.62163 1.4625 0.72067 2.0134-0.23932 1.2981-2.2623 1.72-3.4423 2.837-5.7334 0.51049-1.0471 1.2428-2.9736 1.6988-3.2351 0.82797-0.47495 2.3978-0.29809 2.7208 0.0303 0.38022 0.38656-2.4466 5.4409-3.0267 6.541-0.61764 1.1714-3.3195 5.7836-3.6364 7.7792-0.52591 3.3123 0.80274 11.266 0.25676 12.142-0.99585 0.34226-2.2667 0.78875-3.1674 0.14713z"/><path d="m72.104 263.13c-0.14177-1.3096-0.17287-3.3283-0.70871-3.8602-0.96664-0.95964-4.0901-1.286-4.5853-0.50278-0.46931 0.74228 0.43324 10.638-0.1134 10.891-0.87102 0.40336-1.7503 0.33493-2.7574 0.0458-0.59436-0.1707-0.33091-4.2228-0.40817-6.2961-0.0967-2.5945-0.24629-5.1308-0.20634-7.7264 0.0602-3.9156-0.32502-12.836 0.15-12.903 2.9888-0.41919 4.9174-0.29613 7.6369 0.21683 1.7447 0.32909 3.1714 1.6807 3.5948 3.4404 0.47631 1.9795 0.7037 3.9455 0.32776 6.0653-0.29355 1.6552-0.88273 1.7825-2.0937 2.7032-1.7419 1.3244 0.49943 1.9361 1.4174 2.8267 0.70496 0.68392 0.85537 0.94217 1.1491 2.2164 0.47088 2.0426 0.52286 9.178 0.28702 9.3357-0.50006 0.33435-3.3247 0.55606-3.517 0.19544-0.33624-0.63066 0.25615-2.6838-0.17304-6.6486zm-3.098-8.287c1.8913-0.5652 2.6087-1.8169 2.7962-3.2482 0.20943-1.5984 0.40896-3.8438-0.41727-5.29-0.54872-0.96047-4.2594-1.0375-4.6463-0.77643-0.46428 0.3133-0.55194 3.1767-0.51382 4.5269 0.0436 1.5446-7.94e-4 3.1926 0.3826 4.5568 0.19112 0.68024 1.7215 0.43329 2.3985 0.23096z"/><path d="m53.419 269.79c-0.45811-0.18151-0.19821-2.2309-0.225-3.3503-0.14922-6.2347 0.16123-12.98-0.0587-19.212-5e-3 -1.277 0.0324-4.1153 0.33216-4.297 0.41447-0.25113 7.4337-0.52212 7.6053 5e-3 0.19733 0.60605 0.15118 2.2608 7e-3 2.4741-1.6945 0.45059-4.1287 0.31404-4.6813 0.51848-0.62914 0.23273-0.28317 2.7958-0.30439 4.3818-0.01421 1.0663-8e-3 3.3777 0.30287 3.5896 0.65047 0.44389 3.4029-0.35417 4.2284-0.0767 0.8849 0.29749 0.19907 2.5982-0.0322 2.6492-1.2355 0.27234-2.9558 0.089-4.2073 0.28606-0.42149 0.0663-0.24711 2.6604-0.2625 3.7764-0.02381 1.7274-0.02331 4.3175 0.14642 6.2636 0.0438 0.5022 4.8808 0.0982 5.1218 0.29606 0.49496 0.40642 0.13216 2.5789-0.0911 2.7436-1.2279 0.0748-7.4297 0.13129-7.8809-0.0475z"/><path d="m124.38 263.22c-0.14177-1.3096-0.17287-3.3283-0.70871-3.8602-0.96664-0.95964-4.0901-1.286-4.5853-0.50278-0.46931 0.74228 0.43324 10.638-0.1134 10.891-0.87102 0.40336-1.7503 0.33493-2.7574 0.0458-0.59436-0.1707-0.3309-4.2228-0.40817-6.2961-0.0967-2.5945-0.24629-5.1308-0.20634-7.7264 0.0602-3.9156-0.32502-12.836 0.15-12.903 2.9888-0.41919 4.9174-0.29613 7.6369 0.21683 1.7447 0.32909 3.1714 1.6807 3.5948 3.4404 0.47631 1.9795 0.7037 3.9455 0.32776 6.0653-0.29355 1.6552-0.88273 1.7825-2.0937 2.7032-1.7419 1.3244 0.49943 1.9361 1.4174 2.8267 0.70496 0.68392 0.85537 0.94217 1.1491 2.2164 0.47088 2.0426 0.52286 9.178 0.28702 9.3357-0.50006 0.33435-3.3247 0.55606-3.517 0.19544-0.33624-0.63066 0.25615-2.6838-0.17304-6.6486zm-3.098-8.287c1.8913-0.5652 2.6087-1.8169 2.7962-3.2482 0.20943-1.5984 0.40897-3.8438-0.41727-5.29-0.54872-0.96047-4.2594-1.0375-4.6463-0.77643-0.46428 0.3133-0.55194 3.1767-0.51382 4.5269 0.0436 1.5446-7.9e-4 3.1926 0.3826 4.5568 0.19112 0.68024 1.7216 0.43329 2.3986 0.23096z"/></g></g><g transform="matrix(.53834 0 0 .53834 65.167 128.37)"><g transform="matrix(1.1841,0,0,1.1841,-1.2175,242.74)"><path d="m99.231 41.271c0-0.27415-0.4309-15.272-0.45727-15.609-0.03459-0.44129 2.5875-0.50497 2.8909-0.13139 0.3727 0.45888 0.69313 15.328 0.37648 15.687-0.2512 0.28432-2.8101 0.50129-2.8101 0.05323z"/></g><path d="m25.934 288.81c-0.53055-2.8179-0.33247-5.7292-0.36104-8.5959-0.01935-1.9392 0.05472-5.551 1.1309-6.5931 0.80721-0.78169 1.8979-0.75495 3.4757-0.82339 2.2564-0.0979 4.2079 1.101 4.6123 3.0337 0.26728 1.2776 0.32949 2.6466 0.36259 3.944 0.05368 2.1036 0.17067 4.1461 0.19603 6.2479 0.01803 1.4955 0.03863 3.1512-0.83326 4.4284-0.72395 1.0605-2.1421 1.1559-3.3262 1.2302-1.6017 0.10054-4.7566-0.21495-5.2569-2.8719zm6.623-2.149c0.25296-2.1211-0.0049-5.7535-0.15123-7.5344-0.09656-1.1736 0.09826-2.4626-0.71407-3.3838-0.64188-0.72789-2.2603-0.60303-2.9295 0.0154-0.82522 0.76265-0.56498 2.6629-0.5657 3.0071-0.0041 2.1534-0.38989 8.412 0.78949 9.2985 1.9978 1.5017 3.3708 0.27577 3.571-1.4028v1e-5z" stroke-width="1.102"/><path d="m37.194 288.82c-0.53055-2.8179-0.33246-5.7292-0.36104-8.5959-0.01934-1.9392 0.05472-5.551 1.1309-6.5931 0.80721-0.78169 1.8979-0.75494 3.4757-0.82338 2.2564-0.0979 4.2079 1.101 4.6123 3.0337 0.26727 1.2776 0.32948 2.6466 0.36259 3.944 0.05373 2.1036 0.17067 4.1461 0.19603 6.2479 0.01804 1.4955 0.0386 3.1512-0.83327 4.4285-0.72394 1.0605-2.1421 1.1559-3.3262 1.2302-1.6017 0.10053-4.7566-0.21497-5.2569-2.8719zm6.623-2.149c0.25296-2.1211-0.0046-5.7536-0.15123-7.5344-0.09656-1.1736 0.09825-2.4626-0.71407-3.3838-0.64188-0.72789-2.2603-0.60303-2.9295 0.0154-0.82521 0.76265-0.56498 2.6629-0.5657 3.0071-0.0037 2.1534-0.3899 8.412 0.78948 9.2985 1.9979 1.5017 3.3708 0.27577 3.571-1.4028z" stroke-width="1.102"/><path d="m52.763 291.87c-0.9069-0.0285-4.2459 0.15448-4.5171-0.0831-0.17664-0.15476-0.19772-8.3126-0.20366-9.7087-0.01814-4.2793-0.29458-9.0865-0.02641-9.181 0.48524-0.17102 4.1046-0.19827 4.8399-0.0132 1.1049 0.27816 2.1877 0.75642 2.9049 1.7034 1.09 1.4393 0.99494 3.5189 1.1978 5.224 0.25749 2.164 0.22537 4.106 0.31199 6.2862 0.06198 1.56-0.04539 3.814-0.89113 4.6548-0.49387 0.49104-2.2578 1.1614-3.6162 1.1174zm0.37075-2.5421c0.73752-0.11213 1.6969-1.5551 1.7384-2.6248 0.12158-3.1386-0.19342-5.0368-0.52172-9.3323-0.20438-2.6741-3.31-2.1493-3.4675-1.8806-0.23107 0.39419-0.09123 2.9633-0.0596 5.8834 0.01649 1.5235 0.06363 7.6007 0.34816 7.9519 0.30265 0.27221 1.4023 0.0876 1.9623 3e-3z" stroke-width="1.113"/><path d="m80.927 288.81c-0.53054-2.8179-0.33246-5.7292-0.36104-8.5959-0.01934-1.9392 0.05474-5.551 1.1309-6.5931 0.80721-0.78169 1.8979-0.75495 3.4756-0.82339 2.2564-0.0979 4.2079 1.101 4.6123 3.0337 0.26727 1.2776 0.32948 2.6466 0.36259 3.944 0.05373 2.1036 0.17067 4.1461 0.19603 6.2479 0.01807 1.4955 0.0386 3.1512-0.83326 4.4284-0.72394 1.0605-2.1421 1.1559-3.3262 1.2302-1.6017 0.10053-4.7566-0.21496-5.2569-2.8719zm6.623-2.149c0.25296-2.1211-0.0046-5.7535-0.15123-7.5344-0.09656-1.1736 0.09825-2.4626-0.71407-3.3838-0.64188-0.72789-2.2603-0.60303-2.9295 0.0154-0.82521 0.76264-0.56498 2.6629-0.5657 3.0071-0.0037 2.1534-0.3899 8.412 0.78948 9.2985 1.9978 1.5017 3.3708 0.27577 3.571-1.4028z" stroke-width="1.102"/><path d="m98.401 287.02c-0.09834-0.9084-0.11991-1.8916-0.4916-2.2606-0.6705-0.66564-2.837-0.89203-3.1805-0.34874-0.32553 0.51488 0.30052 6.9618-0.07867 7.1374-0.60417 0.27978-1.7772 0.23232-2.4757 0.0317-0.41227-0.11841-0.22954-2.9291-0.28312-4.3672-0.06703-1.7997-0.17084-3.559-0.14313-5.3594 0.04172-2.716-0.22544-8.9035 0.10405-8.9497 2.0731-0.29078 4.6413-0.20541 6.5277 0.15039 1.2102 0.22828 2.1998 1.1658 2.4935 2.3864 0.33039 1.3731 0.48811 2.7368 0.22735 4.2072-0.20362 1.1482-0.61229 1.2364-1.4523 1.8751-1.2083 0.91866 0.34643 1.343 0.98314 1.9607 0.48899 0.4744 0.59332 0.65353 0.79708 1.5374 0.32662 1.4168 0.36268 6.3662 0.19909 6.4756-0.34686 0.23192-2.9735 0.3857-3.1068 0.13557-0.23324-0.43746 0.17767-1.8616-0.12003-4.6118zm-2.1489-5.7482c1.3119-0.39204 1.8095-1.2602 1.9396-2.2531 0.14527-1.1087 0.28367-2.2075-0.28943-3.2106-0.38062-0.66622-2.9545-0.71964-3.2229-0.53857-0.32205 0.21732-0.38284 1.7447-0.3564 2.6813 0.03026 1.0714-4.86e-4 2.2145 0.26538 3.1608 0.13257 0.47184 1.1941 0.30055 1.6637 0.1602z" stroke-width="1.1063"/><g stroke-width="1.1841"><path d="m21.974 272.93c-0.2467 0.31902-2.9167 13.62-3.2903 13.538-0.24312-0.0529-2.6619-10.688-3.3981-11.3-0.40617-0.33777-3.2239-0.35954-3.4532-0.0648-0.68798 0.88418-2.7814 11.281-3.1171 11.257-0.27535-0.0196-1.9686-7.7706-2.5353-9.7412-0.31825-1.081-0.60983-3.4216-0.97311-3.7223-0.25287-0.20928-2.5715-0.24114-2.8185 0.019-0.35902 0.37825 2.3252 10.084 3.4508 14.865 0.27479 1.1642 0.68282 3.2974 1.2362 3.8843 0.23117 0.24514 2.9503 0.22073 3.1329 0.027 0.29903-0.31721 2.7937-12.865 3.3212-12.83 0.54525 0.0368 3.0058 12.321 3.5921 12.712 0.56347 0.37576 2.6484 0.29297 2.9704-0.0318 0.46185-0.46589 5.139-18.476 4.9313-18.696-0.36446-0.26869-2.8802-0.13493-3.0492 0.0836z"/><path d="m76.768 272.94c-0.2467 0.31902-2.9167 13.62-3.2903 13.538-0.24312-0.0529-2.6619-10.688-3.3981-11.3-0.40617-0.33777-3.2239-0.35954-3.4532-0.0648-0.68799 0.88417-2.7814 11.281-3.1171 11.257-0.27536-0.0196-1.9686-7.7706-2.5354-9.7412-0.31824-1.081-0.60983-3.4216-0.9731-3.7223-0.25288-0.20929-2.5715-0.24114-2.8185 0.019-0.35903 0.37824 2.3252 10.084 3.4508 14.865 0.27479 1.1642 0.68281 3.2974 1.2362 3.8843 0.23116 0.24515 2.9503 0.22073 3.1329 0.0271 0.29903-0.3172 2.7937-12.865 3.3212-12.83 0.54524 0.0368 3.0058 12.321 3.5921 12.712 0.56347 0.37575 2.6484 0.29296 2.9704-0.0318 0.46185-0.46589 5.139-18.476 4.9313-18.696-0.36446-0.26869-2.8802-0.13493-3.0492 0.0836z"/><path d="m122.11 291.6c-0.41233-0.2809-0.4373-18.54-0.19901-18.708 0.382-0.27008 2.0294-0.34853 2.7476-0.0669 0.35796 0.14035 5.1176 10.764 5.5958 10.736 0.49409-0.0286-0.32416-10.177-0.26429-10.696 0.0333-0.2886 2.4665-0.3672 2.707 0.0754 0.23881 0.43946 0.86705 18.104 0.5945 18.515-0.29645 0.44742-2.213 0.40294-2.5031 0.18725-0.70048-0.52094-5.8412-11.9-6.1231-11.441-0.16775 0.27331 0.33513 11.232 0.17177 11.371-0.39354 0.33674-2.2462 0.35397-2.7272 0.0263z"/></g><g transform="matrix(1.1841,0,0,1.1841,-1.297,242.74)" stroke-width=".084667"><path d="m116.98 41.116c-1.9705-0.45919-2.3859-9.6487-1.2151-13.796 0.76881-2.7233 5.2476-2.0553 6.0543-1.7546 0.94508 0.3523 1.6684 2.093 1.6382 2.4449-0.0253 0.29482-1.587 1.277-1.8965 0.88838-0.37443-0.47-0.35932-1.6753-2.5683-1.2973-1.5739 0.26932-1.4057 3.1835-1.42 4.5942-0.0208 2.057-0.0104 3.7855 0.66434 5.7526 0.30712 0.89539 2.6159 0.7358 3.2577 0.27471 0.4779-0.34332 0.34933-2.182-0.0209-2.3819-0.48697-0.26293-1.2063 0.24203-1.5333-0.03005-0.41196-0.34272-0.49636-1.8366-0.10814-2.0607 0.71663-0.41375 3.0967-0.35448 3.6181 0.39676 0.28901 0.41638 0.65385 3.5149 0.63091 4.1293-0.0451 1.2074-0.11803 1.6654-1.0734 2.4233-0.66001 0.52358-4.0574 0.87548-6.0279 0.41629z"/></g><path d="m103.18 272.88c0.10713-0.50348 2.4263-0.20762 2.9474 0.038 0.23321 0.10999 0.0416 7.3377 0.47701 7.4127 0.60719 0.10459 4.0283-6.9885 4.6218-7.4271 0.30502-0.2254 2.7762-0.27044 3.02 0.0458 0.24046 0.31192-5.4379 8.744-5.4176 9.2393 0.0239 0.58501 1.8476 3.588 2.6699 4.8035 0.78448 1.1596 3.0624 4.4516 2.7488 4.605-0.42539 0.20816-2.7926 0.24614-3.116 0.11418-0.29991-0.12234-4.0855-6.8944-4.629-7.0842-0.31641-0.11048 0.13513 6.841-0.28152 7.0352-0.70641 0.32929-2.7205 0.28384-2.9118 0.0435-0.13615-0.17104-0.17804-18.595-0.1288-18.826z" stroke-width="1.1841"/></g></g><path d="m-61.849 178.11v5.8e-4c-0.08709 0-0.17407 0.12032-0.20759 0.28803-0.06194 0.30946-0.25423 0.43647-0.52881 0.34937-0.22974-0.0729-0.72738 0.85142-0.64189 1.1921 0.04453 0.1774 0.01689 0.23491-0.11532 0.24303-0.09558 5e-3 -0.77005 0.0432-1.4992 0.0833-0.72918 0.04-1.8564 0.16806-2.5045 0.2841-0.64816 0.116-1.3164 0.21076-1.4852 0.21095-0.16874 1.5e-4 -0.50005 0.0691-0.7364 0.15302-0.51456 0.1826-1.5004 0.21489-1.6922 0.0557-0.07555-0.0627-0.6033-0.22922-1.173-0.37072l-1.0357-0.25766-0.37636 0.19465c-0.31729 0.16409-0.38066 0.2502-0.40617 0.55075-0.02851 0.33501-0.0044 0.36678 0.39324 0.54456 0.23272 0.10397 0.51139 0.22061 0.61938 0.25878 0.15775 0.0557 0.09968 0.0987-0.29479 0.21884-0.27007 0.0823-0.6233 0.20673-0.78534 0.27678-0.16204 0.07-0.47197 0.15592-0.68802 0.19071-0.21606 0.0347-0.59123 0.14471-0.83429 0.24528-0.24306 0.10048-0.51621 0.20608-0.60645 0.23403-0.09036 0.028-0.27676 0.24368-0.41517 0.47986-0.22009 0.37565-0.23834 0.46724-0.13952 0.72909 0.16506 0.43673 0.83823 0.64822 1.3777 0.43261 0.12406-0.0496 0.60133-0.18538 1.0604-0.30209 0.45911-0.1167 1.0553-0.27166 1.3254-0.34486 0.27006-0.0732 0.75661-0.16207 1.0807-0.19746 0.3241-0.0354 0.82265-0.14924 1.1083-0.25259 0.68478-0.24814 1.4898-0.24433 1.9853 9e-3 0.21174 0.10799 0.43808 0.19689 0.5035 0.19689 0.06543 0 0.40977 0.12044 0.76509 0.26778 0.56526 0.23445 0.77808 0.26887 1.7018 0.27004 1.0418 2e-3 1.0554 4e-3 1.0554 0.23233 0 0.28834-0.52852 1.2809-0.80841 1.5184-0.25281 0.21446-0.82653 0.15375-1.3383-0.1412-0.18162-0.10462-0.4471-0.2049-0.58957-0.22334-0.14246-0.0185-0.52371-0.0832-0.84779-0.14289-0.65623-0.12097-1.7231-0.0818-2.1439 0.0782-0.15119 0.0576-0.41718 0.10408-0.59069 0.10408s-0.40196 0.0606-0.50856 0.13445c-0.16273 0.11275-0.45373 0.16726-1.6674 0.3111-0.054 7e-3 -0.2745 0.06-0.49056 0.11926-0.21605 0.0593-0.8792 0.22086-1.4734 0.35892-0.59413 0.13806-1.5605 0.40611-2.1473 0.59632-0.58679 0.19023-1.1714 0.34598-1.299 0.34598-0.12757 0-0.37616 0.0885-0.553 0.19634-0.17684 0.10777-0.3815 0.19614-0.45399 0.19633-0.0725 2.1e-4 -0.23778 0.0837-0.36736 0.18565-0.12958 0.10189-0.43398 0.24403-0.6762 0.3156-0.53518 0.15802-0.70867 0.49265-0.48268 0.92823 0.22848 0.44039 0.42465 0.52814 1.1831 0.53163 0.58144 2e-3 0.81116-0.0474 1.326-0.29085 0.34243-0.16199 0.69742-0.29474 0.78872-0.29478 0.09134-1.2e-4 0.18754-0.0354 0.21434-0.0788 0.02679-0.0433 0.27553-0.14063 0.55244-0.21603 0.27691-0.0754 0.52506-0.1722 0.55188-0.21546 0.02679-0.0432 0.18937-0.0798 0.36173-0.0821 0.17235-2e-3 0.42472-0.0667 0.55975-0.14403 0.13503-0.0773 0.35204-0.1417 0.48324-0.14401 0.1312-2e-3 0.37417-0.0438 0.54006-0.0929 1.0222-0.30219 1.5366-0.40798 2.8556-0.58959 1.578-0.21727 2.3661-0.27788 2.4556-0.18845 0.03059 0.0306-0.07848 0.0825-0.24247 0.11533-0.22866 0.0457-0.3185 0.10979-0.30548 0.16146-0.09778 4e-3 -0.19478 8e-3 -0.29084 9e-3 5.76e-4 -2e-3 0.0034-5e-3 0.0034-8e-3 0-0.13192-0.4519-0.12445-0.7184 0.0119-0.55203 0.28232-0.73482 0.93395-0.33979 1.2106 0.12004 0.0841 0.29663 0.15301 0.39267 0.15301 0.09602 0 0.17496 0.0416 0.17496 0.0929 0 0.0997-0.60816 0.59464-0.73077 0.59464-0.04039 0-0.18556 0.0877-0.32291 0.19578-0.30949 0.24344-0.55418 0.24344-1.0582 0-0.21605-0.1044-0.44661-0.19064-0.5125-0.19296-0.06586-2e-3 -0.26443-0.0835-0.44161-0.18172-0.17718-0.0983-0.54341-0.23404-0.81347-0.30097-0.27007-0.067-0.66194-0.16623-0.87085-0.22109-1.0039-0.26381-1.9074-0.0926-2.3431 0.4433-0.22445 0.27608-0.2357 0.94455-0.01575 0.94455 0.0872 0 0.3189 0.0837 0.51531 0.18565 0.40504 0.21034 0.88012 0.34959 1.7327 0.50856 0.32408 0.0604 0.80006 0.17754 1.0587 0.26047 0.43355 0.13896 0.45888 0.16387 0.31954 0.31785-0.08317 0.0919-0.15077 0.21919-0.15077 0.28241 0 0.0632-0.0332 0.118-0.0737 0.12263-0.0405 4e-3 -0.207 0.0223-0.36904 0.04-0.16204 0.0177-1.2448 0.0573-2.4061 0.0877-1.1613 0.0305-2.6187 0.0961-3.2398 0.14627-0.62114 0.0505-1.4256 0.0763-1.7867 0.0585-0.65353-0.0322-0.65816-0.0302-1.1043 0.38535-0.37364 0.34798-0.44837 0.47655-0.44837 0.77466 0 0.47683 0.29899 0.75474 0.82866 0.76959 0.54546 0.0152 1.3513 4e-3 4.3025-0.0551 2.137-0.0433 2.5282-0.0295 2.5282 0.0877 0 0.0763-0.0586 0.19754-0.13108 0.27003-0.13224 0.13226-0.35948 0.51485-0.35948 0.60533 0 0.12677 0.66382 0.35722 1.0289 0.35722 0.35065 0 0.48027-0.0646 0.89392-0.44836 0.26592-0.24683 0.60474-0.51317 0.75328-0.59182 0.14853-0.0786 0.27003-0.20541 0.27003-0.28184 0-0.0764 0.0332-0.15948 0.0737-0.18453 0.0405-0.025 0.84709-0.0966 1.7923-0.1592 1.1806-0.0782 1.9186-0.17617 2.3572-0.31335 0.35108-0.10982 0.87026-0.22438 1.1538-0.25372 1.0673-0.3885 1.0027-0.25544 0.44724 0.85059-0.25201 0.49851-0.28342 0.57389-0.50006 0.80301-0.09531 0.10081-0.09523 0.23747-0.34041 0.23944-0.71336 3e-3 -2.234 0.38874-2.234 0.56593 0 0.0453-0.08657 0.0548-0.19184 0.0213-0.10527-0.0334-0.31588 3e-3 -0.46862 0.0827-0.5095 0.26347-1.7978 0.57681-2.9237 0.71108-0.27006 0.0322-0.58922 0.12003-0.70884 0.19577-0.11964 0.0757-0.27707 0.1384-0.34992 0.1384-0.30876 0-0.95848 0.9596-0.88098 1.3012 0.02146 0.0945-0.01691 0.17159-0.08495 0.17159-0.06793 0-0.30301 0.081-0.52262 0.18001-0.2196 0.099-0.7971 0.30335-1.2832 0.454-0.48612 0.15064-1.0627 0.35678-1.2815 0.45793-0.35805 0.16541-0.78148 0.27996-1.6646 0.45117-0.16204 0.0315-0.38258 0.11111-0.49056 0.17778-0.10799 0.0667-0.32965 0.15158-0.49168 0.18846-0.47227 0.10745-1.0312 0.53986-1.0312 0.79772 0 0.27872 0.22573 0.51373 0.57213 0.59632 0.14476 0.0346 0.30711 0.0963 0.36117 0.13782 0.17757 0.13639 2.1336 0.091 2.4033-0.0557 0.34418-0.18734 1.9917-0.6357 2.3358-0.6357 0.30826 0 1.2219-0.23934 1.5645-0.41011 0.11799-0.0585 0.30618-0.0833 0.41799-0.054 0.11182 0.0293 0.3769-0.0309 0.59013-0.13389 0.21323-0.1031 0.48961-0.18847 0.61376-0.18847 0.36309-8.6e-4 2.2819-0.53954 2.4922-0.69982 0.05824-0.0444 0.38957-0.18994 0.7364-0.32236 2.9851-1.2319 1.036-0.0463 1.3068 0.0805-0.02189 0.43736-0.09251 0.63906-0.3516 0.99968-0.17849 0.24848-0.38973 0.55545-0.46918 0.68239-0.4472 0.34381-0.94013 0.5331-1.4514 0.69083-0.31047 0.0945-0.60694 0.20926-0.6582 0.25484-1.0832 0.0846-1.1814 0.2736-2.0314 0.27904-0.30976 0-0.68729 0.0493-0.83935 0.10914-0.28156 0.11088-1.4777 0.2978-1.8643 0.29085-0.11724-2e-3 -0.36312 0.059-0.54625 0.13557-0.18312 0.0765-0.56704 0.16644-0.85285 0.19915-1.1311 0.19716-2.3308 0.48761-3.3326 0.78984-0.95028 0.14874-2.4063 0.72281-2.5085 0.98899-0.03179 0.083-0.09817 0.12635-0.14683 0.0962-0.12689-0.0784-0.20759 0.18795-0.20759 0.68633 0 0.38336 0.03463 0.44867 0.30604 0.589 0.2626 0.13584 0.4175 0.14262 1.1049 0.049 1.6104-0.21957 3.2795-0.54591 4.0584-0.79378 0.33419-0.10636 0.71866-0.19409 0.85454-0.19409 0.13587 0 0.34848-0.0424 0.47256-0.0945 0.12407-0.0523 0.41345-0.14239 0.64301-0.20028 0.09706-0.0245 0.18266-0.0549 0.25372-0.0856 0.0036-2.9e-4 0.0051 1e-3 9e-3 5.7e-4 0.38483-0.19448 1.2998-0.0832 1.3372 0.15133-0.29217 0.3804-1.0114 0.36426-1.2607 0.53054-0.23105 0.15754-0.43962 0.28634-0.46468 0.28634-0.02515 0-0.12319 0.0704-0.21771 0.15583-0.09449 0.0855-0.3707 0.28548-0.61376 0.44443-0.24306 0.15896-0.66324 0.44517-0.9333 0.63626-0.27008 0.19112-0.66774 0.43307-0.88379 0.53781-0.21605 0.10473-0.66941 0.44455-1.007 0.75497-0.50498 0.46429-0.61376 0.61941-0.61376 0.87536 0 0.5554 0.06951 0.62219 0.65089 0.62219 0.38563 0 0.63212-0.0628 0.89786-0.2284 0.20147-0.12547 0.44384-0.2565 0.53838-0.29141 0.09449-0.0348 0.17215-0.10914 0.17215-0.16483 0-0.0556 0.04986-0.10124 0.11139-0.10124 0.09863 0 0.46575-0.29059 1.2545-0.99293 0.1304-0.1161 0.38465-0.29757 0.56482-0.40393 0.18018-0.10636 0.32798-0.22305 0.32798-0.25878 0-0.11123 0.3811-0.30869 0.43318-0.22446 0.02711 0.044-0.03221 0.25317-0.13164 0.46468-0.26605 0.56596-0.42953 1.2666-0.35217 1.5105 0.04202 0.13225 0.01383 0.27665-0.0737 0.3786-0.29258 0.34066-0.82299 1.5158-1.0284 2.2767-0.23387 0.86642-0.26547 1.5397-0.08438 1.816 0.08611 0.13142 0.15696 0.39861 0.15696 0.59351 0 0.28628-0.03332 0.34711-0.17214 0.31672-0.09449-0.0207-0.16085-0.0899-0.14739-0.15414 0.03756-0.17909-0.14209-0.13945-0.21378 0.0472-0.03473 0.0906-0.17472 0.72886-0.3111 1.4182-0.20427 1.032-0.24049 1.4494-0.20477 2.3639 0.05236 1.3394 0.12944 1.7228 0.37298 1.8531 0.10636 0.0568 0.18452 0.20467 0.18452 0.34767 0 0.20422-0.03446 0.23817-0.19634 0.18677-0.28496-0.0902-0.35576 0.19057-0.27735 1.0987 0.20864 2.4175 0.46328 3.4682 0.84104 3.4682 0.15649 0 0.15566-0.0465-0.0096-0.37354-0.3132-0.61833-0.6173-2.9088-0.45905-3.457 0.06717-0.23243 0.07662-0.22451 0.18171 0.1412 0.07 0.24316 0.07726 0.42725 0.01913 0.49731-0.05617 0.0673-0.05875 0.24444-0.0057 0.44837 0.04768 0.18546 0.11562 0.60248 0.15077 0.92654 0.07163 0.66031 0.25798 1.2193 0.77578 2.3251 0.38911 0.83104 0.60257 0.98514 1.0019 0.72346 0.29706-0.19464 0.39114-0.14593 0.46862 0.24134 0.06216 0.31062 0.1459 0.36402 1.0711 0.68015h5.75e-4c0.54387 0.18562 1.3738 0.16732 1.8739-0.0416 0.32426-0.13547 0.65314-0.58835 0.65314-0.89898 0-0.26223-0.17823-0.1239-0.33022 0.25597-0.08535 0.21335-0.24676 0.43666-0.35892 0.49674-0.35415 0.18952-1.8259 0.13194-2.2362-0.0877-0.20684-0.11066-0.41255-0.64107-0.41349-1.0661-8.64e-4 -0.31842 0.22376-1.106 0.31504-1.106 0.04278 0 0.07764-0.10778 0.07763-0.23966 0-0.13186 0.05157-0.27201 0.11476-0.3111 0.07729-0.0477 0.09434-0.017 0.05232 0.0929-0.0393 0.10244-0.0133 0.16314 0.06919 0.16314 0.07261 0 0.21534-0.23176 0.31729-0.5153 0.102-0.2836 0.22928-0.51588 0.28241-0.51588 0.10961 0 0.07692 0.58662-0.05851 1.0587-0.12293 0.42971-0.11615 2.1333 0.0078 2.1333 0.05791 0 0.09789-0.34857 0.09789-0.84891 0-0.56972 0.06599-1.0706 0.20084-1.5234 0.19403-0.65151 0.20988-0.67231 0.46637-0.61095 0.14607 0.0351 0.49841 0.0838 0.78197 0.10853l0.51531 0.045v0.78479c0 0.84612 0.31028 2.2908 0.54344 2.5293 0.11933 0.12203 0.16167 0.11865 0.3201-0.0247 0.10048-0.0909 0.23091-0.16539 0.28972-0.16539 0.05879 0 0.12393-0.0503 0.14458-0.11195 0.02809-0.0843 0.08961-0.0843 0.24697 0 0.11541 0.0617 0.26814 0.11091 0.33923 0.10854 0.11448-3e-3 0.66945-0.76291 0.66945-0.91642 0-0.033 0.07161-0.1434 0.15921-0.24584 0.21362-0.24947 0.83803-1.6761 0.7769-1.7749-0.02655-0.043-0.18223-0.13322-0.34542-0.20084-0.2924-0.12111-0.35449-0.20529-0.2374-0.32236 0.03266-0.0328 0.1519 0.0262 0.26441 0.13108 0.11251 0.10484 0.27347 0.17896 0.35779 0.1654 0.09428-0.015 0.14326 0.0373 0.12714 0.13613-0.03505 0.21373 0.2192 0.30148 0.50181 0.17271 0.15719-0.0715 0.41559-0.49343 0.83372-1.3608 0.33322-0.69123 0.60588-1.3417 0.60588-1.4452 0-0.10374 0.04387-0.23231 0.09732-0.28577 0.05356-0.0535 0.12207-0.31662 0.15246-0.58451 0.12608-1.1098 0.128-1.1138 0.41292-1.0942 0.31801 0.0218 0.53308-0.35974 0.71277-1.263 0.06401-0.32164 0.15444-0.7617 0.20083-0.97775 0.04638-0.21605 0.1154-0.94502 0.15358-1.6202 0.05367-0.94998 0.10484-1.2539 0.22559-1.3428 0.22244-0.16391 0.20065-2.8998-0.02869-3.6167-0.08633-0.27008-0.15745-0.58468-0.15808-0.69927-5.76e-4 -0.11471-0.09346-0.41772-0.20646-0.67339-0.21474-0.48546-0.14768-0.77965 0.1187-0.52093 0.23538 0.22858 2.0895 1.709 2.3211 1.8531 0.12164 0.0758 0.27167 0.29208 0.33304 0.48156 0.0614 0.18949 0.19681 0.46578 0.30097 0.61432 0.16392 0.23364 0.25554 0.2706 0.68239 0.2706 0.3447 0 0.56926 0.0586 0.74371 0.19577 0.27026 0.21262 0.85651 0.26538 0.96705 0.0867 0.03756-0.0607 0.06864-0.27817 0.06864-0.48268 0-0.42173-0.28138-0.9466-0.79997-1.4947-0.28576-0.30199-0.34924-0.44516-0.35273-0.78929-0.0044-0.4145-0.18126-0.94815-0.55131-1.6601-0.10386-0.19976-0.18902-0.42578-0.18902-0.50237 0-0.0765-0.08016-0.24416-0.17833-0.37297-0.22537-0.29573-0.45555-0.86143-0.38086-0.93612 0.03124-0.0312 0.18769 0.0369 0.34767 0.15077 0.15998 0.11391 0.35856 0.20759 0.44161 0.20759 0.08306 0 0.17811 0.0439 0.21152 0.0979 0.03342 0.054 0.18266 0.0984 0.33135 0.0984 0.35619 0 0.7004-0.4577 0.7004-0.93161v-0.35047l0.28747 0.14907c0.18345 0.0954 0.40149 0.12558 0.60138 0.0856 0.3106-0.062 0.31298-0.0667 0.25766-0.53331-0.0307-0.25908-0.12754-0.61033-0.21546-0.78029-0.22392-0.43297-0.12501-0.46019 0.3336-0.0917 0.42003 0.33759 0.69871 0.33863 0.69871 3e-3 0-0.30414-0.74257-1.9186-1.0452-2.2722-0.07294-0.0852-0.13276-0.18869-0.13276-0.22953-1.1633-1.2543-1.4167-2.3527-1.9988-3.8384-0.46534-1.2678-1.0546-2.7598-1.2146-3.0739-0.53716-1.0547-0.77542-1.4438-1.0739-1.7603-0.18085-0.19178-0.32798-0.364-0.32798-0.38256 0-0.0185 0.49667 0.22427 1.1043 0.53951 0.60764 0.31524 1.2157 0.6069 1.3507 0.64807 0.38507 0.11748 0.88323 0.53371 0.88323 0.73809 0 0.10212 0.33846 0.54071 0.75159 0.97381 0.41314 0.43309 0.86796 0.96289 1.0104 1.178 0.14242 0.21513 0.53842 0.68295 0.88042 1.0391 0.53413 0.55624 0.68294 0.65566 1.0543 0.70658 0.49836 0.0684 0.82135-0.13625 0.82135-0.51981 0-0.22306-0.30098-1.102-0.49168-1.4357-0.15252-0.26689-0.11482-0.54987 0.08777-0.6582 0.41088-0.21991 0.31691-0.90459-0.18565-1.3558-0.13503-0.12125-0.71435-0.48729-1.3153-0.75778-1.0696-0.22446-0.66238-0.77519-1.0413-1.1426 0-0.10015-0.44382-0.69232-1.2703-1.695-0.96716-1.1734-2.214-2.2674-2.9523-2.5906-0.75895-0.33222-0.96244-0.73803-0.69421-1.3856 0.29189-0.62906 0.15882-0.67915 0.39942-1.3226 0-0.078 0.06241-0.19298 0.13839-0.25597 0.11297-0.0937 0.23337 0.0422 0.6627 0.74877 0.96787 1.5928 1.1594 1.8736 1.7293 2.531 0.25551 0.29471 0.70824 0.82957 1.0053 1.1881 1.413 1.7055 2.9119 2.9663 3.4131 2.8713 0.28864-0.0548 0.27482-0.68939-0.02814-1.2855-0.39666-0.78053-0.64433-1.0926-1.9611-2.477-1.0814-1.1369-2.4067-2.7044-2.4067-2.8466 0-0.1248-1.1087-1.5382-1.3102-1.6703-0.01628-0.0109-0.04633-0.0211-0.06639-0.0321-0.03787-0.12844-0.07713-0.30377-0.12096-0.46131l0.04726 2e-3 0.03431-0.64245c0.02177-0.40944 0.12376-0.845 0.28072-1.2 0.2156-0.48766 0.22727-0.56766 0.09452-0.64189-0.13514-0.0757-0.13266-0.12916 0.02587-0.49506 0.09776-0.22574 0.25116-0.433 0.34036-0.46131 0.08916-0.0283 0.18872-0.19416 0.22109-0.36791 0.13662-0.73406 0.27391-1.1384 0.58001-1.7102 0.20769-0.38784 0.21239-0.52037 0.01858-0.52037zm-2.2036 3.7309h5.76e-4c0.11956 0 0.12241 0.42267 0.0034 0.54569-0.16097 0.16685-0.40042 0.65469-0.48774 0.94061-0.07159 0.11563-0.13568 0.2351-0.18565 0.34543-0.12024-0.0491-0.26272-0.12505-0.46412-0.25317-0.55213-0.3512-1.6836-0.8911-1.8683-0.8911-0.12887 0-0.1532-0.0307-0.08101-0.10298 0.05683-0.0568 0.49599-0.13965 0.97662-0.18396 0.48064-0.0444 1.1303-0.1523 1.4435-0.24021 0.31321-0.0879 0.61132-0.16034 0.6627-0.16034zm-2.1752 5.6685c-0.0307 0.1538-0.10738 0.3229-0.17102 0.3758-0.27189 0.22562-1.0295 0.21696-2.1138-0.0671-0.53641-0.1405-0.32122-0.30776 0.4523-0.3516 1.7289-0.0645 2.0114-0.34028 1.8325 0.0428zm0.86669 1.4002c0.20059-0.0242 0.76694 0.61415 1.4919 1.7057 0.38886 0.58549 0.69368 1.098 0.67733 1.1398-0.01633 0.0417-0.31725-0.0707-0.66833-0.25034-0.35108-0.17966-0.90507-0.41738-1.2303-0.52769l-0.59069-0.20028 0.06582-0.61319c0.03625-0.33727 0.08935-0.70154 0.11758-0.80953 0.02819-0.10799 0.05382-0.25203 0.0585-0.31953 0.0044-0.0786 0.03193-0.11932 0.0782-0.1249zm-1.0368 0.60031h5.77e-4c0.05204 8e-3 0.08157 0.0434 0.08157 0.108 0 0.23215-0.32254 1.2579-0.39548 1.2579-0.04115 0-0.07802 0.0996-0.08269 0.22109-0.02503 0.68498-0.13509 1.0395-0.34092 1.0948-0.11633 0.0312-0.25592 0.0552-0.30998 0.054-0.09351-2e-3 -0.92253-0.33663-1.5859-0.63908-0.1702-0.0776-0.37812-0.14064-0.4613-0.14064-0.08317 0-0.17812-0.0444-0.21152-0.0984-0.03342-0.0541-0.14367-0.0984-0.24528-0.0984-0.43187 0-0.25381-0.21584 0.44443-0.53837 0.41157-0.19011 0.79997-0.34593 0.86354-0.34655 0.06358-5.7e-4 0.35183-0.11077 0.64076-0.24528 0.28893-0.13446 0.6208-0.24523 0.73696-0.2464 0.11617-1e-3 0.32178-0.0896 0.4568-0.19521 0.17389-0.13605 0.32163-0.20008 0.40842-0.18733zm-0.2014 3.0424c0.01645-8e-3 0.062 0.025 0.14739 0.0923 0.29323 0.23098 1.1184 1.4699 1.1184 1.6787 0 0.0462 0.08845 0.22821 0.19634 0.40506 0.10788 0.17684 0.1966 0.41013 0.1969 0.51812 2.87e-4 0.10799 0.08074 0.32907 0.17946 0.49112 0.09874 0.16204 0.21042 0.41626 0.24753 0.56481 0.03756 0.15027 0.02688 0.26947-0.0242 0.26947-0.09112 0-0.58545-0.58717-0.75609-0.89841-0.16178-0.29511-0.95183-1.1633-1.0616-1.1668-0.19196-5e-3 -0.5497-0.3673-0.54738-0.553 0.0012-0.0994 0.09013-0.37486 0.19802-0.61263 0.11729-0.25851 0.17005-0.51465 0.13108-0.63739-0.03005-0.0947-0.04221-0.14343-0.02587-0.15133zm-0.69196 2.4691c0.05868 0.0234 0.10413 0.15416 0.14402 0.39661 0.19397 1.1762 0.88973 2.2467 2.6688 4.1022 1.5376 1.6037 1.6005 1.677 1.6005 1.8728 0.41768 1.0486 0.64437 2.3062 1.2888 3.2477 0.10124 0.14338 0.18396 0.28684 0.18396 0.31897-0.96104-0.50513-1.6633-1.343-2.7583-2.3212-0.27994-0.24989-0.5209-0.47081-0.75159-0.68352-0.08762-0.33441-0.25098-0.66891-0.42193-0.86297 0.066-0.14278-0.59291-1.544-1.2725-2.7031-0.51646-0.88084-0.9828-1.7506-0.9828-1.8334 0-0.0484-0.07414-0.20193-0.16483-0.34035-0.14209-0.21682-0.14672-0.28038-0.0315-0.46243 0.0737-0.11622 0.19554-0.33359 0.2706-0.48212 0.09526-0.18861 0.168-0.27258 0.22671-0.24922zm-1.0115 2.3363c0.10244 0 0.4163 0.90277 0.4163 1.1977 0 0.13096 0.06461 0.32381 0.14402 0.42867 0.07936 0.10483 0.14623 0.24584 0.14739 0.31335 0.0023 0.0674-0.03038 0.11993-0.07088 0.11645-0.06565-5e-3 -0.60822-0.2661-1.0064-0.48212-0.18547-0.10059-0.14838-0.43465 0.10126-0.91417 0.10636-0.20422 0.19296-0.43598 0.19296-0.51532 0-0.0794 0.03402-0.14457 0.07539-0.14457zm-1.0582 3.1571c0.36163 0.0902 2.124 1.9748 2.4562 2.6598 0.11182 0.23062 0.33684 0.66209 0.499 0.95917 0.23754 0.4352 0.72018 1.4715 1.0413 2.234 0.11031 0.26191-0.12844 0.10364-0.36173-0.23965-0.25316-0.37267-0.8237-1.0121-0.90292-1.0121-0.0246 0-0.4388-0.39652-0.92092-0.88098-0.48211-0.48444-0.95172-0.88263-1.043-0.88379-0.09123-2e-3 -0.1933-0.0472-0.22671-0.10124-0.03342-0.054-0.14931-0.0984-0.25822-0.0984-0.13783 0-0.24826-0.11807-0.36285-0.39098-0.03922-0.0934-0.08549-0.17645-0.13108-0.24415-0.01365-0.11288-0.02739-0.21325-0.04051-0.36117 0.0047-2e-3 0.01034-4e-3 0.01405-8e-3 0.02613-0.0261 0.07046-0.39379 0.09789-0.81741 0.02742-0.42364 0.06617-0.78742 0.08663-0.80784 0.01089-0.0109 0.02872-0.0123 0.05287-7e-3zm-1.3682 3.8305v5.8e-4c0.02068-2e-3 0.04412-2e-3 0.06807 2e-3 0.09439 0.0182 0.17205 0.10941 0.17214 0.20251 2.62e-4 0.25273 0.18233 0.25259 0.2931 0 0.12507-0.28511 0.16671-0.27887 0.41911 0.0625 0.27851 0.3767 0.25366 0.88387-0.02982 0.60758-0.05759-0.0561-0.24148-0.0186-0.47931 0.0979-0.2122 0.10407-0.48299 0.18902-0.60194 0.18902-0.18373 0-0.21469-0.0512-0.20309-0.33923 0.0065-0.18654 0.06826-0.39403 0.13558-0.4613 0.06739-0.0674 0.12208-0.18287 0.12208-0.2571 0-0.0566 0.04224-0.0962 0.10407-0.10462zm-0.87254 0.1924c0.14895-3e-3 0.27734 0.27019 0.27734 0.67677 0 0.40184-0.03052 0.47564-0.22052 0.52656-0.52054 0.13949-1.1533-0.0245-1.443-0.37355-0.09602-0.11564-0.06664-0.16756 0.15921-0.28296 0.15235-0.0778 0.43111-0.17486 0.61939-0.21547 0.18826-0.0406 0.39327-0.1436 0.45568-0.22897 0.05008-0.0686 0.10215-0.10091 0.15189-0.10244zm0.87198 1.0694 0.09564 0.25147c0.05269 0.13841 0.09564 0.4035 0.09564 0.589 0 0.48803 0.25895 0.44605 0.34373-0.0557 0.03658-0.21604 0.10749-0.39267 0.15808-0.39267 0.1493 0 0.2841 0.4679 0.28409 0.98842 0 0.26655 0.04389 0.48438 0.09789 0.48438 0.05672 0 0.09789-0.30909 0.09789-0.73078 0-0.67024 0.09847-0.97974 0.23909-0.75215 0.03092 0.0501 0.08485 0.49411 0.11983 0.98674 0.04137 0.58326 0.1014 0.88293 0.17158 0.85904 0.06064-0.0206 0.09934-0.22578 0.08889-0.46918-0.01089-0.23818-0.02886-0.64369-0.04051-0.90067-0.02296-0.5094 0.04884-0.66334 0.22615-0.48606 0.16085 0.16085 0.37514 2.998 0.23684 3.1363-0.10386 0.10386-0.89129-0.50849-1.3243-1.0295-0.28056-0.33758-0.57016-0.61376-0.64357-0.61376-0.17414 0-0.76443-0.6723-0.69252-0.78873 0.07762-0.1256-0.24096-0.58563-0.40561-0.58563-0.18622 0-0.16707 0.26514 0.05401 0.75216 0.13219 0.29118 0.33962 0.50708 0.72008 0.75046 0.29384 0.18797 0.63302 0.50152 0.75384 0.69702 0.12083 0.1955 0.30351 0.40103 0.40674 0.45624 0.1032 0.0552 0.1877 0.17681 0.18677 0.26947-0.0023 0.24396-0.51145 0.7831-0.80953 0.85791-0.1404 0.0353-0.33137 0.14892-0.42474 0.25203-0.0934 0.10309-0.22631 0.18734-0.29591 0.18734-0.15657 0-0.80653 0.37441-1.0711 0.61713-0.10799 0.0991-0.43933 0.31185-0.7364 0.47312h-5.76e-4c-0.63468 0.34458-1.5502 0.44232-2.2694 0.2419-0.54565-0.15207-1.467-0.64032-1.533-0.81235-0.02613-0.0681-0.19244-0.282-0.36904-0.47479-0.1766-0.1928-0.42207-0.54782-0.54625-0.78928l-0.22615-0.43881 0.21265-0.28804c0.11717-0.15852 0.21321-0.35154 0.21321-0.4281 0-0.0765 0.07207-0.19888 0.15977-0.27173 0.14488-0.12024 0.15375-0.0917 0.08945 0.30716-0.06619 0.41117-0.0609 0.42671 0.08269 0.24304 0.08448-0.108 0.15523-0.27044 0.15639-0.36173 0.0023-0.0912 0.04727-0.19388 0.10126-0.22729 0.0541-0.0334 0.09844-0.14662 0.09844-0.25146s0.04389-0.19015 0.09789-0.19015c0.12236 0 0.12132 0.25451-0.0034 1.1195-0.05389 0.37265-0.07244 0.70274-0.04163 0.73359 0.11065 0.11066 0.22291-0.22378 0.28972-0.86129 0.03734-0.35672 0.12538-0.78084 0.19521-0.94287 0.06978-0.16205 0.18174-0.43822 0.24866-0.61376 0.27521-0.72214 0.40285-0.12603 0.15527 0.72515-0.12917 0.44409-0.35561 2.1527-0.35329 2.6688 5.76e-4 0.12603 0.04447 0.19973 0.09901 0.16596 0.054-0.0334 0.09844-0.13715 0.09844-0.23122 0-0.22182 0.22157-0.70003 0.32516-0.70096 0.04409-2.8e-4 0.05415-0.0856 0.02137-0.18902-0.03288-0.10342-0.01409-0.21669 0.0422-0.25147 0.05628-0.0348 0.10182-0.1316 0.10182-0.21546 0-0.11147-0.05277-0.0901-0.19746 0.0794l-0.19802 0.23178 0.04332-0.24471c0.21934-1.2399 0.29105-1.5713 0.40955-1.8897 0.12575-0.33785 0.45378-0.76228 0.58901-0.76228 0.09939 0-0.06391 0.61251-0.37355 1.4019-0.16484 0.42015-0.27282 0.79098-0.23965 0.82416 0.0332 0.0332 0.08784-0.0232 0.12095-0.12545 0.1007-0.31014 0.27317-0.65459 0.5575-1.1133 0.14885-0.24013 0.27059-0.52838 0.27059-0.64077 0-0.25064 0.27596-0.66447 0.39436-0.59126 0.04746 0.0293 0.02578 0.22362-0.04781 0.43206-0.08644 0.24474-0.09965 0.41276-0.03825 0.47424 0.06183 0.0615 0.06031 0.31787-0.0034 0.72346-0.05454 0.34547-0.12689 0.91582-0.16146 1.2669-0.10926 1.11-0.13333 1.2803-0.19352 1.3777-0.09079 0.14697 0.11077 0.11221 0.23797-0.041 0.06205-0.0748 0.15594-0.74048 0.20871-1.479 0.05879-0.82331 0.15302-1.4528 0.24303-1.6269 0.08078-0.15623 0.14683-0.36637 0.14683-0.46693 0-0.10059 0.08783-0.27725 0.19577-0.39324 0.10799-0.11587 0.1969-0.26142 0.1969-0.32348 0-0.0625 0.06915-0.0865 0.15527-0.0535 0.08535 0.0329 0.17136 0.0597 0.19015 0.0597 0.05693 0-0.13451 0.60035-0.23009 0.72177-0.11321 0.14394-0.20166 0.75892-0.27172 1.8807-0.03037 0.48612-0.09251 1.0165-0.13783 1.1786-0.14638 0.5227-0.22149 1.2853-0.11589 1.1786 0.18474-0.18674 0.32631-0.88926 0.45512-2.2587 0.15843-1.6846 0.14642-1.6371 0.67564-2.6806 0.12981-0.25601 0.44362-0.3644 0.79716-0.27566 0.1542 0.0386 0.36759-0.011 0.59182-0.13614zm2.4809 1.0278c0.01262 7e-3 0.04494 0.072 0.10407 0.19915 0.07533 0.16204 0.15494 0.72507 0.17721 1.2517 0.03135 0.73956 0.0119 0.95805-0.08663 0.95805-0.09591 0-0.12734-0.24873-0.12826-1.007-5.75e-4 -0.55364-0.02385-1.1167-0.05063-1.2517-0.02094-0.10549-0.02786-0.15615-0.01575-0.15021zm-3.7 1.245c-0.01633-0.0128-0.08577 0.29085-0.26384 1.0779-0.10549 0.46582-0.19184 1.0288-0.19184 1.2517 0 0.2771 0.04275 0.40562 0.13445 0.40562 0.09983 0 0.15078-0.24523 0.19915-0.95749 0.03571-0.52662 0.08323-1.1785 0.10576-1.4486 0.01656-0.19953 0.02621-0.32135 0.0163-0.3291zm4.6676 1.0812c0.0033-3e-3 9e-3 -3e-3 0.01687 0 0.01089 4e-3 0.02515 0.0164 0.04388 0.0337 0.14787 0.13722 0.40939 1.2933 0.55131 2.4365 0.06619 0.52985 0.09086 0.98081 0.05569 1.0025-0.09199 0.0568-0.61474-0.51822-0.93948-1.0334-0.55307-0.87746-0.72683-1.2726-0.72683-1.6539 0-0.36589 0.01838-0.39 0.35329-0.45287 0.19457-0.0365 0.37546-0.0447 0.40167-0.0186 0.08045 0.0804 0.22271 0.78229 0.22503 1.1133 0.0012 0.17236 0.05232 0.34462 0.11364 0.38255 0.12524 0.0774 0.07106-1.3264-0.0647-1.6776-0.03013-0.078-0.04032-0.1215-0.03038-0.13221zm0.6402 0.77015c0.11495 0 0.32516 0.57814 0.32516 0.89337 0 0.13268 0.07687 0.3508 0.17046 0.48436 0.12694 0.181 0.17975 0.49851 0.20759 1.2489 0.02221 0.59855-0.0012 1.007-0.05682 1.007-0.16597 0-0.32059-0.48625-0.32291-1.0109-0.0012-0.48205-0.21065-1.9186-0.34992-2.4022-0.03495-0.12157-0.02298-0.22053 0.02644-0.22053zm-10.941 0.57664c0.07969-0.0164 0.19686 0.0423 0.34992 0.17664 0.17068 0.14977 0.30997 0.33056 0.30997 0.40167 0 0.0711-0.16538 0.29992-0.36792 0.508-0.20255 0.20811-0.44752 0.47283-0.54344 0.58901-0.09602 0.11618-0.21693 0.18492-0.26947 0.15245-0.05258-0.0324-0.0962 0.0317-0.0962 0.14289h5.77e-4c0 0.11426-0.06407 0.20253-0.14739 0.20253-0.18627 0-0.18688-0.10701-0.0028-0.34992 0.07936-0.10483 0.14623-0.25028 0.14739-0.32347 0.0023-0.0732 0.11362-0.35279 0.24866-0.62163 0.13497-0.26886 0.24605-0.54054 0.24697-0.60364 0.0023-0.16634 0.0441-0.25809 0.12376-0.27453zm7.9204 0.11082c0.0065-5e-3 0.0123-7e-3 0.01351 0 0.09123 0.47566-0.04453 1.4787-0.3426 2.5344-0.20004 0.70859-0.29702 1.5904-0.17496 1.5904 0.13295 0 0.21659-0.24652 0.21659-0.64133 0-0.18199 0.07151-0.58802 0.15921-0.90123 0.45614-1.627 0.53329-1.9621 0.49675-2.1648-0.06064-0.33651 0.20152-0.27138 0.27622 0.0686 0.0811 0.36918-0.21099 2.1598-0.45737 2.8038-0.26092 0.68189-0.385 1.3446-0.24247 1.2978 0.18667-0.0613 0.94568-3.3419 0.94568-4.0876 0-0.22107 0.04692-0.40223 0.10407-0.40223 0.05694 0 0.0813 0.0378 0.05288 0.0838-0.02842 0.0461 0.03914 0.25583 0.15077 0.46637 0.21591 0.40715 0.27185 1.278 0.14458 2.2492-0.05127 0.39197-0.04312 0.44248 0.03994 0.25203 0.05715-0.13121 0.13088-0.4957 0.16371-0.8101 0.03299-0.31438 0.09093-0.57157 0.12939-0.57157 0.03843 0 0.19487 0.11541 0.3471 0.25654 0.15225 0.14108 0.41175 0.30408 0.57719 0.36173 0.48042 0.16748 0.87941 0.8015 0.52431 0.83315-0.31004 0.0276-1.1924 0.41073-1.2714 0.55188-0.04834 0.0864-0.14106 0.15751-0.2059 0.15751-0.06488 2.9e-4 -0.40054 0.19572-0.74596 0.43375-0.34543 0.23803-0.68198 0.4119-0.74821 0.38649-0.06619-0.0254-0.14472 0.0171-0.1744 0.0945h-5.76e-4c-0.20289 0.52875-1.3856 0.21398-2.2857-0.6087-0.29692-0.27137-0.75451-0.61009-1.0166-0.75271-0.62553-0.34048-0.85863-0.67509-0.94343-1.3535l-0.06976-0.55695h0.41067c0.58442 0 0.80832 0.14072 0.72852 0.45849-0.09591 0.38225 0.18398 0.24337 0.29591-0.14682 0.04921-0.17132 0.14903-0.31167 0.22221-0.31167 0.07316 0 0.13333-0.0697 0.13333-0.15527 0-0.0856 0.05506-0.13704 0.12264-0.1142 0.13352 0.0453 0.16077 0.57858 0.06076 1.1859-0.11721 0.71224 0.15288 0.19317 0.30885-0.59352 0.1463-0.73792 0.34557-1.0339 0.40842-0.60701 0.02809 0.19019 0.05702 0.17013 0.22896-0.15807 0.10832-0.2069 0.24629-0.39298 0.30604-0.41293 0.14286-0.0476 0.23398 0.53943 0.18284 1.1797-0.02209 0.28053-0.01924 0.44393 0.0073 0.36286 0.02667-0.0811 0.08082-0.49846 0.11983-0.92823 0.06608-0.72611 0.08879-0.78588 0.31616-0.83936 0.1346-0.0317 0.29964-0.16658 0.36679-0.29927 0.05029-0.0995 0.09618-0.17269 0.11814-0.19184zm-6.9454 0.67733c0.1203-0.0274 0.13106 0.0847-0.0557 0.3561-0.26854 0.39068-1.1191 3.1486-1.0059 3.2618 0.06369 0.0637 0.35318-0.64575 0.35667-0.87309 0.0033-0.26824 0.27677-1.0739 0.51756-1.5274 0.09188-0.17286 0.16652-0.37522 0.16652-0.45061 0-0.0753 0.07762-0.20422 0.17215-0.28635 0.14863-0.1291 0.21454-0.13138 0.49056-0.0152 0.33717 0.14186 0.37597 0.22737 0.22784 0.50351-0.4471 0.83333-1.0128 2.8065-0.97774 3.4114l0.01239 0.19633 0.04388-0.19633c0.34805-1.5482 0.50508-2.0332 0.89673-2.774 0.27194-0.51438 0.31335-0.62169 0.31335-0.80953 0-0.22564 0.12277-0.25657 0.27735-0.0703 0.126 0.15189 0.06376 0.76951-0.11476 1.1336-0.07043 0.14369-0.13808 0.41027-0.14852 0.59182-0.01089 0.18156-0.06207 0.41065-0.11476 0.50912-0.11819 0.22161-0.12679 0.6149-0.01127 0.54345 0.0467-0.0289 0.11226-0.2192 0.14514-0.42306 0.07098-0.44031 0.29338-1.2357 0.46018-1.6472 0.18466-0.45569 0.23205-0.10581 0.0557 0.4118-0.08589 0.25181-0.15583 0.62783-0.15583 0.83598 0 0.20816-0.06691 0.53743-0.14795 0.73134-0.08099 0.19391-0.14739 0.44096-0.14739 0.54906 0 0.16355 0.02477 0.17595 0.14739 0.0742 0.08099-0.0673 0.14795-0.24223 0.14795-0.38874s0.08341-0.52773 0.18621-0.84723c0.10277-0.31951 0.21732-0.72407 0.25372-0.89898 0.0786-0.37795 0.22691-0.50194 0.30322-0.25315 0.03005 0.0979 0.12446 0.32146 0.20984 0.49562 0.12039 0.24588 0.12919 0.34746 0.03937 0.45568-0.06368 0.0766-0.20434 0.46395-0.31279 0.86129-0.30832 1.1294-0.3097 1.1364-0.20252 0.96818 0.12149-0.19081 0.50462-1.3292 0.50462-1.4992 0-0.30253 0.20242-0.33498 0.66664-0.1069 0.2546 0.12513 0.57082 0.31283 0.70321 0.41687l0.24078 0.18902-0.36342 0.40223c-0.1999 0.22129-0.36398 0.43991-0.36398 0.48549 0 0.0456-0.07656 0.17703-0.17102 0.29198-0.09449 0.11495-0.28294 0.36294-0.41799 0.55187-0.13907 0.19458-0.42674 0.41976-0.66383 0.51869l-0.41855 0.17439 0.46749 0.049 0.46806 0.0495-0.03151 0.58901c-0.01719 0.32407-0.09416 0.71795-0.17158 0.87479-0.17961 0.36381-0.17726 0.3789 0.03769 0.26384 0.12292-0.0657 0.23224-0.34658 0.35217-0.90461 0.10288-0.47879 0.26746-0.93347 0.40336-1.1116 0.12639-0.16572 0.22956-0.33811 0.22896-0.38311-5.76e-4 -0.045 0.02526-0.10745 0.05682-0.13896 0.08622-0.0862 0.06237 1.11-0.03713 1.8824-0.05759 0.44619-0.14086 0.70882-0.24247 0.76565-0.16355 0.0916-0.21463 0.37186-0.06807 0.37186 0.13228 0 0.28354-0.21766 0.35836-0.51587 0.03723-0.14823 0.10703-0.27004 0.15527-0.27004 0.14103 0 0.10056 0.40761-0.08495 0.85848h-5.75e-4c-0.09449 0.22993-0.21543 0.41146-0.26947 0.40449-0.36135-0.0479-0.54046-0.11383-0.64302-0.23741-0.06445-0.0777-0.19445-0.1412-0.28747-0.1412-0.09297 0-0.24876-0.0889-0.34654-0.1969-0.09776-0.10799-0.22606-0.19622-0.28522-0.19633-0.17884-2.7e-4 -0.96024-1.4138-0.83316-1.5071 0.02079-0.0152 0.19294-0.12364 0.38198-0.24077 0.2822-0.17481 0.30668-0.21374 0.13614-0.2149-0.11425-8.7e-4 -0.32213 0.0885-0.4613 0.19803-0.50368 0.39623-0.87676 0.48923-1.5358 0.3831-0.68683-0.11066-1.2563-0.42649-1.5763-0.87592-0.2263-0.31784-0.22208-0.35497 0.10239-1.1302 0.04529-0.108 0.10202-0.351 0.12714-0.54006 0.21389-1.6068 0.62688-2.7479 1.2511-3.4575 0.25198-0.28646 0.48219-0.45354 0.60251-0.48099zm8.3918 3.5037c0.11984-0.0121 0.13164 0.0956 0.13164 0.64021 0 0.6639 0.05359 0.78234 0.2599 0.57606 0.19269-0.19265 0.30812 0.13524 0.34373 0.97605 0.02111 0.50022-0.0042 0.83862-0.0647 0.85961-0.05465 0.019-0.25607-0.0716-0.4478-0.20196-0.35982-0.24451-0.97493-1.2544-0.97493-1.6005 0-0.10375-0.06238-0.27386-0.13895-0.37861-0.14773-0.20203-0.04837-0.43655 0.18508-0.43655 0.06597 0 0.19569-0.0835 0.2886-0.1862 0.09286-0.10266 0.25497-0.20946 0.35948-0.23684 0.02177-5e-3 0.04086-0.01 0.05795-0.0113zm-2.5951 1.0599h5.76e-4c0.04071-0.0119 0.09651 0.0192 0.19634 0.0855 0.20042 0.13268 0.21442 0.21024 0.18902 1.0177-0.03353 1.0678-0.17684 2.1464-0.32066 2.4151-0.08339 0.15603-0.07855 0.19049 0.02195 0.15696 0.13654-0.0455 0.28545-0.71008 0.50125-2.2379 0.11552-0.81779 0.1552-0.9333 0.3246-0.9333 0.13782 0 0.20287 0.0774 0.22503 0.27002 0.03908 0.34019 0.19057 0.34978 0.27397 0.0174 0.07914-0.31543 0.23658-0.18223 0.24922 0.21097 0.0044 0.15788-0.02365 0.59683-0.06413 0.97492-0.05944 0.55548-0.05004 0.66432 0.0512 0.56933 0.06891-0.0647 0.15249-0.39542 0.18508-0.73584l0.05851-0.61939 0.36848 0.48043c0.48933 0.63859 0.48032 0.76632-0.0737 1.0402-0.30105 0.14885-1.3357 0.86637-1.4244 0.98787-0.02699 0.037-0.15919 0.0998-0.29422 0.13952-0.13502 0.0396-0.47424 0.18216-0.75384 0.31616-0.27957 0.13394-0.61144 0.23001-0.73696 0.21377-0.12552-0.0162-0.27234-8.6e-4 -0.32685 0.0327-0.1153 0.072-0.73619-0.16855-0.73527-0.28466 2.89e-4 -0.0431 0.06028-0.19173 0.13277-0.33078 0.07261-0.13907 0.1858-0.69141 0.25203-1.2275 0.19327-1.5643 0.24756-1.8478 0.3516-1.8536 0.1764-0.01 0.16106 0.88865-0.02814 1.6528-0.1019 0.41128-0.1476 0.74822-0.10126 0.74822 0.17858 0 0.30735-0.54143 0.54175-2.2795 0.05193-0.38507 0.24598-0.62796 0.41742-0.52206 0.12016 0.0742 0.12617 1.0578 0.01239 2.1422-0.07784 0.74158-0.18343 1.0385-0.27622 0.77802-0.06586-0.18475-0.32066 0.0477-0.32066 0.29254 0 0.10495-0.04233 0.26908-0.09338 0.36454-0.08491 0.15868-0.06354 0.1643 0.24359 0.068 0.49136-0.15379 0.4884-0.1412 0.70152-2.8083 0.03233-0.40511 0.09814-0.84013 0.1457-0.96762 0.04006-0.10712 0.06505-0.16254 0.10576-0.17439zm-1.6528 0.20759c0.03553 0.021 0.0585 0.10755 0.0585 0.23572 0 0.16204-0.04445 0.32212-0.09844 0.35553-0.05715 0.0354-0.09789-0.0633-0.09789-0.23459 0-0.16203 0.04389-0.321 0.09789-0.35441 0.01426-0.01 0.02817-0.01 0.03994-2e-3zm5.4732 0.2644c0.0065 0.0174 0.02518 0.46293 0.04106 0.98956h5.77e-4c0.01558 0.52664 0.01699 0.95748 0.0034 0.95748-0.09591 0-0.25003-0.54043-0.30153-1.0571-0.04834-0.48529-0.02883-0.64833 0.09113-0.76846 0.08383-0.0838 0.15843-0.13891 0.1654-0.12152zm-5.6499 0.54738h5.76e-4c0.02146 3e-3 0.02494 0.11058 0.01745 0.34373h-5.76e-4c-0.0076 0.25617-0.04416 0.51192-0.07932 0.56875-0.10135 0.16438-0.09932-0.56863 0.0023-0.81347 0.02742-0.0664 0.04679-0.10124 0.05964-0.099zm3.0902 0.17383c-0.07479-0.0274-0.18344 0.18517-0.19634 0.41517-0.01089 0.18125 0.07032 0.14973 0.19071-0.0753 0.05846-0.10915 0.07431-0.24992 0.03545-0.31279-0.0098-0.0144-0.01904-0.0231-0.02982-0.027zm-9.2531 0.17609c0.05585 2e-3 0.13864 0.0434 0.23628 0.12883 0.3515 0.30769 1.2908 0.67495 1.4599 0.57044 0.0479-0.0296 0.1303 0.0586 0.18283 0.19689 0.05258 0.13833 0.13729 0.25204 0.18902 0.25204 0.17212 0 0.21729 0.37726 0.11364 0.95298-0.05628 0.31311-0.12715 0.79036-0.15696 1.0604-0.15731 1.4232-0.16996 1.4616-0.53669 1.6388-0.18904 0.0913-0.61383 0.19547-0.94398 0.23178l-0.60026 0.0664-0.11195-0.32065c-0.06151-0.17623-0.11139-0.8436-0.11139-1.4829 0-1.0669 0.04238-1.4106 0.3066-2.4629 0.06532-0.26046 0.05661-0.42091-0.03038-0.56031-0.109-0.17456-0.08949-0.27544 0.0034-0.27117zm-0.45455 0.0135c0.04757 8e-3 0.07651 0.15281 0.07651 0.3921 0 0.24625-0.04434 0.44781-0.09844 0.44781-0.05411 0-0.09789-0.17418-0.09789-0.38705 0-0.21286 0.04378-0.4144 0.09789-0.4478 0.0076-4e-3 0.01518-7e-3 0.02195-5e-3zm3.3428 0.96366c0.13337 0.0456 0.11441 0.63811-0.03263 1.025-0.04757 0.12417-0.04806 0.22615-0.0017 0.22615 0.04616 0 0.14102-0.14344 0.21096-0.31898 0.06978-0.17557 0.13809-0.33463 0.15189-0.35328 0.05421-0.0729 0.62269 0.63176 0.62501 0.77521 0.0012 0.0837-0.1845 0.35412-0.41405 0.60025-0.22955 0.24611-0.55263 0.61738-0.7184 0.82473-0.3863 0.48321-0.48921 0.3465-0.4478-0.59464 0.04551-1.0326 0.39817-2.2626 0.6267-2.1844zm-1.1527 0.0799c-0.01486-8.6e-4 -0.03495 3e-3 -0.06019 0.0112-0.14283 0.0467-0.35741 0.86751-0.37411 1.43-0.01731 0.58244 0.14583 0.33039 0.25428-0.39267 0.05868-0.3916 0.14063-0.79601 0.18227-0.89785 0.04171-0.10189 0.04305-0.14768-0.0017-0.15077zm8.0903 0.66833c0.01774-2e-3 0.04017 0.01 0.06695 0.036 0.03179 0.0315 0.04144 0.16019 0.02249 0.28635l-0.03431 0.22953-0.06807-0.24079c-0.05095-0.18126-0.04051-0.30554 0.01293-0.31109zm0.63289 0.17046c0.03843 0.0144 0.06413 0.10429 0.06413 0.27847 0 0.32371-0.4532 2.0311-0.55863 2.1046-0.04812 0.0335-0.14833 0.24861-0.22221 0.47818-0.22272 0.69185-0.29688 0.46825-0.08157-0.24583 0.34314-1.138 0.4477-1.5284 0.56594-2.1124 0.06935-0.34293 0.16825-0.52695 0.23234-0.50294zm-1.0948 0.23402c0.12152 0 0.03616 0.97992-0.09338 1.0728-0.11728 0.084-0.40682 1.5915-0.29872 1.5555 0.11228-0.0374 0.42136-0.91402 0.57157-1.6219 0.10892-0.5133 0.29197-0.70515 0.29197-0.30603 0 0.19314-0.14532 0.81518-0.27228 1.1656-0.02939 0.081-0.04639 0.19436-0.03713 0.2526 0.0098 0.0582-0.05342 0.32368-0.13783 0.58957-0.08448 0.26589-0.19297 0.60862-0.24134 0.76171-0.07261 0.23007-0.06458 0.25906 0.04614 0.16709 0.09221-0.0763 0.15372-0.0788 0.19746-8e-3 0.03505 0.0567 0.02238 0.10298-0.02814 0.10298-0.09221 0-0.23895 0.47585-0.25484 0.82585-0.015 0.33285-0.23839 0.27708-0.43374-0.10799-0.10451-0.2061-0.243-0.6396-0.30772-0.96368-0.06477-0.32408-0.15794-0.77437-0.20759-1.0008-0.13024-0.5937-0.11366-0.91416 0.04726-0.91416 0.07751 0 0.17476-0.15687 0.22278-0.36005 0.04703-0.19839 0.14615-0.38179 0.22109-0.40673 0.11136-0.0371 0.1256 0.0852 0.07651 0.67057-0.0847 1.01 0.10058 0.75144 0.28578-0.39885 0.15826-0.98331 0.18864-1.0762 0.35217-1.0762zm-1.4154 0.78873c0.12323-1e-3 0.2505 0.0667 0.28297 0.15133 0.03244 0.0847 0.0097 0.20372-0.05232 0.26496-0.08285 0.0828-0.11139 0.0696-0.11139-0.0512 0-0.0892-0.077-0.20705-0.17158-0.26216-0.15298-0.0891-0.14723-0.1007 0.05232-0.10298zm-3.6944 0.0957c0.12038 0-5.76e-4 0.7491-0.21434 1.3254-0.10004 0.27006-0.21134 0.6458-0.24753 0.83484-0.11777 0.61607 0.11528 0.19471 0.48324-0.87197 0.31178-0.90382 0.53527-1.275 0.7724-1.2855 0.17955-8e-3 -0.01688 1.2061-0.38592 2.3836-0.13214 0.4216-0.22091 0.8193-0.1969 0.8838 0.07914 0.21203 0.35486-0.64231 0.87929-2.7228 0.06695-0.26566 0.18125-0.50199 0.25316-0.52601 0.23273-0.0776 0.01383 1.865-0.31898 2.8308-0.0737 0.21349-0.10516 0.38817-0.07032 0.38817 0.09199 0 0.40535-0.75566 0.46299-1.1161 0.1491-0.9327 0.5305-1.8283 0.5305-1.2455 0 0.26942-0.18865 1.1534-0.35273 1.6528-0.17315 0.52774-0.1723 0.56476 0.01012 0.41405 0.08099-0.0673 0.14739-0.18436 0.14739-0.26103 0-0.0765 0.09715-0.43591 0.21659-0.79829 0.22383-0.67935 0.24138-0.73831 0.26216-0.90461 0.02198-0.17655 0.2921-0.10309 0.35554 0.0968 0.03375 0.10734 0.03619 0.38405 0.0045 0.61432-0.11994 0.88051-0.13492 1.156-0.05964 1.1094 0.043-0.0266 0.10714-0.23674 0.14289-0.46749 0.03571-0.23076 0.11188-0.5657 0.16933-0.74371 0.08481-0.26275 0.13075-0.30186 0.24303-0.20871 0.07599 0.0631 0.1411 0.29689 0.14458 0.51981 0.0098 0.53461 0.0961 0.73366 0.3848 0.8776 0.13148 0.0655 0.30509 0.29148 0.38536 0.50237 0.13951 0.36648 0.13667 0.38948-0.06976 0.52656-0.11874 0.0787-0.21659 0.22713-0.21659 0.32967 0 0.20985-0.38003 0.85252-0.62445 1.0554-0.0884 0.0733-0.16089 0.19398-0.16089 0.26833 0 0.0744-0.04295 0.13558-0.09564 0.13558s-0.16877 0.14344-0.25878 0.31898c-0.08992 0.17553-0.20007 0.34308-0.24416 0.37186-0.04409 0.0287-0.14056 0.19623-0.2149 0.37297-0.15269 0.36316-0.21715 0.32086-0.49787-0.32853-0.20104-0.46544-0.2001-2.1758 0.0012-2.1378 0.06238 0.0119 0.13708-0.0405 0.16596-0.1159 0.04289-0.11191-0.0017-0.11804-0.24303-0.0337-0.28017 0.0976-0.75436 0.0736-1.412-0.0714-0.48897-0.10777-0.52356-0.11796-1.1291-0.33698-0.18903-0.0685-0.46158-0.14582-0.60588-0.17214-0.55166-0.1007-0.98262-0.95755-0.76059-1.5116 0.11635-0.29034 0.63693-0.71451 0.77353-0.63007 0.04964 0.0306 0.21212-0.0973 0.36117-0.2841 0.14901-0.18674 0.30111-0.32066 0.33754-0.29815 0.03636 0.0225 0.0051 0.29537-0.06751 0.607-0.07326 0.31162-0.13256 0.63282-0.13164 0.7139 0.0023 0.23177 0.21437-0.18263 0.29985-0.5862 0.16205-0.76537 0.5431-1.4756 0.79209-1.4756zm5.7269 2.0646c0.05236-0.01 0.10013 0.0581 0.10013 0.20985 0 0.11704-0.0588 0.23263-0.13051 0.25652-0.09134 0.0304-0.12039-0.0344-0.09789-0.21546 0.01927-0.15513 0.07598-0.24166 0.12827-0.25091zm-8.9701 0.0754c0.10669 0.0123 0.18013 0.47175 0.18115 1.1797 0.0012 0.93459 0.14224 1.741 0.32347 1.8531 0.06717 0.0415 0.07957-0.0674 0.03657-0.32124-0.12735-0.75454-0.18782-1.7899-0.11927-2.0629l0.06976-0.27791 0.16483 0.3606c0.09057 0.19854 0.31894 0.46518 0.508 0.59182 0.38896 0.26057 0.41498 0.45679 0.16933 1.2995-0.23348 0.801-0.28652 0.93331-0.37073 0.93331-0.04409 0-0.11086 0.099-0.14852 0.22053-0.03767 0.12153-0.15416 0.34257-0.25878 0.49111-0.10462 0.14853-0.22847 0.27004-0.2751 0.27004-0.17146 0-0.72502-0.94745-1.0295-1.7625-0.19806-0.53016-0.56239-2.4611-0.49675-2.6322 0.07533-0.19635 0.24443-0.14209 0.36173 0.11532 0.06368 0.13987 0.16413 0.21617 0.24359 0.18565 0.09732-0.0373 0.13558 0.0355 0.13558 0.26104 0 0.46039 0.22431 0.32216 0.32685-0.20141 0.04681-0.23886 0.10531-0.45503 0.12995-0.48043 0.01645-0.0171 0.03269-0.0248 0.04782-0.0231zm8.7862 0.51137c0.02123 0 0.03826 0.0658 0.03826 0.14682 0 0.081-0.04215 0.1474-0.09452 0.1474-0.05236 0-0.07051-0.0663-0.03938-0.1474 0.03113-0.081 0.07441-0.14682 0.09564-0.14682zm-2.0511 0.24922v5.7e-4c-0.03865 5e-3 -0.07871 0.0609-0.10745 0.17496-0.0418 0.16626-0.1819 0.26481-0.52487 0.37129-0.45349 0.14084-0.47106 0.16107-0.58113 0.65652-0.09025 0.40755-0.08802 0.51137 0.01181 0.51137 0.12209 0 0.38691-0.51606 0.39154-0.76171 0.0012-0.0682 0.1243-0.18716 0.27285-0.26441 0.25302-0.13154 0.27003-0.1274 0.27003 0.0641 0 0.24227-0.39242 1.0604-0.50856 1.0604-0.04442 0-0.08101 0.0507-0.08101 0.11251 0 0.0619-0.14772 0.33811-0.32798 0.61376-0.18025 0.27565-0.35519 0.57829-0.3893 0.67283-0.11077 0.30706 0.13382 0.18115 0.28635-0.14739 0.20343-0.43814 0.33635-0.65603 0.65145-1.0661 0.14853-0.1933 0.27059-0.40284 0.27059-0.46524s0.03356-0.11365 0.07482-0.11365c0.12126 0 0.41574-0.76167 0.41574-1.0751 0-0.22497-0.06045-0.35406-0.12489-0.34485zm-1.124 0.18058c-0.01089 0.0109-0.01685 0.0446-0.01913 0.10179h-5.76e-4c-0.0044 0.10342 0.01875 0.16143 0.0512 0.12883 0.03299-0.0325 0.03706-0.11703 0.0078-0.1879-0.0153-0.0379-0.02913-0.0514-0.03938-0.0428zm-3.6972 0.6902c0.02459 5e-3 0.03401 0.0787 0.03488 0.23008 8.64e-4 0.17554-0.04276 0.31953-0.09676 0.31953-0.12475 0-0.12475-0.2981 0-0.49111 0.02711-0.0419 0.04707-0.0622 0.06188-0.0585zm3.4851 0.0585c-0.054 0-0.12581 0.0439-0.1592 0.0979-0.03342 0.0541-0.01631 0.0979 0.03769 0.0979s0.1258-0.0439 0.15921-0.0979c0.03342-0.0541 0.0163-0.0979-0.03769-0.0979zm-1.8126 0.508c-0.0098-1e-3 -0.02177 5e-3 -0.03657 0.0202-0.13029 0.13027-0.31186 0.98903-0.36567 1.7304l-0.05344 0.73641 0.23853-1.0801c0.21824-0.9869 0.28364-1.3987 0.21715-1.407zm3.6376 0.11982c0.01774 5e-3 0.02558 0.0322 0.02644 0.0771 0.0023 0.0907-0.05242 0.2253-0.11983 0.29873-0.19428 0.21141-0.36792 0.55068-0.36792 0.71895 0 0.0845-0.04456 0.12797-0.09844 0.0945-0.054-0.0334-0.09845 0.0149-0.09845 0.10799 0 0.0932-0.06453 0.23957-0.14402 0.32517-0.07947 0.0856-0.27705 0.29925-0.4388 0.4748-0.25633 0.27846-0.49731 0.41149-0.49731 0.2751 0-0.0589 0.57391-0.92115 0.82866-1.245 0.11159-0.14174 0.29087-0.38099 0.39886-0.53219 0.31486-0.44063 0.45772-0.61241 0.51081-0.59519z"/></g></svg>
