<?xml version="1.0" encoding="UTF-8"?>
<svg width="172.7mm" height="51.715mm" version="1.1" viewBox="0 0 172.7 51.715" xmlns="http://www.w3.org/2000/svg"><g><g transform="matrix(1.8086,0,0,1.8086,-87.952,-466.14)"><g transform="matrix(.55005 0 0 .55005 64.13 125.18)"><g stroke-width="1.5949"><path d="m101.74 265.83c-0.76785-4.0782-0.48117-8.2917-0.52253-12.441-0.028-2.8066 0.0792-8.0338 1.6367-9.542 1.1682-1.1313 1.9973-1.0926 4.2808-1.1917 3.2657-0.14164 5.213 1.5934 5.7982 4.3906 0.38682 1.849 0.47686 3.8303 0.52477 5.7081 0.0777 3.0444 0.24701 6.0005 0.28371 9.0424 0.0261 2.1644 0.0559 4.5606-1.206 6.4092-1.0478 1.5348-2.2232 1.6729-3.9369 1.7805-2.3181 0.1455-6.1347-0.31111-6.8587-4.1565zm8.8358-2.3024c0-3.0915-7e-3 -9.1348-0.21887-11.712-0.13975-1.6985 0.1422-4.0318-1.0334-5.365-0.92898-1.0534-3.2712-0.87274-4.2398 0.0224-1.1943 1.1038-0.81768 4.3216-0.81872 4.8198-6e-3 3.1165-0.56428 12.982 1.1426 14.265 2.8914 2.1734 5.1682 0.41634 5.1682-2.0302z"/><path d="m45.663 269.99c-1.2996-0.0409-5.1225 0.22137-5.5111-0.11905-0.25313-0.22176-0.28333-11.912-0.29185-13.913-0.02611-6.1323-0.42214-13.021-0.03794-13.157 0.69534-0.24507 4.92-0.28412 5.9736-0.0189 1.5834 0.3986 2.4436 1.084 3.4714 2.441 1.5621 2.0626 1.4258 5.0427 1.7165 7.4861 0.369 3.101 0.32298 5.8841 0.4471 9.0084 0.0888 2.2355-0.0651 5.4656-1.277 6.6706-0.70772 0.70367-2.5441 1.6644-4.4907 1.6013zm0.53128-3.0417c1.0569-0.16068 2.4318-2.2285 2.4912-3.7614 0.17423-4.4978-0.27717-8.3303-0.74763-14.486-0.29288-3.8321-4.7433-3.08-4.9691-2.6949-0.33113 0.56488-0.13073 4.7576-0.0855 8.9421 0.0236 2.1832 0.0912 11.493 0.49893 11.997 0.88616 0.33433 1.8927 0.14379 2.8121 4e-3z"/><path d="m81.99 269.72c-2.1138-0.11126-4.0018-1.3289-4.6547-2.4732-0.47246-0.68171 0.69266-3.2754 1.6044-2.5791 0.32518 0.24833 4.5151 3.8129 6.0968-0.0842 0.74986-1.8476-1.8889-5.71-3.2569-7.5613-1.8273-2.473-3.3286-4.0693-3.9264-7.1494-0.28543-1.4706-0.46731-2.5156 0.12426-3.9212 0.73944-1.757 3.0356-2.7963 5.0533-3.1317 2.5231-0.41944 3.8841 0.37321 4.2772 0.87888 0.49702 0.63934-0.2321 2.832-0.5995 2.8071-1.1315-0.0767-2.3641-1.7155-4.8122-0.43361-1.3811 0.72317-1.4431 1.8512-1.0314 3.1818 0.56759 1.8346 1.5329 3.5739 3.1774 5.8403 1.2338 1.7005 3.1044 4.0783 3.7771 6.0738 0.47738 1.4163 0.59746 4.2611-0.1567 5.5626-1.3442 2.3199-3.4855 3.1044-5.6726 2.9893z"/><path d="m93.802 269.78c0-0.61109 0.0214-12.136-0.20603-16.606-0.12133-2.297 0.0753-4.9897-0.34245-7.2551-0.8697 0.0271-2.8242 0.38281-3.6442 0.0807-0.46449-0.17112-0.78241-3.3111 0.13507-3.2082 2.4066 0.26974 8.0766-0.53532 10.08 0.0547 0.49286 0.20149 0.46437 2.2106 0.11075 2.586-0.37862 0.40189-3.0157-2e-3 -3.5453 0.24051-0.33806 0.15468-0.0181 1.4213-2.1e-4 2.4288 0.0304 1.7121 1.0476 20.979 0.9363 21.651-0.0561 0.3385-3.5243 0.23939-3.5243 0.0278z"/></g><path d="m10.124 269.8c-2.0594-0.25895-2.759-0.96972-4.0614-2.91-0.99619-1.4842-0.97205-2.7335-1.0743-4.5415-0.20103-3.3284-0.3097-6.6632-0.47815-9.9941-0.0795-2.7709-0.22104-8.7706 0.28194-9.3704 0.29435-0.35097 3.24-0.54955 3.3862 0.0254 0.16365 0.64363-0.0187 5.0661-0.0441 7.3638 0.0182 2.7611-0.0426 6.2079 0.31101 8.9464 0.12296 1.6755 0.17713 3.7351 0.6992 5.3362 0.70616 1.1891 1.7537 1.6511 3.0748 1.2368 1.5715-0.24327 2.2799-2.9688 2.2797-4.2268 0.27997-3.6697 0.48992-6.1564 0.3957-9.8312-0.17478-2.2517-0.43286-8.513 0.03411-8.7598s2.243-0.72027 3.0954-0.23357c0.56358 0.32182-0.15286 8.1718 0.04599 10.851 0.05552 3.1844 0.20263 6.3829-0.05933 9.5596-1.1711 5.1592-4.5655 6.9662-7.8868 6.5486z" stroke-width="1.5763"/><g stroke-width="1.5949"><path d="m21.289 269.67c-0.42641-0.30689-0.08729-2.1999-0.13073-3.705-0.10558-3.6588-0.05081-7.9794-0.02557-11.455 0.02276-3.134-0.3021-11.225 0.0023-11.559 0.3705-0.40689 0.46489-0.3596 2.0008-0.1423 0.65955 0.0933 1.3415 2.0049 2.0009 3.2556 1.3171 2.4981 2.5625 4.9424 3.944 7.4112 1.312 2.3447 2.8115 4.5588 4.1693 6.8636 0.35006 0.59421 1.0887 2.6259 1.1017 1.1534 0.03503-3.9648-0.63906-17.66-0.30785-18.577 0.18365-0.48829 2.2038-0.46151 2.8168-0.16159 0.40127 0.19633 0.37093 6.0723 0.41835 7.8987 0.16628 6.4043 1.2254 18.687 0.89157 19.18-0.30466 0.44999-2.4984 0.24801-2.8716 0.0249-1.8542-3.1286-4.0687-6.4482-5.9092-9.2505-1.321-2.0338-2.4563-4.006-3.5242-6.1869-0.43231-1.0824-1.8135-3.2048-1.6998-1.6785 0.05641 2.2107 0.22519 5.9922 0.23932 8.216 0.01729 2.7212 0.32998 8.4867-0.08606 8.8025-1.1777 0.0516-1.9926 0.52097-3.03-0.0894z"/><path d="m134.57 269.67c-0.5328-0.47146 0.32026-10.992-0.84121-12.821-0.92637-1.4584-2.3124-5.6738-3.0905-7.2001-1.0265-2.0137-3.4957-6.4939-2.7763-6.7505 1.2954-0.462 2.1153-0.10176 2.563-3e-3 0.5471 0.1208 1.7464 3.0158 2.2573 4.0953 1.0622 2.2443 1.2717 2.944 2.1914 5.2468 0.24828 0.62163 1.4625 0.72067 2.0134-0.23932 1.2981-2.2623 1.72-3.4423 2.837-5.7334 0.51049-1.0471 1.2428-2.9736 1.6988-3.2351 0.82797-0.47495 2.3978-0.29809 2.7208 0.0303 0.38022 0.38656-2.4466 5.4409-3.0267 6.541-0.61764 1.1714-3.3195 5.7836-3.6364 7.7792-0.52591 3.3123 0.80274 11.266 0.25676 12.142-0.99585 0.34226-2.2667 0.78875-3.1674 0.14713z"/><path d="m72.104 263.13c-0.14177-1.3096-0.17287-3.3283-0.70871-3.8602-0.96664-0.95964-4.0901-1.286-4.5853-0.50278-0.46931 0.74228 0.43324 10.638-0.1134 10.891-0.87102 0.40336-1.7503 0.33493-2.7574 0.0458-0.59436-0.1707-0.33091-4.2228-0.40817-6.2961-0.0967-2.5945-0.24629-5.1308-0.20634-7.7264 0.0602-3.9156-0.32502-12.836 0.15-12.903 2.9888-0.41919 4.9174-0.29613 7.6369 0.21683 1.7447 0.32909 3.1714 1.6807 3.5948 3.4404 0.47631 1.9795 0.7037 3.9455 0.32776 6.0653-0.29355 1.6552-0.88273 1.7825-2.0937 2.7032-1.7419 1.3244 0.49943 1.9361 1.4174 2.8267 0.70496 0.68392 0.85537 0.94217 1.1491 2.2164 0.47088 2.0426 0.52286 9.178 0.28702 9.3357-0.50006 0.33435-3.3247 0.55606-3.517 0.19544-0.33624-0.63066 0.25615-2.6838-0.17304-6.6486zm-3.098-8.287c1.8913-0.5652 2.6087-1.8169 2.7962-3.2482 0.20943-1.5984 0.40896-3.8438-0.41727-5.29-0.54872-0.96047-4.2594-1.0375-4.6463-0.77643-0.46428 0.3133-0.55194 3.1767-0.51382 4.5269 0.0436 1.5446-7.94e-4 3.1926 0.3826 4.5568 0.19112 0.68024 1.7215 0.43329 2.3985 0.23096z"/><path d="m53.419 269.79c-0.45811-0.18151-0.19821-2.2309-0.225-3.3503-0.14922-6.2347 0.16123-12.98-0.0587-19.212-5e-3 -1.277 0.0324-4.1153 0.33216-4.297 0.41447-0.25113 7.4337-0.52212 7.6053 5e-3 0.19733 0.60605 0.15118 2.2608 7e-3 2.4741-1.6945 0.45059-4.1287 0.31404-4.6813 0.51848-0.62914 0.23273-0.28317 2.7958-0.30439 4.3818-0.01421 1.0663-8e-3 3.3777 0.30287 3.5896 0.65047 0.44389 3.4029-0.35417 4.2284-0.0767 0.8849 0.29749 0.19907 2.5982-0.0322 2.6492-1.2355 0.27234-2.9558 0.089-4.2073 0.28606-0.42149 0.0663-0.24711 2.6604-0.2625 3.7764-0.02381 1.7274-0.02331 4.3175 0.14642 6.2636 0.0438 0.5022 4.8808 0.0982 5.1218 0.29606 0.49496 0.40642 0.13216 2.5789-0.0911 2.7436-1.2279 0.0748-7.4297 0.13129-7.8809-0.0475z"/><path d="m124.38 263.22c-0.14177-1.3096-0.17287-3.3283-0.70871-3.8602-0.96664-0.95964-4.0901-1.286-4.5853-0.50278-0.46931 0.74228 0.43324 10.638-0.1134 10.891-0.87102 0.40336-1.7503 0.33493-2.7574 0.0458-0.59436-0.1707-0.3309-4.2228-0.40817-6.2961-0.0967-2.5945-0.24629-5.1308-0.20634-7.7264 0.0602-3.9156-0.32502-12.836 0.15-12.903 2.9888-0.41919 4.9174-0.29613 7.6369 0.21683 1.7447 0.32909 3.1714 1.6807 3.5948 3.4404 0.47631 1.9795 0.7037 3.9455 0.32776 6.0653-0.29355 1.6552-0.88273 1.7825-2.0937 2.7032-1.7419 1.3244 0.49943 1.9361 1.4174 2.8267 0.70496 0.68392 0.85537 0.94217 1.1491 2.2164 0.47088 2.0426 0.52286 9.178 0.28702 9.3357-0.50006 0.33435-3.3247 0.55606-3.517 0.19544-0.33624-0.63066 0.25615-2.6838-0.17304-6.6486zm-3.098-8.287c1.8913-0.5652 2.6087-1.8169 2.7962-3.2482 0.20943-1.5984 0.40897-3.8438-0.41727-5.29-0.54872-0.96047-4.2594-1.0375-4.6463-0.77643-0.46428 0.3133-0.55194 3.1767-0.51382 4.5269 0.0436 1.5446-7.9e-4 3.1926 0.3826 4.5568 0.19112 0.68024 1.7216 0.43329 2.3986 0.23096z"/></g></g><g transform="matrix(.53834 0 0 .53834 65.167 128.37)"><g transform="matrix(1.1841,0,0,1.1841,-1.2175,242.74)"><path d="m99.231 41.271c0-0.27415-0.4309-15.272-0.45727-15.609-0.03459-0.44129 2.5875-0.50497 2.8909-0.13139 0.3727 0.45888 0.69313 15.328 0.37648 15.687-0.2512 0.28432-2.8101 0.50129-2.8101 0.05323z"/></g><path d="m25.934 288.81c-0.53055-2.8179-0.33247-5.7292-0.36104-8.5959-0.01935-1.9392 0.05472-5.551 1.1309-6.5931 0.80721-0.78169 1.8979-0.75495 3.4757-0.82339 2.2564-0.0979 4.2079 1.101 4.6123 3.0337 0.26728 1.2776 0.32949 2.6466 0.36259 3.944 0.05368 2.1036 0.17067 4.1461 0.19603 6.2479 0.01803 1.4955 0.03863 3.1512-0.83326 4.4284-0.72395 1.0605-2.1421 1.1559-3.3262 1.2302-1.6017 0.10054-4.7566-0.21495-5.2569-2.8719zm6.623-2.149c0.25296-2.1211-0.0049-5.7535-0.15123-7.5344-0.09656-1.1736 0.09826-2.4626-0.71407-3.3838-0.64188-0.72789-2.2603-0.60303-2.9295 0.0154-0.82522 0.76265-0.56498 2.6629-0.5657 3.0071-0.0041 2.1534-0.38989 8.412 0.78949 9.2985 1.9978 1.5017 3.3708 0.27577 3.571-1.4028v1e-5z" stroke-width="1.102"/><path d="m37.194 288.82c-0.53055-2.8179-0.33246-5.7292-0.36104-8.5959-0.01934-1.9392 0.05472-5.551 1.1309-6.5931 0.80721-0.78169 1.8979-0.75494 3.4757-0.82338 2.2564-0.0979 4.2079 1.101 4.6123 3.0337 0.26727 1.2776 0.32948 2.6466 0.36259 3.944 0.05373 2.1036 0.17067 4.1461 0.19603 6.2479 0.01804 1.4955 0.0386 3.1512-0.83327 4.4285-0.72394 1.0605-2.1421 1.1559-3.3262 1.2302-1.6017 0.10053-4.7566-0.21497-5.2569-2.8719zm6.623-2.149c0.25296-2.1211-0.0046-5.7536-0.15123-7.5344-0.09656-1.1736 0.09825-2.4626-0.71407-3.3838-0.64188-0.72789-2.2603-0.60303-2.9295 0.0154-0.82521 0.76265-0.56498 2.6629-0.5657 3.0071-0.0037 2.1534-0.3899 8.412 0.78948 9.2985 1.9979 1.5017 3.3708 0.27577 3.571-1.4028z" stroke-width="1.102"/><path d="m52.763 291.87c-0.9069-0.0285-4.2459 0.15448-4.5171-0.0831-0.17664-0.15476-0.19772-8.3126-0.20366-9.7087-0.01814-4.2793-0.29458-9.0865-0.02641-9.181 0.48524-0.17102 4.1046-0.19827 4.8399-0.0132 1.1049 0.27816 2.1877 0.75642 2.9049 1.7034 1.09 1.4393 0.99494 3.5189 1.1978 5.224 0.25749 2.164 0.22537 4.106 0.31199 6.2862 0.06198 1.56-0.04539 3.814-0.89113 4.6548-0.49387 0.49104-2.2578 1.1614-3.6162 1.1174zm0.37075-2.5421c0.73752-0.11213 1.6969-1.5551 1.7384-2.6248 0.12158-3.1386-0.19342-5.0368-0.52172-9.3323-0.20438-2.6741-3.31-2.1493-3.4675-1.8806-0.23107 0.39419-0.09123 2.9633-0.0596 5.8834 0.01649 1.5235 0.06363 7.6007 0.34816 7.9519 0.30265 0.27221 1.4023 0.0876 1.9623 3e-3z" stroke-width="1.113"/><path d="m80.927 288.81c-0.53054-2.8179-0.33246-5.7292-0.36104-8.5959-0.01934-1.9392 0.05474-5.551 1.1309-6.5931 0.80721-0.78169 1.8979-0.75495 3.4756-0.82339 2.2564-0.0979 4.2079 1.101 4.6123 3.0337 0.26727 1.2776 0.32948 2.6466 0.36259 3.944 0.05373 2.1036 0.17067 4.1461 0.19603 6.2479 0.01807 1.4955 0.0386 3.1512-0.83326 4.4284-0.72394 1.0605-2.1421 1.1559-3.3262 1.2302-1.6017 0.10053-4.7566-0.21496-5.2569-2.8719zm6.623-2.149c0.25296-2.1211-0.0046-5.7535-0.15123-7.5344-0.09656-1.1736 0.09825-2.4626-0.71407-3.3838-0.64188-0.72789-2.2603-0.60303-2.9295 0.0154-0.82521 0.76264-0.56498 2.6629-0.5657 3.0071-0.0037 2.1534-0.3899 8.412 0.78948 9.2985 1.9978 1.5017 3.3708 0.27577 3.571-1.4028z" stroke-width="1.102"/><path d="m98.401 287.02c-0.09834-0.9084-0.11991-1.8916-0.4916-2.2606-0.6705-0.66564-2.837-0.89203-3.1805-0.34874-0.32553 0.51488 0.30052 6.9618-0.07867 7.1374-0.60417 0.27978-1.7772 0.23232-2.4757 0.0317-0.41227-0.11841-0.22954-2.9291-0.28312-4.3672-0.06703-1.7997-0.17084-3.559-0.14313-5.3594 0.04172-2.716-0.22544-8.9035 0.10405-8.9497 2.0731-0.29078 4.6413-0.20541 6.5277 0.15039 1.2102 0.22828 2.1998 1.1658 2.4935 2.3864 0.33039 1.3731 0.48811 2.7368 0.22735 4.2072-0.20362 1.1482-0.61229 1.2364-1.4523 1.8751-1.2083 0.91866 0.34643 1.343 0.98314 1.9607 0.48899 0.4744 0.59332 0.65353 0.79708 1.5374 0.32662 1.4168 0.36268 6.3662 0.19909 6.4756-0.34686 0.23192-2.9735 0.3857-3.1068 0.13557-0.23324-0.43746 0.17767-1.8616-0.12003-4.6118zm-2.1489-5.7482c1.3119-0.39204 1.8095-1.2602 1.9396-2.2531 0.14527-1.1087 0.28367-2.2075-0.28943-3.2106-0.38062-0.66622-2.9545-0.71964-3.2229-0.53857-0.32205 0.21732-0.38284 1.7447-0.3564 2.6813 0.03026 1.0714-4.86e-4 2.2145 0.26538 3.1608 0.13257 0.47184 1.1941 0.30055 1.6637 0.1602z" stroke-width="1.1063"/><g stroke-width="1.1841"><path d="m21.974 272.93c-0.2467 0.31902-2.9167 13.62-3.2903 13.538-0.24312-0.0529-2.6619-10.688-3.3981-11.3-0.40617-0.33777-3.2239-0.35954-3.4532-0.0648-0.68798 0.88418-2.7814 11.281-3.1171 11.257-0.27535-0.0196-1.9686-7.7706-2.5353-9.7412-0.31825-1.081-0.60983-3.4216-0.97311-3.7223-0.25287-0.20928-2.5715-0.24114-2.8185 0.019-0.35902 0.37825 2.3252 10.084 3.4508 14.865 0.27479 1.1642 0.68282 3.2974 1.2362 3.8843 0.23117 0.24514 2.9503 0.22073 3.1329 0.027 0.29903-0.31721 2.7937-12.865 3.3212-12.83 0.54525 0.0368 3.0058 12.321 3.5921 12.712 0.56347 0.37576 2.6484 0.29297 2.9704-0.0318 0.46185-0.46589 5.139-18.476 4.9313-18.696-0.36446-0.26869-2.8802-0.13493-3.0492 0.0836z"/><path d="m76.768 272.94c-0.2467 0.31902-2.9167 13.62-3.2903 13.538-0.24312-0.0529-2.6619-10.688-3.3981-11.3-0.40617-0.33777-3.2239-0.35954-3.4532-0.0648-0.68799 0.88417-2.7814 11.281-3.1171 11.257-0.27536-0.0196-1.9686-7.7706-2.5354-9.7412-0.31824-1.081-0.60983-3.4216-0.9731-3.7223-0.25288-0.20929-2.5715-0.24114-2.8185 0.019-0.35903 0.37824 2.3252 10.084 3.4508 14.865 0.27479 1.1642 0.68281 3.2974 1.2362 3.8843 0.23116 0.24515 2.9503 0.22073 3.1329 0.0271 0.29903-0.3172 2.7937-12.865 3.3212-12.83 0.54524 0.0368 3.0058 12.321 3.5921 12.712 0.56347 0.37575 2.6484 0.29296 2.9704-0.0318 0.46185-0.46589 5.139-18.476 4.9313-18.696-0.36446-0.26869-2.8802-0.13493-3.0492 0.0836z"/><path d="m122.11 291.6c-0.41233-0.2809-0.4373-18.54-0.19901-18.708 0.382-0.27008 2.0294-0.34853 2.7476-0.0669 0.35796 0.14035 5.1176 10.764 5.5958 10.736 0.49409-0.0286-0.32416-10.177-0.26429-10.696 0.0333-0.2886 2.4665-0.3672 2.707 0.0754 0.23881 0.43946 0.86705 18.104 0.5945 18.515-0.29645 0.44742-2.213 0.40294-2.5031 0.18725-0.70048-0.52094-5.8412-11.9-6.1231-11.441-0.16775 0.27331 0.33513 11.232 0.17177 11.371-0.39354 0.33674-2.2462 0.35397-2.7272 0.0263z"/></g><g transform="matrix(1.1841,0,0,1.1841,-1.297,242.74)" stroke-width=".084667"><path d="m116.98 41.116c-1.9705-0.45919-2.3859-9.6487-1.2151-13.796 0.76881-2.7233 5.2476-2.0553 6.0543-1.7546 0.94508 0.3523 1.6684 2.093 1.6382 2.4449-0.0253 0.29482-1.587 1.277-1.8965 0.88838-0.37443-0.47-0.35932-1.6753-2.5683-1.2973-1.5739 0.26932-1.4057 3.1835-1.42 4.5942-0.0208 2.057-0.0104 3.7855 0.66434 5.7526 0.30712 0.89539 2.6159 0.7358 3.2577 0.27471 0.4779-0.34332 0.34933-2.182-0.0209-2.3819-0.48697-0.26293-1.2063 0.24203-1.5333-0.03005-0.41196-0.34272-0.49636-1.8366-0.10814-2.0607 0.71663-0.41375 3.0967-0.35448 3.6181 0.39676 0.28901 0.41638 0.65385 3.5149 0.63091 4.1293-0.0451 1.2074-0.11803 1.6654-1.0734 2.4233-0.66001 0.52358-4.0574 0.87548-6.0279 0.41629z"/></g><path d="m103.18 272.88c0.10713-0.50348 2.4263-0.20762 2.9474 0.038 0.23321 0.10999 0.0416 7.3377 0.47701 7.4127 0.60719 0.10459 4.0283-6.9885 4.6218-7.4271 0.30502-0.2254 2.7762-0.27044 3.02 0.0458 0.24046 0.31192-5.4379 8.744-5.4176 9.2393 0.0239 0.58501 1.8476 3.588 2.6699 4.8035 0.78448 1.1596 3.0624 4.4516 2.7488 4.605-0.42539 0.20816-2.7926 0.24614-3.116 0.11418-0.29991-0.12234-4.0855-6.8944-4.629-7.0842-0.31641-0.11048 0.13513 6.841-0.28152 7.0352-0.70641 0.32929-2.7205 0.28384-2.9118 0.0435-0.13615-0.17104-0.17804-18.595-0.1288-18.826z" stroke-width="1.1841"/></g></g><g transform="translate(86.368,-177.11)"><path transform="matrix(.26458 0 0 .26458 -86.368 177.11)" d="m89.725 6.1816c-0.8015 0.16153-1.5127 3.3085-2.2637 4.5156-0.31349 0.83108-0.53742 1.1275-1.0371 1.1582-0.36125 0.0189-2.3086-0.07734-5.0645 0.07422-2.756 0.15117-7.0173 0.63564-9.4668 1.0742-2.7136 0.72432-5.8403 0.48671-8.3965 1.375-0.9724 0.34507-1.6029 0.45086-3.3145 1.0156-1.9179-0.49772-2.4905-0.56064-3.0801-0.80469-0.34285-0.14192-2.2804-0.86559-4.4336-1.4004-2.4442-0.97807-6.5818-1.2893-6.873 1.8418-0.10775 1.2662-0.01656 1.3867 1.4863 2.0586 0.87957 0.39296 1.9336 0.83425 2.3418 0.97852 0.59622 0.21052 0.37568 0.3721-1.1152 0.82617-3.7013 1.3123-7.8207 2.4014-11.014 3.5801-0.34152 0.10583-1.0452 0.91985-1.5684 1.8125-0.83184 1.4198-0.90084 1.7662-0.52734 2.7559 0.62384 1.6506 3.1681 2.4497 5.207 1.6348 3.0391-0.96494 5.8174-1.5807 9.0176-2.4453 2.7515-0.72412 5.154-0.92187 7.8192-1.8715 1.2966-0.46198 2.8575-0.78468 4.4735-0.89191 1.9566 0.65928 2.5302 0.65153 3.4827 1.0974 3.8098 1.7834 8.318 2.7687 11.227 2.7773 3.9375 0.0076 3.9902 0.01397 3.9902 0.87695 0 1.0898-1.9988 4.8406-3.0566 5.7383-4.0179 0.45459-6.8573-1.2511-10.49-1.918-2.4802-0.45721-6.5131-0.30785-8.1035 0.29688-6.1648 1.0559-12.241 2.5722-17.879 3.8848-2.2455 0.5218-5.905 1.5121-8.1152 2.2539-5.4459 1.8278-8.7771 3.4453-12.66 4.6855-2.0227 0.59724-2.6784 1.8615-1.8242 3.5078 0.86355 1.6645 1.6041 1.9966 4.4707 2.0098 4.1466 0.0437 7.0779-2.2312 10.891-3.3281 3.3959-1.3594 6.2019-1.8289 9.4375-2.5645 3.8634-1.1421 5.8078-1.5421 10.793-2.2285 5.0879-1.0441 10.871-1.1555 15.117-1.416 4.084-0.15236 6.0319-0.61653 6.7539-0.58984 0.43323 0.01601 0.42543 0.209 0.17188 0.75195-0.11603 0.58128-0.40596 1.22-0.64648 1.4199-1.0276 0.85274-3.7872 0.27712-7.9902-0.25391-1.3243-0.16732-3.5569-0.12384-5.043-0.18749-2.3213-0.09943-3.3059-0.13635-4.9551 0.6582-2.0864 1.067-2.7782 3.5306-1.2852 4.5762 0.45369 0.31786 1.1214 0.57812 1.4844 0.57812 0.36291 0 0.83244 0.1009 0.83244 0.29478-2.1708 2.4634-5.6748 4.2163-8.1528 3.0431-2.3527-0.73724-4.3827-1.9695-6.6797-2.5527-1.0207-0.25323-2.5034-0.62859-3.293-0.83594-3.7943-0.99708-7.2087-0.34967-8.8555 1.6758-1.4014 3.0192-0.50335 3.4397 1.6474 4.385 1.5309 0.79497 3.5678 1.2075 6.7901 1.8083 1.2249 0.22828 3.0244 0.67094 4.002 0.98438 1.6386 0.52519 1.7337 0.6192 1.207 1.2012-0.31005 0.47239-0.67104 1.1235-0.84766 1.5312-0.15307 0.01512-0.78405 0.08349-1.3965 0.15039-0.61244 0.0669-4.7046 0.21694-9.0938 0.33203-4.3892 0.11509-9.8967 0.3625-12.244 0.55274-2.3477 0.19025-5.3993 0.0409-6.7539 0.2207-2.4546 0.32582-2.4409 0.42358-4.1738 1.457-1.4122 1.3152-1.6934 1.801-1.6934 2.9277 0 1.8022 1.129 2.8521 3.1309 2.9082 2.0616 0.05745 5.1076 0.01634 16.262-0.20703 8.0768-0.16365 9.9782-0.43407 9.9782 0.0089 0 0.28838-0.64371 1.0687-0.91765 1.3427-0.4998 0.49988-2.5395 4.2665 0.14619 4.6759 2.4025 0.36629 4.5157-1.1177 5.7821-2.2709 1.4759-1.3798 2.8551-2.3297 3.5643-4.1004 0.11669-0.03628 3.535-0.56507 7.3355-0.9629 4.4476-0.46555 7.2525-0.66512 8.9102-1.1836 1.3269-0.41507 3.2897-0.84811 4.3613-0.95898 4.0339-1.4683 3.7888-0.96543 1.6895 3.2148-0.95248 1.8841-1.0718 2.1692-1.8906 3.0352-0.36023 0.381-0.35849 0.89685-1.2852 0.9043-9.1507 2.6056-17.936 3.5446-25.992 6.4824-1.0987 0.39329-5.1566 3.088-1.8828 5.1172-3.0691 1.3262-5.5846 1.9074-8.5938 2.8457-6.4415 1.9717-18.17 4.7243-18.744 7.8359 0 1.0534 0.59702 2.4808 1.9062 2.793 9.0458 0.19381 12.582-1.5504 19.533-2.6328 6.9021-1.0748 13.202-2.7178 19.875-4.959 1.533-0.56184 3.075-1.3795 4.3711-1.877 1.6357-0.67502 2.8225-1.4438 3.8125-1.4883 1.4976 0.15096 0.04146 3.0301-0.2832 4.8906-0.27839 1.5953-1.7954 3.1823-2.0957 3.6621-1.5183 1.8063-3.0261 1.5702-5.084 2.209-3.4691 1.2458-7.7778 1.9826-10.164 2.0176-5.3914 0.10949-10.847 2.1653-15.508 2.7773-4.275 0.74518-8.8094 1.8421-12.596 2.9844-4.4319 1.121-10.794 2.3997-10.82 6.6953 0 1.4489 0.1324 1.6962 1.1582 2.2266 0.9925 0.51341 1.5777 0.53939 4.1758 0.18555 6.0866-0.82987 12.394-2.0632 15.338-3 2.5533-0.44355 5.0662-1.2406 7.4473-1.8477 0.36684-0.0926 0.69041-0.20818 0.95898-0.32422 0.01361-1e-3 0.01846 4e-3 0.0332 2e-3 1.4545-0.73505 4.9133-0.31415 5.0547 0.57226-1.1043 1.4377-3.8234 1.3774-4.7656 2.0059-1.8183 0.9747-3.3133 2.3104-4.8984 3.3516-0.91865 0.6008-2.5066 1.6821-3.5273 2.4043-1.0208 0.72235-2.5252 1.6375-3.3418 2.0332-0.81655 0.39583-2.5288 1.6803-3.8047 2.8535-1.9086 1.7548-2.3203 2.3393-2.3203 3.3066 0 2.0992 0.2636 2.3516 2.4609 2.3516 1.4575 0 2.3882-0.23739 3.3926-0.86328 3.1498-1.7817 5.8353-4.0711 7.8477-5.8594 1.6979-1.0549 3.4414-2.93 5.0117-3.3535 0.10246 0.1663-0.12225 0.95841-0.49805 1.7578-1.0055 2.1391-1.6225 4.7872-1.3301 5.709 0.15882 0.49984 0.05152 1.0444-0.2793 1.4297-1.1058 1.2875-3.1104 5.7298-3.8867 8.6055-0.8839 3.2747-1.0028 5.819-0.31836 6.8633 0.32546 0.4967 0.59375 1.5075 0.59375 2.2441-0.99332 0.97278-1.1266-0.11716-2.0156 0.79297-0.13126 0.34242-0.66033 2.754-1.1758 5.3594-0.77204 3.9005-0.9104 5.4772-0.77539 8.9336 0.1979 5.0623-0.0611 5.6989 0.85938 6.1914 0.40199 0.21468 0.7832 1.2388 0.7832 1.7793 0 0.77186 0.33449 1.2488-0.27734 1.0547-1.077-0.34092-1.3432 0.72004-1.0469 4.1523 0.78856 9.137 1.75 13.107 3.1777 13.107 1.4983 0.0995 1.5852 0.84334 2.4688 1.9199 1.4707 3.1409 3.1196 5.1726 4.6289 4.1836 1.1227-0.73565 0.6349-2.0008 0.92774-0.53711 0.23494 1.174 0.55201 1.3755 4.0488 2.5703h2e-3c2.0556 0.70156 5.1919 0.63337 7.082-0.15625 0.97758-0.40842 2.4481-1.9976 3.0098-3.2227 0.36173 1.4591 0.77452 2.6372 1.1406 3.0117 0.45101 0.46122 0.8989 0.31858 1.6953 0.1875 2.414-0.39732 1.8759 0.0171 3.373-0.91797 1.5993-0.99886 2.4376-2.8144 3.3848-4.1602 2.1578-3.1083 2.6476-5.0646 2.8164-5.9785 0.5354 0.0844 1.6351-0.30721 2.3926-0.65234 0.5941-0.27024 1.5701-1.8643 3.1504-5.1426 1.0504-2.8327 2.8998-5.9357 3.2344-8.752 0.47652-4.1945 0.48368-4.2108 1.5605-4.1367 1.2019 0.0824 2.0142-1.3595 2.6934-4.7734 0.24193-1.2156 0.58443-2.8788 0.75977-3.6953 0.17529-0.81657 0.43578-3.5712 0.58008-6.123 0.20285-3.5905 0.39714-4.7382 0.85352-5.0742 0.84072-0.6195 0.75742-10.96-0.10938-13.67-0.32629-1.0208-0.59528-2.2095-0.59766-2.6426-0.0022-0.43355-0.35221-1.5786-0.7793-2.5449-0.81162-1.8348-0.55952-2.9466 0.44727-1.9688 0.88962 0.86392 7.8981 6.4573 8.7734 7.002 0.45974 0.28649 1.0278 1.1042 1.2598 1.8203 0.23206 0.71618 0.74304 1.7608 1.1367 2.3223 0.61954 0.88305 0.99413 1.6758 2.6074 1.6758 0.6514 0 1.1613-0.59681 1.6191-0.47656 0.45786 0.12026 0.83439 0.30523 1.1641 0.56445 1.0215 0.80361 3.2365 1.0015 3.6543 0.32617 0.14196-0.22928 0.25976-1.0513 0.25976-1.8242 0-1.5939-1.0634-3.5769-3.0234-5.6484-0.54002-0.57069-0.33017-0.39512-1.0664-1.4316-0.57199-2.7221-1.3237-5.8053-2.3516-7.8262-0.69146-2.4344-2.3666-4.5791-2.8281-6.8457 0.11807-0.11792 0.7098 0.13799 1.3145 0.56836 1.2339 0.60684 2.521 1.2968 3.7207 1.5274 1.3462 0 2.6484-1.7303 2.6484-3.5215v-1.3242l1.0859 0.56446c0.69336 0.36056 1.5179 0.47337 2.2734 0.32226 1.1739-0.23433 1.1817-0.25206 0.97266-2.0156-0.11603-0.9792-0.48216-2.3068-0.81445-2.9492-0.84631-1.6364-0.47162-1.7383 1.2617-0.34571 1.5875 1.2759 2.6406 1.2805 2.6406 0.0117 0-1.1495-2.8074-7.2514-3.9512-8.5879-4.0255-4.8089-6.268-10.771-8.0547-15.375-1.7588-4.7917-3.9871-10.432-4.5918-11.619-2.0302-3.9863-2.9305-5.4561-4.0586-6.6523-0.68353-0.72484-1.2402-1.3752-1.2402-1.4453 0-0.06992 1.8773 0.8476 4.1738 2.0391 2.2966 1.1915 4.5952 2.2936 5.1055 2.4492 1.4554 0.444 3.7637 2.3291 3.7637 3.1016 0 0.38596 0.85458 1.7303 2.416 3.3672 1.5615 1.6369 3.28 3.6401 3.8184 4.4531 0.53829 0.81309 2.0355 2.5817 3.3281 3.9277 2.0188 2.1023 2.5809 2.4775 3.9844 2.6699 1.8836 0.25852 3.1035-0.51517 3.1035-1.9648 0-0.84306-1.2792-4.1645-2-5.4258-0.28822-0.50436-1.2762-2.188-1.2168-2.6328 0.0593-0.4448 2.4726 0.57581 2.8555 0.37109 1.5529-0.83114 0.0322-3.6442-1.8672-5.3496-0.51023-0.45827-2.6994-1.8429-4.9707-2.8652-1.0577-0.54462-1.8849-1.1169-2.9473-1.957-0.26726-0.92191-1.2405-2.1508-1.6406-2.9004-0.21014-0.31483-1.0247-2.0775-4.1484-5.8672-3.6554-4.4349-8.3678-8.5695-11.158-9.791-2.8685-1.2556-3.6388-2.7888-2.625-5.2363 1.1032-2.3776 0.60041-2.5681 1.5098-5 0-0.2948 0.23627-0.72872 0.52344-0.9668 0.42697-0.35414 0.8832 0.15958 2.5059 2.8301 3.6581 6.02 4.3812 7.0817 6.5352 9.5664 0.96571 1.1139 2.6761 3.1352 3.7988 4.4902 5.3405 6.446 11.006 11.211 12.9 10.852 1.0909-0.2071 1.0396-2.6044-0.10547-4.8574-1.4992-2.95-2.4353-4.1309-7.4121-9.3633-4.0872-4.2969-9.0977-10.22-9.0977-10.758-1.653-2.0961-2.9925-4.9121-5.2012-6.4355-0.57125-1.5584-0.24594-2.363-0.15039-4.1641 0.08228-1.5475 0.46927-3.1934 1.0625-4.5352 0.59784-2.223 1.1922-4.1067 2.5762-7.4316 3.243-5.995 3.144-4.9548-0.52148-6.0215-0.05427-0.01722-0.10868-0.020534-0.16211-0.00977zm-5.3828 11.699h2e-3c0.45188 0 0.4635 1.5975 0.01367 2.0625-1.0851 1.4987-1.7506 3.3066-2.5449 4.8594-0.45445-0.18557-0.99466-0.47084-1.7559-0.95508-2.0868-1.3274-6.3625-3.3691-7.0605-3.3691-0.48707 0-0.57948-0.11549-0.30664-0.38867 0.21479-0.21468 1.8749-0.52784 3.6914-0.69531 2.7253-0.17862 5.3193-0.94891 7.9609-1.5137zm-4.9453 26.717c0.75814-0.09146 2.8987 2.3198 5.6387 6.4453 1.4697 2.2129 2.6223 4.1506 2.5605 4.3086-0.06172 0.15761-1.2004-0.26636-2.5273-0.94531-1.3269-0.67903-3.4212-1.5792-4.6504-1.9961l-2.2324-0.75586 0.25-2.3184c0.13701-1.2747 0.33666-2.6504 0.44336-3.0586 0.10654-0.40815 0.20498-0.95387 0.22266-1.209 0.01663-0.29707 0.12004-0.44961 0.29492-0.4707zm-3.9199 2.2676h0.0039c-0.87284 2.4225-0.95672 8.2718-2.7891 10.137-0.43967 0.11792-0.9656 0.20766-1.1699 0.20312-3.4742-1.1451-6.4073-3.1075-9.4648-3.6895-1.6035-0.30518-0.95933-0.81614 1.6797-2.0352 2.9851-1.0638 5.0993-1.8371 8.4707-3.168 0.90877-0.35873 2.1477-1.0907 3.2695-1.4453zm-0.20312 11.848c3.5458 4.6729 5.4621 8.6781 7.3262 13.826 0.14196 0.56795 0.10318 1.0176-0.08984 1.0176-0.34439 0-2.2144-2.2182-2.8594-3.3945-0.61145-1.1154-3.5968-4.3969-4.0117-4.4102-0.72552-0.0189-2.0771-1.388-2.0684-2.0898 0.0045-0.37568 0.53572-1.3527 0.74805-2.3164 0.20086-0.9117 0.45493-1.8445 0.95508-2.6328zm-3.1719 8.9844c0.22178 0.08844 0.3922 0.58171 0.54297 1.498 0.73312 4.4455 3.3638 8.491 10.088 15.504 5.8114 6.0612 6.0488 6.34 6.0488 7.0801 1.5786 3.9632 2.4355 8.715 4.8711 12.273 0.38264 0.54191 0.69531 1.0836 0.69531 1.2051-3.6323-1.9092-6.2872-5.0744-10.426-8.7715-1.058-0.94447-1.9679-1.78-2.8398-2.584-2.0131-4.6921-4.1212-9.55-6.4043-13.479-1.952-3.3292-3.7148-6.6167-3.7148-6.9297 0-0.18293-0.28028-0.76199-0.62305-1.2852-0.53703-0.81948-0.55462-1.06-0.11914-1.748 0.27855-0.43926 0.73975-1.2609 1.0234-1.8223 0.36004-0.71286 0.63554-1.0297 0.85742-0.94141zm-3.8242 8.8301c1.1025 2.4261 1.7205 4.9436 2.6758 7.3301 0.0087 0.25474-0.11451 0.45456-0.26758 0.44141-0.24813-0.0189-2.2998-1.0058-3.8047-1.8223-0.70099-0.38017-0.56071-1.6427 0.38281-3.4551 0.40199-0.77186 0.73047-1.6494 0.73047-1.9492 0-0.3001 0.12684-0.54492 0.2832-0.54492zm-4.1992 11.959c5.4236 3.7841 8.4631 8.3134 11.369 13.65 0.89779 1.6448 2.7219 5.5615 3.9355 8.4434 0.41692 0.98989-0.48546 0.39318-1.3672-0.9043-1.9808-2.8095-4.881-5.1379-6.8926-7.1562-2.3635-2.7834-7.3085-4.1864-7.7949-7.8594 0.31331-1.0888 0.36156-2.186 0.42383-3.1211 0.10364-1.6011 0.24884-2.9756 0.32617-3.0527zm-3.9102 14.453c0.61712 4e-3 1.1192 0.0166 1.6289 0.0254 0.20846 0.0777 0.47779 0.39764 0.91016 0.98243 0.53335 0.72137 0.76983 1.5664 0.73633 2.0918-0.03262 0.51154-0.27629 0.77921-0.8125 0.96485-2.0146 0.88778-3.3423 0.39125-4.5293 0.58203-0.60541 0.12001-0.4389 0.18002-2.0781 0.625-1.6392 0.44498-4.3582-0.0909-5.4531-1.4102-0.3629-0.43706-0.25204-0.63415 0.60156-1.0703 0.57581-0.29405 1.5071-1.0926 2.2188-1.2461 0.85884-0.24254 1.6508-0.64316 2.418-0.82032 2.4594-0.56797 3.1663-0.71596 4.3594-0.72461zm2.6016 5.0859c0.36574-8e-3 0.70624 0.028 1.2617 0.0195 1.1046-0.0167 1.8414 0.2065 2.5508 1.0664 0.88877 0.43671 4.3045 5.7545 4.1055 9.0352-0.08486 1.399-0.81542 2.4357-2.6992 2.5527-0.55407 0.0344-3.881-1.6558-5.5176-3.625-1.0604-1.2759-1.6416-1.7872-2.4316-2.3203-0.54557-0.36813-2.1843-2.1536-2.6172-2.9805s-0.6211-1.291-1.0488-2.3867c-0.21143-0.54161 1.54-1.1811 2.4238-1.1465 0.88383 0.0346 1.9231 0.18349 2.5566 0.0273 0.65931-0.1833 1.0503-0.23446 1.416-0.24219zm-8.4434 1.6289c0.19229 0.0105 0.38042 0.058 0.56445 0.16211 0.6114 0.34597 0.94096 1.1719 1.543 2.498 0.49962 1.1005 0.9429 2.004 2.3809 2.9238 1.1106 0.71044 2.393 1.8959 2.8496 2.6348 0.45668 0.73889 1.1469 1.5159 1.5371 1.7246 0.39005 0.20863 2.1129 1.3099 2.1094 1.6602-0.0087 0.92206-3.4473 2.0413-4.4648 2.6016-2.3139 1.274-3.8038 1.9682-6.7715 3.9922-0.40815 0.37455-1.6604 1.1797-2.7832 1.7891h-2e-3c-2.3988 1.3024-5.7529 1.4586-8.5762 0.91407-3.2047-0.53397-5.4468-2.9471-7.1895-4.8652-0.66746-0.72869-1.0014-2.2124-1.4707-3.125 0.44404-1.6566 0.47634-2.1368 1.1445-3.7715 2.7052-3.3712 1.7162-3.4783 3.4473-4.4668 4.2093-2.4036 8.3032-3.0535 13.887-4.3184 0.60862-0.0855 1.218-0.3849 1.7949-0.35351zm17.725 10.467c0.36543 0.0931 0.73312 0.67947 1.1328 2.1973 0.38455 1.4603 0.79894 3.7815 1.2695 7.4004 0.25017 2.0026 0.34191 3.7071 0.20898 3.7891-0.34768 0.21468-2.3234-1.9591-3.5508-3.9062-2.0903-3.3164-3.2891-5.0901-3.2891-6.5312 0-1.3829 0.61115-1.194 1.877-1.4316 0.8498-0.028 1.5158-1.4188 2.1738-1.5098 0.05912-8e-3 0.11863-0.0223 0.17773-8e-3zm-5.7188 2.752c0.359 1.8298 2.7541 6.5831 3.6797 7.9531 0.87827 1.2154 1.5094 2.0169 2.3555 3.1582 2.0165 1.6568 3.4652 3.4702 2.123 3.5898-3.0562 0.96641-5.6167 2.6854-8.123 4.0801-4.7674 2.653-7.5569 3.8095-11.197 0.43164-1.1222-1.0256-2.57-2.6446-3.5605-3.1836-2.3642-1.2868-4.1561-2.3422-4.4766-4.9062l-0.38476-2.166h1.5527c3.1303-0.58615 5.3842-1.8827 7.9219-3.166 1.4471-0.73186 2.096-1.489 4.1309-2.5684 1.6302-1.0019 4.7372-3.1237 5.9785-3.2226zm-32.951 2.5508c1.1085 0.049 5.657 4.387 5.5312 5.2617-0.76554 0.78656-2.1447 1.6231-3.0762 2.2637-0.84166 0.5788-1.7244 0.79586-2.5254 1.4297-0.84057 0.66511-2.0231 1.7889-2.3809 2.1602-1.5572-2.7728-0.36827-5.2493 0.87695-7.748 0.58151-1.0286 0.90286-2.5012 1.4004-3.3184 0.04091-0.0372 0.09993-0.0521 0.17383-0.0488zm6.8516 5.8066c0.51691-0.0253 0.36944 0.12392 1.0371 0.23242 0.3558 0.0578 1.1327 0.43153 1.4785 0.5332 1.523 0.44829 1.9526 1.3535 2.8164 2.6856 0.36892 0.56893 0.37668 1.3378 0.79297 1.873 0.74404 0.95659 1.2062 1.6607 2.6289 2.5664 1.6182 0.71116 2.5584 1.3186 3.1777 2.9043-1.2984 2.3148-2.3514 4.2416-4.4375 5.7637-1.0546 0.76944-6.4727 2.9308-6.9453 3.3027-1.9037 1.4976-3.3138 1.8484-5.8047 1.4473-2.5959-0.41825-4.7495-1.6119-5.959-3.3105-0.85531-1.2013-0.83962-0.91961 0.38672-3.8496 0.17118-0.40819 0.43292-1.3219 0.48242-2.041 0.52124-7.5726 4.6934-7.7778 7.2656-9.6758 0.99092-0.73117 1.5884-1.2269 2.8613-2.3359 0.07286-0.0635 0.14491-0.0921 0.21875-0.0957zm34.867 8.0391c1.3854-0.0538 0.96664 2.765-0.71875 11.518-0.17105 0.88829-0.78012 2.9482-0.9707 4.0547-0.80542 2.3535-2.275 0.2837-3.2676-1.166-1.0912-1.4328-4.9449-6.2716-7.3203-8.4102 2.5992-1.6734 6.3233-3.283 7.5586-3.8594 2.2466-1.4394 3.8875-2.1044 4.7188-2.1367zm-21.789 4.3809c1.5363-0.20154 3.2952 1.8473 4.5527 1.9356 4.8201 0.33841 4.8521 1.5261 6.2734 3.1055 1.0302 1.1448 2.2365 2.0617 3.207 3.3262 1.8494 2.4136 1.8166 2.8965-0.27734 3.9316-6.3806 4.2282-7.1565 4.4454-9.3457 5.457-1.2709 0.73444-0.60918 1.2612-1.9043 1.4688-2.0223-0.72427-7.0322-1.6566-8.6699-2.5703-3.1214-1.4206-6.0411-3.9759-6.9492-6.9238 0.96297-1.3149 1.7217-1.5835 3.041-2.2969 4.3744-1.4767 4.8436-1.3365 7.3027-4.3457 1.6725-2.0466 1.6048-3.0374 2.7695-3.0879zm-24.717 7.2246c0.21109 8e-3 0.52354 0.16344 0.89258 0.48633 1.3285 1.1629 2.9893 1.7638 4.6328 2.2715 1.5013 0.46377 3.3014-0.1052 4.666 0.67383 0.90931 0.51912 1.3105 1.6336 1.9668 2.4492 0.78646 0.97742 3.8994 3.5809 3.9082 4.123 0.0045 0.31634-3.1715 2.4701-4.0391 3.4004-2.2932 2.3561-5.2029 3.9005-6.4043 4.3652-0.71448 0.34507-1.9413 0.75783-3.1777 0.97461-1.2761 0.22373-2.0148 0.55766-2.6582 0.15234-0.36184-0.22795-0.42383-1.2109-0.42383-1.2109-0.23248-0.66606-0.41992-2.8162-0.41992-5.2324 0-4.0322-1.0142-3.2728-0.01563-7.25 0.45912-1.3005 0.77317-4.0945 1.0723-5.2031zm40.924 5.7598c2.6865 2.5232-0.71756 7.6477-1.3379 9.4238-0.40533 1.1551-0.54539 2.388-0.87695 3.5664-0.25652 0.9117-0.4533 1.8534-0.85938 2.709-0.72104 1.5193-1.1768 2.2155-2.7617 4.2227-1.0667 1.3508-1.6132 0.0452-2.3516-1.4102-0.395-0.77896-0.59314-1.9131-1.1172-3.0469-0.44358-0.95972-0.92953-2.2184-1.1172-3.0742-0.49224-2.2439-0.95955-3.398-1.6328-4.6016-0.37686-0.35331 0.16336-1.4624 0.5957-1.875 1.3244-1.2638 3.5319-1.6608 6.2129-3.3828 2.4636-1.5824 4.2074-2.4313 5.2461-2.5312zm-22.768 4.5723c0.64985 0.067 1.4642 0.62076 2.7695 0.9668 2.7709 0.73454 5.1096 0.95443 6.6035 1.9336 1.7924 1.1748 2.2237 6.0038 2.3105 7.3457-0.31299 1.1978-4.7831 5.0061-7.3652 5.9277-2.0398 0.5905-4.3009 0.25172-5.9023-0.0937-1.8481-0.40732-1.9789-0.44565-4.2676-1.2734-0.71444-0.2589-1.7456-0.55091-2.291-0.65039-2.085-0.3806-3.7142-3.6188-2.875-5.7129 1.9466-1.8544 2.6317-2.5751 4.5859-4.0117 0.93402-0.70846 2.7879-2.8326 4.8457-3.7402l0.97852-0.57032c0.19205-0.11204 0.39081-0.14341 0.60742-0.12109zm-12.633 8.7227c0.83611-0.0252 0.17704 1.067 0.29492 1.6543 0.06842 0.34085 0.07479 0.97674 0.48242 1.5352 0.48629 0.66617 1.2054 1.7596 1.9199 2.2383 1.4701 0.98483 1.5691 1.7251 0.64062 4.9102-0.34872 2.1669-1.5072 4.0287-2.3828 5.5996-0.42973 0.58024-0.66163 1.1997-1.5977 1.6387-0.58673 0.27514-2.7398-3.5816-3.8906-6.6621-0.66159-1.3949-2.5-9.2928-2.252-9.9394 0.28471-0.74211 0.62331 0.13043 1.1016 0.13867 1.2486-0.0577 4.6881-0.71381 5.6836-1.1133zm24.824 3.3633c0.33907 0.38039 0.66447 0.88231 0.85352 1.3789 0.52725 1.385 1.3564 3.0776 0.57617 3.5957-0.44878 0.29745-0.81836 0.85854-0.81836 1.2461 0.23027 6.7113-7.0825 10.281-8.7637 6.6894-0.54656-1.2653-0.69038-4.9375-0.44922-6.8613 1.0459-1.3715 3.3577-1.8888 5.5-3.5098 0.53718-0.40646 2.2247-1.3877 3.1016-2.5391zm-18.949 3.8711c0.5031 0.0113 1.0628 0.16388 1.4727 0.25391 1.997 0.42391 1.7824 0.5926 2.6992 0.78906 0.97253 0.20826 1.8853 0.31669 2.957 0.41016l1.9473 0.16992-0.17383 1.8418c-0.11449 1.5327 0.27311 3.5911 0.65234 5.416-3.3766 3.0768-7.0355 4.3535-11.162 2.1934-0.78176-0.41824-1.5609-0.50882-1.5645-2.1152 0.54186-2.272 1.3647-4.266 1.918-6.2617 0.66673-2.4052 0.72591-2.6263 1.2539-2.6973z" stroke-width="3.7795"/></g></g></svg>
