<?xml version="1.0" encoding="UTF-8"?>
<svg width="172.63mm" height="52.301mm" version="1.1" viewBox="0 0 172.63 52.301" xmlns="http://www.w3.org/2000/svg"><g transform="translate(86.305 -176.78)"><g transform="matrix(1.8086 0 0 1.8086 -174.32 -289.03)"><g transform="matrix(.55005 0 0 .55005 64.13 125.18)"><g stroke-width="1.5949"><path d="m101.74 265.83c-0.76785-4.0782-0.48117-8.2917-0.52253-12.441-0.028-2.8066 0.0792-8.0338 1.6367-9.542 1.1682-1.1313 1.9973-1.0926 4.2808-1.1917 3.2657-0.14164 5.213 1.5934 5.7982 4.3906 0.38682 1.849 0.47686 3.8303 0.52477 5.7081 0.0777 3.0444 0.24701 6.0005 0.28371 9.0424 0.0261 2.1644 0.0559 4.5606-1.206 6.4092-1.0478 1.5348-2.2232 1.6729-3.9369 1.7805-2.3181 0.1455-6.1347-0.31111-6.8587-4.1565zm8.8358-2.3024c0-3.0915-7e-3 -9.1348-0.21887-11.712-0.13975-1.6985 0.1422-4.0318-1.0334-5.365-0.92898-1.0534-3.2712-0.87274-4.2398 0.0224-1.1943 1.1038-0.81768 4.3216-0.81872 4.8198-6e-3 3.1165-0.56428 12.982 1.1426 14.265 2.8914 2.1734 5.1682 0.41634 5.1682-2.0302z"/><path d="m45.663 269.99c-1.2996-0.0409-5.1225 0.22137-5.5111-0.11905-0.25313-0.22176-0.28333-11.912-0.29185-13.913-0.02611-6.1323-0.42214-13.021-0.03794-13.157 0.69534-0.24507 4.92-0.28412 5.9736-0.0189 1.5834 0.3986 2.4436 1.084 3.4714 2.441 1.5621 2.0626 1.4258 5.0427 1.7165 7.4861 0.369 3.101 0.32298 5.8841 0.4471 9.0084 0.0888 2.2355-0.0651 5.4656-1.277 6.6706-0.70772 0.70367-2.5441 1.6644-4.4907 1.6013zm0.53128-3.0417c1.0569-0.16068 2.4318-2.2285 2.4912-3.7614 0.17423-4.4978-0.27717-8.3303-0.74763-14.486-0.29288-3.8321-4.7433-3.08-4.9691-2.6949-0.33113 0.56488-0.13073 4.7576-0.0855 8.9421 0.0236 2.1832 0.0912 11.493 0.49893 11.997 0.88616 0.33433 1.8927 0.14379 2.8121 4e-3z"/><path d="m81.99 269.72c-2.1138-0.11126-4.0018-1.3289-4.6547-2.4732-0.47246-0.68171 0.69266-3.2754 1.6044-2.5791 0.32518 0.24833 4.5151 3.8129 6.0968-0.0842 0.74986-1.8476-1.8889-5.71-3.2569-7.5613-1.8273-2.473-3.3286-4.0693-3.9264-7.1494-0.28543-1.4706-0.46731-2.5156 0.12426-3.9212 0.73944-1.757 3.0356-2.7963 5.0533-3.1317 2.5231-0.41944 3.8841 0.37321 4.2772 0.87888 0.49702 0.63934-0.2321 2.832-0.5995 2.8071-1.1315-0.0767-2.3641-1.7155-4.8122-0.43361-1.3811 0.72317-1.4431 1.8512-1.0314 3.1818 0.56759 1.8346 1.5329 3.5739 3.1774 5.8403 1.2338 1.7005 3.1044 4.0783 3.7771 6.0738 0.47738 1.4163 0.59746 4.2611-0.1567 5.5626-1.3442 2.3199-3.4855 3.1044-5.6726 2.9893z"/><path d="m93.802 269.78c0-0.61109 0.0214-12.136-0.20603-16.606-0.12133-2.297 0.0753-4.9897-0.34245-7.2551-0.8697 0.0271-2.8242 0.38281-3.6442 0.0807-0.46449-0.17112-0.78241-3.3111 0.13507-3.2082 2.4066 0.26974 8.0766-0.53532 10.08 0.0547 0.49286 0.20149 0.46437 2.2106 0.11075 2.586-0.37862 0.40189-3.0157-2e-3 -3.5453 0.24051-0.33806 0.15468-0.0181 1.4213-2.1e-4 2.4288 0.0304 1.7121 1.0476 20.979 0.9363 21.651-0.0561 0.3385-3.5243 0.23939-3.5243 0.0278z"/></g><path d="m10.124 269.8c-2.0594-0.25895-2.759-0.96972-4.0614-2.91-0.99619-1.4842-0.97205-2.7335-1.0743-4.5415-0.20103-3.3284-0.3097-6.6632-0.47815-9.9941-0.0795-2.7709-0.22104-8.7706 0.28194-9.3704 0.29435-0.35097 3.24-0.54955 3.3862 0.0254 0.16365 0.64363-0.0187 5.0661-0.0441 7.3638 0.0182 2.7611-0.0426 6.2079 0.31101 8.9464 0.12296 1.6755 0.17713 3.7351 0.6992 5.3362 0.70616 1.1891 1.7537 1.6511 3.0748 1.2368 1.5715-0.24327 2.2799-2.9688 2.2797-4.2268 0.27997-3.6697 0.48992-6.1564 0.3957-9.8312-0.17478-2.2517-0.43286-8.513 0.03411-8.7598s2.243-0.72027 3.0954-0.23357c0.56358 0.32182-0.15286 8.1718 0.04599 10.851 0.05552 3.1844 0.20263 6.3829-0.05933 9.5596-1.1711 5.1592-4.5655 6.9662-7.8868 6.5486z" stroke-width="1.5763"/><g stroke-width="1.5949"><path d="m21.289 269.67c-0.42641-0.30689-0.08729-2.1999-0.13073-3.705-0.10558-3.6588-0.05081-7.9794-0.02557-11.455 0.02276-3.134-0.3021-11.225 0.0023-11.559 0.3705-0.40689 0.46489-0.3596 2.0008-0.1423 0.65955 0.0933 1.3415 2.0049 2.0009 3.2556 1.3171 2.4981 2.5625 4.9424 3.944 7.4112 1.312 2.3447 2.8115 4.5588 4.1693 6.8636 0.35006 0.59421 1.0887 2.6259 1.1017 1.1534 0.03503-3.9648-0.63906-17.66-0.30785-18.577 0.18365-0.48829 2.2038-0.46151 2.8168-0.16159 0.40127 0.19633 0.37093 6.0723 0.41835 7.8987 0.16628 6.4043 1.2254 18.687 0.89157 19.18-0.30466 0.44999-2.4984 0.24801-2.8716 0.0249-1.8542-3.1286-4.0687-6.4482-5.9092-9.2505-1.321-2.0338-2.4563-4.006-3.5242-6.1869-0.43231-1.0824-1.8135-3.2048-1.6998-1.6785 0.05641 2.2107 0.22519 5.9922 0.23932 8.216 0.01729 2.7212 0.32998 8.4867-0.08606 8.8025-1.1777 0.0516-1.9926 0.52097-3.03-0.0894z"/><path d="m134.57 269.67c-0.5328-0.47146 0.32026-10.992-0.84121-12.821-0.92637-1.4584-2.3124-5.6738-3.0905-7.2001-1.0265-2.0137-3.4957-6.4939-2.7763-6.7505 1.2954-0.462 2.1153-0.10176 2.563-3e-3 0.5471 0.1208 1.7464 3.0158 2.2573 4.0953 1.0622 2.2443 1.2717 2.944 2.1914 5.2468 0.24828 0.62163 1.4625 0.72067 2.0134-0.23932 1.2981-2.2623 1.72-3.4423 2.837-5.7334 0.51049-1.0471 1.2428-2.9736 1.6988-3.2351 0.82797-0.47495 2.3978-0.29809 2.7208 0.0303 0.38022 0.38656-2.4466 5.4409-3.0267 6.541-0.61764 1.1714-3.3195 5.7836-3.6364 7.7792-0.52591 3.3123 0.80274 11.266 0.25676 12.142-0.99585 0.34226-2.2667 0.78875-3.1674 0.14713z"/><path d="m72.104 263.13c-0.14177-1.3096-0.17287-3.3283-0.70871-3.8602-0.96664-0.95964-4.0901-1.286-4.5853-0.50278-0.46931 0.74228 0.43324 10.638-0.1134 10.891-0.87102 0.40336-1.7503 0.33493-2.7574 0.0458-0.59436-0.1707-0.33091-4.2228-0.40817-6.2961-0.0967-2.5945-0.24629-5.1308-0.20634-7.7264 0.0602-3.9156-0.32502-12.836 0.15-12.903 2.9888-0.41919 4.9174-0.29613 7.6369 0.21683 1.7447 0.32909 3.1714 1.6807 3.5948 3.4404 0.47631 1.9795 0.7037 3.9455 0.32776 6.0653-0.29355 1.6552-0.88273 1.7825-2.0937 2.7032-1.7419 1.3244 0.49943 1.9361 1.4174 2.8267 0.70496 0.68392 0.85537 0.94217 1.1491 2.2164 0.47088 2.0426 0.52286 9.178 0.28702 9.3357-0.50006 0.33435-3.3247 0.55606-3.517 0.19544-0.33624-0.63066 0.25615-2.6838-0.17304-6.6486zm-3.098-8.287c1.8913-0.5652 2.6087-1.8169 2.7962-3.2482 0.20943-1.5984 0.40896-3.8438-0.41727-5.29-0.54872-0.96047-4.2594-1.0375-4.6463-0.77643-0.46428 0.3133-0.55194 3.1767-0.51382 4.5269 0.0436 1.5446-7.94e-4 3.1926 0.3826 4.5568 0.19112 0.68024 1.7215 0.43329 2.3985 0.23096z"/><path d="m53.419 269.79c-0.45811-0.18151-0.19821-2.2309-0.225-3.3503-0.14922-6.2347 0.16123-12.98-0.0587-19.212-5e-3 -1.277 0.0324-4.1153 0.33216-4.297 0.41447-0.25113 7.4337-0.52212 7.6053 5e-3 0.19733 0.60605 0.15118 2.2608 7e-3 2.4741-1.6945 0.45059-4.1287 0.31404-4.6813 0.51848-0.62914 0.23273-0.28317 2.7958-0.30439 4.3818-0.01421 1.0663-8e-3 3.3777 0.30287 3.5896 0.65047 0.44389 3.4029-0.35417 4.2284-0.0767 0.8849 0.29749 0.19907 2.5982-0.0322 2.6492-1.2355 0.27234-2.9558 0.089-4.2073 0.28606-0.42149 0.0663-0.24711 2.6604-0.2625 3.7764-0.02381 1.7274-0.02331 4.3175 0.14642 6.2636 0.0438 0.5022 4.8808 0.0982 5.1218 0.29606 0.49496 0.40642 0.13216 2.5789-0.0911 2.7436-1.2279 0.0748-7.4297 0.13129-7.8809-0.0475z"/><path d="m124.38 263.22c-0.14177-1.3096-0.17287-3.3283-0.70871-3.8602-0.96664-0.95964-4.0901-1.286-4.5853-0.50278-0.46931 0.74228 0.43324 10.638-0.1134 10.891-0.87102 0.40336-1.7503 0.33493-2.7574 0.0458-0.59436-0.1707-0.3309-4.2228-0.40817-6.2961-0.0967-2.5945-0.24629-5.1308-0.20634-7.7264 0.0602-3.9156-0.32502-12.836 0.15-12.903 2.9888-0.41919 4.9174-0.29613 7.6369 0.21683 1.7447 0.32909 3.1714 1.6807 3.5948 3.4404 0.47631 1.9795 0.7037 3.9455 0.32776 6.0653-0.29355 1.6552-0.88273 1.7825-2.0937 2.7032-1.7419 1.3244 0.49943 1.9361 1.4174 2.8267 0.70496 0.68392 0.85537 0.94217 1.1491 2.2164 0.47088 2.0426 0.52286 9.178 0.28702 9.3357-0.50006 0.33435-3.3247 0.55606-3.517 0.19544-0.33624-0.63066 0.25615-2.6838-0.17304-6.6486zm-3.098-8.287c1.8913-0.5652 2.6087-1.8169 2.7962-3.2482 0.20943-1.5984 0.40897-3.8438-0.41727-5.29-0.54872-0.96047-4.2594-1.0375-4.6463-0.77643-0.46428 0.3133-0.55194 3.1767-0.51382 4.5269 0.0436 1.5446-7.9e-4 3.1926 0.3826 4.5568 0.19112 0.68024 1.7216 0.43329 2.3986 0.23096z"/></g></g><g transform="matrix(.53834 0 0 .53834 65.167 128.37)"><g transform="matrix(1.1841,0,0,1.1841,-1.2175,242.74)"><path d="m99.231 41.271c0-0.27415-0.4309-15.272-0.45727-15.609-0.03459-0.44129 2.5875-0.50497 2.8909-0.13139 0.3727 0.45888 0.69313 15.328 0.37648 15.687-0.2512 0.28432-2.8101 0.50129-2.8101 0.05323z"/></g><path d="m25.934 288.81c-0.53055-2.8179-0.33247-5.7292-0.36104-8.5959-0.01935-1.9392 0.05472-5.551 1.1309-6.5931 0.80721-0.78169 1.8979-0.75495 3.4757-0.82339 2.2564-0.0979 4.2079 1.101 4.6123 3.0337 0.26728 1.2776 0.32949 2.6466 0.36259 3.944 0.05368 2.1036 0.17067 4.1461 0.19603 6.2479 0.01803 1.4955 0.03863 3.1512-0.83326 4.4284-0.72395 1.0605-2.1421 1.1559-3.3262 1.2302-1.6017 0.10054-4.7566-0.21495-5.2569-2.8719zm6.623-2.149c0.25296-2.1211-0.0049-5.7535-0.15123-7.5344-0.09656-1.1736 0.09826-2.4626-0.71407-3.3838-0.64188-0.72789-2.2603-0.60303-2.9295 0.0154-0.82522 0.76265-0.56498 2.6629-0.5657 3.0071-0.0041 2.1534-0.38989 8.412 0.78949 9.2985 1.9978 1.5017 3.3708 0.27577 3.571-1.4028v1e-5z" stroke-width="1.102"/><path d="m37.194 288.82c-0.53055-2.8179-0.33246-5.7292-0.36104-8.5959-0.01934-1.9392 0.05472-5.551 1.1309-6.5931 0.80721-0.78169 1.8979-0.75494 3.4757-0.82338 2.2564-0.0979 4.2079 1.101 4.6123 3.0337 0.26727 1.2776 0.32948 2.6466 0.36259 3.944 0.05373 2.1036 0.17067 4.1461 0.19603 6.2479 0.01804 1.4955 0.0386 3.1512-0.83327 4.4285-0.72394 1.0605-2.1421 1.1559-3.3262 1.2302-1.6017 0.10053-4.7566-0.21497-5.2569-2.8719zm6.623-2.149c0.25296-2.1211-0.0046-5.7536-0.15123-7.5344-0.09656-1.1736 0.09825-2.4626-0.71407-3.3838-0.64188-0.72789-2.2603-0.60303-2.9295 0.0154-0.82521 0.76265-0.56498 2.6629-0.5657 3.0071-0.0037 2.1534-0.3899 8.412 0.78948 9.2985 1.9979 1.5017 3.3708 0.27577 3.571-1.4028z" stroke-width="1.102"/><path d="m52.763 291.87c-0.9069-0.0285-4.2459 0.15448-4.5171-0.0831-0.17664-0.15476-0.19772-8.3126-0.20366-9.7087-0.01814-4.2793-0.29458-9.0865-0.02641-9.181 0.48524-0.17102 4.1046-0.19827 4.8399-0.0132 1.1049 0.27816 2.1877 0.75642 2.9049 1.7034 1.09 1.4393 0.99494 3.5189 1.1978 5.224 0.25749 2.164 0.22537 4.106 0.31199 6.2862 0.06198 1.56-0.04539 3.814-0.89113 4.6548-0.49387 0.49104-2.2578 1.1614-3.6162 1.1174zm0.37075-2.5421c0.73752-0.11213 1.6969-1.5551 1.7384-2.6248 0.12158-3.1386-0.19342-5.0368-0.52172-9.3323-0.20438-2.6741-3.31-2.1493-3.4675-1.8806-0.23107 0.39419-0.09123 2.9633-0.0596 5.8834 0.01649 1.5235 0.06363 7.6007 0.34816 7.9519 0.30265 0.27221 1.4023 0.0876 1.9623 3e-3z" stroke-width="1.113"/><path d="m80.927 288.81c-0.53054-2.8179-0.33246-5.7292-0.36104-8.5959-0.01934-1.9392 0.05474-5.551 1.1309-6.5931 0.80721-0.78169 1.8979-0.75495 3.4756-0.82339 2.2564-0.0979 4.2079 1.101 4.6123 3.0337 0.26727 1.2776 0.32948 2.6466 0.36259 3.944 0.05373 2.1036 0.17067 4.1461 0.19603 6.2479 0.01807 1.4955 0.0386 3.1512-0.83326 4.4284-0.72394 1.0605-2.1421 1.1559-3.3262 1.2302-1.6017 0.10053-4.7566-0.21496-5.2569-2.8719zm6.623-2.149c0.25296-2.1211-0.0046-5.7535-0.15123-7.5344-0.09656-1.1736 0.09825-2.4626-0.71407-3.3838-0.64188-0.72789-2.2603-0.60303-2.9295 0.0154-0.82521 0.76264-0.56498 2.6629-0.5657 3.0071-0.0037 2.1534-0.3899 8.412 0.78948 9.2985 1.9978 1.5017 3.3708 0.27577 3.571-1.4028z" stroke-width="1.102"/><path d="m98.401 287.02c-0.09834-0.9084-0.11991-1.8916-0.4916-2.2606-0.6705-0.66564-2.837-0.89203-3.1805-0.34874-0.32553 0.51488 0.30052 6.9618-0.07867 7.1374-0.60417 0.27978-1.7772 0.23232-2.4757 0.0317-0.41227-0.11841-0.22954-2.9291-0.28312-4.3672-0.06703-1.7997-0.17084-3.559-0.14313-5.3594 0.04172-2.716-0.22544-8.9035 0.10405-8.9497 2.0731-0.29078 4.6413-0.20541 6.5277 0.15039 1.2102 0.22828 2.1998 1.1658 2.4935 2.3864 0.33039 1.3731 0.48811 2.7368 0.22735 4.2072-0.20362 1.1482-0.61229 1.2364-1.4523 1.8751-1.2083 0.91866 0.34643 1.343 0.98314 1.9607 0.48899 0.4744 0.59332 0.65353 0.79708 1.5374 0.32662 1.4168 0.36268 6.3662 0.19909 6.4756-0.34686 0.23192-2.9735 0.3857-3.1068 0.13557-0.23324-0.43746 0.17767-1.8616-0.12003-4.6118zm-2.1489-5.7482c1.3119-0.39204 1.8095-1.2602 1.9396-2.2531 0.14527-1.1087 0.28367-2.2075-0.28943-3.2106-0.38062-0.66622-2.9545-0.71964-3.2229-0.53857-0.32205 0.21732-0.38284 1.7447-0.3564 2.6813 0.03026 1.0714-4.86e-4 2.2145 0.26538 3.1608 0.13257 0.47184 1.1941 0.30055 1.6637 0.1602z" stroke-width="1.1063"/><g stroke-width="1.1841"><path d="m21.974 272.93c-0.2467 0.31902-2.9167 13.62-3.2903 13.538-0.24312-0.0529-2.6619-10.688-3.3981-11.3-0.40617-0.33777-3.2239-0.35954-3.4532-0.0648-0.68798 0.88418-2.7814 11.281-3.1171 11.257-0.27535-0.0196-1.9686-7.7706-2.5353-9.7412-0.31825-1.081-0.60983-3.4216-0.97311-3.7223-0.25287-0.20928-2.5715-0.24114-2.8185 0.019-0.35902 0.37825 2.3252 10.084 3.4508 14.865 0.27479 1.1642 0.68282 3.2974 1.2362 3.8843 0.23117 0.24514 2.9503 0.22073 3.1329 0.027 0.29903-0.31721 2.7937-12.865 3.3212-12.83 0.54525 0.0368 3.0058 12.321 3.5921 12.712 0.56347 0.37576 2.6484 0.29297 2.9704-0.0318 0.46185-0.46589 5.139-18.476 4.9313-18.696-0.36446-0.26869-2.8802-0.13493-3.0492 0.0836z"/><path d="m76.768 272.94c-0.2467 0.31902-2.9167 13.62-3.2903 13.538-0.24312-0.0529-2.6619-10.688-3.3981-11.3-0.40617-0.33777-3.2239-0.35954-3.4532-0.0648-0.68799 0.88417-2.7814 11.281-3.1171 11.257-0.27536-0.0196-1.9686-7.7706-2.5354-9.7412-0.31824-1.081-0.60983-3.4216-0.9731-3.7223-0.25288-0.20929-2.5715-0.24114-2.8185 0.019-0.35903 0.37824 2.3252 10.084 3.4508 14.865 0.27479 1.1642 0.68281 3.2974 1.2362 3.8843 0.23116 0.24515 2.9503 0.22073 3.1329 0.0271 0.29903-0.3172 2.7937-12.865 3.3212-12.83 0.54524 0.0368 3.0058 12.321 3.5921 12.712 0.56347 0.37575 2.6484 0.29296 2.9704-0.0318 0.46185-0.46589 5.139-18.476 4.9313-18.696-0.36446-0.26869-2.8802-0.13493-3.0492 0.0836z"/><path d="m122.11 291.6c-0.41233-0.2809-0.4373-18.54-0.19901-18.708 0.382-0.27008 2.0294-0.34853 2.7476-0.0669 0.35796 0.14035 5.1176 10.764 5.5958 10.736 0.49409-0.0286-0.32416-10.177-0.26429-10.696 0.0333-0.2886 2.4665-0.3672 2.707 0.0754 0.23881 0.43946 0.86705 18.104 0.5945 18.515-0.29645 0.44742-2.213 0.40294-2.5031 0.18725-0.70048-0.52094-5.8412-11.9-6.1231-11.441-0.16775 0.27331 0.33513 11.232 0.17177 11.371-0.39354 0.33674-2.2462 0.35397-2.7272 0.0263z"/></g><g transform="matrix(1.1841,0,0,1.1841,-1.297,242.74)" stroke-width=".084667"><path d="m116.98 41.116c-1.9705-0.45919-2.3859-9.6487-1.2151-13.796 0.76881-2.7233 5.2476-2.0553 6.0543-1.7546 0.94508 0.3523 1.6684 2.093 1.6382 2.4449-0.0253 0.29482-1.587 1.277-1.8965 0.88838-0.37443-0.47-0.35932-1.6753-2.5683-1.2973-1.5739 0.26932-1.4057 3.1835-1.42 4.5942-0.0208 2.057-0.0104 3.7855 0.66434 5.7526 0.30712 0.89539 2.6159 0.7358 3.2577 0.27471 0.4779-0.34332 0.34933-2.182-0.0209-2.3819-0.48697-0.26293-1.2063 0.24203-1.5333-0.03005-0.41196-0.34272-0.49636-1.8366-0.10814-2.0607 0.71663-0.41375 3.0967-0.35448 3.6181 0.39676 0.28901 0.41638 0.65385 3.5149 0.63091 4.1293-0.0451 1.2074-0.11803 1.6654-1.0734 2.4233-0.66001 0.52358-4.0574 0.87548-6.0279 0.41629z"/></g><path d="m103.18 272.88c0.10713-0.50348 2.4263-0.20762 2.9474 0.038 0.23321 0.10999 0.0416 7.3377 0.47701 7.4127 0.60719 0.10459 4.0283-6.9885 4.6218-7.4271 0.30502-0.2254 2.7762-0.27044 3.02 0.0458 0.24046 0.31192-5.4379 8.744-5.4176 9.2393 0.0239 0.58501 1.8476 3.588 2.6699 4.8035 0.78448 1.1596 3.0624 4.4516 2.7488 4.605-0.42539 0.20816-2.7926 0.24614-3.116 0.11418-0.29991-0.12234-4.0855-6.8944-4.629-7.0842-0.31641-0.11048 0.13513 6.841-0.28152 7.0352-0.70641 0.32929-2.7205 0.28384-2.9118 0.0435-0.13615-0.17104-0.17804-18.595-0.1288-18.826z" stroke-width="1.1841"/></g></g><path d="m-61.506 177.86c-0.08783 0-0.17536 0.12165-0.20916 0.29079-0.06248 0.31211-0.25627 0.44031-0.53322 0.35245-0.2317-0.0737-0.73367 0.85825-0.64745 1.2018 0.04491 0.17909 0.01657 0.23725-0.11664 0.24544-0.09641 6e-3 -0.77651 0.0438-1.512 0.084-0.73543 0.0403-1.8721 0.16954-2.5258 0.28656-0.65372 0.11689-1.3278 0.21257-1.4981 0.21279-0.17017 1.6e-4 -0.50459 0.0696-0.74297 0.15416-0.51897 0.18417-1.5132 0.21677-1.7066 0.0563-0.07621-0.0633-0.60856-0.23148-1.1831-0.37422l-1.044-0.25933-0.37965 0.19584c-0.32001 0.16545-0.38414 0.25243-0.40988 0.55558-0.02876 0.33787-0.0043 0.37019 0.39657 0.54951 0.23471 0.10488 0.51558 0.22205 0.6245 0.26056 0.1591 0.0561 0.10101 0.0994-0.29684 0.22065-0.27238 0.083-0.62912 0.20865-0.79255 0.27929-0.16341 0.0707-0.47551 0.15728-0.69341 0.19235-0.21791 0.0349-0.59638 0.14655-0.84153 0.24787-0.24514 0.10137-0.52077 0.20758-0.61179 0.23576-0.09112 0.0283-0.27935 0.24604-0.41895 0.48426-0.22198 0.37883-0.23993 0.47101-0.14026 0.73511 0.16647 0.44045 0.84511 0.65393 1.3892 0.43648 0.12514-0.0499 0.60638-0.18709 1.0694-0.30469 0.46304-0.11777 1.0643-0.2744 1.3367-0.34821 0.27237-0.0737 0.76313-0.16313 1.09-0.19892 0.32688-0.0357 0.82977-0.15026 1.1178-0.25453 0.69065-0.25027 1.5025-0.24649 2.0022 8e-3 0.21355 0.10888 0.44183 0.19832 0.50781 0.19832 0.06599 0 0.41364 0.12165 0.772 0.27022 0.57011 0.23645 0.78468 0.27087 1.7163 0.27205 1.0507 2e-3 1.0646 6e-3 1.0646 0.23456 0 0.29081-0.53325 1.2918-0.81553 1.5313-0.25498 0.21632-0.83372 0.15532-1.3499-0.14207-0.18319-0.10538-0.45058-0.20692-0.59427-0.2255-0.14369-0.0175-0.52857-0.0836-0.85542-0.14383-0.66185-0.12203-1.738-0.0829-2.1624 0.0787-0.15248 0.0578-0.42048 0.10526-0.59548 0.10526-0.17501 0-0.40574 0.061-0.51326 0.13544-0.16411 0.11364-0.45712 0.16877-1.6812 0.31376-0.05445 6e-3 -0.2772 0.0605-0.49512 0.12027-0.2179 0.0598-0.88672 0.22287-1.486 0.36212-0.59923 0.13933-1.5736 0.40967-2.1655 0.60149-0.59183 0.19196-1.1814 0.34884-1.31 0.34884-0.12866 0-0.37962 0.0891-0.55799 0.19769-0.17836 0.10876-0.38452 0.19811-0.45763 0.19832-0.07312 2.2e-4 -0.23989 0.0844-0.37058 0.18748-0.13067 0.10275-0.43762 0.24579-0.68192 0.31799-0.53977 0.15942-0.71518 0.4971-0.48726 0.9364 0.23045 0.44417 0.42843 0.53273 1.1934 0.53624 0.58642 2e-3 0.81801-0.0482 1.3372-0.29379 0.34536-0.16331 0.7035-0.2968 0.79557-0.29684 0.0921-1.4e-4 0.18941-0.036 0.21643-0.0797 0.027-0.0438 0.2775-0.14149 0.55678-0.21766 0.27929-0.076 0.52976-0.17402 0.55679-0.21763 0.02703-0.0437 0.1913-0.0805 0.36514-0.0829 0.17384-2e-3 0.42785-0.0672 0.56404-0.14499 0.13619-0.078 0.35554-0.14285 0.48787-0.14499 0.13233-2e-3 0.37738-0.0442 0.5447-0.0937 1.031-0.30476 1.5498-0.41169 2.88-0.59487 1.5916-0.21913 2.3859-0.28002 2.4762-0.18982 0.03085 0.0308-0.07883 0.083-0.24423 0.11614-0.50918 0.10175-0.3655 0.2988 0.17169 0.23514 0.60825-0.072 2.1575 0.14033 2.5874 0.35488 0.19893 0.0996 0.4317 0.14128 0.57855 0.10463 0.22568-0.0567 0.23639-0.0451 0.13238 0.14947-0.06225 0.11639-0.15667 0.21158-0.20978 0.21158-0.05314 0-0.28535 0.0826-0.51626 0.183-0.92139 0.40109-1.7402 0.46266-3.1436 0.2364-0.86296-0.13914-1.1891-0.27571-1.1891-0.49754 0-0.24755 0.50533-0.71394 0.77322-0.71394 0.11964 0 0.21763-0.0447 0.21763-0.099 0-0.13311-0.45606-0.12591-0.72484 0.0113-0.55676 0.28472-0.74119 0.9421-0.34277 1.2212 0.12106 0.085 0.29912 0.15416 0.39598 0.15416 0.09684 0 0.17653 0.042 0.17653 0.0937 0 0.1005-0.61328 0.59971-0.73694 0.59971-0.04073 0-0.18732 0.0887-0.32585 0.1977-0.31214 0.24553-0.55869 0.24553-1.067 0-0.2179-0.10526-0.45043-0.19235-0.51688-0.19469-0.06642-3e-3 -0.26684-0.084-0.44554-0.18319-0.17869-0.0993-0.54799-0.23597-0.82036-0.30347-0.27238-0.0676-0.66769-0.16781-0.8784-0.22308-1.0125-0.26609-1.9237-0.0937-2.3632 0.44674-0.22638 0.27843-0.23754 0.95277-0.01578 0.95277 0.08791 0 0.32181 0.0844 0.5199 0.18748 0.40851 0.21216 0.88724 0.35233 1.7471 0.51265 0.32685 0.061 0.80731 0.17949 1.0682 0.263 0.43726 0.14012 0.46276 0.16507 0.32222 0.32038-0.08388 0.0927-0.15234 0.22101-0.15234 0.28475 0 0.0637-0.03359 0.11928-0.07444 0.12391-0.04083 4e-3 -0.20836 0.0228-0.37179 0.0405-0.16343 0.0175-1.2554 0.0574-2.4266 0.0881-1.1712 0.0308-2.6417 0.0971-3.2681 0.14754-0.62647 0.0511-1.4373 0.0772-1.8015 0.0594-0.65913-0.0325-0.66419-0.0302-1.1142 0.38872-0.37684 0.35097-0.4522 0.4804-0.4522 0.78106 0 0.48093 0.30187 0.76126 0.83608 0.77623 0.55014 0.0156 1.3628 4e-3 4.3394-0.0556 2.1553-0.0438 2.5499-0.03 2.5499 0.0882 0 0.077-0.0593 0.19955-0.13238 0.27265-0.1334 0.1333-0.36272 0.51935-0.36272 0.6106 0 0.12784 0.66975 0.36031 1.038 0.36031 0.35365 0 0.48416-0.0651 0.90137-0.45222 0.2682-0.24891 0.6101-0.51795 0.75991-0.59726 0.14981-0.0794 0.27204-0.20706 0.27204-0.28413 0-0.077 0.0336-0.16097 0.07444-0.18611 0.04082-0.0253 0.85424-0.097 1.8076-0.1602 1.1908-0.079 1.9354-0.17773 2.3777-0.31616 0.35409-0.11064 0.87774-0.22613 1.1637-0.25573 0.286-0.0297 0.5199-0.0904 0.5199-0.13544 0-0.0451 0.09015-0.13 0.20072-0.18923 0.18333-0.0983 0.19677-0.0832 0.15174 0.16993-0.02713 0.15279-0.21673 0.60812-0.42138 1.0126-0.25417 0.50277-0.33393 0.74849-0.25088 0.77622 0.06677 0.0224 0.12151 0.0924 0.12151 0.1559 0 0.077-0.23909 0.11677-0.71819 0.11927-0.71947 4e-3 -2.2531 0.39197-2.2531 0.5707 0 0.0456-0.08729 0.0556-0.19346 0.0218-0.10617-0.0337-0.31871 4e-3 -0.47275 0.0833-0.51387 0.26573-1.8135 0.58155-2.949 0.71696-0.27237 0.0325-0.59391 0.12127-0.71455 0.19769-0.12067 0.0762-0.27959 0.13915-0.35306 0.13915-0.3114 0-0.96683 0.96794-0.88868 1.3125 0.02163 0.0952-0.01657 0.17344-0.08528 0.17344-0.06856 0-0.30568 0.0817-0.52717 0.18125-0.22148 0.0997-0.80403 0.30567-1.2943 0.45762-0.49029 0.15182-1.0718 0.35984-1.2925 0.46184-0.36112 0.16682-0.78808 0.28255-1.6788 0.45524-0.16343 0.0315-0.3862 0.11251-0.49512 0.17968-0.10896 0.0675-0.33229 0.15279-0.49572 0.18982-0.47632 0.10838-1.0398 0.54458-1.0398 0.80467 0 0.28112 0.22737 0.51819 0.57673 0.60148 0.14599 0.0349 0.31002 0.0973 0.36454 0.13915 0.1791 0.13739 2.1516 0.0917 2.4236-0.0563 0.34713-0.18884 2.0089-0.6414 2.3559-0.6414 0.3109 0 1.2323-0.2413 1.5778-0.41351 0.119-0.0591 0.3086-0.0838 0.42137-0.0542 0.11278 0.0297 0.38042-0.0315 0.59548-0.13545 0.21506-0.10413 0.49384-0.18981 0.61905-0.18981 0.3662-9.4e-4 2.3016-0.54446 2.5137-0.70612 0.05873-0.0448 0.39258-0.19117 0.74238-0.32464 0.93049-0.35529 1.4807-0.64188 1.5434-0.80522 0.07104-0.18514 0.33069-0.18807 0.33069-4e-3 0 0.0773 0.02998 0.22181 0.06642 0.3216 0.06282 0.1715 0.05622 0.17267-0.12574 0.0136-0.2998-0.26226-0.46451-0.0784-0.49632 0.55499-0.02206 0.44111-0.09354 0.64405-0.35486 1.0078-0.18002 0.25062-0.39323 0.56055-0.47336 0.68858-0.15735 0.25123-0.5589 0.47797-0.69643 0.39293-0.04654-0.029-0.11031-0.0113-0.14147 0.0388-0.03106 0.0503-0.31256 0.16936-0.6257 0.26479-0.31313 0.0954-0.61208 0.21094-0.66379 0.25691-0.15139 0.13448-0.5145 0.0965-0.65109-0.0682-0.11172-0.13466-0.15273-0.12686-0.3591 0.0672-0.12806 0.12027-0.23275 0.1795-0.23275 0.13175 0-0.0478-0.05369-0.0333-0.1191 0.0319-0.06542 0.0653-0.37435 0.11927-0.68677 0.11927-0.31242 0-0.6936 0.0497-0.84696 0.11013-0.28398 0.11189-1.4901 0.30021-1.8801 0.29321-0.11823-2e-3 -0.36604 0.0594-0.55074 0.13662-0.18469 0.0773-0.57199 0.16779-0.86026 0.20076-0.51407 0.0588-1.5185 0.29112-1.6746 0.38754-0.04348 0.0267-0.31191 0.0597-0.59608 0.0725-0.28417 0.0113-0.56418 0.0812-0.62267 0.15163-0.05848 0.0707-0.2691 0.15396-0.46792 0.18495-0.95843 0.15006-2.4269 0.72904-2.53 0.9975-0.0321 0.0836-0.09898 0.12726-0.14811 0.0969-0.12798-0.0791-0.20917 0.18942-0.20917 0.69219 0 0.38665 0.0346 0.45271 0.30831 0.59424 0.26486 0.137 0.42089 0.14403 1.1142 0.0496 1.6242-0.22145 3.3078-0.55101 4.0933-0.80101 0.33706-0.10713 0.72503-0.19521 0.86207-0.19521 0.13702 0 0.35125-0.0427 0.47638-0.0952 0.12514-0.0526 0.41714-0.14362 0.64867-0.20201 0.23153-0.0583 0.42076-0.14889 0.42076-0.20138 0-0.13661-0.28093-0.11552-0.78288 0.0594-0.2399 0.0836-0.49613 0.129-0.56948 0.101-0.07331-0.028-0.13301-4e-3 -0.13301 0.0508 0 0.0566-0.04184 0.076-0.09249 0.0447-0.05069-0.0314-0.11633-0.0175-0.1457 0.029-0.02941 0.0478-0.33319 0.14188-0.67527 0.20921-0.34207 0.0675-0.68842 0.14714-0.77019 0.17716-0.08171 0.03-0.23809 0.0632-0.347 0.0725-0.10896 0.01-0.30936 0.0469-0.44554 0.0833-0.39738 0.10588-0.80696 0.17852-1.3372 0.23698-0.27239 0.03-0.54729 0.0954-0.61058 0.14578-0.06332 0.0503-0.40016 0.11639-0.74902 0.14694-0.51379 0.0452-0.66592 0.0245-0.80101-0.11051-0.18403-0.18397-0.21438-0.51255-0.0792-0.86449 0.13472-0.35079 1.1132-0.79437 2.2894-1.038 0.13618-0.028 0.3891-0.11476 0.56222-0.19234 0.17314-0.0774 0.4905-0.15767 0.70489-0.17832 0.2144-0.0206 0.48362-0.0877 0.59849-0.14949 0.11493-0.0614 0.66626-0.17618 1.2254-0.25454 0.55914-0.0785 1.0325-0.18884 1.0513-0.24543 0.0189-0.0567 0.24783-0.10276 0.50902-0.10276 0.26118 0 0.62517-0.0627 0.80888-0.13895 0.1837-0.0762 0.49005-0.13038 0.68072-0.11965 0.19066 0.01 0.50274-0.037 0.69341-0.10463 0.19066-0.0678 0.52508-0.1224 0.74298-0.1214l0.39598 1e-3 -0.68616 0.34094c-0.37725 0.18768-0.76686 0.41421-0.8663 0.50417-0.09943 0.0896-0.18076 0.13232-0.18076 0.0937 0-0.0388-0.10109 0.0466-0.22429 0.18982-0.22069 0.25656-0.54557 0.3454-2.1848 0.59608-0.20826 0.0318-0.47566 0.099-0.59426 0.14986-0.30409 0.12999 0.82695 0.0113 1.4981-0.15474 0.5209-0.13057 0.52628-0.12901 0.61905 0.11502 0.05149 0.13544 0.0937 0.28967 0.0937 0.34336 0 0.20262 0.72151 0.40698 1.2097 0.34215 0.46454-0.0616 0.62931 0.0405 0.34036 0.21099-0.07366 0.0437-0.18713 0.17988-0.25149 0.30228-0.06435 0.12278-0.17894 0.22248-0.25512 0.22248-0.07616 0-0.16694 0.0906-0.20192 0.20076-0.03498 0.11026-0.314 0.38537-0.61966 0.61118-0.30566 0.22582-0.69189 0.5591-0.85844 0.74056-0.16655 0.18144-0.35242 0.3295-0.4129 0.3295-0.06051 0-0.22971 0.11088-0.37602 0.24662-0.30052 0.27853-1.4281 1.1677-1.9339 1.5253-0.42674 0.30168-1.1029 0.39212-1.2859 0.17168-0.31425-0.37861 0.32652-1.2137 1.3838-1.8033 0.1868-0.10401 0.46567-0.28973 0.61965-0.41232 0.15398-0.12278 0.3205-0.22305 0.36998-0.22305 0.04946 0 0.40718-0.24509 0.79497-0.54471 0.38778-0.2996 0.7606-0.54468 0.82822-0.54468 0.06764 0 0.20365-0.0895 0.30227-0.19832 0.0986-0.10888 0.25874-0.19768 0.35608-0.19768 0.21191 0 0.30055-0.11639 0.20615-0.26901-0.04588-0.0745-0.20868-0.0156-0.49271 0.17774-0.23303 0.15883-0.44385 0.28898-0.46912 0.28898-0.02532 0-0.1241 0.0711-0.21944 0.15726-0.09535 0.0861-0.37391 0.28768-0.61905 0.44799-0.24514 0.1602-0.66889 0.44929-0.94127 0.64202-0.27239 0.19273-0.67319 0.43663-0.89109 0.54226-0.21791 0.10563-0.67515 0.44867-1.0156 0.76173-0.50931 0.46827-0.61905 0.62449-0.61905 0.88263 0 0.56016 0.07017 0.62751 0.65653 0.62751 0.38893 0 0.63759-0.0633 0.9056-0.23035 0.2032-0.12668 0.44753-0.25858 0.54288-0.2938 0.09532-0.035 0.1735-0.11013 0.1735-0.16622 0-0.0561 0.05044-0.10213 0.11245-0.10213 0.09951 0 0.46978-0.29336 1.2653-1.0017 0.13153-0.11714 0.38776-0.30018 0.56948-0.40746 0.18173-0.10713 0.33068-0.22452 0.33068-0.26057 0-0.11226 0.38455-0.31163 0.43708-0.2267 0.02738 0.0444-0.03276 0.25522-0.13299 0.46852-0.26833 0.57082-0.43289 1.2775-0.35486 1.5235 0.04235 0.1333 0.01403 0.27923-0.07435 0.38207-0.2951 0.34359-0.83024 1.5286-1.0374 2.296-0.23588 0.87386-0.26783 1.5531-0.08524 1.8317 0.08689 0.13253 0.1584 0.40196 0.1584 0.59851 0 0.28874-0.03344 0.34984-0.1735 0.31921-0.09535-0.021-0.16228-0.0906-0.14872-0.15532 0.03792-0.18066-0.14351-0.14052-0.21582 0.0478-0.03506 0.0914-0.1762 0.73504-0.31375 1.4303-0.20603 1.0409-0.24218 1.462-0.20615 2.3843 0.05275 1.3509 0.13042 1.7378 0.37602 1.8692 0.10724 0.0573 0.18621 0.20641 0.18621 0.35063 0 0.20598-0.03504 0.23981-0.19829 0.18807-0.28741-0.091-0.35838 0.19216-0.2793 1.1081 0.21043 2.4382 0.46717 3.4979 0.84817 3.4979 0.15784 0 0.15676-0.0468-0.01039-0.37661-0.31588-0.62364-0.62268-2.9335-0.46308-3.4864 0.06768-0.23442 0.0772-0.22676 0.18317 0.14208 0.07055 0.24526 0.07796 0.43112 0.0193 0.50177-0.05662 0.0678-0.05905 0.24655-6e-3 0.45219 0.04816 0.18709 0.11689 0.60777 0.15234 0.93463 0.07223 0.66596 0.26004 1.2297 0.78227 2.345 0.39245 0.83815 0.6074 0.99358 1.0102 0.72967 0.29961-0.19625 0.3946-0.14753 0.47275 0.24304 0.06269 0.31326 0.14716 0.3673 1.0803 0.68616h6.11e-4c0.54853 0.1873 1.3854 0.16897 1.8898-0.0417 0.32704-0.13662 0.65895-0.59348 0.65895-0.9068 0-0.26447-0.1798-0.12491-0.3331 0.25813-0.08608 0.21519-0.249 0.44056-0.36212 0.50116-0.35719 0.19119-1.8411 0.13251-2.2549-0.0891-0.20862-0.11163-0.41619-0.64623-0.41714-1.0749-9.27e-4 -0.32118 0.22533-1.1154 0.31739-1.1154 0.04317 0 0.07862-0.10876 0.07862-0.24181 0-0.13291 0.0517-0.27434 0.11545-0.31376 0.07796-0.0482 0.09508-0.0157 0.05272 0.0937-0.03964 0.10325-0.01305 0.16448 0.07006 0.16448 0.07324 0 0.21698-0.2339 0.3198-0.51988 0.10288-0.28601 0.23116-0.51991 0.28474-0.51991 0.11056 0 0.07796 0.59143-0.05862 1.0676-0.12399 0.43341-0.1174 2.1516 0.0076 2.1516 0.05841 0 0.09905-0.35139 0.09905-0.85602 0-0.57461 0.06653-1.08 0.20252-1.5367 0.19568-0.65712 0.21164-0.67791 0.47032-0.61603 0.14733 0.0353 0.50233 0.0844 0.78832 0.10926l0.51992 0.0454v0.79136c0 0.85336 0.31316 2.3106 0.54832 2.5512 0.12034 0.12315 0.16304 0.11989 0.32282-0.0249 0.10134-0.0916 0.23268-0.16682 0.292-0.16682 0.05928 0 0.12487-0.0507 0.1457-0.11301 0.02832-0.085 0.09037-0.085 0.24908 0 0.11641 0.0622 0.27046 0.11189 0.34216 0.10938 0.11545-4e-3 0.67527-0.76948 0.67527-0.92432 0-0.0333 0.07247-0.1444 0.1608-0.24787 0.21545-0.25159 0.84515-1.6904 0.7835-1.79-0.0268-0.0434-0.18364-0.13447-0.34822-0.20263-0.2949-0.12202-0.35749-0.20715-0.2394-0.32523 0.03294-0.0332 0.15314 0.0267 0.26661 0.13232 0.11348 0.10588 0.27585 0.18046 0.3609 0.16682 0.09508-0.0136 0.14443 0.0377 0.12818 0.13721-0.03536 0.21554 0.22096 0.30393 0.506 0.17402 0.15854-0.0721 0.4192-0.49746 0.84092-1.3723 0.33608-0.69717 0.61119-1.3531 0.61119-1.4576 0-0.10463 0.04404-0.23443 0.09795-0.28835 0.05403-0.0538 0.12291-0.31923 0.15355-0.58945 0.12716-1.1193 0.12915-1.1236 0.41653-1.1039 0.32074 0.022 0.53757-0.3628 0.71881-1.2738 0.06457-0.32439 0.15571-0.7681 0.2025-0.98598 0.04677-0.21791 0.11687-0.95311 0.15538-1.6341 0.05412-0.95814 0.10552-1.2645 0.2273-1.3542 0.22435-0.16527 0.20232-2.9247-0.029-3.6478-0.08707-0.27241-0.15897-0.58994-0.15961-0.70551-6.12e-4 -0.11577-0.09399-0.42105-0.20796-0.67891-0.21657-0.48962-0.14897-0.78628 0.1197-0.52534 0.2374 0.23054 2.1071 1.7233 2.3408 1.8686 0.12268 0.0763 0.27423 0.29496 0.33612 0.48605 0.06191 0.19118 0.19843 0.46983 0.30348 0.61965 0.16532 0.23564 0.25805 0.27264 0.68857 0.27264 0.34766 0 0.57368 0.0594 0.74963 0.1977 0.27258 0.21444 0.86424 0.26734 0.97573 0.0871 0.03787-0.0612 0.06895-0.2804 0.06895-0.48667 0-0.42536-0.28343-0.9549-0.80647-1.5077-0.2882-0.30457-0.35255-0.44911-0.35607-0.79621-0.0043-0.41804-0.18296-0.95586-0.55618-1.6739-0.10475-0.2014-0.19044-0.42937-0.19044-0.50662 0-0.0774-0.08112-0.24671-0.18017-0.37662-0.2273-0.29826-0.45923-0.86833-0.38389-0.94367 0.03149-0.0314 0.18931 0.037 0.35064 0.15163 0.16136 0.11476 0.36178 0.20916 0.44554 0.20916 0.08378 0 0.1797 0.0447 0.2134 0.099 0.03369 0.0543 0.18434 0.099 0.33431 0.099 0.35924 0 0.7061-0.46148 0.7061-0.93946v-0.35366l0.29018 0.15065c0.185 0.0961 0.40475 0.12687 0.60635 0.0864 0.31326-0.0627 0.31575-0.0675 0.25995-0.53808-0.03096-0.26128-0.12896-0.61567-0.21763-0.78709-0.22584-0.43667-0.1258-0.46419 0.33674-0.0924 0.42363 0.34049 0.70488 0.34199 0.70488 4e-3 0-0.30677-0.74903-1.9352-1.0543-2.2918-0.07357-0.086-0.13422-0.19021-0.13422-0.23155 0-0.0969-1.5008-2.0379-2.0796-2.6896-1.1775-1.3256-1.1389-1.2587-1.2732-2.1945-0.16992-1.1847-0.82254-2.9715-1.2852-3.5184-0.08333-0.0984-0.10089-0.17345-0.0405-0.17345 0.05852 0 0.20071 0.15298 0.31618 0.33975 0.11545 0.18669 0.24228 0.35377 0.28171 0.3712 0.18312 0.0812 1.3283 2.6051 1.7 3.7463 0.18286 0.56149 0.2944 0.83871 0.59487 1.4799 0.08796 0.18787 0.30044 0.25495 0.30044 0.0949 0-0.069-0.08641-0.30691-0.19225-0.52839-0.10587-0.22149-0.25791-0.5813-0.33793-0.79922-0.46933-1.2786-1.0641-2.7833-1.2254-3.1001-0.54176-1.0638-0.78165-1.4563-1.0827-1.7755-0.18241-0.19334-0.33129-0.36699-0.33129-0.38572 0-0.0175 0.5013 0.22616 1.1142 0.54408 0.61285 0.31795 1.2259 0.612 1.362 0.65353 0.38837 0.11827 0.89111 0.53866 0.89111 0.74477 0 0.10288 0.34141 0.545 0.75809 0.9818 0.41668 0.43678 0.87501 0.97153 1.0186 1.1885 0.14365 0.21697 0.54315 0.6885 0.88808 1.0477 0.53871 0.56101 0.68888 0.66139 1.0634 0.71274 0.50264 0.0688 0.82823-0.1372 0.82823-0.52413 0-0.22498-0.30339-1.1114-0.49573-1.4478-0.15382-0.2692-0.11606-0.55454 0.08828-0.66381 0.4144-0.22179 0.32006-0.91239-0.1868-1.3675-0.13619-0.12216-0.73318-0.46613-1.327-0.76473-0.74588-0.37513-1.0294-0.56247-0.91647-0.60575 0.20411-0.0783 0.21349-0.32586 0.01501-0.40203-0.08181-0.0314-0.14872-0.0962-0.14872-0.1444 0-0.101-0.44748-0.69836-1.281-1.7096-0.97546-1.1834-2.2333-2.2869-2.978-2.6128-0.76546-0.3351-0.97058-0.74396-0.70005-1.3971 0.1225-0.2957 0.115-0.33963-0.10091-0.56948-0.19395-0.2065-0.20961-0.26422-0.09125-0.33733 0.08608-0.0532 0.19046-0.0483 0.26298 0.0113 0.12831 0.10638 0.33189-0.16331 0.33189-0.4395 0-0.0785 0.06303-0.19469 0.13965-0.25813 0.11393-0.0945 0.23561 0.0426 0.66863 0.75506 0.97617 1.6065 1.1693 1.89 1.7441 2.553 0.2577 0.29724 0.71419 0.83656 1.0138 1.1982 1.4251 1.7201 2.9368 2.9916 3.4422 2.8958 0.29112-0.0553 0.2771-0.69495-0.02844-1.2961-0.40006-0.78724-0.64938-1.1023-1.9774-2.4986-1.0906-1.1467-2.4272-2.7276-2.4272-2.871 0-0.12591-1.1182-1.5511-1.3215-1.6843-0.12305-0.0805-0.36625-0.17481-0.54045-0.20976-0.44159-0.0882-0.41076-0.31232 0.04106-0.29805l0.35789 0.0113 0.03435-0.64806c0.02196-0.41293 0.12523-0.85228 0.28353-1.2103 0.21745-0.49183 0.22931-0.57259 0.09542-0.64745-0.1363-0.0762-0.13388-0.13038 0.02602-0.49936 0.0986-0.22768 0.25341-0.43696 0.34337-0.4655 0.08992-0.0287 0.18984-0.19524 0.22248-0.37059 0.13778-0.74034 0.27647-1.1487 0.58519-1.7254 0.20947-0.39116 0.21425-0.52474 0.01871-0.52474zm-1.4424 2.2284c0.12116-0.0175 0.30753 0.0447 0.30227 0.13349-0.01657 0.30036-0.86338 1.0999-1.174 1.1081-0.08783 2e-3 -0.33827 0.0717-0.55618 0.15415-0.21789 0.0825-0.9531 0.2078-1.6341 0.27868-0.68095 0.071-1.3071 0.15864-1.3916 0.19524-0.08454 0.0368-0.17824 0.0423-0.20796 0.0113-0.02976-0.0298-0.30997-0.1204-0.62268-0.202-0.75076-0.19542-1.5726-0.55356-1.4727-0.6414 0.1281-0.11264 0.92437-0.28723 1.5458-0.33914 0.31602-0.0265 0.71743-0.0912 0.89169-0.14441 0.42655-0.13058 2.445-0.31925 2.6962-0.2521 0.2713 0.0725 1.4519-0.12378 1.5331-0.2551 0.01637-0.0265 0.04974-0.042 0.09004-0.0483zm-10.208 0.4528c0.12679-3e-3 0.2743 6e-3 0.44071 0.023 0.69892 0.0742 1.8213 0.40547 2.0379 0.60151 0.09728 0.0879 0.27792 0.16038 0.40141 0.16038 0.1235 0 0.34266 0.0613 0.48725 0.13662 0.41539 0.2161 1.1803 0.50799 2.1262 0.81128 0.48017 0.15397 0.89563 0.31547 0.92254 0.35909 0.02689 0.0434 0.12462 0.0791 0.21763 0.0791 0.09298 0 0.32464 0.0877 0.51446 0.19469 0.18982 0.10676 0.53444 0.29289 0.76595 0.41352 0.23153 0.12065 0.42076 0.2729 0.42076 0.33854 0 0.0655-0.19808 0.16935-0.44011 0.23034-0.66156 0.16663-0.90635 0.13641-1.9865-0.24425-0.54476-0.19197-1.1019-0.37567-1.2381-0.40806-0.13619-0.0325-0.35251-0.13993-0.48061-0.23939-0.12812-0.0994-0.38494-0.2094-0.57068-0.24425-0.18572-0.0347-0.50269-0.14733-0.70429-0.25027-0.20158-0.10275-0.4203-0.1867-0.48605-0.1867-0.06576 0-0.24538-0.0645-0.39962-0.14324-0.6614-0.33746-1.7889-0.82418-2.0627-0.8905-0.38069-0.0922-0.5453-0.23131-0.5453-0.46188 0-0.17832 0.19872-0.27295 0.57915-0.27927zm9.429 1.0815c0.1206 0 0.12334 0.42604 0.0033 0.55014-0.22249 0.23058-0.5992 1.0778-0.51626 1.1607 0.05348 0.0534 0.11629 0.0461 0.15599-0.0175 0.08244-0.1333 0.2533-0.14148 0.2533-0.0113 0 0.0527-0.07817 0.13623-0.17351 0.18612-0.18559 0.0972-0.37657 0.0368-0.86691-0.27505-0.55687-0.35423-1.6981-0.89837-1.8843-0.89837-0.12997 0-0.15449-0.031-0.08168-0.104 0.05732-0.0573 0.50064-0.14091 0.98539-0.18554 0.48476-0.0448 1.1398-0.15377 1.4557-0.24244 0.3159-0.0885 0.61679-0.16156 0.66862-0.16156zm-8.8329 0.39838c0.27175-0.01 0.62994 0.0434 0.76171 0.14324 0.10573 0.08 0.2592 0.14812 0.34097 0.15162 0.0817 4e-3 0.37147 0.11577 0.64384 0.24967 0.27239 0.13389 0.55372 0.24423 0.62509 0.24484 0.21639 1e-3 0.03985 0.17072-0.2521 0.24181-0.64099 0.1559-1.1338 0.26034-2.2549 0.477-0.65372 0.12648-1.2437 0.26376-1.3106 0.30529-0.06687 0.0416-0.44542 0.14285-0.84152 0.22609-0.39609 0.083-0.83325 0.17402-0.97149 0.20179-0.38028 0.0764-0.739-0.25142-0.65231-0.59665 0.0702-0.2798 0.84616-0.8548 1.1535-0.8548 0.08881 0 0.46974-0.10664 0.84695-0.23701 0.37722-0.13018 0.87508-0.26808 1.1063-0.30591 0.23125-0.0378 0.44561-0.10926 0.47638-0.15902 0.0335-0.0539 0.1652-0.0826 0.32827-0.0882zm8.2834 1.9787c0.0817 0 0.1487 0.0447 0.1487 0.099 0 0.0546-0.06687 0.099-0.1487 0.099-0.0817 0-0.14813-0.0447-0.14813-0.099 0-0.0546 0.06632-0.099 0.14813-0.099zm0.09311 0.42861c0.03414 4e-3 0.08751 0.0263 0.15959 0.072 0.07906 0.0501 0.26445 0.0916 0.4117 0.0924 0.47828 4e-3 0.71191 0.20077 1.3663 1.1583 0.35408 0.51815 0.70575 1.0078 0.78167 1.0882 0.07587 0.0805 0.2479 0.3083 0.38206 0.50599 0.26454 0.38981 0.52821 0.68151 1.7961 1.9889 0.45662 0.47088 0.97605 1.0347 1.1541 1.2526 0.32556 0.39851 0.93764 1.5182 0.93764 1.7151 0 0.27181-0.41273 0.19605-0.89169-0.16313-0.47784-0.35846-1.5959-1.505-2.4266-2.4883-0.38132-0.4514-0.92732-1.0937-1.2133-1.4273-0.28601-0.33364-0.51991-0.65846-0.51991-0.72245 0-0.064-0.03568-0.13115-0.07916-0.14948-0.04348-0.0175-0.36612-0.5199-0.71759-1.1148-0.35148-0.59489-0.77915-1.2306-0.94974-1.4128-0.22676-0.24208-0.29353-0.40573-0.19103-0.39538zm-0.24725 0.36395c0.05764 0 0.10463 0.0447 0.10463 0.099s-0.01952 0.099-0.04348 0.099c-0.02414 0-0.07094-0.0447-0.10463-0.099-0.03369-0.0546-0.01423-0.099 0.04348-0.099zm-4.4125 0.78105c0.20373 8e-3 0.39438 0.0245 0.55558 0.0514 0.51288 0.0861 1.2251 0.3375 1.9182 0.67769l0.48242 0.23698-0.48242 0.18553c-0.2652 0.10187-0.54887 0.19196-0.63053 0.20017-0.0817 8e-3 -0.5942 0.0493-1.139 0.0924-1.3242 0.10488-1.6217 0.13369-2.0306 0.19892-0.19066 0.0304-0.79249 0.10213-1.3372 0.15902-0.54478 0.0567-1.28 0.1717-1.6341 0.2551-0.35409 0.0836-0.84483 0.18885-1.09 0.23457-0.24514 0.0456-0.69063 0.15571-0.99024 0.24425-0.29962 0.0882-0.74508 0.19933-0.99024 0.24662-0.55707 0.10739-2.3062 0.71518-2.3904 0.83066-0.03434 0.0469-0.30174 0.15319-0.59426 0.23575-0.84051 0.23725-1.1869 0.23981-1.547 0.0113-0.36316-0.22966-0.40068-0.33406-0.14872-0.41654 0.09534-0.0312 0.37357-0.17578 0.61844-0.32101 0.41849-0.24826 1.4282-0.6361 2.157-0.82823 0.17828-0.0469 0.4334-0.15629 0.56645-0.2436 0.13305-0.0871 0.34342-0.15883 0.46792-0.15903 0.12449-2.2e-4 0.53818-0.11051 0.91951-0.24545 0.38133-0.13487 0.811-0.24609 0.95458-0.24725 0.14359-1e-3 0.38864-0.0685 0.54468-0.14988 0.15606-0.0815 0.42643-0.1483 0.60093-0.14888 0.17448-3.1e-4 0.42016-0.0408 0.5453-0.0895 0.12514-0.0489 0.42771-0.1411 0.67286-0.20557 0.44646-0.11727 1.3009-0.36158 2.2289-0.63717 0.42934-0.12746 1.1608-0.19118 1.7719-0.16936zm3.2216 0.81614c0.03436 1e-3 0.06402 0.01 0.08037 0.0265 0.03281 0.0329-0.02549 0.0567-0.12999 0.0521-0.11536-4e-3 -0.1388-0.028-0.05995-0.0598 0.03579-0.0136 0.07499-0.0204 0.10937-0.0175zm0.27568 0.28475c0.2882 0 0.30801 0.2947 0.02483 0.36874-0.12393 0.0325-0.22556 0.16272-0.25995 0.33492-0.03096 0.15513-0.10868 0.32571-0.17288 0.37906-0.27422 0.22754-1.3784 0.18065-2.472-0.10576-0.54101-0.14169-0.32372-0.31063 0.45643-0.35485 0.62461-0.0353 1.9263-0.36495 2.1014-0.53198 0.05173-0.0494 0.19691-0.09 0.32222-0.09zm0.30286 1.4146c0.31786 0.0483 2.0926 1.2422 2.7301 1.8535 0.63682 0.61067 2.6424 3.0568 2.6424 3.2228 0 0.0255-0.03359 0.044-0.07443 0.0417-0.11045-6e-3 -0.84386-0.39607-1.015-0.53924-0.08179-0.0684-0.3126-0.17695-0.51265-0.24123-0.40856-0.13116-1.6048-1.3217-1.9001-1.891-0.09838-0.18962-0.24952-0.4786-0.33552-0.64203-0.08597-0.16331-0.48433-0.62636-0.88565-1.0289-0.40132-0.40259-0.71327-0.74912-0.69279-0.76959 0.0066-8e-3 0.02229-8e-3 0.04348-6e-3zm-0.0043 0.66317c0.20232-0.0245 0.7735 0.61902 1.5047 1.7199 0.39219 0.59053 0.69962 1.1077 0.68313 1.1498-0.01637 0.0421-0.31997-0.0716-0.67406-0.2527-0.35409-0.18124-0.91246-0.42073-1.2405-0.53199l-0.59607-0.202 0.06642-0.61847c0.03656-0.34013 0.09004-0.7078 0.1185-0.81672 0.02844-0.10888 0.05446-0.25415 0.05919-0.32223 0.0043-0.0793 0.03196-0.12002 0.0786-0.12569zm-0.96545 0.0544c0.05468 0.0113 0.10212 0.0497 0.10212 0.10212 0 0.0238-0.06982 0.0437-0.15476 0.0437-0.0852 0-0.12615-0.0451-0.09191-0.10037 0.02831-0.0458 0.0898-0.058 0.14449-0.0454zm-0.4921 0.14576c0.05445 0 0.09905 0.0671 0.09905 0.14871 0 0.0816-0.04457 0.1487-0.09905 0.1487-0.05445 0-0.09905-0.0671-0.09905-0.1487s0.04471-0.14871 0.09905-0.14871zm-3.6151 0.3966c0.08179 0 0.14811 0.0441 0.14811 0.0984 0 0.0548-0.06632 0.099-0.14811 0.099-0.0817 0-0.14872-0.0447-0.14872-0.099 0-0.0546 0.06698-0.0984 0.14872-0.0984zm-5.7945 6e-3c0.43042 8e-3 0.68697 0.0793 1.3088 0.29802 0.50598 0.17793 1.1429 0.40035 1.4152 0.49454 0.27239 0.0941 0.62853 0.2423 0.79196 0.32946 0.16343 0.0871 0.44827 0.18689 0.63234 0.22187 0.2157 0.0409 0.35247 0.13214 0.38511 0.25694 0.0381 0.14597 0.11231 0.18182 0.30165 0.14577 0.26756-0.0512 1.0635 0.14441 1.5537 0.38207 0.16343 0.0793 0.63008 0.27471 1.0374 0.43406 0.40731 0.1594 0.75443 0.33169 0.7714 0.38269 0.01715 0.0511-0.11524 0.12515-0.29442 0.16448-1.0279 0.2257-3.0617 0.0812-3.383-0.24-0.05656-0.0567-0.18777-0.10275-0.29199-0.10275-0.10419 0-0.35204-0.086-0.55014-0.19117-0.48498-0.2576-1.345-0.52726-2.5391-0.7956-0.54476-0.1224-1.0679-0.26255-1.1625-0.31134-0.09465-0.0487-0.27839-0.0888-0.40867-0.0888-0.30279 0-0.88445-0.24179-1.044-0.43408-0.06775-0.0816-0.18639-0.12352-0.26418-0.0937-0.21784 0.0836-0.1676-0.18086 0.09732-0.51206 0.22783-0.2848 0.27477-0.29817 1.1347-0.33128 0.20213-8e-3 0.36494-0.0113 0.50842-8e-3zm9.822 2e-3c0.05248 8e-3 0.08276 0.0438 0.08276 0.10876 0 0.23415-0.32543 1.2689-0.399 1.2689-0.04151 0-0.07873 0.1005-0.08345 0.22306-0.02526 0.69085-0.1364 1.0482-0.34398 1.1039-0.11732 0.0314-0.25803 0.0556-0.31255 0.0546-0.09433-2e-3 -0.93058-0.33942-1.5996-0.64445-0.17168-0.0784-0.381-0.14207-0.4649-0.14207-0.08388 0-0.1797-0.0447-0.21339-0.099-0.03369-0.0543-0.14538-0.099-0.24786-0.099-0.43557 0-0.25566-0.21759 0.44856-0.54288 0.41509-0.19176 0.80704-0.34882 0.87114-0.34944 0.06412-5.9e-4 0.35484-0.11226 0.64625-0.24788 0.29141-0.13564 0.62582-0.24727 0.74297-0.24843 0.11717-1e-3 0.32449-0.0901 0.46067-0.19647 0.17538-0.1372 0.32474-0.20202 0.41229-0.18923zm-1.9726 0.0906c0.16483 0 0.17696 0.0244 0.07443 0.14812-0.06786 0.0816-0.2121 0.14869-0.32101 0.14869-0.16483 0-0.17756-0.0252-0.07499-0.14869 0.06786-0.0816 0.2127-0.14812 0.32162-0.14812zm-2.4484 0.21098c0.13973-0.03 0.0033 0.17482-0.22549 0.28958-0.14981 0.0751-0.30606 0.15319-0.347 0.17286-0.04082 0.0204-0.04852-0.0298-0.01755-0.11051 0.03096-0.0811 0.13086-0.17402 0.22246-0.20675 0.09158-0.0328 0.2221-0.0856 0.29018-0.11727 0.03183-0.0136 0.05741-0.0234 0.07729-0.0277zm-0.87115 0.50904c0.04677-6e-3 0.08563-2.5e-4 0.10463 0.0175 0.02075 0.0206-0.05225 0.0856-0.16261 0.14441-0.11288 0.0605-0.22447 0.069-0.25511 0.0175-0.03942-0.0637 0.17255-0.16702 0.31314-0.18242zm0.8107 0.28232c0.03436 1e-3 0.06402 0.01 0.08037 0.027 0.03173 0.0328-0.02625 0.0559-0.12999 0.0514-0.11545-4e-3 -0.1388-0.0283-0.05995-0.0598 0.03581-0.0136 0.07499-0.0205 0.10937-0.0175zm4.6634 0.0871c0.11535 0 0.18241 0.0447 0.1487 0.099-0.03369 0.0546-0.10059 0.099-0.1487 0.099-0.04807 0-0.115-0.0447-0.14872-0.099-0.03369-0.0546 0.03338-0.099 0.14872-0.099zm0.26055 0.44069c0.26605-0.0113 0.99483 0.17754 1.4974 0.40324 0.3134 0.1407 0.74816 0.33602 0.96605 0.43406 0.62487 0.28104 2.8373 1.3996 3.7886 1.9152 0.94311 0.5111 1.2778 0.6698 1.4128 0.6698 0.04821 0 0.12334 0.0553 0.16686 0.1234 0.04348 0.068 0.16797 0.17248 0.27686 0.23157 0.10892 0.0591 0.28529 0.26634 0.39176 0.46064 0.16296 0.29746 0.17292 0.37808 0.06225 0.51144-0.25701 0.30967-0.78486 0.14851-2.6824-0.81974-0.68095-0.3475-1.9901-1.0146-2.9096-1.4823-1.6466-0.83752-1.8872-1.011-2.8087-2.0294-0.17606-0.19469-0.28616-0.37445-0.24545-0.3996 0.01715-0.01 0.04536-0.0157 0.08345-0.0175zm-0.23577 0.65049c0.13815 1e-3 0.34886 0.15396 0.55498 0.40201h6.11e-4c0.18284 0.2202 0.31625 0.41523 0.29682 0.43346-0.03096 0.0293-0.30633-0.14207-0.90197-0.56101-0.23727-0.16682-0.21737-0.27679 0.04964-0.27446zm-6.3066 0.60332c0.05402-6.2e-4 0.15873 0.0426 0.36031 0.12941 0.912 0.39299 1.3784 0.55406 1.631 0.56343 0.2674 0.01 0.26475 0.0136-0.06772 0.10989-0.19068 0.0552-1.0822 0.13682-1.9811 0.18125-0.89886 0.0444-2.0132 0.12823-2.4762 0.18611-0.46305 0.058-1.076 0.10538-1.362 0.10588-0.3106 3.4e-4 -0.5199 0.0447-0.5199 0.10951 0 0.0748 0.28402 0.0906 0.91648 0.0521 0.50391-0.0308 1.7628-0.0984 2.7978-0.15065 1.0351-0.0522 2.194-0.16682 2.5753-0.2545 0.38132-0.0877 0.98313-0.20638 1.3372-0.2636 0.3541-0.0571 0.73321-0.13953 0.84214-0.18241 0.10892-0.0429 0.38757-0.15727 0.61965-0.2539 0.23208-0.0969 0.44956-0.14888 0.48302-0.11552 0.10997 0.10989-0.05335 0.36664-0.23335 0.36695-0.09706 2.1e-4 -0.3222 0.0895-0.50055 0.19832-0.17838 0.10876-0.38265 0.19769-0.45401 0.19769-0.07136 0-0.39356 0.0825-0.71579 0.18319-0.65153 0.20366-1.8828 0.41451-2.6557 0.45521-0.27796 0.0136-0.79512 0.0563-1.1492 0.0924-0.35409 0.0363-1.4237 0.0842-2.3771 0.10701-0.95334 0.0226-2.157 0.0842-2.6745 0.13662-0.51752 0.0524-1.4755 0.10538-2.1292 0.11789-0.65372 0.0113-1.536 0.0275-1.9599 0.0345-0.71962 0.0113-1.3874-0.12648-1.5887-0.32767-0.15412-0.15415 0.03843-0.64433 0.35123-0.89351 0.27149-0.21638 0.38616-0.23984 1.0573-0.21702 0.41408 0.0137 1.3104-0.0416 1.9914-0.1234 1.6157-0.19391 5.5854-0.29814 5.8556-0.15356 0.14369 0.0768 0.23679 0.0755 0.33551-6e-3 0.07708-0.064 0.46274-0.11239 0.88505-0.10988 0.59299 4e-3 0.74843-0.0262 0.74843-0.14071 0-0.0892 0.0033-0.13349 0.05741-0.13428zm5.8961 0.19392c0.01637-8e-3 0.06215 0.0249 0.14872 0.0931 0.29575 0.23295 1.1281 1.4821 1.1281 1.6927 0 0.0464 0.08947 0.23032 0.19829 0.40868 0.10882 0.17832 0.19798 0.41338 0.19829 0.5223 3.17e-4 0.10901 0.08179 0.33231 0.18136 0.49571 0.09959 0.16333 0.21224 0.41967 0.24966 0.5695 0.03787 0.15142 0.02668 0.27203-0.02483 0.27203-0.09191 0-0.59022-0.59229-0.76232-0.90618-0.16318-0.29763-0.95997-1.1736-1.0706-1.177-0.1936-6e-3 -0.55428-0.37013-0.55195-0.55741 0.0011-0.10037 0.09067-0.37801 0.1995-0.61784 0.1183-0.2607 0.17169-0.51943 0.13238-0.64322-0.0303-0.0955-0.04303-0.14421-0.02658-0.1522zm1.0332 0.52354c0.03536 6e-3 0.09101 0.0489 0.14268 0.11126 0.07817 0.0941 0.08553 0.15124 0.01994 0.15124-0.11968 0-0.2591-0.18827-0.19042-0.25694 0.0055-6e-3 0.01598-8e-3 0.02788-6e-3zm0.27144 0.5592c0.04106-0.0175 0.17908 0.12843 0.37723 0.45944 0.51239 0.85611 0.7841 1.4612 0.7841 1.7471 0 0.13934 0.08881 0.461 0.19767 0.71517 0.10892 0.25419 0.19829 0.5925 0.19829 0.75144 0 0.2767-0.09003 0.36336-0.23095 0.22246-0.03634-0.0364-0.06841-0.18085-0.07082-0.3216-0.0055-0.30864-0.20752-1.0712-0.35667-1.3451-0.05929-0.10901-0.18452-0.43462-0.2787-0.72303-0.0942-0.28838-0.28212-0.72284-0.41773-0.96545-0.18777-0.33592-0.24361-0.52131-0.20252-0.54045zm-1.6244 0.89168c0.12983 0 0.31741 0.25571 0.24242 0.3307-0.13562 0.13564-0.32948 0.0573-0.32948-0.13292 0-0.10888 0.03919-0.19769 0.08707-0.19769zm6.0291 0.39719c0.18331 4e-3 1.2397 0.67844 1.3445 0.85966 0.32398 0.56005 0.58504 0.99802 0.73873 1.2399 0.09388 0.14753 0.31307 0.49318 0.48788 0.76775 0.20482 0.3217 0.27101 0.49937 0.18617 0.49937-0.15207 0-0.91519-0.82395-2.0427-2.2048-0.7356-0.90078-0.89807-1.1654-0.71455-1.1619zm-5.4892 4e-3c0.06489-0.0323 0.22522 0.12648 0.46549 0.46549 0.18335 0.25877 0.39146 0.50661 0.46246 0.55013 0.07104 0.0437 0.12876 0.12102 0.12876 0.17286 0 0.0518 0.07059 0.17248 0.15657 0.26777 0.08597 0.0952 0.35372 0.43491 0.59488 0.75509 0.24115 0.32017 0.72369 0.89964 1.0725 1.2877 0.34876 0.38799 0.81979 0.92332 1.0465 1.1897 0.22666 0.26639 0.47572 0.54829 0.55376 0.62632 0.07807 0.0781 0.14201 0.17227 0.14207 0.20917 3.4e-5 0.037 0.16025 0.24516 0.35608 0.46308 0.52103 0.57976 0.84357 1.0712 1.4195 2.1636 0.28269 0.53631 0.50035 1.0659 0.48362 1.1764-0.02746 0.18143-0.06916 0.16506-0.42679-0.16566-0.21791-0.20139-0.44312-0.39601-0.50057-0.43284-0.05741-0.0371-0.34341-0.35685-0.63477-0.71096-0.59226-0.71979-1.6372-1.9045-2.2211-2.5179-0.50593-0.53152-1.93-2.082-2.3728-2.5832-0.46121-0.52203-1.1585-1.9264-1.2042-2.426-0.01994-0.21802-0.0024-0.39657 0.03985-0.39657 0.04204 0 0.19558 0.23392 0.34096 0.51992 0.54041 1.0632 1.8053 3.0671 2.0476 3.244 0.03733 0.027 0.12218 0.15338 0.1892 0.28047 0.06698 0.12727 0.14357 0.21013 0.16988 0.18378 0.02634-0.0263-0.30542-0.59839-0.73755-1.2713-0.75166-1.1706-1.6044-2.741-1.6044-2.955 0-0.0536 0.01089-0.0856 0.0326-0.0959zm-0.9177 0.11501c0.05918 0.0235 0.10485 0.15552 0.14509 0.40018 0.19564 1.1864 0.89768 2.266 2.692 4.1374 1.5507 1.6174 1.6141 1.6912 1.6141 1.8886 0 0.21814 0.48214 1.5899 0.60454 1.7199 0.04865 0.0518 0.08817 0.15415 0.08817 0.22794 0 0.17889 0.37483 0.99874 0.60695 1.3276 0.10212 0.14461 0.18559 0.28921 0.18559 0.3216 0 0.14987-0.21748-0.0136-1.1468-0.86207-0.54925-0.50124-1.2851-1.1666-1.6347-1.4787-1.36-1.214-2.1704-2.0197-2.1739-2.1594-0.0024-0.0804-0.11266-0.36841-0.24666-0.64082-0.13396-0.27237-0.24362-0.55269-0.24424-0.62266-6.11e-4 -0.07-0.06369-0.22574-0.13964-0.34641-0.19697-0.31262-0.28896-0.66499-0.17351-0.66499 0.09552 0 0.66492 0.99156 1.3076 2.2779 0.38969 0.77994 0.38159 0.77001 0.48606 0.60091 0.07796-0.12629-0.59235-1.553-1.2828-2.7307-0.52088-0.88837-0.99145-1.7658-0.99145-1.8493 0-0.0489-0.07478-0.20325-0.16626-0.34278-0.1433-0.21868-0.1477-0.2831-0.03151-0.4667 0.07433-0.11714 0.19695-0.33625 0.27265-0.48606 0.09608-0.19021 0.16932-0.27504 0.22852-0.25146zm-1.4189 0.76229c0.2066 0.01 0.32283 0.0615 0.32283 0.15728 0 0.35444-0.61896 0.79159-1.3173 0.93036-0.3605 0.0717-0.71328 0.20038-0.78347 0.28537-0.07016 0.0851-0.30563 0.23837-0.52354 0.34096-0.21791 0.1025-0.53172 0.26258-0.69704 0.35546-0.1653 0.0927-0.34333 0.1754-0.39598 0.18241-0.29467 0.0421-1.8885 0.58374-1.9406 0.65954-0.03393 0.0494-0.47985 0.108-0.99145 0.13018-1.2827 0.0553-1.6096-0.17481-1.2091-0.85301 0.19393-0.32829 0.79954-0.6934 1.1504-0.6934 0.13628 0 0.63272-0.11126 1.1027-0.24728 0.46997-0.13622 0.9642-0.24785 1.0985-0.24785 0.13428 0 0.41186-0.0622 0.61723-0.13856 1.5173-0.56233 2.947-0.89291 3.5668-0.86147zm9.6521 0.0423c0.0717 0.0294 0.30188 0.10939 0.51205 0.17775 0.4279 0.13934 0.68706 0.48356 1.0973 1.4581 0.29295 0.696 0.31762 0.96007 0.09728 1.0447-0.08619 0.0332-0.18884 0.0601-0.22791 0.0601-0.12502 0-0.30861-0.23245-0.30892-0.39113-2.42e-4 -0.0844-0.13663-0.35398-0.30287-0.5991-0.4453-0.65671-1.0175-1.8119-0.86692-1.7501zm-9.9586 1.2145c0.04151-1e-3 0.08651 0.01 0.12755 0.0357 0.10529 0.0651 0.04687 0.1255-0.23578 0.24362-0.20666 0.0864-0.44019 0.15728-0.51869 0.15728-0.0785 0-0.38661 0.11089-0.68434 0.24723-0.29775 0.13622-0.5693 0.24787-0.60333 0.24787-0.06061 0-1.7078 0.62742-2.6249 0.9999-0.25523 0.1035-0.51576 0.18865-0.57915 0.18865-0.06335 0-0.25575 0.0654-0.42742 0.14578-0.59692 0.27815-2.5674 0.88647-3.8775 1.197-0.38134 0.0904-0.76047 0.18846-0.84213 0.21826-0.08171 0.0298-0.19334 0.0601-0.24786 0.0661-0.23417 0.0273-0.54469 0.17655-0.54469 0.26172 0 0.14928 0.30433 0.10663 0.73693-0.10288 0.22158-0.10713 0.69244-0.23738 1.0465-0.28953 0.35402-0.0522 0.91063-0.18904 1.2375-0.30409 0.8315-0.29283 2.1321-0.70173 2.4272-0.76295 0.13618-0.028 0.43648-0.13603 0.66741-0.23998 0.23095-0.10388 0.48865-0.18923 0.57311-0.18923 0.08444 0 0.32871-0.0887 0.54228-0.19769 0.21355-0.10901 0.45519-0.1983 0.53743-0.1983 0.08224 0 0.3084-0.0895 0.50239-0.19832 0.19397-0.109 0.4171-0.19831 0.49572-0.19831 0.12525 0 0.36733-0.0969 1.3119-0.52594 0.27864-0.12668 0.31772-0.0875 0.25209 0.2539-0.07312 0.38074-0.66419 0.99824-0.99508 1.0392-0.14959 0.0175-0.39283 0.1204-0.54045 0.2273-0.14761 0.10675-0.32627 0.19524-0.39657 0.19524-0.07027 3.2e-4 -0.26157 0.0703-0.425 0.1559-0.36826 0.19255-1.302 0.53317-1.6341 0.59609-0.13621 0.0259-0.71566 0.16118-1.2877 0.30045-0.57199 0.13953-1.1259 0.27069-1.2308 0.29141-0.10493 0.0206-0.23619 0.0826-0.29199 0.13855-0.05569 0.0557-0.28176 0.10188-0.50238 0.10288-0.22063 6.3e-4 -0.68567 0.0906-1.0332 0.19955-0.34747 0.109-0.83059 0.22172-1.0737 0.25087-0.24308 0.0293-0.67169 0.13895-0.95276 0.24365v-6.4e-4c-0.65298 0.24328-1.9658 0.31793-2.4671 0.14012-0.20429-0.0728-0.37119-0.10601-0.37119-0.0751 0 0.031-0.06706 5.7e-4 -0.14872-0.0672-0.20527-0.16993-0.19816-0.69279 9e-3 -0.69279 0.14274 0 0.63385-0.1867 1.0338-0.39234 0.08349-0.0429 0.30624-0.11114 0.49512-0.15163 0.18888-0.0406 0.38801-0.10763 0.44252-0.14947 0.05447-0.0417 0.25488-0.0982 0.44554-0.1257 0.19066-0.0275 0.79247-0.21064 1.3372-0.40628 0.54476-0.19563 1.0536-0.3561 1.1311-0.35726 0.07741-1e-3 0.21145-0.063 0.29743-0.13662 0.26486-0.22715 1.244-0.35912 2.2138-0.29804 0.71918 0.0452 1.0088 0.0226 1.3596-0.10838 0.24514-0.0914 0.57992-0.20099 0.7442-0.24303 0.16425-0.0421 0.45402-0.14635 0.64384-0.23153 0.18982-0.0854 0.4792-0.18398 0.64263-0.21946 0.16343-0.0355 0.79606-0.30755 1.4062-0.60393 0.6101-0.2964 1.2364-0.53865 1.3916-0.53865 0.1553 0 0.32506-0.0427 0.37724-0.0949 0.02779-0.0277 0.06608-0.0427 0.1076-0.0442zm0.70549 0.33733c0.10333 0 0.41955 0.91041 0.41955 1.2079 0 0.13214 0.06499 0.32649 0.14509 0.43223 0.08004 0.10563 0.14755 0.24809 0.14872 0.31616 0.0024 0.068-0.03052 0.1209-0.07136 0.11727-0.06621-6e-3 -0.6134-0.26819-1.015-0.48603-0.18707-0.1015-0.14967-0.43829 0.10212-0.92192 0.10727-0.20598 0.19467-0.43988 0.19467-0.51989 0-0.08 0.03448-0.14578 0.07621-0.14578zm0.70068 0.79254c0.04589 0 0.13802 0.18242 0.20492 0.40567 0.16121 0.53807 0.07629 0.59918-0.12695 0.0912-0.1853-0.46318-0.19099-0.49693-0.07807-0.49693zm-1.4304 0.94853c0.04194-4e-3 0.09168 3e-3 0.13905 0.0213 0.23054 0.0935 1.3065 0.81316 1.5549 1.0398 0.10892 0.0994 0.39208 0.34539 0.62932 0.5465 0.23726 0.20117 0.619 0.54382 0.84818 0.7617 0.4719 0.44871 1.6696 1.5218 2.3359 2.093 0.24514 0.2101 0.83055 0.76491 1.301 1.2332 0.95275 0.9484 1.1261 1.3134 0.80887 1.6999-0.20659 0.25173-0.38759 0.31703-0.47698 0.17228-0.03315-0.0536-0.12288-0.0972-0.1995-0.0972-0.60246 0-4.232-3.1783-5.6591-4.9554-0.15449-0.19236-0.45917-0.52855-0.67707-0.7466-0.35907-0.35932-0.73494-1.1736-0.60274-1.3058 0.02732-0.0273 0.17382 0.10037 0.32586 0.28354 0.52488 0.6326 1.449 1.5736 1.5452 1.5736 0.05305 0 0.1555 0.0781 0.2279 0.17345 0.07246 0.0952 0.13363 0.12687 0.13482 0.0701 0.0024-0.0567-0.20139-0.30181-0.45099-0.54468-0.24958-0.24286-0.67958-0.72386-0.95578-1.0688-0.2762-0.34498-0.60935-0.66825-0.74056-0.71817-0.13114-0.0499-0.21245-0.13331-0.18017-0.18553 0.01617-0.0262 0.05006-0.0416 0.09179-0.0461zm1.8644 0.53684c0.07059 0 0.18401 0.0895 0.25209 0.19832 0.10266 0.16447 0.09871 0.19829-0.02239 0.19829-0.08027 0-0.19321-0.0895-0.25148-0.19829-0.0806-0.15065-0.07577-0.19832 0.02175-0.19832zm-2.2398 0.43041c0.01189 3e-3 0.02502 6e-3 0.03876 0.0156 0.05445 0.0337 0.09905 0.0805 0.09905 0.10463 0 0.024-0.04471 0.0434-0.09905 0.0434-0.05445 0-0.09903-0.0468-0.09903-0.10463 0-0.0433 0.02493-0.0653 0.06049-0.0594zm0.03743 0.47576c0.36473 0.091 2.1424 1.9914 2.4774 2.6824 0.11278 0.23258 0.33945 0.66822 0.50299 0.96787 0.23958 0.43891 0.7268 1.4841 1.0507 2.2531 0.11126 0.26417-0.12983 0.1045-0.36513-0.24183-0.25533-0.37586-0.83054-1.0211-0.91044-1.0211-0.02481 0-0.44292-0.39945-0.92918-0.88808-0.48624-0.48858-0.95983-0.89051-1.0519-0.89167-0.092-3e-3 -0.19481-0.0478-0.22852-0.10213-0.03369-0.0543-0.1507-0.099-0.26056-0.099-0.13903 0-0.25017-0.11964-0.36574-0.39476-0.09125-0.21735-0.2215-0.39566-0.28958-0.39657-0.19638-1e-3 -0.1446 0.53394 0.07444 0.76898 0.10892 0.1169 0.19769 0.24509 0.19769 0.28533 0 0.10775 0.50348 0.83111 0.81673 1.1734 0.14957 0.16331 0.27235 0.33086 0.27265 0.37181 9.3e-4 0.15649 1.6922 1.9228 2.1576 2.2531 0.44524 0.31601 0.81433 0.76846 0.81433 0.99871 0 0.11264-0.26721 0.12065-0.33553 0.01-0.02735-0.0444-0.25297-0.18494-0.50116-0.31253-0.2482-0.12766-0.45099-0.26971-0.45099-0.31558 0-0.0461-0.06115-0.0835-0.13601-0.0835-0.13209 0-1.3047-1.2256-2.1328-2.2289-0.62412-0.75614-1.176-1.9561-1.2514-2.7222-0.03469-0.35339-0.0908-0.68775-0.12453-0.74298-0.03383-0.0553 0.0481-0.0216 0.18194 0.0745 0.32058 0.23022 0.48899 0.30599 0.54772 0.24726 0.02634-0.0263 0.07082-0.39736 0.09847-0.8246 0.02766-0.42727 0.06698-0.79372 0.08762-0.81432 0.01089-0.01 0.02886-0.0113 0.05324-6e-3zm-1.119 1.3481-0.04471 0.3059c-0.03985 0.27163-0.20258 0.47935-0.84756 1.0839-0.09926 0.0931-0.2109 0.17052-0.24786 0.17188-0.03701 1e-3 -0.26751 0.11815-0.51265 0.25934-0.24514 0.14109-0.65732 0.34064-0.91588 0.44313-0.25855 0.10225-0.47074 0.2225-0.47094 0.2666-2.31e-4 0.0442-0.0449 0.0528-0.09982 0.0175-0.0549-0.0339-0.22237 0.0228-0.3718 0.12569-0.14944 0.10288-0.60584 0.2906-1.0144 0.41714-0.40857 0.12667-0.92104 0.2452-1.139 0.26359-0.84677 0.0713-1.1019-0.40931-0.51991-0.97938 0.38057-0.37278 1.3049-0.86692 1.622-0.86692 0.12301 0 0.24814-0.0399 0.27809-0.0882 0.03-0.0486 0.17546-0.11789 0.32404-0.15532 0.14856-0.0374 0.51716-0.17968 0.81854-0.31616 0.8074-0.36586 0.88767-0.39874 1.5555-0.62631 0.33633-0.11464 0.831-0.23428 1.0991-0.266zm8.197 0.0616c0.03547 8e-3 0.09762 0.0612 0.20493 0.16195 0.2511 0.23591 0.7406 1.1622 0.74176 1.4037 3.17e-4 0.0716 0.05928 0.24259 0.1312 0.38026 0.0718 0.13778 0.15591 0.33803 0.1868 0.44555 0.03085 0.10738 0.1287 0.36278 0.21703 0.56706 0.1226 0.28346 0.13038 0.37118 0.03383 0.37118-0.2326 0-1.5597-2.7469-1.5597-3.2282 0-0.0748 0.0076-0.11014 0.04414-0.1015zm1.2858 1.4751c0.03866 0.0113 0.11278 0.0881 0.25452 0.23938 0.16871 0.18007 0.29055 0.41422 0.28353 0.54468-0.0066 0.12589 0.0604 0.39477 0.14932 0.59732 0.08895 0.20241 0.16142 0.4588 0.16142 0.56945 0 0.11477-0.06523 0.2014-0.15174 0.2014-0.16585 0-0.19977-0.0717-0.28776-0.60393-0.03239-0.19584-0.14704-0.53929-0.25512-0.76291-0.10793-0.22365-0.19677-0.509-0.19646-0.63418 2.2e-4 -0.10888 0.0033-0.16254 0.04236-0.15104zm-9.3111 0.18182c0.04064 4e-3 0.05732 0.0385 0.03876 0.0944-0.02382 0.0716-0.102 0.14967-0.1735 0.17345-0.07433 0.0248-0.11126-0.0113-0.08642-0.0871 0.02382-0.0715 0.10146-0.14888 0.17288-0.17286 0.01851-6e-3 0.03492-0.01 0.04831-8e-3zm4.1889 0.23215c0.01657-2.5e-4 0.0516 0.0279 0.09794 0.0647 0.55776 0.44224 0.91376 0.89492 1.1202 1.4255 0.12718 0.32684 0.29054 0.682 0.36272 0.78952 0.07226 0.10738 0.1312 0.25691 0.1312 0.33188 0 0.14617 0.18327 0.60095 0.51626 1.2822 0.11372 0.23252 0.18861 0.44034 0.16686 0.46186-0.08796 0.0874-0.54806-0.38687-0.74842-0.77139-0.34399-0.6602-0.93191-1.8619-1.1341-2.3172-0.45026-1.0138-0.56296-1.2663-0.51266-1.2671zm-5.8652 0.0538c0.08168 0 0.1487 0.0447 0.1487 0.099s-0.0671 0.099-0.1487 0.099c-0.0817 0-0.14811-0.0447-0.14811-0.099 0-0.0544 0.06632-0.099 0.14811-0.099zm-0.81916 0.40262c0.05027 0 0.07619 0.031 0.07619 0.0931 0 0.0543-0.09992 0.0982-0.22247 0.0975-0.18017-1e-3 -0.19452-0.0204-0.07444-0.0975 0.09608-0.062 0.17037-0.0931 0.22066-0.0931zm0.72605 0.10287c0.02406 0.0113 0.01252 0.0556-0.0193 0.13857-0.0314 0.0819-0.11932 0.1487-0.19527 0.1487-0.18762 0-0.17477-0.16273 0.01871-0.23698 0.11182-0.0429 0.17179-0.0622 0.19589-0.0501zm1.3373 6e-3c0.02085-2e-3 0.04414-2e-3 0.06828 2e-3 0.09518 0.0175 0.17341 0.11026 0.17351 0.20429 2.63e-4 0.25486 0.18389 0.25473 0.29562 0 0.12613-0.28758 0.16862-0.28148 0.42318 0.063 0.28089 0.37993 0.25571 0.89169-0.03019 0.61299-0.05807-0.0566-0.24377-0.0175-0.48363 0.099-0.21402 0.10501-0.48698 0.1906-0.60695 0.1906-0.1853 0-0.21664-0.0517-0.20493-0.34216 0.0066-0.18827 0.06873-0.39765 0.13663-0.46551 0.06796-0.068 0.12333-0.18455 0.12333-0.25936 0-0.0571 0.04282-0.0969 0.10519-0.10525zm-0.88022 0.19332c0.15022-4e-3 0.2799 0.27249 0.2799 0.68257 0 0.40528-0.03085 0.48001-0.22248 0.53135-0.525 0.14071-1.1635-0.0248-1.4557-0.37661-0.09684-0.11677-0.06698-0.16956 0.1608-0.28594 0.15365-0.0785 0.43461-0.17618 0.6245-0.21707 0.18986-0.0409 0.39711-0.14479 0.46006-0.23092 0.05051-0.0692 0.10276-0.10187 0.15294-0.10325zm-8.3251 0.23156c-0.04393-6e-3 -0.1192-1e-3 -0.21763 0.0136-0.18656 0.0294-0.62215 0.0781-0.96787 0.10775-0.34571 0.0297-0.74651 0.11927-0.89109 0.19955-0.25701 0.14265-0.25322 0.1446 0.18257 0.0944 0.8968-0.10362 1.835-0.28264 1.9243-0.36756 0.0266-0.0253 0.01384-0.0417-0.03023-0.0478zm6.5847 0.099c0.02966 6e-3 0.03919 0.0403 0.03931 0.10012-3.22e-4 0.0857-0.08587 0.15163-0.19767 0.15163-0.10892 0-0.19829-0.0209-0.19829-0.0461 0-0.0253 0.08937-0.0941 0.19829-0.1522 0.07906-0.0423 0.12862-0.0608 0.15838-0.0538zm6.2878 0.26902c0.07928-0.0204 0.73081 0.65618 1.2635 1.3203 0.30583 0.38133 1.4003 1.5391 2.4321 2.5729 2.0448 2.0488 2.4369 2.5549 2.4369 3.1418h6.39e-4c0 0.20724-0.03568 0.37665-0.07862 0.37665-0.17189 0-0.83068-0.39204-1.2792-0.76112-0.2612-0.21494-0.6309-0.49721-0.82156-0.62692-0.62768-0.42698-1.8216-1.4133-2.4738-2.0439-0.57225-0.55335-0.65822-0.60448-0.80042-0.4758-0.08762 0.0795-0.19151 0.11202-0.23092 0.0725-0.03942-0.0396-0.11208-6e-3 -0.16203 0.0745-0.07006 0.11226-0.13122 0.12002-0.26661 0.0357-0.12523-0.0777-0.22445-0.0786-0.34519-4e-3 -0.25723 0.16078-0.30985 0.0302-0.3192-0.77866-0.0076-0.76516 0.0716-0.96752 0.17592-0.44553 0.06313 0.31581 0.23128 0.39378 0.32464 0.15065 0.04568-0.11865 0.13404-0.093 0.46731 0.13545 0.92895 0.63619 1.5962 0.85875 1.7072 0.56949 0.09234-0.24054-0.27293-0.89674-0.66922-1.2018-0.61234-0.47146-0.97269-0.87537-0.97331-1.0912-2.52e-4 -0.10976-0.08937-0.36559-0.19829-0.56888-0.10892-0.20325-0.19827-0.40074-0.19827-0.4389 0-8e-3 0.0033-0.0113 0.0076-0.0136zm-15.41 0.0906c-0.10896 6.6e-4 -0.33169 0.0618-0.49512 0.13662-0.28969 0.13232-0.29102 0.13623-0.04956 0.14071 0.13619 3e-3 0.35893-0.0594 0.49512-0.13721 0.2183-0.12478 0.22425-0.14128 0.04956-0.14012zm17.919 0.0156c0.02502-0.0251 0.21256 0.0819 0.41652 0.23698 0.29959 0.22812 0.52698 0.60575 1.1819 1.966 0.44571 0.92579 0.85812 1.8277 0.91708 2.0041 0.15361 0.46097-0.01089 0.48526-0.47094 0.0688-0.39188-0.35405-1.1741-1.8076-1.5259-2.8353-0.08027-0.23429-0.24001-0.64396-0.35488-0.91043-0.11488-0.26647-0.18886-0.50514-0.16382-0.53018zm-6.176 0.3712 0.09618 0.2539c0.05314 0.13953 0.09672 0.40717 0.09672 0.59427 0 0.4922 0.26088 0.44971 0.34638-0.0563 0.0369-0.21791 0.10858-0.39598 0.15961-0.39598 0.15059 0 0.28654 0.47189 0.28654 0.99688 0 0.26883 0.04404 0.48848 0.09847 0.48848 0.05722 0 0.09905-0.31162 0.09905-0.73694 0-0.67598 0.09936-0.98824 0.2412-0.75869 0.03119 0.0504 0.08566 0.49822 0.12092 0.99507 0.04173 0.58826 0.10212 0.89041 0.17288 0.8663 0.06115-0.0206 0.10001-0.22788 0.08947-0.47335-0.01089-0.24023-0.02876-0.64884-0.0405-0.90803-0.02315-0.51376 0.04907-0.66905 0.22792-0.49026 0.16222 0.16214 0.37827 3.0235 0.23878 3.1629-0.10475 0.10488-0.89872-0.51253-1.3354-1.038-0.28297-0.34048-0.57524-0.61905-0.64928-0.61905-0.17563 0-0.77077-0.67814-0.69824-0.79556 0.07828-0.12687-0.24321-0.59066-0.40928-0.59066-0.18781 0-0.16863 0.2675 0.05435 0.75869 0.13334 0.29369 0.34232 0.51144 0.72605 0.75689 0.29636 0.18962 0.63865 0.50593 0.76051 0.70309 0.12186 0.19728 0.30637 0.40437 0.41048 0.46007 0.10409 0.0557 0.18894 0.17793 0.188 0.27143-0.0024 0.24603-0.5155 0.79022-0.81613 0.86569-0.1416 0.0354-0.33445 0.14986-0.42862 0.25391-0.0942 0.10388-0.22845 0.18923-0.29865 0.18923-0.15792 0-0.81345 0.37728-1.0803 0.62208-0.10892 0.1-0.44276 0.31493-0.74238 0.47759h-6.39e-4c-0.64012 0.34754-1.5634 0.44577-2.2888 0.24364-0.55033-0.15338-1.4799-0.64566-1.5464-0.81915-0.02633-0.0688-0.19368-0.28435-0.3718-0.47881-0.1781-0.19449-0.42608-0.55266-0.55134-0.79616l-0.22791-0.44253 0.21461-0.2908c0.11816-0.15981 0.21522-0.35443 0.21522-0.43163s0.0723-0.20039 0.1608-0.27385c0.1461-0.12128 0.15489-0.0927 0.09007 0.3095-0.06681 0.4147-0.06142 0.43071 0.08342 0.24547 0.08517-0.10901 0.15661-0.27308 0.15778-0.36517 0.0024-0.092 0.04761-0.19542 0.10214-0.2291 0.0545-0.0337 0.0992-0.14752 0.0992-0.25331 0-0.10588 0.04457-0.19215 0.09908-0.19215 0.12343 0 0.12249 0.25685-0.0035 1.1293-0.05439 0.37588-0.07347 0.70884-0.04235 0.73996 0.11161 0.11164 0.22521-0.22575 0.29259-0.86871 0.03767-0.35978 0.12605-0.78753 0.19648-0.95095 0.0704-0.16331 0.18339-0.44202 0.25089-0.61905 0.27757-0.72834 0.40629-0.12706 0.15657 0.7315-0.13026 0.44789-0.35841 2.1709-0.35607 2.6914 6.13e-4 0.12726 0.0448 0.20159 0.09982 0.16741 0.05445-0.0337 0.09905-0.13857 0.09905-0.23338 0-0.22371 0.22378-0.70577 0.32827-0.70668 0.04448-3.1e-4 0.05424-0.0861 0.02119-0.1904-0.03317-0.10425-0.01384-0.21881 0.04293-0.25392 0.05677-0.035 0.10276-0.13233 0.10276-0.21704 0-0.11252-0.05358-0.091-0.1995 0.0797l-0.19948 0.23396 0.04348-0.24725c0.22121-1.2505 0.29338-1.5844 0.4129-1.9055 0.12681-0.34075 0.45787-0.76897 0.59426-0.76897 0.10025 0-0.06435 0.61787-0.37662 1.414-0.16626 0.42376-0.27527 0.79778-0.24182 0.83124 0.0335 0.0335 0.08871-0.0232 0.12211-0.12628 0.10155-0.31279 0.27546-0.66057 0.56222-1.1232 0.15012-0.24218 0.27266-0.53289 0.27266-0.64625 0-0.25279 0.27837-0.6699 0.39778-0.59606 0.04786 0.0297 0.02647 0.22561-0.04777 0.43585-0.08717 0.24685-0.10067 0.41621-0.03876 0.4782 0.06236 0.0619 0.06092 0.32059-0.0033 0.72967-0.05502 0.34842-0.12835 0.92331-0.16322 1.2774-0.11021 1.1196-0.13457 1.2916-0.19527 1.3898-0.09157 0.14812 0.11171 0.11289 0.24001-0.0417 0.06258-0.0755 0.15776-0.74655 0.21098-1.4914 0.05929-0.83037 0.15404-1.4651 0.24484-1.6408 0.08146-0.15766 0.14813-0.3695 0.14813-0.47094 0-0.1015 0.08881-0.27958 0.19769-0.39657 0.10892-0.11689 0.19829-0.26388 0.19829-0.32645 0-0.0631 0.06974-0.0871 0.15657-0.0538 0.08608 0.0332 0.17269 0.0601 0.19163 0.0601 0.05741 0-0.13513 0.60538-0.23154 0.72785-0.11418 0.14501-0.2038 0.76571-0.27447 1.8971-0.03064 0.49029-0.09332 1.0251-0.13905 1.1885-0.14763 0.52715-0.22314 1.2961-0.11664 1.1885 0.18633-0.18845 0.32894-0.89673 0.45885-2.2779 0.15979-1.699 0.14757-1.651 0.68132-2.7035 0.13092-0.2582 0.44748-0.36758 0.80404-0.2781 0.15552 0.0389 0.37114-0.01 0.59729-0.13719zm2.5016 1.0362c0.01252 6e-3 0.04536 0.0725 0.10518 0.2014 0.07597 0.16331 0.15649 0.73172 0.17892 1.2629 0.03163 0.74596 0.01164 0.96608-0.0876 0.96608-0.09672 0-0.12845-0.25086-0.12938-1.0156-6.39e-4 -0.55839-0.02372-1.1261-0.05071-1.2623-0.0213-0.10713-0.02889-0.15922-0.01617-0.15221zm-3.7312 1.2562c-0.01637-0.0113-0.08641 0.29321-0.266 1.087-0.10639 0.46981-0.19346 1.0381-0.19346 1.2629 0 0.27946 0.04293 0.40865 0.13543 0.40865 0.10067 0 0.15191-0.24709 0.20069-0.96546 0.03599-0.53113 0.08433-1.1888 0.10706-1.4612 0.01657-0.20118 0.02625-0.3241 0.01617-0.33189zm4.7245 1.0906c0.01089 4e-3 0.02526 0.0156 0.04414 0.0337 0.14912 0.13857 0.41303 1.3045 0.55617 2.4574 0.06674 0.53438 0.09167 0.98952 0.05622 1.0114-0.09279 0.0573-0.61978-0.52261-0.94731-1.0422-0.55781-0.88498-0.73331-1.2839-0.73331-1.6685 0-0.36903 0.0189-0.39302 0.35667-0.45641 0.19623-0.0368 0.37861-0.0452 0.40505-0.0175 0.08112 0.0812 0.22436 0.78878 0.2267 1.1226 0.0011 0.17384 0.05305 0.34744 0.11488 0.3857 0.1263 0.0781 0.0716-1.338-0.06533-1.6921-0.04051-0.10488-0.04568-0.14753-0.01403-0.13291zm0.62873 0.77679c0.11594 0 0.32827 0.58287 0.32827 0.90078 0 0.13389 0.07729 0.35376 0.17169 0.48847 0.12802 0.18241 0.18109 0.50304 0.20916 1.2599 0.02239 0.60368-6.09e-4 1.0156-0.05688 1.0156-0.16741 0-0.32352-0.49068-0.32585-1.0198-0.0011-0.48617-0.21259-1.9347-0.35305-2.4224-0.03523-0.12277-0.02329-0.22251 0.02656-0.22251zm-11.035 0.58158c0.08034-0.0155 0.1987 0.0429 0.35305 0.17832 0.17214 0.15105 0.31255 0.3333 0.31255 0.40503 0 0.0717-0.1669 0.30215-0.3712 0.51205-0.20429 0.20987-0.45097 0.47707-0.54771 0.59426-0.09679 0.11715-0.21905 0.18631-0.27204 0.15357-0.05299-0.0328-0.09672 0.0322-0.09672 0.14441h6.09e-4c0 0.11539-0.06472 0.20365-0.14872 0.20365-0.18785 0-0.18894-0.10738-0.0038-0.35243 0.08002-0.10588 0.14755-0.25265 0.14872-0.32649 0.0019-0.0738 0.11469-0.35574 0.25088-0.62691 0.13613-0.27116 0.24814-0.54513 0.24907-0.60876 0.0024-0.1676 0.0448-0.26031 0.12514-0.27689zm7.9884 0.11189c0.0066-6e-3 0.01214-6e-3 0.01345 0 0.092 0.47974-0.04457 1.4913-0.3452 2.556-0.20174 0.71464-0.29962 1.6038-0.17653 1.6038 0.13408 0 0.21823-0.24865 0.21823-0.64684 0-0.18358 0.07236-0.59274 0.1608-0.90861 0.46005-1.641 0.53803-1.9792 0.50117-2.1836-0.06115-0.33938 0.20275-0.27338 0.27809 0.0696 0.08179 0.37234-0.21278 2.1779-0.46127 2.8274-0.26316 0.6877-0.38799 1.3566-0.24423 1.3094 0.18826-0.0618 0.95397-3.3709 0.95397-4.1229 0-0.22299 0.04687-0.40568 0.10452-0.40568 0.05741 0 0.08191 0.0382 0.05324 0.0847-0.02865 0.0464 0.03974 0.25799 0.15234 0.47032 0.21776 0.41064 0.27406 1.2888 0.1457 2.2682-0.0517 0.39532-0.04327 0.44657 0.04051 0.25452 0.05765-0.13234 0.13196-0.50025 0.16505-0.81736 0.03327-0.31707 0.09179-0.57611 0.13057-0.57611 0.03876 0 0.1965 0.11639 0.35003 0.25873 0.15355 0.14226 0.41532 0.3064 0.58218 0.36453 0.48454 0.16896 0.88711 0.80838 0.52897 0.84031-0.3127 0.0279-1.2032 0.41444-1.2828 0.55681-0.04874 0.0871-0.14196 0.15902-0.20735 0.15902-0.06542 2.9e-4 -0.40427 0.19707-0.75265 0.43708-0.34839 0.24009-0.68768 0.41557-0.75448 0.38994-0.06674-0.0258-0.14597 0.0156-0.1759 0.0955h-6.39e-4c-0.20464 0.53328-1.3972 0.21553-2.3051-0.61422-0.29946-0.27372-0.76102-0.61547-1.0253-0.75929-0.63089-0.34341-0.86603-0.68082-0.95155-1.3651l-0.07006-0.5616h0.41412c0.58943 0 0.815 0.14208 0.73452 0.46247-0.09672 0.3855 0.18573 0.24539 0.29864-0.14812 0.04964-0.17286 0.15047-0.31432 0.22429-0.31432 0.07378 0 0.13422-0.0703 0.13422-0.1565 0-0.0864 0.05578-0.13798 0.12392-0.11501 0.13466 0.0455 0.16191 0.58325 0.06106 1.1958-0.11822 0.71835 0.15404 0.19501 0.31135-0.59851 0.14755-0.74423 0.34889-1.0429 0.41229-0.61238 0.02832 0.19178 0.05753 0.17131 0.23094-0.15961 0.10925-0.20865 0.24806-0.39582 0.30832-0.41593 0.14408-0.0479 0.23596 0.54395 0.18438 1.1897-0.02229 0.28294-0.0191 0.44752 0.0076 0.36575 0.0269-0.0819 0.08158-0.50299 0.12092-0.93643 0.06666-0.73233 0.08927-0.7924 0.31858-0.84636 0.13576-0.0319 0.30225-0.16798 0.36998-0.30167 0.05072-0.10037 0.09696-0.17404 0.1191-0.19334zm-7.0048 0.68312c0.12134-0.0277 0.13204 0.0854-0.05626 0.35912-0.27084 0.394-1.1286 3.1757-1.0144 3.2899 0.06418 0.0643 0.35619-0.65152 0.3597-0.8808 0.0035-0.27052 0.27886-1.083 0.52172-1.5404 0.09266-0.17423 0.16807-0.37858 0.16807-0.45464 0-0.076 0.07815-0.20612 0.17351-0.28893 0.1499-0.13038 0.21673-0.13232 0.49512-0.0136 0.34007 0.14304 0.37914 0.22928 0.22973 0.50779-0.45094 0.84048-1.0213 2.8304-0.986 3.4404l0.01214 0.19832 0.04411-0.19832c0.35102-1.5615 0.50939-2.0506 0.90439-2.7978 0.27427-0.51877 0.31618-0.62664 0.31618-0.81611 0-0.22759 0.124-0.2592 0.27989-0.0713 0.12708 0.15318 0.06402 0.77659-0.11606 1.1438-0.07104 0.1448-0.1388 0.41358-0.14932 0.5967-0.01089 0.183-0.06291 0.41392-0.11606 0.51323-0.11921 0.22351-0.12751 0.6204-0.01089 0.54833 0.04711-0.0293 0.11313-0.22122 0.1463-0.42682 0.0716-0.44407 0.29545-1.2462 0.46369-1.6613 0.18623-0.4596 0.23409-0.10663 0.05622 0.41532-0.08664 0.25399-0.15719 0.63339-0.15719 0.84335 0 0.20995-0.06698 0.54197-0.14872 0.73753-0.08167 0.19566-0.1487 0.44471-0.1487 0.55376 0 0.16506 0.02502 0.17754 0.1487 0.0751 0.0817-0.0678 0.14872-0.24459 0.14872-0.39234 0-0.14772 0.08433-0.53198 0.18801-0.85424 0.10365-0.32225 0.219-0.73037 0.25572-0.90679 0.07927-0.38119 0.22894-0.50606 0.3059-0.25511 0.0303 0.0986 0.1255 0.32369 0.2116 0.49935 0.12144 0.24796 0.13044 0.3509 0.03985 0.46006-0.06423 0.0772-0.20619 0.46795-0.31557 0.86869-0.31096 1.1391-0.31244 1.1461-0.20433 0.97634 0.12255-0.19253 0.50902-1.3405 0.50902-1.5119 0-0.30514 0.20404-0.33833 0.67225-0.10838 0.25678 0.12628 0.57621 0.31582 0.70974 0.42078l0.24242 0.19059-0.36636 0.40564c-0.20162 0.2232-0.36695 0.44371-0.36695 0.48969 0 0.0459-0.07762 0.17832-0.17288 0.29441-0.09532 0.11589-0.28518 0.36622-0.42138 0.55678-0.14026 0.19626-0.43009 0.42312-0.66922 0.52292l-0.42257 0.17598 0.47154 0.0494 0.47214 0.0496-0.03151 0.59424c-0.01735 0.32685-0.09542 0.72385-0.17351 0.88202-0.18115 0.36694-0.17871 0.38266 0.0381 0.26663 0.12399-0.0665 0.23451-0.35006 0.35546-0.91286 0.10375-0.48291 0.26981-0.94116 0.40686-1.1208 0.12747-0.16702 0.23155-0.3409 0.23094-0.3863-6.1e-4 -0.0454 0.02502-0.10851 0.05688-0.14032 0.08696-0.0869 0.0629 1.1193-0.03743 1.8983-0.05807 0.45004-0.14178 0.71528-0.24424 0.77258-0.16495 0.0922-0.21677 0.37485-0.06895 0.37485 0.13342 0 0.28606-0.21976 0.36152-0.52053 0.03753-0.14947 0.10793-0.27203 0.15657-0.27203 0.14225 0 0.10179 0.41096-0.08531 0.8657h-6.09e-4c-0.09532 0.23187-0.21754 0.41509-0.27204 0.40805-0.36444-0.0483-0.54525-0.11464-0.64868-0.23939-0.06499-0.0784-0.19576-0.14266-0.28957-0.14266-0.09378 0-0.25081-0.0895-0.34943-0.19832-0.0986-0.10889-0.22809-0.1981-0.28776-0.19831-0.18037-2.6e-4 -0.96846-1.4256-0.8403-1.5198 0.02099-0.0136 0.19442-0.1249 0.38508-0.24302 0.28461-0.17637 0.30923-0.21526 0.13724-0.21644-0.11522-8.5e-4 -0.32453 0.0891-0.46489 0.19954-0.50799 0.39966-0.88475 0.49336-1.5494 0.3863-0.69272-0.11151-1.2666-0.42992-1.5893-0.88322-0.22824-0.32055-0.22447-0.35829 0.10276-1.1402 0.04562-0.10901 0.10339-0.35402 0.12876-0.54468 0.21572-1.6206 0.63206-2.7713 1.2617-3.487 0.25414-0.28889 0.48623-0.45714 0.60757-0.48483zm13.848 0.59124c0.03767 6e-3 0.0851 0.0284 0.14084 0.0693h6.1e-4c0.13324 0.0982 0.1606 0.17364 0.0895 0.24487-0.07115 0.0711-0.14096 0.0567-0.22671-0.0464-0.13782-0.16604-0.11724-0.28706-0.0043-0.2678zm-5.3846 2.9423c0.12085-0.0113 0.13301 0.0965 0.13301 0.64566 0 0.66958 0.05369 0.78899 0.26176 0.58094 0.19434-0.1945 0.3111 0.13681 0.34701 0.9848 0.0213 0.50452-0.0043 0.84574-0.06533 0.8669-0.05512 0.0195-0.25821-0.0721-0.45158-0.20363-0.3629-0.24661-0.98359-1.265-0.98359-1.6141 0-0.10463-0.06303-0.27643-0.14026-0.38208-0.14899-0.20387-0.04865-0.44011 0.1868-0.44011 0.06653 0 0.1977-0.0844 0.29139-0.18807 0.09364-0.1035 0.25672-0.21119 0.36212-0.2388 0.02194-6e-3 0.04139-0.01 0.05862-0.0113zm-2.6171 1.0688c0.04106-0.0113 0.09762 0.0204 0.19829 0.0864 0.20213 0.13368 0.21605 0.21214 0.19044 1.0265-0.03383 1.0769-0.17838 2.1647-0.32343 2.4357-0.08412 0.15747-0.07906 0.19216 0.02229 0.15844 0.13771-0.0458 0.28776-0.71644 0.5054-2.2574 0.11652-0.82478 0.15678-0.94126 0.32764-0.94126 0.13899 0 0.20437 0.0786 0.22671 0.27265 0.03941 0.34311 0.19216 0.35276 0.27628 0.0175 0.07982-0.31814 0.23873-0.18377 0.25148 0.21283 0.0043 0.15922-0.02382 0.60162-0.06467 0.98295-0.05995 0.56024-0.05019 0.67012 0.05194 0.57431 0.0695-0.0651 0.15332-0.39903 0.18619-0.74237l0.05918-0.62447 0.37179 0.48483c0.49352 0.64406 0.48432 0.77266-0.07443 1.0489-0.30363 0.15006-1.3469 0.87371-1.4364 0.99627-0.02722 0.0374-0.16064 0.10075-0.29682 0.14072-0.13619 0.0402-0.47853 0.18357-0.76052 0.31859-0.28197 0.13506-0.61638 0.23218-0.74297 0.21581-0.1266-0.0156-0.2751-1e-3 -0.33008 0.0328-0.11629 0.0725-0.7421-0.16954-0.74118-0.28658 3.19e-4 -0.0434 0.06049-0.19332 0.13361-0.33367 0.07324-0.14032 0.18773-0.69738 0.25452-1.2381 0.19494-1.5777 0.24932-1.864 0.35425-1.8698 0.17793-0.01 0.16236 0.89661-0.02843 1.6673-0.10276 0.4148-0.14885 0.75447-0.10213 0.75447 0.18009 0 0.31009-0.5461 0.5465-2.2991 0.05236-0.38834 0.24846-0.63335 0.42137-0.52656 0.12119 0.0748 0.12685 1.0669 0.01214 2.1606-0.0785 0.74795-0.1851 1.0474-0.2787 0.78468-0.06642-0.18631-0.32343 0.0482-0.32343 0.29502 0 0.10588-0.04218 0.27129-0.09364 0.36757-0.08563 0.16001-0.06435 0.16585 0.24543 0.0688 0.49558-0.15513 0.49237-0.14226 0.70732-2.8322 0.0326-0.40858 0.09892-0.84775 0.14688-0.97634 0.0404-0.10813 0.06599-0.16409 0.10706-0.17598zm-1.6673 0.20918c0.03599 0.021 0.05918 0.10851 0.05918 0.23817 0 0.16331-0.04469 0.32482-0.09916 0.35853-0.05765 0.0357-0.09905-0.0636-0.09905-0.23639 0-0.16332 0.04457-0.32419 0.09905-0.35789 0.01442-0.01 0.02798-0.01 0.03985-3e-3zm5.5201 0.2672c0.0066 0.0175 0.02568 0.46698 0.04173 0.99812h6.1e-4c0.01559 0.53114 0.01715 0.96543 0.0033 0.96543-0.09674 0-0.25214-0.54532-0.30408-1.0664-0.04873-0.48948-0.02921-0.65388 0.09179-0.77504 0.08454-0.0843 0.15982-0.13973 0.16684-0.12203zm-5.6978 0.55195c0.02164 4e-3 0.02516 0.11126 0.01755 0.34642h-6.41e-4c-0.0076 0.25837-0.04438 0.51637-0.07982 0.57371-0.10221 0.16585-0.10025-0.57341 0.0024-0.82037 0.02766-0.0671 0.04753-0.10188 0.06049-0.1zm3.1164 0.17539c-0.07542-0.0277-0.1853 0.18709-0.19829 0.41896-0.01089 0.183 0.07082 0.15085 0.19225-0.0762 0.05895-0.11013 0.07542-0.25216 0.03623-0.31557-0.0099-0.0136-0.01952-0.0232-0.0303-0.0272zm-9.3323 0.17774c0.05636 3e-3 0.13969 0.0438 0.23819 0.13018 0.3545 0.31034 1.3016 0.68033 1.472 0.57491 0.04831-0.0298 0.13139 0.0594 0.1844 0.19894 0.05302 0.13954 0.13886 0.25392 0.19103 0.25392 0.1736 0 0.21883 0.38056 0.1143 0.96122-0.05673 0.31578-0.12833 0.79703-0.1584 1.0694-0.15864 1.4354-0.17121 1.4742-0.54106 1.6528-0.19066 0.092-0.61916 0.19728-0.95216 0.23394l-0.60514 0.0672-0.11305-0.32343c-0.06199-0.17773-0.11245-0.85081-0.11245-1.4956 0-1.0761 0.04305-1.4228 0.30952-2.4841 0.06587-0.26269 0.05691-0.42464-0.03083-0.56522-0.10996-0.17618-0.09034-0.27818 0.0038-0.27386zm-0.45885 0.0113c0.04796 8e-3 0.07739 0.15415 0.07739 0.39536 0 0.24838-0.04463 0.45162-0.09916 0.45162-0.05451 0-0.09916-0.1752-0.09916-0.38993 0-0.21469 0.04463-0.41791 0.09916-0.45159 0.0076-4e-3 0.01501-6e-3 0.02176-6e-3zm3.3715 0.97211c0.13453 0.0461 0.1157 0.64355-0.0326 1.0338-0.04798 0.12515-0.04897 0.22794-0.0024 0.22794 0.04655 0 0.14225-0.14442 0.2128-0.32162 0.0704-0.17715 0.13962-0.33725 0.15355-0.35609 0.05468-0.0735 0.6282 0.637 0.63054 0.78169 0.0011 0.0844-0.18623 0.35688-0.41774 0.60515-0.23152 0.24818-0.55765 0.62269-0.72484 0.83182-0.3896 0.48735-0.49336 0.3495-0.45159-0.5997 0.04588-1.0414 0.40187-2.2818 0.63235-2.2029zm-1.1619 0.0804c-0.01501-8.8e-4 -0.03533 4e-3 -0.06108 0.0113-0.14406 0.0472-0.36099 0.87509-0.37783 1.4424-0.01753 0.58742 0.14755 0.33265 0.25693-0.3966 0.05918-0.39497 0.1418-0.80229 0.18378-0.905 0.04223-0.10325 0.04363-0.14967-0.0024-0.15221zm8.1589 0.67404c0.01793-2e-3 0.04072 0.01 0.06775 0.0363 0.03207 0.0315 0.04151 0.16175 0.02239 0.28896l-0.03448 0.23153-0.06828-0.24303c-0.05139-0.183-0.04118-0.30816 0.01267-0.31375zm0.63839 0.17229c0.03876 0.0136 0.06467 0.10488 0.06467 0.28052 0 0.32648-0.45709 2.0485-0.56343 2.1225-0.04852 0.0339-0.14977 0.25088-0.22428 0.48242-0.22463 0.69777-0.2994 0.47234-0.08224-0.24786 0.34608-1.1477 0.45204-1.5413 0.5713-2.1304 0.06992-0.34586 0.16932-0.53143 0.23395-0.50722zm-1.1039 0.2358c0.12256 0 0.03635 0.98843-0.09433 1.0821-0.11827 0.085-0.41009 1.6051-0.30106 1.5688 0.11325-0.0378 0.42464-0.92197 0.57614-1.6359 0.10984-0.51771 0.29441-0.71086 0.29441-0.30832 0 0.19489-0.1464 0.82174-0.27446 1.1752-0.02966 0.0817-0.04677 0.19647-0.03743 0.25513 0.0099 0.0587-0.0539 0.32609-0.13905 0.59426-0.08521 0.26818-0.19487 0.61393-0.24364 0.76836-0.07324 0.23205-0.06512 0.26144 0.04655 0.16877 0.093-0.077 0.15538-0.08 0.1995-8e-3 0.03536 0.0571 0.0225 0.10413-0.02843 0.10413-0.093 0-0.24091 0.48008-0.25694 0.83306-0.01521 0.3357-0.24067 0.27958-0.43769-0.10901-0.10539-0.20784-0.24483-0.64524-0.31011-0.9721-0.06533-0.32687-0.15971-0.78118-0.20978-1.0096-0.13135-0.59879-0.11453-0.92194 0.04777-0.92194 0.07817 0 0.17645-0.15843 0.22488-0.36332 0.04743-0.20014 0.14751-0.38472 0.22309-0.40986 0.11231-0.0374 0.12627 0.0861 0.07674 0.67647-0.08542 1.0187 0.10155 0.75754 0.28836-0.40261 0.15961-0.99173 0.19054-1.0852 0.35547-1.0852zm-1.4279 0.79554c0.12428-1e-3 0.25258 0.0671 0.28534 0.15221 0.03271 0.0856 0.0099 0.2055-0.05271 0.26723-0.08357 0.0836-0.11241 0.0703-0.11241-0.0514 0-0.09-0.07751-0.20861-0.1729-0.26416-0.15429-0.0899-0.14856-0.10175 0.05271-0.10413zm-3.7258 0.0962c0.12141 0-9.32e-4 0.75602-0.21643 1.3372-0.1009 0.27239-0.21317 0.65088-0.24967 0.84151-0.11878 0.62137 0.11678 0.19688 0.48787-0.87898 0.31444-0.91158 0.53948-1.2862 0.77865-1.2967 0.18109-8e-3 -0.01715 1.2167-0.38932 2.4042-0.13326 0.42523-0.22251 0.82606-0.19829 0.8911 0.07982 0.21386 0.35794-0.64746 0.88686-2.7458 0.06753-0.26793 0.18259-0.50656 0.25511-0.53079 0.23472-0.0784 0.01403 1.8812-0.32162 2.8552-0.07433 0.21533-0.10596 0.39113-0.07082 0.39113 0.09279 0 0.40856-0.76207 0.4667-1.1256 0.15039-0.94071 0.53503-1.844 0.53503-1.2562 0 0.27171-0.18999 1.1637-0.35548 1.6673-0.17464 0.53226-0.17409 0.56973 0.0099 0.41772 0.0817-0.0678 0.14872-0.18612 0.14872-0.26358 0-0.0772 0.09838-0.43976 0.21884-0.80523 0.22575-0.6852 0.24325-0.74454 0.2642-0.91228 0.02218-0.17812 0.2945-0.1035 0.35849 0.098 0.03403 0.10838 0.03634 0.38682 0.0043 0.61904-0.12096 0.88807-0.13587 1.166-0.05995 1.119 0.04336-0.0267 0.10783-0.23882 0.14386-0.47154 0.03599-0.23274 0.11313-0.57011 0.17107-0.74964 0.08553-0.26502 0.13159-0.30494 0.24484-0.211 0.07663 0.0637 0.14277 0.29991 0.1463 0.52475 0.0099 0.53921 0.09696 0.73988 0.38812 0.88505 0.13262 0.0662 0.30717 0.29392 0.38812 0.50661 0.14071 0.36962 0.13804 0.39253-0.07016 0.5308-0.11976 0.0794-0.21824 0.22907-0.21824 0.33249 0 0.21163-0.38341 0.86-0.62992 1.0646-0.08913 0.0741-0.16201 0.19584-0.16201 0.27085 0 0.075-0.04359 0.13662-0.09672 0.13662-0.05314 0-0.17039 0.1444-0.26116 0.32163-0.09067 0.17696-0.2016 0.34579-0.24606 0.37479-0.04447 0.029-0.14205 0.19832-0.21702 0.37664-0.154 0.36629-0.21865 0.32368-0.50178-0.33127-0.20277-0.46944-0.20184-2.1948 0.0011-2.1564 0.06293 0.0113 0.13833-0.0407 0.16745-0.11677 0.04327-0.11289-0.0024-0.1194-0.24544-0.0343-0.28257 0.0984-0.76038 0.0745-1.4237-0.072-0.49316-0.10875-0.52826-0.11864-1.139-0.33973-0.19066-0.069-0.46565-0.14694-0.61119-0.17345-0.55638-0.1015-0.99109-0.96585-0.76716-1.5247 0.11734-0.29281 0.6427-0.72053 0.78047-0.63537 0.05006 0.0308 0.21361-0.0982 0.36393-0.28655 0.1503-0.18827 0.30362-0.32377 0.34035-0.30105 0.03666 0.0228 0.0055 0.29809-0.06776 0.6124-0.0739 0.31428-0.13392 0.63821-0.13301 0.71999 0.0024 0.23378 0.21607-0.18416 0.30228-0.59121 0.16343-0.77196 0.54807-1.4884 0.7992-1.4884zm5.7758 2.0826c0.05282-0.01 0.10089 0.0587 0.10089 0.21159 0 0.1179-0.05886 0.23465-0.1312 0.25875-0.09213 0.0307-0.12175-0.0349-0.09905-0.21765 0.01952-0.1563 0.07663-0.24336 0.12936-0.25269zm-9.047 0.0762c0.10757 0.0113 0.18154 0.47576 0.18257 1.1897 0.0015 0.94262 0.14365 1.7556 0.32644 1.8687 0.06775 0.0419 0.08025-0.068 0.03686-0.32404-0.12845-0.76101-0.18943-1.8048-0.1203-2.0802l0.0702-0.28051 0.16626 0.36395c0.09136 0.20016 0.32196 0.46896 0.51264 0.59667 0.39229 0.2628 0.41823 0.46069 0.17048 1.3107-0.23548 0.80783-0.28868 0.94126-0.3736 0.94126-0.04445 0-0.11196 0.1-0.14993 0.22247-0.03802 0.12278-0.15566 0.3453-0.26116 0.49511-0.10553 0.14987-0.23046 0.27266-0.27748 0.27266-0.17292 0-0.73091-0.95591-1.038-1.778-0.19975-0.5347-0.56738-2.482-0.50116-2.6545 0.07593-0.19811 0.24684-0.14363 0.36514 0.11614 0.06428 0.1409 0.1653 0.21817 0.24544 0.18748 0.09811-0.0377 0.13661 0.0363 0.13661 0.26357 0 0.46434 0.22667 0.32494 0.33008-0.20302 0.04716-0.24092 0.10577-0.45922 0.13057-0.48483 0.01657-0.0157 0.03299-0.0248 0.04837-0.023zm8.8614 0.51569c0.02141 0 0.03876 0.0665 0.03876 0.14812 0 0.0816-0.0427 0.14869-0.09552 0.14869-0.05281 0-0.0707-0.0668-0.03931-0.14869 0.0314-0.0816 0.07475-0.14812 0.09618-0.14812zm-2.0687 0.25148c-0.03897 6e-3 -0.07927 0.0615-0.10826 0.17657-0.04218 0.16779-0.18306 0.26742-0.52898 0.37482-0.45738 0.14206-0.47539 0.16234-0.5864 0.66199-0.09101 0.41103-0.08895 0.51566 0.01164 0.51566 0.12313 0 0.39069-0.52064 0.39537-0.76837 0.0011-0.0686 0.12525-0.18866 0.27507-0.2666 0.25519-0.13253 0.27203-0.12844 0.27203 0.0647 0 0.24433-0.3955 1.0694-0.51264 1.0694-0.0448 0-0.0817 0.0513-0.0817 0.11364 0 0.0623-0.14889 0.34103-0.33068 0.61905-0.18179 0.27801-0.35855 0.58354-0.39295 0.67891-0.11171 0.30967 0.13511 0.1826 0.28896-0.14889 0.20517-0.44191 0.33934-0.66193 0.65714-1.0755 0.14981-0.19502 0.27265-0.4062 0.27265-0.46911 0-0.0629 0.03393-0.11427 0.07554-0.11427 0.12229 0 0.41956-0.76849 0.41956-1.0846 0-0.22691-0.06139-0.35692-0.12636-0.34762zm-1.1335 0.18183c-0.01089 0.01-0.01715 0.0452-0.0193 0.10275h-6.1e-4c-0.0043 0.1045 0.0191 0.16292 0.05194 0.12999 0.03327-0.0329 0.03711-0.11827 0.0076-0.18982-0.01578-0.0395-0.03009-0.0534-0.0405-0.0429zm-3.7288 0.69584c0.02483 6e-3 0.03425 0.0795 0.03514 0.23212 9.57e-4 0.17716-0.04284 0.32222-0.09728 0.32222-0.1258 0-0.1258-0.30043 0-0.49509 0.02732-0.0423 0.04732-0.063 0.06225-0.0594zm3.5148 0.0594c-0.05446 0-0.1265 0.044-0.1602 0.0984-0.03369 0.0547-0.01637 0.099 0.0381 0.099 0.05445 0 0.1265-0.0447 0.16021-0.099 0.03369-0.0546 0.01637-0.0984-0.0381-0.0984zm-1.8281 0.51206c-0.0099-1e-3 -0.02196 6e-3 -0.0369 0.0204-0.13139 0.13135-0.3145 0.99755-0.36877 1.7453l-0.0538 0.74296 0.2406-1.0894c0.22011-0.99533 0.28591-1.4111 0.21885-1.4194zm3.669 0.12078c0.01793 6e-3 0.02568 0.0329 0.02656 0.0781 0.0024 0.0914-0.05291 0.22703-0.12092 0.30106-0.19595 0.21322-0.37118 0.55575-0.37118 0.72547 0 0.0854-0.0447 0.12862-0.09905 0.0949-0.05445-0.0337-0.09905 0.0157-0.09905 0.10939 0 0.094-0.06555 0.24131-0.14572 0.32766-0.08016 0.0864-0.27939 0.30174-0.44252 0.47882-0.25853 0.28082-0.50117 0.41502-0.50117 0.27745 0-0.0594 0.57854-0.92904 0.83548-1.2556 0.11253-0.14304 0.29372-0.38432 0.40263-0.53681 0.31756-0.44443 0.46153-0.61771 0.51508-0.60033z"/></g></svg>
