<?xml version="1.0" encoding="UTF-8"?>
<svg width="39.157mm" height="68.117mm" version="1.1" viewBox="0 0 39.157 68.117" xmlns="http://www.w3.org/2000/svg"><g transform="translate(-61.309 -119.4)"><g transform="translate(161.47 -59.558)"><path d="m-68.761 178.96c-0.29282 0.059-0.55264 1.2087-0.827 1.6497-0.11453 0.30362-0.19634 0.41192-0.37889 0.42313-0.13198 7e-3 -0.84342-0.0283-1.8502 0.0271-1.0068 0.0552-2.5637 0.23223-3.4586 0.39245-0.99137 0.26462-2.1337 0.17782-3.0675 0.50234-0.35525 0.12607-0.58559 0.16471-1.2109 0.37104-0.70067-0.18183-0.90987-0.20482-1.1253-0.29398-0.12525-0.0518-0.83311-0.31623-1.6198-0.51161-0.89297-0.35733-2.4046-0.47104-2.511 0.67287-0.03937 0.46259-6e-3 0.5066 0.54301 0.75208 0.32134 0.14356 0.70643 0.30478 0.85554 0.35749 0.21782 0.0769 0.13725 0.13594-0.40744 0.30183-1.3522 0.47943-2.8572 0.87731-4.0237 1.3079-0.12477 0.0387-0.38186 0.33605-0.57298 0.66217-0.3039 0.5187-0.32911 0.64525-0.19266 1.0068 0.22791 0.60304 1.1574 0.89496 1.9023 0.59724 1.1103-0.35253 2.1253-0.57748 3.2944-0.89336 1.0052-0.26455 1.883-0.33679 2.8566-0.68373 0.47368-0.16877 1.044-0.28667 1.6343-0.32584 0.71483 0.24086 0.92438 0.23802 1.2724 0.40092 1.3918 0.65156 3.0389 1.0115 4.1015 1.0147 1.4385 3e-3 1.4578 5e-3 1.4578 0.32038 0 0.39814-0.73023 1.7685-1.1167 2.0964-1.4679 0.16608-2.5052-0.45705-3.8325-0.7007-0.90612-0.16704-2.3795-0.11247-2.9605 0.10846-2.2522 0.38575-4.4722 0.93971-6.5318 1.4192-0.82037 0.19064-2.1573 0.55242-2.9648 0.82343-1.9896 0.66778-3.2066 1.2587-4.6252 1.7118-0.73898 0.2182-0.9785 0.68008-0.66645 1.2815 0.31548 0.60809 0.58604 0.72942 1.6333 0.73424 1.5149 0.016 2.5858-0.81515 3.9787-1.2159 1.2406-0.49663 2.2658-0.66817 3.4479-0.93689 1.4114-0.41726 2.1218-0.56339 3.9431-0.81415 1.8588-0.38144 3.9716-0.42213 5.5228-0.51731 1.492-0.0557 2.2037-0.22524 2.4674-0.21549 0.15827 6e-3 0.15543 0.0763 0.06279 0.27471-0.04239 0.21236-0.14831 0.44571-0.23618 0.51875-0.37542 0.31154-1.3836 0.10124-2.9191-0.0928-0.48383-0.0611-1.2995-0.0452-1.8424-0.0685-0.84805-0.0363-1.2078-0.0498-1.8103 0.24047-0.76224 0.38982-1.015 1.2898-0.46951 1.6718 0.16575 0.11612 0.40968 0.21121 0.5423 0.21121 0.13258 0 0.30412 0.0369 0.30412 0.10769-0.79308 0.89998-2.0732 1.5404-2.9785 1.1118-0.85952-0.26934-1.6012-0.71952-2.4403-0.93261-0.37291-0.0925-0.91458-0.22965-1.203-0.3054-1.3862-0.36426-2.6336-0.12774-3.2352 0.61223-0.51197 1.103-0.18389 1.2566 0.60184 1.602 0.55928 0.29043 1.3034 0.44114 2.4807 0.66064 0.44749 0.0834 1.1049 0.24512 1.4621 0.35963 0.59864 0.19187 0.63337 0.22621 0.44097 0.43883-0.11327 0.17258-0.24516 0.41044-0.30968 0.55942-0.05592 6e-3 -0.28644 0.0305-0.51019 0.0549s-1.7188 0.0793-3.3223 0.12131c-1.6035 0.042-3.6156 0.13243-4.4732 0.20193-0.85768 0.0695-1.9726 0.0149-2.4674 0.0806-0.89676 0.11903-0.89176 0.15475-1.5248 0.53231-0.51592 0.48048-0.61864 0.65797-0.61864 1.0696 0 0.65841 0.41245 1.042 1.1438 1.0625 0.75317 0.021 1.866 6e-3 5.941-0.0756 2.9508-0.0598 3.6454-0.15859 3.6454 3e-3 0 0.10535-0.23517 0.39043-0.33525 0.49052-0.1826 0.18263-0.92777 1.5587 0.05341 1.7083 0.87774 0.13382 1.6497-0.40832 2.1124-0.82963 0.5392-0.50409 1.0431-0.85114 1.3022-1.498 0.04263-0.0133 1.2914-0.20644 2.6799-0.35178 1.6249-0.17009 2.6496-0.243 3.2552-0.43241 0.48477-0.15164 1.2018-0.30985 1.5933-0.35035 1.4737-0.53644 1.3842-0.35271 0.61722 1.1745-0.34798 0.68834-0.39158 0.79249-0.69071 1.1088-0.1316 0.1392-0.13097 0.32766-0.46951 0.33038-3.3431 0.95192-6.5526 1.295-9.4959 2.3683-0.40139 0.14368-1.8839 1.1282-0.68786 1.8695-1.1213 0.48449-2.0403 0.69683-3.1396 1.0396-2.3533 0.72032-6.6381 1.726-6.8479 2.8628 0 0.38486 0.21811 0.90633 0.69642 1.0204 3.3048 0.0708 4.5968-0.56642 7.1362-0.96186 2.5216-0.39267 4.8231-0.99292 7.261-1.8117 0.56004-0.20526 1.1234-0.50398 1.5969-0.68572 0.59757-0.24661 1.0312-0.52748 1.3928-0.54372 0.54711 0.0551 0.01515 1.107-0.10346 1.7867-0.1017 0.58283-0.65593 1.1626-0.76564 1.3379-0.55468 0.6599-1.1056 0.57366-1.8574 0.80702-1.2674 0.45514-2.8415 0.7243-3.7133 0.73709-1.9697 0.04-3.9629 0.79107-5.6656 1.0147-1.5618 0.27224-3.2184 0.67298-4.6017 1.0903-1.6191 0.40953-3.9433 0.8767-3.953 2.446 0 0.52934 0.0484 0.61967 0.42313 0.81344 0.3626 0.18757 0.5764 0.19706 1.5256 0.0678 2.2236-0.30318 4.528-0.75375 5.6035-1.096 0.93281-0.16204 1.8509-0.45324 2.7208-0.67501 0.13402-0.0338 0.25223-0.0761 0.35035-0.11845 5e-3 -3.7e-4 0.0067 1e-3 0.01213 7.3e-4 0.53137-0.26854 1.795-0.11477 1.8467 0.20906-0.40343 0.52526-1.3968 0.50322-1.7411 0.73282-0.66429 0.35609-1.2105 0.84409-1.7896 1.2244-0.33562 0.21949-0.91577 0.61452-1.2887 0.87838-0.37293 0.2639-0.92256 0.59822-1.2209 0.7428-0.29832 0.14461-0.92384 0.61386-1.39 1.0425-0.69727 0.64109-0.84769 0.85462-0.84769 1.208 0 0.7669 0.0963 0.85911 0.89907 0.85911 0.53248 0 0.8725-0.0867 1.2394-0.31538 1.1507-0.65092 2.1318-1.4873 2.867-2.1406 0.62031-0.38541 0.8691-0.72793 1.4428-0.88266 0.03743 0.0608-0.16876 8e-3 -0.30606 0.29969-0.36736 0.78148-0.59274 1.7489-0.48592 2.0857 0.05802 0.18261 0.01882 0.38154-0.10204 0.52231-0.40399 0.47038-1.0807 2.0933-1.3644 3.1439-0.32292 1.1964-0.42196 2.1259-0.17191 2.5074 0.1189 0.18146 0.21692 0.55075 0.21692 0.81986-0.36289 0.35539-0.4116-0.0428-0.73638 0.2897-0.04796 0.1251-0.24124 1.0061-0.42956 1.958-0.28206 1.425-0.3326 2.001-0.28328 3.2638 0.0723 1.8494-0.02232 2.082 0.31396 2.2619 0.14686 0.0784 0.28613 0.45259 0.28613 0.65005 0 0.28198 0.1222 0.45624-0.10132 0.38531-0.39347-0.12455-0.49073 0.26306-0.38246 1.517 0.28809 3.3381 0.51487 5.5668 1.0365 5.5668 0.54739 0.0363 0.57912 0.3081 0.90192 0.70141 0.53728 1.1475 1.652 1.8898 2.2034 1.5284 0.41018-0.26876 0.35641-1.0525 0.46339-0.51774 0.08583 0.4289 0.22085 0.33833 1.5248 0.68785 0.87785 0.23531 1.8021 0.46862 2.5424 0.19409 0.35715-0.14921 0.89439-0.72981 1.0996-1.1774 0.13216 0.53304 0.28296 0.96347 0.41671 1.1003 0.16477 0.1685 0.3284 0.11639 0.61936 0.0685 0.88193-0.14515 0.68532 6e-3 1.2323-0.33536 0.5843-0.36492 1.4386-0.93688 1.7846-1.4285 0.78831-1.1356 0.96726-2.307 1.0289-2.6408 0.1956 0.0308 0.59737-0.11223 0.87409-0.23832 0.21705-0.0987 0.5736-0.68111 1.151-1.8788 0.38376-1.0349 1.0594-2.1685 1.1816-3.1974 0.17409-1.5324 0.17671-1.5384 0.57012-1.5113 0.43911 0.0301 0.73586-0.49669 0.98398-1.7439 0.08839-0.44412 0.21351-1.0517 0.27757-1.35 0.06404-0.29833 0.1592-1.3047 0.21192-2.237 0.07411-1.3117 0.14509-1.731 0.31182-1.8538 0.30714-0.22632 0.27671-4.0042-0.03996-4.9941-0.1192-0.37292-0.21748-0.8072-0.21834-0.96542-8.04e-4 -0.1584-0.12868-0.57673-0.2847-0.92975-0.29651-0.67033 0.04675-0.9395 0.41457-0.58226 0.32501 0.31562 2.0863 2.1308 2.4061 2.3297 0.16796 0.10466 0.3755 0.40339 0.46024 0.66503 0.08478 0.26164 0.27146 0.6433 0.41528 0.8484 0.22634 0.32261 0.36319 0.61222 0.95258 0.61222 0.23798 0 0.42426-0.21803 0.59153-0.1741 0.16727 0.0439 0.30483 0.11151 0.42527 0.20621 0.37317 0.29359 1.1824 0.36589 1.335 0.11916 0.05186-0.0838 0.0949-0.38406 0.0949-0.66644 0-0.58233-0.3885-1.3068-1.1046-2.0636-0.19729-0.20849-0.12062-0.14435-0.3896-0.52303-0.20897-0.99448-0.48358-2.1209-0.85911-2.8592-0.25262-0.88937-0.8646-1.6729-1.0332-2.501 0.04314-0.0431 0.25932 0.0504 0.48022 0.20764 0.45079 0.2217 0.92102 0.47378 1.3593 0.558 0.49183 0 0.96757-0.63215 0.96757-1.2865v-0.48378l0.39673 0.20621c0.25331 0.13173 0.55456 0.17294 0.83057 0.11774 0.42888-0.0856 0.43173-0.0921 0.35535-0.73638-0.04239-0.35774-0.17615-0.84278-0.29755-1.0775-0.30919-0.59784-0.1723-0.63506 0.46095-0.1263 0.57998 0.46615 0.96472 0.46781 0.96472 4e-3 0-0.41996-1.0256-2.6492-1.4435-3.1375-1.4707-1.7568-2.2899-3.9351-2.9427-5.617-0.64254-1.7506-1.4566-3.8112-1.6775-4.2449-0.74171-1.4563-1.0706-1.9933-1.4827-2.4303-0.24972-0.26481-0.4531-0.5024-0.4531-0.52803 0-0.0255 0.68584 0.30966 1.5248 0.74494 0.83903 0.43529 1.6788 0.83794 1.8652 0.89479 0.5317 0.16221 1.375 0.8509 1.375 1.1331 0 0.14101 0.31221 0.63213 0.88266 1.2302 0.57046 0.598 1.1983 1.3299 1.395 1.6269 0.19666 0.29705 0.74365 0.94317 1.2159 1.4349 0.73752 0.76806 0.9429 0.90511 1.4556 0.97542 0.68814 0.0944 1.1338-0.18821 1.1338-0.71783 0-0.308-0.46736-1.5214-0.73067-1.9822-0.1053-0.18426-0.46622-0.79936-0.44454-0.96186 0.02166-0.1625 0.90333 0.21037 1.0432 0.13557 0.56734-0.30364 0.01176-1.3314-0.68215-1.9544-0.1864-0.16742-0.98618-0.67328-1.816-1.0468-0.38643-0.19897-0.68862-0.40805-1.0767-0.71497-0.09764-0.33681-0.4532-0.78577-0.59938-1.0596-0.07677-0.11502-0.37437-0.759-1.5156-2.1435-1.3355-1.6202-3.057-3.1307-4.0765-3.577-1.048-0.45873-1.3294-1.0189-0.95901-1.913 0.40304-0.8686 0.21935-0.9382 0.55157-1.8267 0-0.1077 0.08632-0.26623 0.19123-0.3532 0.15599-0.12938 0.32266 0.0583 0.91548 1.0339 1.3364 2.1993 1.6006 2.5872 2.3875 3.495 0.35281 0.40693 0.97767 1.1454 1.3878 1.6404 1.9511 2.355 4.0209 4.0956 4.713 3.9645 0.39855-0.0757 0.37978-0.95148-0.03853-1.7746-0.54771-1.0778-0.88972-1.5092-2.7079-3.4207-1.4932-1.5698-3.3237-3.7339-3.3237-3.9302-0.60391-0.76578-1.0933-1.7946-1.9002-2.3511-0.2087-0.56933-0.08985-0.86329-0.05494-1.5213 0.03006-0.56535 0.17144-1.1667 0.38817-1.6568 0.21841-0.81215 0.43554-1.5003 0.94117-2.715 1.1848-2.1902 1.1486-1.8102-0.19052-2.1999-0.01983-6e-3 -0.0397-7e-3 -0.05922-4e-3zm-1.9665 4.2741h7.3e-4c0.16509 0 0.16933 0.58364 5e-3 0.7535-0.39643 0.54754-0.63955 1.208-0.92975 1.7753-0.16603-0.0678-0.36339-0.17202-0.64148-0.34893-0.76238-0.48493-2.3244-1.2309-2.5795-1.2309-0.17794 0-0.21171-0.0422-0.11203-0.14199 0.07847-0.0784 0.68495-0.19284 1.3486-0.25402 0.99564-0.0653 1.9433-0.34667 2.9084-0.553zm-1.8067 9.7606c0.27697-0.0334 1.059 0.84749 2.06 2.3547 0.53694 0.80844 0.95804 1.5164 0.93546 1.5741-0.02255 0.0576-0.43856-0.0973-0.92333-0.34535-0.48477-0.24808-1.2499-0.57693-1.699-0.72925l-0.81558-0.27614 0.09133-0.84698c0.05005-0.4657 0.123-0.9683 0.16198-1.1174 0.03892-0.14912 0.07489-0.34848 0.08134-0.44169 0.0061-0.10853 0.04386-0.16426 0.10774-0.17196zm-1.4321 0.82842h0.0014c-0.31888 0.88502-0.34953 3.022-1.0189 3.7033-0.16063 0.0431-0.35277 0.0759-0.42742 0.0742-1.2692-0.41835-2.3408-1.1353-3.4578-1.3479-0.58581-0.1115-0.35048-0.29817 0.61365-0.74352 1.0906-0.38864 1.863-0.67116 3.0946-1.1574 0.33201-0.13106 0.78463-0.39847 1.1945-0.52802zm-0.07421 4.3284c1.2954 1.7072 1.9955 3.1704 2.6765 5.0512 0.05186 0.20749 0.03769 0.37176-0.03282 0.37176-0.12582 0-0.80901-0.81039-1.0446-1.2402-0.22339-0.40748-1.3141-1.6064-1.4656-1.6112-0.26506-7e-3 -0.75884-0.50708-0.75565-0.7635 0.0016-0.13725 0.19572-0.49418 0.27329-0.84626 0.07338-0.33308 0.1662-0.67388 0.34892-0.96186zm-1.1588 3.2823c0.08103 0.0323 0.14329 0.21252 0.19837 0.54729 0.26783 1.6241 1.2289 3.1021 3.6855 5.6641 2.1231 2.2144 2.2099 2.3162 2.2099 2.5866 0.57673 1.4479 0.88976 3.1839 1.7796 4.4839 0.13979 0.19797 0.25402 0.39589 0.25402 0.44025-1.327-0.69748-2.2969-1.8538-3.8089-3.2045-0.38654-0.34505-0.71896-0.65031-1.0375-0.94402-0.73546-1.7142-1.5056-3.489-2.3397-4.9242-0.71313-1.2163-1.3572-2.4173-1.3572-2.5317 0-0.0668-0.1024-0.27838-0.22762-0.46951-0.1962-0.29938-0.20262-0.38725-0.04353-0.63862 0.10176-0.16048 0.27026-0.46065 0.3739-0.66574 0.13153-0.26043 0.23218-0.37619 0.31325-0.34393zm-1.3971 3.2259c0.40276 0.88635 0.62856 1.8061 0.97756 2.6779 0.0032 0.0931-0.04183 0.16607-0.09776 0.16126-0.09065-7e-3 -0.84018-0.36746-1.39-0.66574-0.2561-0.13889-0.20485-0.60014 0.13986-1.2623 0.14686-0.28199 0.26687-0.60257 0.26687-0.71212 0-0.10964 0.04634-0.19908 0.10346-0.19908zm-1.5341 4.369c1.9814 1.3825 3.0919 3.0372 4.1536 4.987 0.32799 0.60092 0.9944 2.0318 1.4378 3.0847 0.15232 0.36164-0.17736 0.14364-0.49948-0.33037-0.72367-1.0264-1.7832-1.8771-2.5181-2.6144-0.86346-1.0169-2.6701-1.5294-2.8478-2.8713 0.11446-0.39778 0.13209-0.79862 0.15484-1.1402 0.03786-0.58496 0.09091-1.0871 0.11916-1.1153zm-1.367 4.8389c0.07878 0.0199 0.17455 0.14527 0.33251 0.35891 0.19485 0.26355 0.28125 0.57227 0.26901 0.76421-0.01192 0.18688-0.10576 0.27209-0.29684 0.35249-0.74132 0.31197-1.222 0.1376-1.6547 0.21264-0.22217 0.0385-0.16034 0.0658-0.75921 0.22833-0.59887 0.16257-1.5922-0.0332-1.9922-0.51518-0.13255-0.15969-0.09209-0.2317 0.21977-0.39102 0.21035-0.10746 0.55194-0.39334 0.81059-0.45524 0.96033-0.22982 2.3199-0.74549 3.0711-0.55514zm1.4086 2.4092c0.4008 0.0473 0.67274 0.0754 0.93189 0.3896 0.3247 0.15954 1.5139 1.9996 1.4412 3.1982-0.031 0.51112-0.2979 0.88987-0.98612 0.93261-0.20242 0.0126-1.4179-0.60493-2.0158-1.3243-0.3874-0.46613-0.59975-0.65295-0.88836-0.84769-0.19932-0.13449-0.798-0.78677-0.95615-1.0889s-0.16824-0.36899-0.3245-0.76928c-0.07724-0.19787 0.56262-0.4315 0.88551-0.41886 0.3229 0.0126 0.71644 0.10736 0.93403 0.01 0.42355-0.18957 0.55366-0.13142 0.97827-0.0813zm-3.844 0.65861c0.22337 0.1264 0.34376 0.42813 0.5637 0.91262 0.18253 0.40207 0.34448 0.73213 0.86981 1.0682 0.40573 0.25955 0.87424 0.69263 1.0411 0.96258 0.16684 0.26994 0.41902 0.55383 0.56156 0.63006 0.36248 0.34719 0.24057 0.36718-0.41456 0.7122-0.84535 0.46544-1.3896 0.71904-2.4739 1.4585-0.14911 0.13683-0.60661 0.43097-1.0168 0.6536-1.0281 0.40317-2.1956 0.50473-3.1339 0.33395-1.1708-0.19508-1.938-0.92112-2.5747-1.6219-0.24385-0.26621-0.41769-0.23316-0.58916-0.56657 0.16222-0.60524 0.05759-0.84284 0.41814-1.3779 0.88246-1.3095 0.62699-1.2708 1.2594-1.6319 1.5378-0.8781 2.017-0.90814 4.0569-1.3702 0.34833-0.13391 1.1296-0.21599 1.4324-0.16327zm6.7152 4.0032c0.1335 0.034 0.26784-0.10439 0.41386 0.45011 0.14049 0.53351 0.29188 1.3815 0.4638 2.7036 0.0914 0.73161 0.12491 1.3543 0.07635 1.3843-0.12702 0.0784-0.84883-0.71574-1.2972-1.4271-0.76368-1.2116-1.2016-1.507-1.2016-2.0335 0-0.50522 0.22327-0.43622 0.68572-0.52303 0.31046-0.0102 0.55376-0.51834 0.79418-0.55157 0.0216-3e-3 0.04334-8e-3 0.06493-3e-3zm-2.4834 0.70462c0.13116 0.66848 1.0062 2.405 1.3443 2.9056 0.32086 0.44402 0.55143 0.73684 0.86054 1.1538 0.7367 0.60528 1.2659 1.2678 0.77562 1.3115-1.1165 0.35307-1.6579 0.9292-2.5735 1.4387-1.7417 0.96922-2.7608 1.3918-4.0908 0.15769-0.40999-0.3747-0.9389-0.96615-1.3008-1.1631-0.86373-0.47013-1.5184-0.85568-1.6354-1.7924l-0.14057-0.79132h0.56727c1.1436-0.21414 1.9671-0.6878 2.8941-1.1567 0.52869-0.26737 0.76575-0.54397 1.5092-0.93831 0.59557-0.36603 1.3365-1.0893 1.79-1.1255zm-11.703 1.0414c0.40496 0.0179 2.0667 1.6027 2.0208 1.9223-0.27968 0.28736-0.72487 0.43164-1.0652 0.66565-0.30749 0.21146-0.62997 0.29076-0.92262 0.52232-0.30709 0.24299-0.73912 0.33204-0.86981 0.46766-0.56889-1.013-0.13454-1.5962 0.32038-2.5091 0.21245-0.37579 0.27118-0.75242 0.45294-1.051 0.01495-0.0136 0.03651-0.019 0.06351-0.0178zm2.5618 2.3956c0.18884-9e-3 0.13497 0.0453 0.37889 0.0849 0.12999 0.0211 0.41382 0.15766 0.54015 0.1948 0.55641 0.16378 0.71337 0.49447 1.0289 0.98113 0.13478 0.20785 0.13761 0.48875 0.2897 0.68429 0.27182 0.34948 0.44066 0.6067 0.96043 0.9376 0.59119 0.25981 0.75836 0.37801 0.91202 0.58395-0.47434 0.84567-0.61012 1.5911-1.3723 2.1472-0.38529 0.2811-2.3647 1.0707-2.5374 1.2066-0.69548 0.54711-1.2107 0.67527-2.1207 0.52873-0.94837-0.1528-1.7352-0.58889-2.177-1.2095-0.31247-0.43887-0.30674-0.33596 0.14128-1.4064 0.06254-0.14912 0.15816-0.48293 0.17625-0.74565 0.19043-2.7665 1.7147-2.4059 2.6544-3.0993 0.36202-0.26713 0.5803-0.44824 1.0453-0.85341 0.02662-0.0232 0.05294-0.0336 0.07992-0.035zm12.593 2.771c0.50613-0.0196 0.35315 0.68864-0.26258 3.8863-0.06249 0.32453-0.28501 1.0771-0.35463 1.4813-0.29425 0.85981-0.41629 0.031-0.7789-0.49859-0.39865-0.52346-1.8065-1.9697-2.6744-2.751 0.94956-0.61135 2.0405-1.0749 2.4918-1.2855 0.82077-0.52586 1.275-0.82068 1.5787-0.83248zm-7.8151 1.7353c0.56126-0.0736 1.2039 0.67487 1.6633 0.70712 1.761 0.12363 1.7727 0.55753 2.2919 1.1345 0.37639 0.41825 0.81709 0.7532 1.1716 1.2152 0.67566 0.88176 0.66366 0.6537-0.10132 1.0319-2.3311 1.5447-2.6145 1.6241-3.4143 1.9936-0.46431 0.26832-0.22256 0.46077-0.69571 0.53659-0.7388-0.2646-2.5691-0.60521-3.1674-0.93903-1.1404-0.519-2.207-1.048-2.5388-2.125 0.35181-0.48038 0.62901-0.57851 1.111-0.83913 1.5981-0.53948 1.7695-0.48828 2.668-1.5876 0.61103-0.7477 0.58629-1.1097 1.0118-1.1281zm-9.0299 2.712c0.07717 0 0.19127 0.0597 0.32609 0.17768 0.48535 0.42485 1.0921 0.64436 1.6925 0.82985 0.54847 0.16943 0.83276 0.0238 1.3313 0.3084 0.3322 0.18966 0.47877 0.5968 0.71854 0.89479 0.28732 0.35709 1.4246 0.83113 1.4278 1.0292 0.0016 0.11557-0.78528 0.84019-1.1022 1.18-0.83779 0.86077-1.9008 1.425-2.3397 1.5948-0.26102 0.12607-0.70922 0.27687-1.1609 0.35606-0.4662 0.0817-0.73607 0.20374-0.97114 0.0557-0.13219-0.0833-0.15484-0.4424-0.15484-0.4424-0.08493-0.24333-0.15341-1.0288-0.15341-1.9116 0-1.4731-0.37054-1.1957-0.0057-2.6487 0.16773-0.47512-0.02778-1.4238 0.39174-1.4238zm14.951 2.0939c0.44214 0.33062-0.26215 2.3273-0.48878 2.9761-0.14808 0.42199-0.19925 0.87243-0.32038 1.3029-0.09372 0.33308-0.16561 0.6771-0.31396 0.98969-0.26342 0.55505-0.42992 0.8094-1.009 1.5427-0.38969 0.49351-0.24711 0.0165-0.51685-0.51518-0.14431-0.28458-0.2167-0.69891-0.40815-1.1131-0.16206-0.35062-0.33959-0.81047-0.40815-1.1231-0.17984-0.81978-0.35056-1.2414-0.59652-1.6811-0.13768-0.12907 0.05968-0.0676 0.21763-0.21828 0.48384-0.46171 0.94808-0.60674 1.9275-1.2359 0.90005-0.57813 1.5371-0.88823 1.9166-0.92476zm-8.3178 1.6704c0.23741 0.0245 0.53491 0.22679 1.0118 0.35321 1.0123 0.26835 1.8667 0.34868 2.4125 0.70641 0.65484 0.42919 0.81241 1.7267 0.84412 2.2169-0.11435 0.43762-1.7474 1.8289-2.6908 2.1656-0.74523 0.21573-1.5713 0.092-2.1563-0.0342-0.67517-0.14881-0.72298-0.16282-1.5591-0.46524-0.26101-0.0946-0.63774-0.20127-0.83699-0.23761-0.76173-0.13905-1.3569-0.85537-1.0503-1.6204 0.71117-0.67748 0.96146-0.94078 1.6754-1.4656 0.34123-0.25882 1.0185-1.0349 1.7703-1.3664l0.35749-0.20836c0.07017-0.0409 0.14278-0.0524 0.22191-0.0442zm-4.9471 3.1971c0.30546-9e-3 0.06468 0.38982 0.10774 0.60437 0.025 0.12453 0.02732 0.35684 0.17625 0.56085 0.17766 0.24338 0.44036 0.64286 0.70142 0.81772 0.53707 0.3598 0.61472 0.15316 0.27553 1.3168-0.1274 0.79164-0.55065 1.4718-0.87053 2.0457-0.157 0.21198-0.0654 0.2931-0.40736 0.45346-0.21435 0.10052-0.88687-1.1633-1.3073-2.2887-0.2417-0.50959-0.95484-2.9179-0.8642-3.1541 0.10402-0.27112 0.22772 0.0476 0.40244 0.0507 0.45615-0.0211 1.4223-0.26078 1.786-0.40672zm9.3492 1.1354c0.12388 0.13897 0.24275 0.32234 0.31182 0.50377 0.19262 0.50599 0.54739 0.74061 0.26235 0.92989-0.16396 0.10867-0.29898 0.31365-0.29898 0.45524 0.04206 1.2259-1.2816 2.5383-1.925 3.0068-0.64341 0.4685-0.60662 0.0931-0.9137-0.56292-0.19968-0.46225-0.66708-1.4201-0.57898-2.1229 0.38211-0.50105 1.2267-0.69003 2.0093-1.2822 0.19625-0.14849 0.81275-0.50699 1.1331-0.92761zm-6.9125 1.4246c0.1838 4e-3 0.38829 0.0599 0.53801 0.0928 0.72958 0.15486 0.65117 0.21649 0.98612 0.28827 0.3553 0.0761 0.68877 0.1157 1.0803 0.14984l0.36914 0.0621-0.02202 0.27876c-0.04183 0.55996 0.09978 1.312 0.23832 1.9787-1.2336 1.1241-2.228 1.5905-3.7357 0.80131-0.2856-0.1528-0.57025-0.18589-0.57155-0.77277 0.19796-0.83003 0.49859-1.5585 0.7007-2.2876 0.24358-0.87871 0.22372-0.56535 0.41661-0.59129z" stroke-width="1.3808"/></g></g></svg>
