<?xml version="1.0" encoding="UTF-8"?>
<svg width="217.92mm" height="55.92mm" version="1.1" viewBox="0 0 217.92 55.92" xmlns="http://www.w3.org/2000/svg"><g transform="translate(44.038 -124.88)"><g transform="matrix(1.2914 0 0 1.2914 9.2269 124.99)"><g stroke-width=".084667"><path d="m119.76 41.614c-0.16299-0.04-0.48684-0.092-0.71967-0.11564-0.23283-0.0236-0.57573-0.0992-0.762-0.16802-0.18627-0.0688-0.51012-0.1742-0.71967-0.23419-0.40623-0.1163-0.9968-0.51835-1.2682-0.86335-0.17783-0.22607-0.64314-1.7772-0.7264-2.4215-0.028-0.21671-0.0607-0.88932-0.0726-1.4947-0.0119-0.60536-0.0676-1.3674-0.12368-1.6933-0.11331-0.65809-0.0519-5.2255 0.0734-5.4597 0.0384-0.0717 0.0677-0.26326 0.0652-0.42568-0.0105-0.67364 0.40208-2.072 0.70842-2.4008 0.0872-0.0936 0.15848-0.20375 0.15848-0.24486 0-0.096 0.25315-0.35176 0.25658-0.25921 1e-3 0.0383 0.0414 3e-3 0.0889-0.0786 0.0475-0.0815 0.12523-0.14816 0.1728-0.14816 0.0476 0 0.14366-0.0571 0.21351-0.127 0.0699-0.0699 0.21953-0.127 0.33262-0.127s0.20562-0.0317 0.20562-0.0705 0.0857-0.063 0.1905-0.0539c0.10477 9e-3 0.24207-0.0242 0.30509-0.0741 0.19644-0.15557 1.6196-0.17315 2.265-0.028 0.32104 0.0722 0.7712 0.1527 1.0004 0.17887 0.22915 0.0262 0.4798 0.10474 0.557 0.1746 0.0772 0.0699 0.17032 0.12703 0.20694 0.12703 0.27648 0 1.2324 1.5335 1.2324 1.977 0 0.26587-0.26699 0.56303-0.50587 0.56303-0.0777 0-0.29096 0.11324-0.47388 0.25165-0.23908 0.18089-0.4278 0.25194-0.67125 0.2527-0.41666 1e-3 -0.46765-0.0318-0.75432-0.48938-0.44733-0.71408-1.4845-0.98369-2.1208-0.55131-1.0095 0.68597-1.2418 1.4423-1.2568 4.0923-0.0184 3.2444 0.18139 5.1748 0.65221 6.3009 0.24559 0.58743 0.70748 0.81746 1.7285 0.86084 1.0086 0.0429 1.2366-0.0563 1.3224-0.57502 0.0999-0.6036 0.12338-1.7736 0.04-1.9929-0.0692-0.182-0.11487-0.19993-0.39505-0.15507-0.26722 0.0428-0.3585 0.0136-0.58309-0.18656-0.48246-0.42993-0.53126-1.2934-0.0893-1.581 0.21653-0.1409 1.3742-0.18379 2.3315-0.0864 0.79978 0.0814 1.0291 0.28782 1.031 0.928 7.9e-4 0.23331 0.0562 0.65711 0.12331 0.94179 0.15276 0.6477 0.0995 2.8213-0.0774 3.1594-0.0627 0.11974-0.18461 0.45761-0.27102 0.75082-0.19013 0.6452-0.64582 1.1544-1.1659 1.3028-0.19022 0.0543-0.38507 0.12781-0.43298 0.16338-0.13459 0.0999-1.739 0.16245-2.0719 0.0807z"/><path d="m88.71 41.499c-0.27213-0.30699-0.3586-0.57429-0.40171-1.2418-0.0256-0.39581-0.0924-1.2517-0.14843-1.9019-0.079-0.91591-0.0792-1.2974-1e-3 -1.6933 0.0737-0.37388 0.089-1.7076 0.0571-4.9687-0.024-2.4517-0.0494-4.49-0.0565-4.5297-7e-3 -0.0396-8e-3 -0.25122-3e-3 -0.47023 9e-3 -0.36365 0.0339-0.40885 0.28519-0.52109 0.15134-0.0676 0.40851-0.1445 0.5715-0.17092 0.16298-0.0264 0.44111-0.0836 0.61806-0.12712 0.28387-0.0698 0.34798-0.0548 0.54483 0.12769l0.22312 0.20677 6e-3 2.7969c5e-3 2.6509 0.0138 2.8016 0.16542 2.8864 0.12398 0.0694 0.17707 0.0589 0.23616-0.0467 0.0419-0.0749 0.18901-0.2597 0.32689-0.41066s0.25069-0.32072 0.25069-0.37725c0-0.13178 0.68756-1.1376 1.0411-1.523 0.24291-0.26481 0.52815-0.68194 0.97024-1.4189 0.0812-0.13535 0.21176-0.31378 0.29014-0.3965 0.0784-0.0827 0.20872-0.25774 0.28964-0.38891 0.0809-0.13117 0.33564-0.53118 0.56602-0.88891 0.45939-0.71332 0.38077-0.67305 1.5456-0.7917 0.58436-0.0595 1.1834 0.12276 1.2668 0.38548 0.0655 0.20644-0.12516 0.64481-0.48625 1.1179-0.16197 0.21219-0.37663 0.55192-0.47704 0.75496-0.1004 0.20303-0.32548 0.52903-0.50017 0.72444-0.17469 0.1954-0.4123 0.51139-0.52801 0.70219-0.11573 0.1908-0.35147 0.54527-0.5239 0.78772-0.17243 0.24244-0.41703 0.65035-0.54356 0.90647-0.12655 0.25611-0.26169 0.47836-0.30034 0.49389-0.0386 0.0155-0.0703 0.0635-0.0703 0.10656 0 0.0431-0.1143 0.23613-0.254 0.42898s-0.254 0.38294-0.254 0.42241c0 0.0395-0.1397 0.26622-0.31044 0.50388-0.41305 0.57494-0.40065 0.7819 0.0847 1.4126 0.21732 0.28242 0.39512 0.53246 0.39512 0.55566s0.19072 0.34041 0.42383 0.70493c0.23311 0.36451 0.47 0.758 0.52642 0.87442 0.0564 0.11642 0.22765 0.3614 0.3805 0.54441 0.15285 0.183 0.27791 0.36263 0.27791 0.39916 0 0.0365 0.11555 0.22971 0.25678 0.42926 0.14122 0.19956 0.32183 0.45809 0.40134 0.5745 0.37919 0.5552 0.74623 0.99605 1.1268 1.3533 0.51282 0.48146 0.5591 0.79764 0.16526 1.129-0.23472 0.1975-0.29724 0.20863-0.9525 0.16955-0.38572-0.023-0.82088-0.0782-0.96703-0.12264-0.32751-0.0996-0.82402-0.57104-1.0414-0.98884-0.13204-0.25379-0.75086-1.0874-1.188-1.6003-0.0479-0.0562-0.0872-0.1216-0.0872-0.14523 0-0.0823-1.1343-1.9558-1.3496-2.229-0.11923-0.15134-0.25997-0.27517-0.31276-0.27517-0.0528 0-0.2349 0.15376-0.40468 0.34169l-0.3087 0.3417 0.01 1.5421c5e-3 0.84817 0.036 1.8751 0.0682 2.2821 0.0897 1.1346 0.0385 1.1922-1.1312 1.2761-0.47954 0.0344-0.70403 0.0184-0.76879-0.0546z"/><path d="m84.335 41.517c-0.17659-0.143-0.19658-0.23756-0.21918-1.0372-0.0441-1.5592-0.26272-4.1752-0.36818-4.4054-0.0564-0.12294-0.20302-0.27463-0.32594-0.33708-0.12291-0.0625-0.35683-0.1965-0.51981-0.29789-0.42981-0.26739-0.75069-0.30735-1.3062-0.16266-0.76441 0.1991-0.75436 0.17927-0.6881 1.3572 0.0315 0.56027 0.1106 1.3997 0.17575 1.8654 0.11436 0.81738 0.2945 2.3962 0.2945 2.5811 0 0.14365-0.40813 0.26028-1.0097 0.28855-0.30612 0.0144-0.67773 0.0773-0.82579 0.13973-0.20242 0.0854-0.31946 0.0907-0.47185 0.0213-0.32964-0.15019-0.43817-1.1858-0.53495-5.105-0.027-1.0943-0.0886-2.123-0.1368-2.286-0.1049-0.35462-0.23031-3.746-0.23012-6.223v-1.778l0.25724-0.26562c0.24491-0.25287 0.2985-0.26842 1.1177-0.32425 2.1577-0.14706 3.306-0.0699 3.9485 0.26549 0.11769 0.0614 0.30922 0.11227 0.42564 0.11299 0.49199 3e-3 1.4054 0.71926 1.7801 1.3957 0.37648 0.67977 0.44364 1.1511 0.45252 3.176l8e-3 1.905-0.24025 0.55034c-0.13215 0.30268-0.40777 0.75473-0.61249 1.0046s-0.37222 0.48784-0.37222 0.52893c0 0.0411 0.16193 0.30212 0.35983 0.58008 0.67419 0.94687 1.1642 1.7447 1.1642 1.8956 0 0.0828 0.0413 0.22776 0.0917 0.32204 0.1054 0.19694 0.12599 0.38086 0.21162 1.8906 0.0903 1.5915 0.0738 1.8989-0.11563 2.1529-0.19807 0.2656-0.43444 0.32295-1.3848 0.33596-0.59672 8e-3 -0.76725-0.019-0.92577-0.14733zm-1.9393-8.4408c0.76793-0.0653 1.2519-0.34074 1.4116-0.80343 0.14715-0.42632 0.13464-1.8166-0.0217-2.4128-0.0728-0.27755-0.14784-0.79037-0.16683-1.1396-0.019-0.34925-0.0788-0.71821-0.133-0.81992-0.0947-0.17792-0.40304-0.34347-0.66851-0.35901-1.9698-0.11526-2.0138-0.11404-2.106 0.0584-0.0491 0.0918-0.0742 0.18205-0.0557 0.20055 0.0568 0.0568 0.14385 1.5487 0.20167 3.4563l0.0551 1.8167 0.21166 0.0596c0.11642 0.0327 0.30692 0.0456 0.42334 0.0285 0.11641-0.0171 0.49822-0.0554 0.84844-0.0852z"/><path d="m99.943 41.487c-0.49838-0.0905-0.65844-0.1529-0.66559-0.25953-5e-3 -0.0772-0.0187-0.27376-0.03-0.43674s-0.045-0.92498-0.0748-1.6933-0.0776-1.7201-0.10623-2.1151c-0.0286-0.39493-0.0655-1.2331-0.082-1.8627s-0.0581-1.5446-0.0923-2.0336c-0.0343-0.48895-0.0703-1.8415-0.0801-3.0057-0.01-1.1642-0.0454-2.4797-0.0791-2.9234-0.0554-0.72861-0.0437-0.84115 0.12037-1.1628 0.12718-0.24928 0.25122-0.37159 0.41349-0.40768 0.12749-0.0284 0.308-0.0727 0.40113-0.0984 0.0931-0.0258 0.18839-0.0459 0.21167-0.0446 0.0233 1e-3 0.13758-0.0368 0.254-0.0845 0.611-0.25057 1.4622-0.19846 1.6471 0.10083 0.1109 0.17945 0.12571 0.61969 0.0269 0.8-0.16876 0.30794-0.0378 9.1817 0.14822 10.044 0.0251 0.11641 0.0635 0.63076 0.0852 1.143 0.0217 0.51223 0.0795 1.5735 0.12832 2.3584 0.10261 1.6494 0.12011 1.6055-0.67631 1.696-0.25877 0.0294-0.56574 0.0651-0.68216 0.0794-0.11641 0.0142-0.50694-0.0277-0.86783-0.0932z"/></g><path d="m42.496 41.105c-0.10153-0.0526-0.21441-0.12456-0.25084-0.15996-0.03642-0.0354-0.08754-1.3314-0.11359-2.8799-0.02606-1.5486-0.06788-2.8468-0.09295-2.8849-0.02508-0.0381-0.05808-0.59412-0.07335-1.2355s-0.05709-1.4366-0.09296-1.7671c-0.03587-0.33052-0.04581-0.84639-0.02209-1.1464 0.02373-0.30002 0.01995-0.78221-0.0083-1.0715-0.0283-0.28935-0.01976-0.60469 0.01902-0.70078 0.03877-0.0961 0.06728-0.39713 0.06337-0.66898-0.0073-0.50335 9e-3 -1.2735 0.03922-1.861 0.01508-0.29323 0.04558-0.33999 0.30251-0.46388 0.15715-0.0758 0.30793-0.17153 0.33506-0.21279 0.02714-0.0413 0.14965-0.0751 0.27225-0.0751 0.1226 0 0.26291-0.0453 0.31179-0.10065 0.06681-0.0757 0.2579-0.0921 0.76958-0.0663 0.37439 0.019 0.8836-4e-3 1.1316-0.049 0.60691-0.11223 1.7957-0.12302 1.9309-0.0176 0.05883 0.0459 0.12616 0.0654 0.14963 0.0434 0.051-0.0479 1.6314 0.31831 1.8014 0.41746 0.06525 0.0381 0.24504 0.12052 0.39953 0.18324 0.25263 0.10255 0.58327 0.47471 0.59274 0.66717 2e-3 0.0409 0.0422 0.14123 0.0892 0.22299 0.11284 0.19614 0.20045 1.0882 0.23726 2.4158 0.063 2.2717 0.0647 6.4329 3e-3 7.3036-0.0626 0.88309-0.0759 0.93217-0.44825 1.6534-0.23019 0.44585-0.49758 0.84242-0.66816 0.99094-0.15641 0.13619-0.28439 0.27767-0.28439 0.3144 0 0.0367-0.14236 0.13504-0.31635 0.21847-0.174 0.0834-0.31636 0.17991-0.31636 0.21441 0 0.15433-1.7118 0.55666-2.7283 0.64124-0.21762 0.0181-0.62702 0.0665-0.90976 0.10747-0.71082 0.10307-1.8954 0.0848-2.1223-0.0327zm3.5416-1.8667c1.0573-0.20153 1.6604-0.62297 1.8738-1.3094 0.26479-0.85156 0.41332-3.3837 0.38058-6.4883-0.02919-2.7691-0.09058-3.2417-0.48404-3.7265-0.37444-0.46139-0.53399-0.49855-1.9206-0.44726-1.2998 0.0481-1.5819 0.0878-1.5911 0.22425-0.05501 0.8124-0.1837 6.7632-0.16658 7.7033 0.0041 0.22486 0.02566 0.87712 0.04794 1.4495s0.04443 1.3695 0.04924 1.7714c0.01331 1.1123 0.09618 1.15 1.8108 0.82315z" stroke-width=".076673"/><path d="m104.7 41.411c-0.16407-0.12304-0.17345-0.24186-0.21374-2.7093-0.0648-3.967-0.13386-6.4656-0.18082-6.5416-0.0234-0.0379-0.0562-0.48473-0.0728-0.9929-0.0166-0.50818-0.055-1.0874-0.0852-1.2871-0.0957-0.63203-0.10789-1.2792-0.0332-1.7601 0.0398-0.25612 0.0884-0.85933 0.10804-1.3405 0.0197-0.48262 0.0781-0.91723 0.13029-0.96944 0.0521-0.0521 0.0946-0.14417 0.0946-0.2047 0-0.0605 0.0476-0.1125 0.10583-0.11547 0.0582-3e-3 0.23919-0.0254 0.40217-0.0497 0.16298-0.0244 0.55884-0.0505 0.87966-0.0581 0.50374-0.0119 0.59616 9e-3 0.67734 0.15556 0.0517 0.0931 0.12028 0.18922 0.15241 0.21352 0.1514 0.11452 0.48061 0.68521 0.53307 0.92407 0.0322 0.14674 0.15046 0.35865 0.26272 0.47092 0.11228 0.11228 0.20414 0.24396 0.20414 0.29264 0 0.0487 0.0286 0.0888 0.0635 0.0892 0.0671 8.46e-4 0.27517 0.40325 0.27517 0.53232 0 0.0417 0.0712 0.17701 0.15823 0.30061 0.087 0.12361 0.18676 0.31653 0.22165 0.42872 0.0349 0.11219 0.24758 0.524 0.47265 0.91515 0.38622 0.67119 0.48616 0.8831 0.51044 1.0822 6e-3 0.0466 0.0823 0.1858 0.17034 0.3094 0.088 0.12361 0.16002 0.24428 0.16002 0.26817 0 0.0239 0.17146 0.33343 0.381 0.68787 0.20955 0.35444 0.38326 0.69096 0.386 0.74783 3e-3 0.0569 0.097 0.27484 0.20952 0.48439 0.11249 0.20955 0.22829 0.44503 0.25734 0.52328 0.1268 0.34158 0.53913-0.0189 0.42141-0.36838-0.0796-0.23624-0.1398-1.4617-0.17616-3.5839-0.0221-1.2894-0.08-2.3767-0.1398-2.6247-0.10962-0.45466-0.13172-1.5601-0.0386-1.9311 0.0683-0.27215 0.4367-0.44763 0.98245-0.46798 0.20798-8e-3 0.45088-0.0372 0.53977-0.0654 0.11614-0.0369 0.14304-0.0212 0.0956 0.0555-0.0443 0.0717-0.0318 0.0857 0.038 0.0425 0.0606-0.0374 0.18094 8e-3 0.28825 0.10879 0.18139 0.17041 0.18466 0.2193 0.21157 3.1627 0.015 1.6443 0.0436 3.142 0.0636 3.3283 0.0199 0.18627 0.0562 1.0245 0.0806 1.8627s0.0672 1.7145 0.0951 1.9473 0.0627 0.63288 0.0772 0.889c0.0146 0.25612 0.0674 0.74546 0.11736 1.0874 0.05 0.34196 0.11244 0.8551 0.1388 1.1403 0.0264 0.28521 0.0728 0.55788 0.10308 0.60592 0.0303 0.048 0.0804 0.2969 0.11125 0.55302 0.0309 0.25611 0.0847 0.66569 0.11957 0.91016 0.036 0.25245 0.0307 0.4445-0.0123 0.4445-0.0417 0-0.12453 0.11012-0.18411 0.24471-0.13095 0.29586-0.40137 0.36537-0.99071 0.25464-0.51401-0.0966-0.8609-0.44366-1.2606-1.2614-0.14797-0.30268-0.37591-0.71661-0.50654-0.91984s-0.28797-0.51252-0.34963-0.68732c-0.126-0.35713-0.28766-0.65854-0.44503-0.82978-0.0582-0.0633-0.10583-0.17545-0.10583-0.24913 0-0.15309-0.55444-1.175-0.6794-1.2522-0.0454-0.0281-0.0826-0.13643-0.0826-0.24078 0-0.10436-0.0359-0.22593-0.0799-0.27017-0.0439-0.0442-0.4373-0.78528-0.87418-1.6468-0.43688-0.86148-0.88672-1.6998-0.99963-1.863-0.48011-0.69373-0.69957-0.93101-0.8611-0.93101-0.16745 0-0.16917 0.0345-0.11326 2.2648 0.0312 1.2456 0.0707 3.084 0.0878 4.0852 0.0171 1.0012 0.0552 1.9346 0.0847 2.0743 0.0901 0.42634 0.11159 1.3462 0.0349 1.4962-0.19192 0.37566-0.32271 0.42245-1.1012 0.3939-0.50219-0.0184-0.80571-0.0699-0.92074-0.15614z" stroke-width=".084667"/><path d="m26.922 41.524c-0.02353-0.0191-0.14968-0.0492-0.28045-0.0669-0.46152-0.0626-1.1636-0.38217-1.5604-0.71021-0.53931-0.44587-0.9284-0.82831-0.9284-0.91255 0-0.038-0.03949-0.12989-0.08768-0.2042-0.38818-0.5979-0.60171-1.6501-0.58796-2.8974 0.0034-0.27817-0.05487-0.78589-0.12883-1.1282-0.08723-0.40385-0.13788-1.2647-0.14432-2.451-0.0056-1.0057-0.03711-2.0912-0.07037-2.4121-0.11342-1.0956 0.01528-2.4059 0.25556-2.6011 0.05125-0.0415 0.09311-0.15072 0.09311-0.24251 0-0.0918 0.09176-0.23362 0.204-0.31513 0.11223-0.0815 0.28308-0.29705 0.37976-0.47892 0.09662-0.18189 0.22039-0.3307 0.27496-0.3307 0.05453 0 0.09922-0.051 0.09922-0.11337 0-0.17607 1.2379-0.92839 1.7721-1.077 0.54534-0.15167 1.5151-0.17132 2.4427-0.0494 0.49813 0.0654 0.67533 0.12851 0.88607 0.31545 0.14489 0.12853 0.26342 0.26197 0.26342 0.29653 0 0.0346 0.16165 0.23374 0.35922 0.44261 0.53282 0.56329 0.66847 0.79922 0.74402 1.294 0.03757 0.24608 0.09719 0.44741 0.13255 0.44741 0.0353 0 0.06969 0.0613 0.07637 0.13617 0.0068 0.0749 0.07976 0.66342 0.16239 1.3078 0.09278 0.7238 0.14818 1.854 0.14491 2.9568-0.0034 0.98182 0.01789 1.9602 0.04616 2.1742 0.04412 0.33365 0.14022 1.1337 0.18217 1.5173 0.03983 0.36443-0.16756 1.6325-0.35989 2.2003-0.22744 0.67152-0.32656 0.80243-1.1288 1.4906-0.25025 0.21469-0.455 0.41164-0.455 0.43769 0 0.026-0.24787 0.18401-0.55081 0.35103-0.30294 0.16702-0.57278 0.32763-0.59965 0.35691-0.062 0.0675-0.42811 0.14155-0.86704 0.17522-0.18764 0.0144-0.42785 0.0485-0.53379 0.0758-0.1059 0.0273-0.21183 0.034-0.23532 0.015zm0.79811-2.0556c0.0611-0.0496 0.14753-0.0902 0.19219-0.0902 0.10974 0 0.52251-0.36365 0.81142-0.71482 0.22917-0.27858 0.3955-0.67687 0.44884-1.0748 0.01436-0.107 0.05329-0.26456 0.08644-0.35015 0.18603-0.47926 0.217-1.6904 0.07162-2.8012-0.0448-0.34236-0.06494-1.0777-0.0448-1.634 0.07988-2.2026 0.03451-3.1021-0.20269-4.018-0.0775-0.29925-0.14102-0.62059-0.14116-0.71409 0-0.0935-0.16179-0.32211-0.35922-0.50806-0.30647-0.28864-0.42527-0.34414-0.81252-0.37959-0.40562-0.0371-0.49969-0.0137-0.8899 0.22136-0.28758 0.17326-0.53769 0.42205-0.73364 0.72974-0.38751 0.6085-0.67304 1.542-0.55126 1.8022 0.10793 0.2307 0.1184 0.57096 0.01754 0.57096-0.03983 0-0.13682 0.11381-0.21553 0.25289-0.16483 0.29123-0.18723 1.6362-0.0612 3.6765 0.04231 0.68473 0.0922 1.5556 0.11099 1.9353 0.06959 1.4063 0.1042 1.546 0.55408 2.2361 0.47282 0.72527 0.86828 1.0156 1.3276 0.97479 0.1541-0.0137 0.33013-0.0654 0.39117-0.11507z" stroke-width=".086334"/><path d="m20.336 26.35c-0.12885 0.20156-0.29366 0.81194-0.29366 1.0883 0 0.0821-0.04975 0.29043-0.11088 0.46302-0.06113 0.17259-0.13521 0.42097-0.16424 0.55191-0.02904 0.13093-0.1119 0.42561-0.18437 0.65474-0.20516 0.64864-0.32431 1.0851-0.45438 1.666-0.06596 0.2946-0.1825 0.79733-0.25883 1.1167-0.07633 0.31938-0.15005 0.66745-0.16392 0.77359-0.0219 0.16762-0.11678 0.57467-0.22559 0.96687-0.01816 0.0654-0.0439 0.19333-0.0572 0.28422-0.01328 0.0909-0.06655 0.30496-0.11823 0.47594-0.10989 0.3636-0.3042 1.0904-0.3042 1.1374 0 0.0179-0.09023 0.31306-0.20035 0.65577-0.11011 0.34271-0.20088 0.64465-0.20163 0.67128-9.79e-4 0.0266-0.03606 0.15534-0.07861 0.28628-0.04256 0.13093-0.07785 0.2675-0.07861 0.30335-9.79e-4 0.0359-0.03805 0.11449-0.08276 0.17466-0.07029 0.0945-0.0048 0.1206-0.05064 0.0469-0.0715-0.11506-0.19141-0.58655-0.1652-0.64958 0.01153-0.0278 0.0074-0.0598-0.0093-0.0708-0.0367-0.0242-0.3304-1.3069-0.3304-1.4428 0-0.053-0.01603-0.14263-0.03547-0.19947-0.04274-0.12515-0.12987-0.62563-0.15529-0.89245-0.01016-0.10668-0.03442-0.20887-0.054-0.22686-0.01958-0.018-0.03547-0.0721-0.03547-0.11989 0-0.0478-0.07174-0.30733-0.15913-0.57671-0.08739-0.26937-0.1764-0.59667-0.1978-0.7276-0.08619-0.52758-0.13526-0.74414-0.16872-0.74414-0.01934 0-0.03492-0.0732-0.03483-0.1633 3.18e-4 -0.16736-0.15752-0.59761-0.22176-0.75809-0.01967-0.0491-0.07159-0.20978-0.11535-0.35709-0.04375-0.14729-0.09748-0.31419-0.11951-0.37103-0.02204-0.0569-0.03994-0.20873-0.03994-0.33796 0-0.12926-0.01792-0.30473-0.03962-0.38965-0.0217-0.0849-0.04302-0.2408-0.04761-0.34623-0.0047-0.10543-0.12898-0.42527-0.15887-0.49574-0.19639-0.67627-0.3192-0.98224-0.3192-0.98224-0.27324-0.76928-0.53066-0.61139-0.90814-0.66585-0.13509-0.0195-1.1376 0.0285-1.1726 9e-3 -0.02749-0.0157-0.13932 4e-3 -0.26937 0.0352-0.05538-9e-3 -0.10059-0.013-0.11567-4e-3 -0.03219 0.0199-0.15992 0.0523-0.28407 0.0718-0.34692 0.0545-0.46193-0.0534-0.77665 0.43541 0 0-0.10714 0.31679-0.27826 1.1956-0.02747 0.0705-0.05351 0.21445-0.05784 0.31988-0.0042 0.10543-0.02383 0.26082-0.04378 0.34572s-0.03643 0.26038-0.03643 0.38964c0 0.12923-0.01649 0.28158-0.03675 0.33848-0.02024 0.0568-0.06972 0.22373-0.10992 0.37103-0.04022 0.1473-0.08801 0.30799-0.10609 0.35709-0.05905 0.16048-0.15247 0.68065-0.1521 0.84801 8.7e-5 0.0901-0.0145 0.16381-0.03227 0.16381-0.03075 0-0.07576 0.21605-0.15498 0.74363-0.01966 0.13092-0.1015 0.45875-0.18182 0.72812-0.08032 0.26938-0.14603 0.52891-0.14603 0.5767 0 0.0478-0.01492 0.1019-0.03291 0.1199-0.018 0.018-0.04018 0.11966-0.04953 0.22634-0.02337 0.26682-0.10354 0.7673-0.14283 0.89245-0.01786 0.0568-0.03227 0.14699-0.03227 0.19999 0 0.13592-0.27015 1.4186-0.30388 1.4428-0.0153 0.011-0.01923 0.0425-0.0086 0.0703 0.02408 0.063-0.08606 0.53452-0.15178 0.64958-0.0421 0.0737-0.05874 0.0702-0.12334-0.0243-0.04109-0.0602-0.07518-0.13825-0.07605-0.17415-6.62e-4 -0.0358-0.03342-0.17241-0.07254-0.30334-0.0391-0.13094-0.07135-0.25969-0.07222-0.28629-6.62e-4 -0.0266-0.08413-0.32908-0.18533-0.67179-0.1012-0.34271-0.18405-0.63788-0.18405-0.65578 0-0.047-0.1786-0.7738-0.2796-1.1374-0.04749-0.17098-0.09643-0.38504-0.10864-0.47594-0.01222-0.0909-0.03572-0.21882-0.0524-0.28422-0.1-0.3922-0.18757-0.79924-0.2077-0.96686-0.01274-0.10614-0.08035-0.45421-0.1505-0.7736-0.07015-0.31939-0.17711-0.82161-0.23774-1.1162-0.11954-0.58094-0.22908-1.0179-0.41764-1.6666-0.06661-0.22914-0.14299-0.52381-0.16967-0.65474-0.02669-0.13094-0.09464-0.3788-0.15082-0.55139-0.05618-0.17259-0.10193-0.38144-0.10193-0.46354 0-0.27636-0.43904-1.3823-0.55746-1.5839-0.13215-0.22491-1.905-0.10901-2.0364-0.10901-0.06873 0-0.10631 0.0659-0.17894 0.31419-0.09372 0.31973-0.09364 0.48037-6.54e-4 0.72761 0.02461 0.0655 0.05447 0.18782 0.06646 0.27182 0.01197 0.084 0.05622 0.21689 0.09842 0.29559 0.0445 0.083 0.06889 0.19146 0.05815 0.25786-0.01019 0.0631 0.01361 0.21127 0.05272 0.32918 0.12676 0.3823 0.22181 0.74088 0.3173 1.1963 0.05148 0.2455 0.17282 0.72755 0.26969 1.0712 0.09688 0.34369 0.19702 0.74516 0.2224 0.89245 0.02537 0.1473 0.09103 0.42889 0.14603 0.62529 0.05501 0.19639 0.13517 0.51777 0.17798 0.71416 0.04282 0.1964 0.1112 0.46307 0.1521 0.59273 0.04093 0.12967 0.07445 0.26453 0.07445 0.29973s0.05979 0.29092 0.13261 0.56792c0.07282 0.27699 0.15841 0.61063 0.19044 0.74156 0.03204 0.13094 0.07794 0.27801 0.10193 0.32711 0.02398 0.0491 0.05357 0.15815 0.06582 0.24185 0.01225 0.0838 0.05096 0.25751 0.08595 0.38654 0.03498 0.12902 0.08557 0.38221 0.11248 0.56224 0.0269 0.18003 0.05877 0.39414 0.07094 0.47594 0.01219 0.0818 0.0424 0.18912 0.06678 0.23822s0.06515 0.18258 0.09075 0.29714c0.05882 0.26306 0.12499 0.49739 0.15146 0.53589 0.01124 0.0164 0.03917 0.15035 0.06199 0.29765 0.1126 0.7269 0.45391 1.7136 0.72611 2.7874 0.20694 0.81625 2.8594 0.54867 3.0063 0.60107 0.18694-0.0839 0.24471-0.21834 0.35214-0.41135 0.01178-0.0827 0.05871-0.25716 0.10449-0.38809 0.14381-0.41136 0.58525-2.3422 0.70075-3.0654 0.0026-0.0163 0.01687-0.11006 0.03196-0.20826 0.01512-0.0982 0.04196-0.23174 0.05943-0.29714 0.01747-0.0655 0.04291-0.21307 0.05656-0.32763 0.01364-0.11457 0.03752-0.23488 0.05304-0.26768 0.01553-0.0327 0.06566-0.26042 0.11152-0.50591 0.04585-0.2455 0.10412-0.52657 0.12941-0.62477 0.02529-0.0982 0.07422-0.3395 0.10864-0.53589 0.03442-0.1964 0.08519-0.43716 0.1128-0.53536 0.02762-0.0982 0.09042-0.4065 0.13964-0.68472 0.1115-0.6303 0.21678-1.0946 0.2732-1.2046 0.07401-0.14422 0.1553-0.50894 0.1553-0.69763 0-0.0993 0.01508-0.18087 0.03355-0.18087 0.03806 0 0.15868-0.58235 0.22112-1.0671 0.01167-0.0905 0.02619-0.17873 0.03994-0.2496 0.01306 0.0654 0.02641 0.13976 0.03739 0.21808 0.06794 0.48477 0.18554 0.70537 0.22695 0.70537 0.0201 0 0.03643 0.0811 0.03643 0.18035 0 0.1887 0.08851 0.55393 0.16904 0.69815 0.0614 0.10996 0.17585 0.57428 0.29717 1.2046 0.05355 0.27822 0.12204 0.58599 0.1521 0.68419 0.03003 0.0982 0.08525 0.33949 0.1227 0.53589 0.03745 0.19639 0.09071 0.43717 0.11823 0.53537s0.09071 0.37926 0.1406 0.62476c0.04989 0.24549 0.10452 0.47319 0.12142 0.50592 0.01689 0.0328 0.04298 0.15363 0.05784 0.2682 0.01486 0.11456 0.04234 0.26164 0.06135 0.32711 0.01901 0.0654 0.0481 0.19945 0.06455 0.29765 0.01641 0.0982 0.0323 0.1919 0.03515 0.20826 0.12567 0.72323 0.57361 2.8171 0.73009 3.2284 0.04981 0.13093 0.10094 0.30587 0.11376 0.38861 0.01283 0.0827 0.17481 0.43923 0.17481 0.43923 0.72172 0.27398 3.1775 0.42054 3.3942-0.10351 0.29617-1.0738 0.51467-2.3882 0.63719-3.1151 0.02483-0.14729 0.0552-0.28128 0.06742-0.29765 0.0288-0.0385 0.10088-0.27231 0.16488-0.53537 0.02786-0.11456 0.07221-0.24856 0.09874-0.29766s0.05927-0.15638 0.07254-0.23822c0.01323-0.0818 0.04806-0.29591 0.07733-0.47595 0.02927-0.18002 0.08433-0.4327 0.12238-0.56172 0.03807-0.12903 0.07997-0.3033 0.09331-0.38705 0.01333-0.0837 0.0458-0.19223 0.0719-0.24133 0.02611-0.0491 0.07602-0.19669 0.11088-0.32763 0.03486-0.13093 0.12815-0.46457 0.20738-0.74156 0.07923-0.277 0.14411-0.53218 0.14411-0.5674 0-0.0352 0.03631-0.17057 0.08084-0.30025 0.0445-0.12967 0.11893-0.39632 0.16552-0.59272 0.04659-0.1964 0.13379-0.51778 0.19364-0.71417 0.05984-0.1964 0.13152-0.47747 0.15913-0.62477 0.02762-0.14729 0.13648-0.54928 0.24189-0.89297 0.1054-0.3437 0.23732-0.82575 0.29334-1.0712 0.1039-0.45543 0.20749-0.81401 0.34542-1.1963 0.04256-0.11791 0.06829-0.26611 0.0572-0.32918-0.01168-0.0664 0.01486-0.17438 0.06327-0.25735 0.04592-0.0787 0.09433-0.21212 0.10736-0.2961 0.01306-0.084 0.04544-0.20635 0.07221-0.27182 0.10119-0.24724 0.0311-0.0235-0.07088-0.34325-1.1315-0.0789-2.1398-0.38083-2.4298-0.0934z" stroke-width=".046799"/><path d="m35.891 41.47c-0.37878-0.0928-1.0632-0.41389-1.5363-0.72062-0.98889-0.64121-1.3038-1.2062-1.3708-2.4595-0.10539-1.9701-0.195-4.6032-0.20081-5.9009-0.0037-0.8225-0.02601-1.6591-0.04977-1.8592-0.02376-0.20006 0.01429-0.74568 0.08453-1.2125 0.07015-0.46682 0.15722-1.1642 0.19346-1.5496 0.06933-0.73711 0.09406-0.81731 0.33279-1.0775 0.08161-0.0889 0.22715-0.28593 0.32345-0.4378 0.13952-0.22003 0.28626-0.31446 0.72222-0.46479 0.30093-0.10377 0.70318-0.18867 0.89388-0.18867 0.19071 0 0.54507-0.0592 0.78746-0.13145 0.37704-0.11246 0.51818-0.11724 0.97696-0.0331 0.29494 0.054 0.55546 0.13021 0.57893 0.16917 0.02347 0.039 0.20971 0.15804 0.41386 0.2646 1.5295 0.79837 1.6731 0.90035 1.9885 1.4122 0.32837 0.53286 0.46127 0.94111 0.45262 1.3904-0.0027 0.1556 0.01783 0.4466 0.0464 0.64667s0.0696 1.255 0.09138 2.3442c0.02167 1.0892 0.05404 2.1441 0.07188 2.3442 0.11701 1.3129 0.19295 2.9125 0.15839 3.3364-0.12705 1.558-0.19991 2.096-0.31443 2.322-0.05632 0.11115-0.1813 0.37926-0.27771 0.59581-0.11198 0.25152-0.27069 0.45149-0.4394 0.55362-0.14526 0.088-0.2641 0.19481-0.2641 0.2375 0 0.0427-0.03302 0.0566-0.07333 0.031s-0.0956-9e-3 -0.12283 0.0357c-0.0273 0.0452-0.11876 0.0823-0.20346 0.0823-0.08471 0-0.21554 0.0353-0.29078 0.0788-0.30602 0.17614-2.4675 0.31526-2.973 0.19136zm1.9094-2.8902 0.33377-0.3304 0.04904-0.76792c0.02693-0.42237 0.07343-1.0097 0.1033-1.3051 0.0595-0.58967 0.04795-1.8521-0.02421-2.6136-0.02529-0.26768-0.05169-1.1051-0.05832-1.8609-0.0064-0.7558-0.04413-1.5742-0.08298-1.8188-0.03885-0.24452-0.10759-0.68103-0.15262-0.97-0.15256-0.97862-0.66542-1.4007-1.4833-1.2208-0.22264 0.049-0.50548 0.0891-0.62854 0.0891-0.12306 0-0.30246 0.0655-0.39866 0.14532-0.35898 0.29826-0.39695 0.57595-0.51618 3.7751-0.0232 0.62243-0.06096 1.2772-0.08397 1.455-0.04786 0.37094-0.04805 0.33173 0.0037 0.97002 0.02175 0.26676 0.05622 0.86694 0.07652 1.3338 0.09008 2.0656 0.39172 2.9999 1.0644 3.2966 0.77607 0.34221 1.3278 0.28776 1.7977-0.1774z" stroke-width=".079802"/><path d="m52.956 26.113c0.11269 0.20156 0.25685 0.81194 0.25685 1.0883 0 0.0821 0.0436 0.29043 0.097 0.46302s0.11825 0.42097 0.14365 0.55191c0.0254 0.13093 0.0979 0.42561 0.16127 0.65474 0.17945 0.64864 0.28367 1.0851 0.39744 1.666 0.0577 0.2946 0.15962 0.79733 0.22639 1.1167 0.0667 0.31938 0.13125 0.66745 0.14338 0.77359 0.0192 0.16762 0.10214 0.57467 0.19732 0.96687 0.0159 0.0654 0.0384 0.19333 0.05 0.28422 0.0116 0.0909 0.0582 0.30496 0.10341 0.47594 0.0961 0.3636 0.26608 1.0904 0.26608 1.1374 0 0.0179 0.0789 0.31306 0.17524 0.65577 0.0963 0.34271 0.1757 0.64465 0.17636 0.67128 7.9e-4 0.0266 0.0315 0.15534 0.0688 0.28628 0.0372 0.13093 0.0681 0.2675 0.0688 0.30335 7.9e-4 0.0359 0.0333 0.11449 0.0724 0.17466 0.0615 0.0945 4e-3 0.1206 0.0443 0.0469 0.0625-0.11506 0.16741-0.58655 0.1445-0.64958-0.0101-0.0278-7e-3 -0.0598 8e-3 -0.0708 0.0321-0.0242 0.28899-1.3069 0.28899-1.4428 0-0.053 0.014-0.14263 0.031-0.19947 0.0374-0.12515 0.1136-0.62563 0.13583-0.89245 9e-3 -0.10668 0.0301-0.20887 0.0472-0.22686 0.0171-0.018 0.031-0.0721 0.031-0.11989 0-0.0478 0.0628-0.30733 0.13919-0.57671 0.0764-0.26937 0.15429-0.59667 0.17301-0.7276 0.0754-0.52758 0.1183-0.74414 0.14757-0.74414 0.0169 0 0.0305-0.0732 0.0305-0.1633-2.7e-4 -0.16736 0.13778-0.59761 0.19397-0.75809 0.0172-0.0491 0.0626-0.20978 0.1009-0.35709 0.0383-0.14729 0.0853-0.31419 0.10453-0.37103 0.0193-0.0569 0.0349-0.20873 0.0349-0.33796 0-0.12926 0.0157-0.30473 0.0347-0.38965 0.019-0.0849 0.0376-0.2408 0.0416-0.34623s0.11281-0.42527 0.13895-0.49574c0.17178-0.67627 0.2792-0.98224 0.2792-0.98224 0.23899-0.76928 0.46416-0.61139 0.79433-0.66585 0.11815-0.0195 0.99501 0.0285 1.0256 9e-3 0.0241-0.0157 0.12186 4e-3 0.23561 0.0352 0.0484-9e-3 0.088-0.013 0.10117-4e-3 0.0282 0.0199 0.13988 0.0523 0.24847 0.0718 0.30345 0.0545 0.40404-0.0534 0.67932 0.43541 0 0 0.0937 0.31679 0.24339 1.1956 0.024 0.0705 0.0468 0.21445 0.0506 0.31988 4e-3 0.10543 0.0209 0.26082 0.0383 0.34572 0.0175 0.0849 0.0319 0.26038 0.0319 0.38964 0 0.12923 0.0144 0.28158 0.0321 0.33848 0.0177 0.0568 0.061 0.22373 0.0961 0.37103 0.0352 0.1473 0.077 0.30799 0.0928 0.35709 0.0516 0.16048 0.13336 0.68065 0.13304 0.84801-8e-5 0.0901 0.0127 0.16381 0.0282 0.16381 0.0269 0 0.0663 0.21605 0.13555 0.74363 0.0172 0.13092 0.0888 0.45875 0.15903 0.72812 0.0703 0.26938 0.12773 0.52891 0.12773 0.5767 0 0.0478 0.013 0.1019 0.0288 0.1199 0.0157 0.018 0.0351 0.11966 0.0433 0.22634 0.0204 0.26682 0.0906 0.7673 0.12493 0.89245 0.0156 0.0568 0.0282 0.14699 0.0282 0.19999 0 0.13592 0.2363 1.4186 0.2658 1.4428 0.0134 0.011 0.0168 0.0425 8e-3 0.0703-0.0211 0.063 0.0753 0.53452 0.13276 0.64958 0.0368 0.0737 0.0514 0.0702 0.10788-0.0243 0.0359-0.0602 0.0658-0.13826 0.0665-0.17416 5.3e-4 -0.0358 0.0292-0.1724 0.0635-0.30334 0.0342-0.13093 0.0624-0.25968 0.0632-0.28629 5.3e-4 -0.0266 0.0736-0.32908 0.16211-0.67179 0.0885-0.34271 0.16098-0.63787 0.16098-0.65577 0-0.047 0.15622-0.7738 0.24456-1.1374 0.0415-0.17098 0.0843-0.38504 0.095-0.47594s0.0312-0.21882 0.0458-0.28422c0.0875-0.3922 0.16406-0.79924 0.18167-0.96686 0.0111-0.10614 0.0703-0.45421 0.13164-0.7736 0.0614-0.31939 0.15492-0.82161 0.20794-1.1162 0.10457-0.58094 0.20037-1.0179 0.3653-1.6666 0.0583-0.22914 0.12507-0.52381 0.14841-0.65474 0.0233-0.13094 0.0828-0.3788 0.13192-0.55139 0.0491-0.17259 0.0892-0.38144 0.0892-0.46354 0-0.27636 0.38401-1.3824 0.48759-1.5839 0.11558-0.22491 1.6662-0.10901 1.7812-0.10901 0.0601 0 0.093 0.0659 0.15651 0.31419 0.082 0.31973 0.0819 0.48037 5.3e-4 0.72761-0.0215 0.0655-0.0477 0.18782-0.0581 0.27182-0.0105 0.084-0.0492 0.21689-0.0861 0.29559-0.0389 0.083-0.0603 0.19146-0.0509 0.25786 9e-3 0.0631-0.0119 0.21127-0.0461 0.32918-0.11087 0.3823-0.19401 0.74088-0.27754 1.1963-0.045 0.2455-0.15116 0.72755-0.23589 1.0712-0.0847 0.34369-0.17234 0.74516-0.19453 0.89245-0.0222 0.1473-0.0796 0.42889-0.12773 0.62529-0.0481 0.19639-0.11823 0.51777-0.15567 0.71416-0.0375 0.1964-0.0973 0.46307-0.13304 0.59273-0.0358 0.12967-0.0651 0.26453-0.0651 0.29973s-0.0523 0.29092-0.11599 0.56792c-0.0637 0.27699-0.13856 0.61063-0.16658 0.74156-0.028 0.13094-0.0682 0.27801-0.0892 0.32711s-0.0469 0.15815-0.0576 0.24185c-0.0107 0.0838-0.0446 0.25751-0.0752 0.38654-0.0306 0.12902-0.0748 0.38221-0.0984 0.56224-0.0235 0.18003-0.0514 0.39414-0.062 0.47594-0.0107 0.0818-0.0371 0.18912-0.0584 0.23822s-0.057 0.18258-0.0794 0.29714c-0.0514 0.26306-0.10932 0.49739-0.13247 0.53589-0.01 0.0164-0.0343 0.15035-0.0542 0.29765-0.0985 0.7269-0.39702 1.7136-0.63511 2.7874-0.181 0.81625-2.501 0.54867-2.6296 0.60107-0.16351-0.0839-0.21404-0.21834-0.30801-0.41135-0.0103-0.0827-0.0513-0.25716-0.0914-0.38809-0.12579-0.41136-0.5119-2.3422-0.61292-3.0654-2e-3 -0.0163-0.0148-0.11006-0.028-0.20826s-0.0367-0.23174-0.052-0.29714c-0.0153-0.0655-0.0375-0.21307-0.0495-0.32763-0.0119-0.11457-0.0328-0.23488-0.0464-0.26768-0.0136-0.0327-0.0574-0.26042-0.0975-0.50591-0.0401-0.2455-0.0911-0.52657-0.1132-0.62477s-0.0649-0.3395-0.095-0.53589c-0.0301-0.1964-0.0745-0.43716-0.0987-0.53536s-0.0791-0.4065-0.12214-0.68472c-0.0975-0.6303-0.18961-1.0946-0.23896-1.2046-0.0647-0.14422-0.13584-0.50894-0.13584-0.69763 0-0.0993-0.0132-0.18087-0.0293-0.18087-0.0333 0-0.13879-0.58235-0.19341-1.0671-0.0102-0.0905-0.0229-0.17873-0.0349-0.2496-0.0114 0.0654-0.0231 0.13976-0.0327 0.21808-0.0594 0.48477-0.16228 0.70537-0.19851 0.70537-0.0176 0-0.0319 0.0811-0.0319 0.18035 0 0.1887-0.0774 0.55393-0.14784 0.69815-0.0537 0.10996-0.15382 0.57428-0.25993 1.2046-0.0468 0.27822-0.10676 0.58599-0.13304 0.68419-0.0263 0.0982-0.0746 0.33949-0.10732 0.53589-0.0328 0.19639-0.0793 0.43717-0.10342 0.53537-0.0241 0.0982-0.0793 0.37926-0.12298 0.62476-0.0436 0.24549-0.0914 0.47319-0.1062 0.50592-0.0148 0.0328-0.0376 0.15363-0.0506 0.2682-0.013 0.11456-0.037 0.26164-0.0537 0.32711-0.0166 0.0654-0.0421 0.19945-0.0565 0.29765-0.0143 0.0982-0.0282 0.1919-0.0307 0.20826-0.10992 0.72323-0.50173 2.8171-0.63859 3.2284-0.0436 0.13093-0.0883 0.30587-0.0995 0.38861-0.0112 0.0827-0.15291 0.43923-0.15291 0.43923-0.63127 0.27398-2.7793 0.42054-2.9688-0.10351-0.25905-1.0738-0.45017-2.3882-0.55734-3.1151-0.0217-0.14729-0.0483-0.28128-0.0589-0.29765-0.0252-0.0385-0.0882-0.27231-0.14422-0.53537-0.0244-0.11456-0.0631-0.24856-0.0863-0.29766s-0.0519-0.15638-0.0634-0.23822c-0.0116-0.0818-0.0421-0.29591-0.0676-0.47595-0.0256-0.18002-0.0737-0.4327-0.10705-0.56172-0.0333-0.12903-0.07-0.3033-0.0816-0.38705-0.0116-0.0837-0.0401-0.19223-0.0629-0.24133s-0.0665-0.19669-0.097-0.32763c-0.0305-0.13093-0.11208-0.46457-0.18138-0.74156-0.0693-0.277-0.12605-0.53218-0.12605-0.5674 0-0.0352-0.0318-0.17057-0.0707-0.30025-0.0389-0.12967-0.10404-0.39632-0.14479-0.59272-0.0408-0.1964-0.11702-0.51778-0.16937-0.71417-0.0523-0.1964-0.11504-0.47747-0.13919-0.62477-0.0241-0.14729-0.11938-0.54928-0.21158-0.89297-0.0922-0.3437-0.20757-0.82575-0.25657-1.0712-0.0909-0.45543-0.18149-0.81401-0.30213-1.1963-0.0373-0.11791-0.0597-0.26611-0.05-0.32918 0.0102-0.0664-0.013-0.17438-0.0554-0.25735-0.0401-0.0787-0.0825-0.21212-0.0939-0.2961-0.0115-0.084-0.0397-0.20635-0.0632-0.27182-0.0885-0.24724-0.0272-0.0235 0.062-0.34325 0.98967-0.0789 1.8716-0.38083 2.1253-0.0934z" stroke-width=".043768"/><path d="m71.883 41.631c-0.0241-0.0192-0.15318-0.0494-0.287-0.0672-0.47232-0.0629-1.1909-0.38409-1.5969-0.71377-0.55193-0.44809-0.95012-0.83244-0.95012-0.91711 0-0.0382-0.0404-0.13053-0.0898-0.20522-0.39726-0.60088-0.61578-1.6584-0.60171-2.9118 4e-3 -0.27957-0.0562-0.78982-0.13185-1.1339-0.0893-0.40587-0.1411-1.271-0.1477-2.4633-6e-3 -1.0107-0.038-2.1016-0.072-2.4242-0.11607-1.1011 0.0157-2.4179 0.26153-2.6141 0.0525-0.0417 0.0953-0.15147 0.0953-0.24372 0-0.0923 0.0939-0.23478 0.20877-0.31671 0.11486-0.0819 0.28971-0.29853 0.38865-0.48131 0.0989-0.18279 0.22555-0.33235 0.28139-0.33235 0.0558 0 0.10154-0.0513 0.10154-0.11393 0-0.17695 1.2669-0.93303 1.8136-1.0824 0.55809-0.15243 1.5505-0.17218 2.4998-0.0497 0.50978 0.0658 0.69112 0.12915 0.9068 0.31703 0.14827 0.12917 0.26958 0.26327 0.26958 0.29801 0 0.0347 0.16543 0.2349 0.36762 0.44482 0.54528 0.5661 0.6841 0.80321 0.76142 1.3005 0.0384 0.24731 0.0995 0.44965 0.13566 0.44965 0.0361 0 0.0713 0.0616 0.0782 0.13685 7e-3 0.0753 0.0816 0.66673 0.16619 1.3144 0.0949 0.72741 0.15164 1.8633 0.14829 2.9716-4e-3 0.98672 0.0183 1.97 0.0473 2.185 0.0452 0.33531 0.14351 1.1393 0.18642 1.5249 0.0408 0.36626-0.17147 1.6406-0.3683 2.2113-0.23276 0.67488-0.3342 0.80644-1.1552 1.498-0.25611 0.21575-0.46564 0.41369-0.46564 0.43987 0 0.0261-0.25367 0.18493-0.5637 0.35279-0.31003 0.16785-0.58618 0.32926-0.61367 0.35868-0.0635 0.0679-0.43813 0.14227-0.88732 0.17611-0.19204 0.0145-0.43786 0.0488-0.54628 0.0762-0.10838 0.0274-0.21678 0.0342-0.24083 0.0151zm0.81678-2.0658c0.0625-0.0499 0.15099-0.0906 0.19668-0.0906 0.11232 0 0.53474-0.36547 0.83041-0.7184 0.23453-0.27997 0.40475-0.68025 0.45934-1.0802 0.0147-0.10753 0.0546-0.26588 0.0884-0.3519 0.19039-0.48165 0.22208-1.6989 0.0733-2.8152-0.0458-0.34408-0.0665-1.0831-0.0458-1.6422 0.0818-2.2136 0.0353-3.1176-0.20743-4.038-0.0793-0.30075-0.14431-0.62369-0.14447-0.71766 0-0.094-0.16557-0.32372-0.36761-0.5106-0.31365-0.29009-0.43522-0.34586-0.83153-0.38149-0.41511-0.0373-0.51137-0.0138-0.91071 0.22247-0.29431 0.17412-0.55388 0.42167-0.80458 0.69183-0.7062 0.76105-0.50039 1.6825-0.71304 2.6808-0.0704 0.3304-0.19161 1.6444-0.0626 3.6949 0.0433 0.68815 0.0944 1.5634 0.11359 1.945 0.0713 1.4134 0.10664 1.5537 0.56703 2.2473 0.48388 0.7289 0.8886 1.0207 1.3587 0.97966 0.1577-0.0138 0.33785-0.0658 0.40032-0.11565z" stroke-width=".087556"/></g><g transform="matrix(1.5949 0 0 1.5949 -42.422 -53.195)"><path d="m108.43 130.54c-0.41631-0.0994-1.1686-0.44335-1.6885-0.77191-1.0869-0.68685-1.433-1.292-1.5067-2.6346-0.11584-2.1104-0.21432-4.9309-0.2207-6.3209-4e-3 -0.88104-0.0286-1.7772-0.0547-1.9915-0.0261-0.2143 0.0157-0.79877 0.0929-1.2988 0.0771-0.50005 0.1728-1.247 0.21262-1.66 0.0762-0.78958 0.10338-0.87549 0.36576-1.1542 0.0897-0.0952 0.24966-0.30629 0.3555-0.46897 0.15334-0.23569 0.31462-0.33684 0.79377-0.49787 0.33074-0.11116 0.77284-0.2021 0.98244-0.2021 0.20961 0 0.59907-0.0634 0.86547-0.14081 0.41439-0.12047 0.56952-0.12559 1.0738-0.0355 0.32416 0.0579 0.61049 0.13948 0.63629 0.18122 0.0258 0.0417 0.23048 0.16928 0.45486 0.28343 1.6811 0.8552 1.8389 0.96443 2.1855 1.5127 0.3609 0.57079 0.50697 1.0081 0.49746 1.4893-3e-3 0.16669 0.0196 0.4784 0.051 0.69271s0.0765 1.3443 0.10043 2.511c0.0238 1.1668 0.0594 2.2968 0.079 2.5111 0.1286 1.4064 0.21207 3.1199 0.17408 3.5739-0.13964 1.6689-0.21972 2.2452-0.34558 2.4873-0.0619 0.11906-0.19926 0.40626-0.30522 0.63823-0.12307 0.26942-0.29751 0.48362-0.48293 0.59302-0.15965 0.0942-0.29027 0.20868-0.29027 0.2544 0 0.0457-0.0363 0.0607-0.0806 0.0333s-0.10508-0.0102-0.135 0.0382c-0.03 0.0484-0.13053 0.0881-0.22362 0.0881-0.0931 0-0.2369 0.0379-0.31959 0.0844-0.33633 0.18868-2.7119 0.3377-3.2675 0.20498zm2.0986-3.0959 0.36684-0.35391 0.0539-0.82259c0.0296-0.45243 0.0807-1.0815 0.11353-1.398 0.0654-0.63164 0.0527-1.9839-0.0266-2.7997-0.0278-0.28673-0.0568-1.1837-0.0641-1.9933-7e-3 -0.8096-0.0485-1.6863-0.0912-1.9482s-0.11824-0.72951-0.16774-1.0391c-0.16767-1.0483-0.73135-1.5004-1.6302-1.3076-0.2447 0.0525-0.55556 0.0954-0.69081 0.0954s-0.33242 0.0701-0.43815 0.15567c-0.39455 0.31949-0.43628 0.61695-0.56732 4.0439-0.0255 0.66673-0.067 1.3681-0.0923 1.5586-0.0526 0.39733-0.0528 0.35534 4e-3 1.0391 0.0239 0.28574 0.0618 0.92866 0.0841 1.4287 0.099 2.2126 0.43053 3.2135 1.1699 3.5312 0.85296 0.36657 1.4594 0.30825 1.9758-0.19002z" stroke-width=".086588"/><path d="m63.64 130.58c-0.1418-0.043-0.67782-0.0736-1.1911-0.0678-1.0826 0.0121-1.0978 3e-3 -1.435-0.82526-0.17398-0.42754-0.20765-0.64778-0.19707-1.2891 0.02754-1.6688 0.0212-6.2616-0.0087-6.31-0.04258-0.0689-0.13482-3.1027-0.17004-5.5927-0.03735-2.6414-0.03397-2.6499 1.1113-2.8184 0.33087-0.0486 0.83362-0.0902 1.1172-0.0925 0.2836-2e-3 0.70402-0.0612 0.93426-0.13119 0.45758-0.13903 1.179-0.0994 1.4721 0.081 0.09453 0.0582 0.31715 0.13123 0.49471 0.16236 0.53785 0.0943 1.3188 0.62141 1.7386 1.1734 0.66011 0.86799 0.83133 1.3019 1.0312 2.6136 0.07204 0.47266 0.18624 1.1494 0.25379 1.5039 0.07754 0.4069 0.12788 1.2941 0.13655 2.4063 0.0075 0.96898 0.02963 1.9938 0.04906 2.2774 0.18816 2.7465 0.1238 4.4249-0.18854 4.917-0.06644 0.10469-0.12081 0.23698-0.12081 0.29397 0 0.12998-0.93293 1.0196-1.0692 1.0196-0.0553 0-0.22662 0.093-0.3807 0.20669-0.2039 0.15043-0.44822 0.2235-0.89758 0.26843-0.33958 0.034-0.7141 0.0994-0.83227 0.14543-0.29484 0.11486-1.5322 0.1535-1.8477 0.0577zm1.5899-2.3647c0.79961-0.11127 1.3657-0.50783 1.4396-1.0084 0.06755-0.45804 0.02807-2.3314-0.10171-4.825-0.07539-1.4486-0.12942-2.608-0.18223-3.9103-0.04868-1.2005-0.09077-1.4388-0.35931-2.0357-0.12161-0.27026-0.70388-0.64612-0.91294-0.58931-0.05402 0.0147-0.36893 0.10732-0.6998 0.20586-0.33087 0.0986-0.78528 0.22411-1.0098 0.27903-0.35568 0.087-0.40878 0.12885-0.41265 0.32504-0.02398 1.2172-0.0035 1.9636 0.08417 3.0612 0.05661 0.70901 0.12338 2.8747 0.1484 4.8126 0.04026 3.1188 0.06186 3.5419 0.18798 3.6831 0.12552 0.14054 0.22441 0.15264 0.83002 0.10156 0.37814-0.0319 0.82287-0.0768 0.98831-0.0998z" stroke-width=".08594"/><path d="m91.69 130.59c-0.61508-0.0554-1.7834-0.35779-2.216-0.57365-0.57331-0.28605-1.4623-1.2435-1.4623-1.5749 0-0.36152 0.20669-1.1145 0.3059-1.1145 0.0475 0 0.08646-0.10149 0.08646-0.2256 0-0.66796 0.71221-0.61513 1.4713 0.10913 0.56599 0.53998 1.2634 0.6422 1.9655 0.28811 0.54742-0.27604 0.80901-0.76367 0.80901-1.5081 0-0.44891-0.05605-0.61036-0.37912-1.0911-0.42128-0.62693-1.0222-1.5987-1.0222-1.653 0-0.0193-0.4083-0.63683-0.90733-1.3723-1.2584-1.8546-1.2856-1.8985-1.4871-2.3944-0.09859-0.24277-0.22924-0.54737-0.29022-0.67688-0.06421-0.13642-0.11087-0.75869-0.11087-1.4788 0-1.0404 0.03148-1.3062 0.19289-1.6282 0.28554-0.56968 0.8583-1.4356 1.0823-1.6362 1.1362-1.0177 3.8823-1.1647 5.8125-0.31109 0.58948 0.26068 0.72683 0.49887 0.58744 1.0186-0.05129 0.1912-0.11517 0.51026-0.14194 0.70903-0.02681 0.19877-0.13429 0.43887-0.2389 0.53353-0.18167 0.16442-0.22291 0.1625-0.9201-0.0426-1.3548-0.39858-2.6646-0.2181-3.1809 0.43829-0.16879 0.21456-0.20156 0.39706-0.20156 1.1221 0 1.0434 0.21039 1.6854 0.84348 2.5742 0.23673 0.33233 0.63034 0.99879 0.87469 1.4811 0.24433 0.48227 0.61982 1.1094 0.83438 1.3936 0.21457 0.28421 0.39014 0.54115 0.39014 0.57099 0 0.0299 0.15861 0.2799 0.35244 0.55569 0.79704 1.134 0.84964 1.2938 0.83511 2.5374-0.01214 1.0429-0.03536 1.1725-0.30702 1.7166-0.40956 0.82037-1.4523 1.7312-2.285 1.9959-0.75254 0.23924-0.923 0.27052-1.293 0.23721z" stroke-width=".09809"/><path d="m100.45 130.44c-0.34696-0.15081-0.31657 0.0551-0.34899-2.3652-0.0126-0.94343-0.0476-2.2577-0.0779-2.9207-0.0302-0.66295-0.0807-2.0607-0.11224-3.1061-0.0864-2.8676-0.23085-4.7827-0.45957-6.095l-0.05235-0.30004-0.81084 0.0575c-0.7682 0.0545-0.8247 0.0457-1.0748-0.16952-0.26012-0.22376-0.26303-0.23736-0.19822-0.92896 0.05552-0.59278 0.10436-0.7388 0.31385-0.93942 0.22235-0.21289 0.34422-0.24296 1.1753-0.28992 2.5153-0.14217 2.8675-0.17982 4.0417-0.43204 0.54641-0.11738 0.8788 0.0192 0.9533 0.39174 0.0293 0.14688 0.13795 0.44202 0.24128 0.65589 0.38006 0.78664 0.17115 1.057-0.9228 1.1944-1.0856 0.13631-1.06 0.0994-0.98688 1.4187 0.0343 0.61889 0.0802 1.5216 0.10184 2.0061 0.0217 0.48446 0.0776 1.4441 0.12432 2.1326 0.0466 0.68845 0.0904 1.3352 0.0971 1.4372 7e-3 0.10195 0.0514 0.87389 0.0991 1.7153 0.0477 0.84143 0.11085 1.8637 0.14028 2.2716 0.12261 1.7002 0.1461 4.1509 0.041 4.2776-0.14667 0.17673-1.8714 0.16798-2.2845-0.0116z" stroke-width=".09272"/><g stroke-width=".084667"><path d="m70.656 130.36c-0.10592-0.11713-0.15066-0.29521-0.14584-0.58053 0.0354-2.1002-0.0871-12.673-0.15286-13.196-0.0468-0.37253-0.0874-0.84878-0.0902-1.0583-3e-3 -0.20955-0.0285-0.52542-0.0572-0.70193-0.0563-0.3464 0.14276-0.90124 0.32769-0.91347 0.056-4e-3 0.42572-0.0405 0.82153-0.0818 0.39582-0.0413 1.1578-0.0885 1.6933-0.10501 0.53551-0.0165 1.0308-0.0527 1.1007-0.0805 0.0698-0.0278 0.34133-0.0695 0.60329-0.0927 0.37062-0.0328 0.53446-7e-3 0.73856 0.11736 0.29441 0.17905 0.32089 0.26307 0.38991 1.2368 0.0664 0.93699 0.0533 0.94784-1.1527 0.95327-1.1613 5e-3 -1.7311 0.0761-1.8599 0.23133-0.10297 0.12407-0.17707 3.0676-0.0931 3.6984 0.0663 0.49841 0.2871 0.55905 1.1922 0.32756 1.0052-0.25709 1.3678-0.24741 1.6595 0.0443 0.20428 0.20427 0.22374 0.27027 0.16853 0.5715-0.0343 0.1873-0.0554 0.51427-0.0468 0.72661 0.0248 0.61063-0.0951 0.67183-1.575 0.80433-0.68878 0.0617-1.2572 0.11433-1.2632 0.11704-6e-3 3e-3 -0.0595 0.12217-0.11884 0.26549-0.0824 0.19895-0.0919 0.58451-0.0403 1.6298 0.0372 0.75308 0.0716 1.8945 0.0765 2.5365 0.01 1.3188 0.0344 1.371 0.60155 1.2876 0.18627-0.0274 0.75777-0.0711 1.27-0.0971 1.1674-0.0593 1.2336-0.0116 1.2757 0.9198 0.0153 0.33946 9e-3 0.68036-0.0133 0.75756-0.0226 0.0772-0.2056 0.21765-0.40657 0.31212-0.35054 0.16477-0.55686 0.19454-2.1681 0.31276-0.39582 0.0291-0.85041 0.0668-1.0102 0.0838-1.4007 0.14943-1.5683 0.14688-1.7249-0.0263z"/><path d="m83.943 130.45c-0.1471-0.15873-0.19055-0.2853-0.16282-0.47427 0.0208-0.14177-6e-3 -0.31062-0.0596-0.37521-0.0657-0.0792-0.0987-0.64435-0.1011-1.7349-2e-3 -0.8896-0.0335-1.6174-0.0699-1.6174-0.0365 0-0.0524-0.10478-0.0354-0.23284 0.0696-0.52382 0.0426-0.91357-0.10706-1.5452-0.19761-0.83383-0.37075-0.97343-1.0711-0.8636-0.25093 0.0393-0.52933 0.0438-0.61866 0.01-0.2682-0.10166-1.1973 0.12712-1.3554 0.33375-0.0957 0.12511-0.0843 1.022 0.0218 1.7053 0.0682 0.43958 0.0741 0.48992 0.16166 1.397 0.036 0.37253 0.066 1.1262 0.0667 1.6747l1e-3 0.99737-0.26224 0.23953c-0.22397 0.20456-0.38294 0.2555-1.0891 0.34896l-0.82684 0.10944-0.19793-0.24567c-0.13454-0.16699-0.19287-0.34058-0.18213-0.54201 9e-3 -0.16298-0.028-0.37778-0.0816-0.47733-0.0653-0.12136-0.11226-1.1395-0.14243-3.0903-0.0248-1.6001-0.0493-2.9474-0.0546-2.994-5e-3 -0.0466 0.0128-0.27517 0.0402-0.508 0.0672-0.57101 0.0723-1.1966 0.0176-2.159-0.0252-0.44239-0.0653-1.433-0.0891-2.2013-0.0239-0.76835-0.0639-2.0256-0.0891-2.794-0.0253-0.7726-0.0118-1.447 0.0303-1.509 0.0418-0.0616 0.20543-0.1447 0.36359-0.18471 0.15815-0.04 0.43995-0.12615 0.62622-0.19143 0.25943-0.0909 0.75464-0.11259 2.1167-0.0927 0.9779 0.0143 1.9304 0.0262 2.1167 0.0263 1.1784 1e-3 2.64 0.86375 2.7864 1.6446 0.0336 0.17932 0.1283 0.39809 0.21035 0.48617 0.11584 0.12433 0.16824 0.41084 0.23442 1.2816 0.0469 0.6168 0.0765 1.35 0.0658 1.6294-0.0599 1.5701-0.0648 1.6032-0.28644 1.9473-0.2924 0.454-1.2596 1.4172-1.5525 1.5461-0.2839 0.1249-0.3723 0.31456-0.21751 0.46668 0.0627 0.0616 0.40933 0.25549 0.77022 0.43076 0.36089 0.17526 0.65617 0.35714 0.65617 0.40417 0 0.047 0.10285 0.26101 0.22855 0.47551 0.16194 0.27632 0.22176 0.4842 0.20522 0.71319-0.0158 0.21927 0.0296 0.39045 0.14118 0.53235 0.0985 0.1252 0.18808 0.41737 0.22322 0.72794 0.0323 0.28534 0.0979 0.62002 0.14591 0.74374 0.048 0.12372 0.10465 0.45353 0.12596 0.73293 0.0213 0.2794 0.0736 0.6223 0.11613 0.762 0.0426 0.1397 0.0983 0.6588 0.12394 1.1536 0.0662 1.2788 0.0596 1.2853-1.366 1.3548-0.59791 0.0291-1.1523 0.0803-1.2321 0.11366-0.0991 0.0415-0.20846-8e-3 -0.3456-0.15584zm-2.3458-9.5079c0.43328-0.0761 0.91099-0.33837 0.9732-0.53438 0.0298-0.0939 0.0464-0.50409 0.0369-0.91159-0.0187-0.80514 0.0668-2.4293 0.14035-2.6663 0.0252-0.0811 0.0172-0.19365-0.0177-0.25016-0.0349-0.0565-0.0754-0.21166-0.09-0.34475-0.0703-0.64267-0.45799-0.84655-1.4948-0.78624-0.38715 0.0225-0.76533 0.0645-0.84041 0.0933-0.24389 0.0936-0.26832 0.48338-0.19341 3.0862 0.0594 2.0636 0.11063 2.39 0.38573 2.4573 0.11614 0.0284 0.3445 0.0195 0.50749-0.0199 0.16298-0.0393 0.42968-0.0949 0.59266-0.12356z"/><path d="m115.78 130.5c-0.29544-0.12422-0.36955-0.27731-0.35209-0.7273 7e-3 -0.16731-0.0133-0.34482-0.044-0.39448-0.0538-0.087-0.0665-3.519-0.0205-5.5243 0.0123-0.53552 0.0716-1.2404 0.13178-1.5663 0.10295-0.55751 0.0861-1.9839-0.0406-3.429-0.042-0.47902-0.059-1.2281-0.055-2.413 1e-3 -0.37254 9.2e-4 -1.0651-8.5e-4 -1.539-3e-3 -0.89915 0.0287-1.0433 0.23111-1.0433 0.0671 0 0.122-0.0324 0.122-0.072 0-0.10032 1.9986-0.22565 3.4713-0.21767 1.2861 7e-3 1.6605 0.0819 2.4117 0.48246 0.40546 0.21624 1.0597 0.81376 1.0597 0.96785 0 0.0601 0.0355 0.10937 0.079 0.10937 0.0944 0 0.15754 0.1835 0.21216 0.61613 0.0222 0.17588 0.063 0.35637 0.0906 0.40109 0.0276 0.0447 0.0685 1.058 0.0907 2.2518 0.0386 2.068 0.0322 2.1876-0.13507 2.5332-0.0966 0.19947-0.30724 0.50229-0.46817 0.67292s-0.29238 0.35516-0.29212 0.41005c1e-3 0.2942 0.20244 0.72863 0.46478 1.0043 0.16321 0.17152 0.29675 0.38298 0.29675 0.4699 0 0.0869 0.0368 0.19487 0.0818 0.23987s0.0897 0.21455 0.0993 0.37677c0.01 0.16222 0.0472 0.35576 0.0835 0.43007 0.17156 0.3513 0.39448 3.7169 0.25985 3.9233-0.0324 0.0496-0.0617 0.34494-0.0651 0.65623-7e-3 0.64487-0.0808 0.77139-0.57913 0.99388-0.37259 0.16636-1.6041 0.23372-1.8168 0.0994-0.0902-0.057-0.12189-0.4303-0.14167-1.6706-0.014-0.8785-0.0648-1.883-0.11293-2.2323-0.0481-0.34925-0.0891-0.8753-0.0912-1.169-5e-3 -0.69131-0.12847-1.1622-0.41564-1.5826l-0.2313-0.33867-0.75789-3e-3c-0.82389-3e-3 -1.0582 0.0701-1.4125 0.443-0.22493 0.23672-0.23206 0.27487-0.26102 1.3965-0.0164 0.63423-6e-3 1.3384 0.023 1.5648s0.0306 0.50587 3e-3 0.62095c-0.0272 0.11508-0.0161 0.45731 0.0246 0.7605 0.0407 0.3032 0.0835 0.84641 0.0953 1.2071 0.0249 0.76683-0.0206 0.83271-0.69119 1.0006-0.24447 0.0612-0.4445 0.14216-0.4445 0.17992 0 0.0378-0.0787 0.0687-0.1749 0.0687s-0.2396 0.0346-0.31869 0.077c-0.093 0.0497-0.23775 0.0374-0.40968-0.0349zm3.8187-9.2414c1.0475-0.2855 1.09-0.39809 1.1321-2.9927 0.0328-2.0253 0.0293-2.0798-0.14985-2.3064-0.27687-0.35024-0.908-0.50117-1.9398-0.46392-1.1893 0.0429-1.2351 0.0888-1.1621 1.1617 0.0301 0.44239 0.0694 1.5538 0.0872 2.4698s0.0646 1.7181 0.10386 1.7824c0.14216 0.2327 0.66482 0.47507 1.0396 0.48207 0.20649 4e-3 0.60654-0.056 0.889-0.13296z"/></g><path d="m40.85 130.63c-1.2302-0.15046-1.4798-0.20674-2.0368-0.45927-0.32005-0.14512-0.71773-0.3831-0.88372-0.52885-0.16599-0.14574-0.34046-0.28-0.38772-0.29835-0.18758-0.0729-1.0205-1.4355-1.3314-2.1781-0.29875-0.71362-0.40861-1.6953-0.47489-4.2439-0.01563-0.60236-0.06953-1.6702-0.11968-2.3729-0.05012-0.70276-0.08936-2.6408-0.08721-4.3068 0.0032-2.7132 0.01951-3.0352 0.15286-3.0887 0.08192-0.0329 0.78704-0.079 1.567-0.10262 1.2897-0.039 1.4318-0.0278 1.5691 0.12389 0.19256 0.21278 0.33084 0.82643 0.25291 1.1224-0.03304 0.1255-0.05092 0.45406-0.03973 0.73013 0.01119 0.27609 0.04537 1.7751 0.07596 3.3312 0.05492 2.7934 0.07011 3.0796 0.23496 4.4264 0.04608 0.37647 0.13006 1.3006 0.18663 2.0535 0.05656 0.75295 0.14095 1.4403 0.18751 1.5275 0.04657 0.0872 0.08467 0.28864 0.08467 0.44773 0 0.39014 0.33446 0.80436 0.89644 1.1102 0.39683 0.21598 0.53467 0.24476 0.97646 0.20388 0.5164-0.0478 1.0615-0.24849 1.2103-0.44562 0.14215-0.18838 0.39823-0.96157 0.37397-1.1292-0.01298-0.0897 0.01117-0.59425 0.05366-1.1213 0.04249-0.52706 0.07638-1.102 0.07531-1.2777-0.02154-3.5299-0.05245-5.2668-0.10233-5.7498-0.0337-0.32628-0.03404-0.88072-7.4e-4 -1.2321 0.08294-0.87584 0.10353-3.0687 0.03057-3.2557-0.03726-0.0955 0.01498-0.22718 0.13965-0.35185 0.17843-0.17842 0.25912-0.19277 0.77397-0.13763 0.36203 0.0388 0.71016 0.021 0.94056-0.0481 0.32655-0.0979 0.39418-0.0894 0.63056 0.0789 0.38144 0.27162 0.44653 0.60335 0.46916 2.391 0.02144 1.6942 0.06526 2.6941 0.13842 3.1588 0.10006 0.6356 0.14206 6.3959 0.0505 6.9262-0.052 0.30118-0.13014 0.81455-0.17364 1.1408-0.10238 0.76795-0.23777 1.217-0.53644 1.7792-0.31304 0.58919-0.61105 0.87765-1.2638 1.2233-1.1871 0.62852-2.0029 0.75281-3.633 0.55346z" stroke-width=".091267"/><path d="m48.303 130.51c-0.314-0.31402-0.30079-0.18888-0.28996-2.7449 0.01758-4.1582 0.0098-4.4811-0.14313-5.8716-0.0308-0.27971-0.06596-1.2992-0.0782-2.2654-0.01223-0.96626-0.04904-1.9649-0.0818-2.2192-0.15736-1.224-0.225-2.9737-0.12886-3.3331 0.09796-0.36631 0.11274-0.3772 0.64949-0.47921 0.37359-0.071 0.73128-0.0766 1.1185-0.0174 0.50942 0.0779 0.61053 0.13155 0.96221 0.51097 0.21614 0.23318 0.39298 0.48494 0.39298 0.55944 0 0.19459 0.44491 1.1181 0.7669 1.5918 0.15118 0.22244 0.4639 0.82578 0.69492 1.3408 0.23103 0.51498 0.59327 1.186 0.80499 1.4911 0.21172 0.30513 0.59927 0.99169 0.86122 1.5257 0.26194 0.53399 0.72636 1.321 1.032 1.7489 0.30565 0.4279 0.55572 0.8336 0.55572 0.90155 0 0.0679 0.04161 0.12355 0.0925 0.12355s0.0925 0.0369 0.0925 0.0819c0 0.10947 0.70535 1.1614 0.87085 1.2988 0.23099 0.1917 0.2824-0.19796 0.20042-1.5194-0.02523-0.40685-0.06684-1.4362-0.09239-2.2874-0.02556-0.85124-0.08497-1.621-0.13191-1.7106-0.04696-0.0896-0.11381-0.76625-0.14855-1.5037-0.03473-0.73741-0.08715-1.6944-0.11658-2.1267-0.07973-1.1731-0.06258-1.4316 0.11234-1.6986 0.13673-0.20868 0.22657-0.2439 0.63412-0.24864 0.26115-3e-3 0.68286-0.0409 0.93714-0.0841 0.53885-0.0915 0.78181 0.0194 1.0677 0.48761 0.16722 0.27394 0.18028 0.47753 0.17886 2.7921-8.38e-4 1.3731 0.01966 2.9543 0.04554 3.5137s0.06858 1.6621 0.0949 2.4503c0.02632 0.78828 0.08824 1.8285 0.13762 2.3116 0.04936 0.48313 0.10952 1.3153 0.13361 1.8493 0.02414 0.53399 0.0723 1.33 0.10714 1.7689 0.0782 0.98477 0.02272 1.2297-0.30779 1.3588-0.36316 0.14182-2.2217 0.0815-2.5623-0.0832-0.32742-0.15832-1.0454-1.3093-1.4088-2.2585-0.13628-0.356-0.32345-0.73316-0.41592-0.83816-0.0925-0.10495-0.16813-0.23297-0.16813-0.28439 0-0.0514-0.10408-0.19123-0.23116-0.31068-0.12714-0.11943-0.23117-0.25032-0.23117-0.29085 0-0.15423-0.87836-1.5557-1.6256-2.5937-0.4282-0.59481-0.77853-1.1064-0.77853-1.1367 0-0.0304-0.25392-0.52154-0.56426-1.0915-0.5504-1.0108-0.86039-1.4308-0.94948-1.2867-0.06662 0.1079-0.08737 3.322-0.02512 3.9029 0.02992 0.27972 0.08398 0.75823 0.11994 1.0634 0.11618 0.98462 0.06378 5.0791-0.06815 5.329-0.10058 0.1905-0.28041 0.26147-0.91701 0.36189-0.27971 0.0441-0.60087 0.10736-0.7137 0.14047-0.1536 0.0451-0.27558-0.01-0.48545-0.22007z" stroke-width=".092466"/><path d="m128.9 130.38c-0.0859-0.0591-0.19066-0.15469-0.23271-0.21247-0.042-0.0578-0.15581-0.13817-0.25277-0.17866-0.097-0.0405-0.23963-0.17099-0.31704-0.29-0.11655-0.17919-0.12641-0.23072-0.0574-0.29976 0.0458-0.0459 0.0777-0.12545 0.0707-0.17686-7e-3 -0.0514 7e-3 -0.36313 0.0315-0.69271 0.0243-0.32958 0.0224-0.69925-4e-3 -0.82149-0.0266-0.12224-0.0638-0.39287-0.0826-0.60141-0.0188-0.20853-0.0615-0.54977-0.095-0.7583-0.0654-0.40755-0.13705-1.3142-0.17232-2.1801-0.0581-1.4262-0.0525-1.3986-0.34696-1.7138-0.10035-0.10742-0.18245-0.22562-0.18245-0.26265 0-0.037-0.0402-0.11222-0.0893-0.1671-0.0491-0.0549-0.19683-0.36918-0.32828-0.69847-0.13144-0.32929-0.37563-0.84639-0.54263-1.1491-0.16701-0.30272-0.30365-0.5953-0.30365-0.65018 0-0.0549-0.0261-0.14915-0.0581-0.2095-0.0319-0.0604-0.12059-0.25191-0.19706-0.42569-0.0765-0.17378-0.23794-0.52923-0.35882-0.7899s-0.24392-0.53081-0.27343-0.60032c-0.21869-0.51529-0.32401-0.72619-0.46918-0.93949-0.0915-0.1344-0.15312-0.25757-0.137-0.2737 0.0161-0.0161-0.0393-0.13044-0.12315-0.25403-0.0839-0.12358-0.1838-0.34095-0.22205-0.48304-0.0383-0.14208-0.11951-0.29332-0.18054-0.33607-0.14122-0.0989-0.21516-0.65947-0.11577-0.8776 0.0398-0.0873 0.14351-0.17183 0.23432-0.1909 0.0896-0.0188 0.23403-0.0711 0.32092-0.1162 0.21392-0.11098 1.1372-0.11509 1.3413-8e-3 0.3633 0.18984 0.55776 0.49356 1.1961 1.8681 0.13718 0.29542 0.27001 0.60822 0.29518 0.6951 0.0251 0.0869 0.13996 0.37126 0.25511 0.63192 0.32848 0.74359 0.61096 1.4688 0.64643 1.6596 0.0178 0.096 0.0576 0.1901 0.0884 0.2091s0.0559 0.0763 0.0559 0.12723c0 0.12948 0.54547 1.2682 0.63357 1.3227 0.077 0.0475 0.43371-0.32477 0.43813-0.45724 1e-3 -0.0424 0.0549-0.17035 0.11876-0.28436 0.0639-0.11402 0.133-0.27839 0.15356-0.36528 0.0754-0.31862 0.26161-0.79564 0.39472-1.0111 0.0752-0.12165 0.20069-0.43445 0.27896-0.69511 0.12362-0.41177 0.328-0.84692 0.44519-0.94788 0.0511-0.044 0.26034-0.52624 0.25457-0.58678-2e-3 -0.0273 0.0377-0.0921 0.0896-0.14394 0.0519-0.0519 0.15622-0.26412 0.2319-0.47168 0.0757-0.20757 0.16223-0.37739 0.19234-0.37739 0.0301 0 0.0554-0.0355 0.0561-0.079 7.5e-4 -0.0434 0.057-0.15008 0.12498-0.23697 0.068-0.0869 0.1242-0.20114 0.12498-0.2539 7.4e-4 -0.0528 0.0713-0.19879 0.15675-0.32453 0.11033-0.16236 0.21564-0.23842 0.36335-0.26241 0.11441-0.0186 0.30753-0.0589 0.42918-0.0896 0.30921-0.0781 1.3958 0.076 1.5244 0.34459 0.0868 0.18129 0.0872 0.22425 4e-3 0.38557-0.0516 0.0999-0.16597 0.22878-0.25409 0.28651-0.0881 0.0578-0.17938 0.18282-0.20283 0.27795-0.0234 0.0951-0.1092 0.26098-0.19057 0.36852-0.0814 0.10755-0.14796 0.23211-0.14796 0.2768 0 0.0447-0.0969 0.2695-0.21533 0.49958-0.11842 0.23006-0.29049 0.60314-0.38238 0.82904-0.16606 0.40832-0.18878 0.455-0.4193 0.86175-0.0663 0.11688-0.17245 0.30493-0.23602 0.41789-0.0636 0.11295-0.194 0.41153-0.28988 0.66351-0.0959 0.25198-0.19664 0.45814-0.22391 0.45814-0.0272 0-0.0682 0.1165-0.091 0.2589-0.0336 0.20991-0.47686 1.1523-0.66593 1.4157-0.072 0.10037-0.4444 0.60843-0.49752 0.88468-0.17817 0.92648-0.19142 1.2349-0.0752 1.7502 0.0718 0.31835 0.10821 0.73734 0.10537 1.2132-2e-3 0.39977 0.0164 0.76035 0.0417 0.80128 0.0253 0.0409 0.0564 0.63246 0.069 1.3145 0.0314 1.7002 0.0463 1.9855 0.10781 2.0808 0.0842 0.13041 0.068 0.82433-0.0234 0.99495-0.0673 0.12576-0.66081 0.15484-0.87166 0.15484-0.14279 0-0.85911-0.0484-0.94504-0.10741z" stroke-width=".063192"/></g><path d="m-13.349 177.77c-0.10205-0.10204-0.18554-0.42591-0.18554-0.7197s-0.24096-0.79065-0.53546-1.1041c-0.49684-0.52886-0.5065-0.62552-0.13393-1.34 0.62543-1.1993 0.53183-1.9606-0.24103-1.9606-0.35522 0-0.71943-0.11907-0.80937-0.26459-0.0899-0.14552-0.39235-0.26458-0.67203-0.26458-0.32175 0-0.56948-0.24293-0.67453-0.66146-0.1393-0.55504-0.32103-0.66087-1.1295-0.65785-0.52993 2e-3 -1.2415 0.078-1.5812 0.169-0.82649 0.2213-0.22671 0.61155 0.94841 0.61709 0.47294 2e-3 0.85989 0.11366 0.85989 0.24761 0 0.54416-4.3079 0.84606-4.8164 0.33755-0.49952-0.49952 0.75475-1.5976 2.3568-2.0634 1.4689-0.42701 1.6484-0.6291 1.0214-1.1495-0.2912-0.24167-0.51506-0.24304-0.95824-6e-3 -0.31805 0.17021-1.1293 0.39096-1.8028 0.49054-0.91112 0.13472-1.2068 0.2882-1.1549 0.59962 0.0939 0.56415-0.53746 1.0455-2.0146 1.536l-1.23 0.40841-0.0206 1.8521c-0.0249 2.2417-0.26521 3.3073-0.74581 3.3073-0.68189 0-1.028-0.75702-0.87333-1.9102 0.082-0.61124 0.0855-1.4293 8e-3 -1.818-0.13729-0.68645-0.19159-0.70539-1.9005-0.66276-0.96754 0.0241-2.2354-0.0396-2.8175-0.14156-0.58204-0.10204-2.8206-0.22263-4.9744-0.26804-3.3126-0.0698-3.9802-0.1533-4.3316-0.5416-0.23302-0.25748-0.3408-0.65352-0.24547-0.90196 0.18044-0.47023 0.35405-0.46473 4.3554 0.13786 2.0666 0.31122 4.2701 0.0964 4.2701-0.4163 0-0.54079-2.7966-1.6796-4.1246-1.6796-0.8646 0-1.2161-0.12647-1.4223-0.51177-0.42898-0.80157-0.33022-1.298 0.45371-2.2805 0.7262-0.91013 0.73197-0.91191 2.9766-0.91596 2.8513-5e-3 3.1257-0.159 2.4017-1.3466-0.30122-0.4941-0.54813-1.1067-0.54867-1.3614-1e-3 -0.48005-0.57533-0.60007-2.3062-0.48192-0.72273 0.0493-0.87659-0.0482-1.028-0.6514-0.10271-0.40922-0.0595-0.78269 0.10214-0.88258 0.1541-0.0952 1.4204-0.16235 2.8139-0.14914 2.2435 0.0213 2.5338-0.0289 2.5338-0.43784 0-0.57463 0.42145-0.73638 1.4927-0.57289 0.45719 0.0698 1.2311 1e-3 1.7198-0.15255 0.4887-0.15369 2.1982-0.34737 3.799-0.43043 1.8715-0.0971 3.7132-0.37911 5.1594-0.79002 1.2369-0.35145 1.9867-0.6475 1.6661-0.65788-0.32057-0.0104-0.88563-0.15682-1.2557-0.32543-0.5627-0.25638-0.76171-0.22613-1.2158 0.18479-0.29861 0.27024-0.68605 0.51004-0.86097 0.5329-2.8378 0.37077-3.9981 0.37261-4.5557 7e-3 -0.65507-0.42922-1.4551-0.29783-2.9061 0.47728-0.49042 0.26199-1.4438 0.42465-2.4948 0.42565-0.93556 7.9e-4 -2.0905 0.14249-2.5666 0.31464-0.99226 0.35881-2.2147-0.0213-2.2147-0.68859 0-0.49624 0.17728-0.59566 1.41-0.79076 0.5572-0.0882 1.2147-0.26823 1.4611-0.4001 0.24641-0.13187 1.0407-0.36605 1.765-0.5204s2.0314-0.45578 2.9045-0.66984l1.5875-0.38921-2.249 0.0214c-3.2135 0.0305-4.1201-0.19674-4.5065-1.1294-0.55638-1.3432-0.21138-1.6676 2.5221-2.3713 0.72761-0.18731 1.9778-0.41037 2.7781-0.49568l1.4552-0.15511-0.96974-0.57314c-0.70891-0.41899-1.2427-0.53748-1.9844-0.44052-1.1764 0.15376-2.4118-0.24701-2.6464-0.8585-0.0897-0.23369 0.0305-0.83079 0.26708-1.3269 0.37003-0.77594 0.56131-0.90199 1.3688-0.90199 0.51627 0 1.6769 0.2487 2.5792 0.55266 1.3179 0.44398 1.8236 0.50031 2.5713 0.28645 0.51194-0.14641 1.6808-0.34794 2.5973-0.44784 1.0738-0.11703 1.6296-0.28949 1.5628-0.48489-0.11855-0.34652-1.2461-0.37304-3.394-0.0798-1.2239 0.16708-1.5663 0.1244-1.9314-0.24073-0.85034-0.85034-0.4186-1.2878 1.5168-1.5366 1.4448-0.18581 1.7802-0.31523 1.7142-0.66146-0.0654-0.34303-0.48379-0.44648-2.0603-0.50944-1.4504-0.0579-2.1203-0.20625-2.5107-0.55589-0.2929-0.26228-0.7497-0.55379-1.0151-0.6478-0.86565-0.30659-0.41244-1.0898 0.68321-1.1807 1.1932-0.099 1.2689-0.55101 0.19457-1.1623-1.3124-0.74678-0.95388-1.7912 0.61862-1.8023 0.75977-5e-3 1.3464-0.39562 1.1274-0.75-0.11513-0.18628-0.39296-0.2014-0.80715-0.0439-0.45834 0.17426-0.71792 0.13612-0.94628-0.13903-0.3928-0.47329-0.14703-1.1796 0.41045-1.1796 0.63976 0 1.196-1.541 0.83901-2.3245-0.24674-0.54154-0.20007-0.70231 0.31708-1.0924 0.47007-0.35457 0.61969-0.75308 0.66549-1.7725 0.0714-1.5904 0.2684-1.9543 1.0575-1.9543 0.76899 0 1.2366 0.94535 0.90751 1.8348-0.35123 0.94944-0.10074 1.2967 1.0024 1.3895 1.0844 0.0912 1.53 0.69718 0.67671 0.92031-0.29631 0.0775-0.60277 0.30774-0.68103 0.51168-0.0783 0.20394-0.3634 0.37081-0.63364 0.37081-0.46222 0-1.6419 1.0103-1.6419 1.4061 0 0.0998 0.48764 0.18139 1.0836 0.18139 1.3566 0 2.6695 0.72957 2.5645 1.4251-0.042 0.27789-0.25488 0.58821-0.47316 0.68959-0.21829 0.10139-0.66315 0.32191-0.9886 0.49005-0.32545 0.16813-0.74217 0.30947-0.92604 0.31406-0.39756 0.01-1.9048 1.2875-1.7278 1.4645 0.12747 0.12746 0.8503 0.23455 4.1274 0.61145 1.4314 0.16464 2.0895 0.37253 2.5099 0.7929 0.72544 0.72543 0.38532 1.3678-0.8999 1.6995-1.1955 0.30856-1.2436 0.38784-0.53637 0.88322 0.45836 0.32104 0.56097 0.57834 0.43338 1.0867-0.14631 0.58295-0.0963 0.6475 0.4012 0.51741 0.7737-0.20232 1.3111 0.0423 1.3111 0.59675 0 0.76451-0.86465 1.505-1.9615 1.6799-0.56952 0.0908-1.1648 0.30048-1.3229 0.46593-0.2142 0.2242 0.2518 0.25726 1.8292 0.12981 1.9904-0.16082 2.164-0.13189 2.9104 0.48473 1.0807 0.89282 0.69728 1.5792-1.2727 2.2785-0.84578 0.30023-0.72291 0.79409 0.19757 0.79409 0.3374 0 0.77336 0.19267 0.9688 0.42816 0.30561 0.36825 0.26215 0.50709-0.31059 0.99219-0.54487 0.4615-0.63965 0.72707-0.52138 1.4609 0.12803 0.79443 0.25004 0.90832 1.068 0.99692 0.50788 0.055 1.1529 0.32952 1.4334 0.61003 0.73917 0.73916 0.18637 1.2559-1.5096 1.411-2.0674 0.18916-3.8899 0.71015-3.8899 1.112 0 0.94466 0.26339 1.0585 2.448 1.0585h2.1764l0.13635-0.79343c0.12156-0.70757 0.25114-0.80305 1.1935-0.87943 0.58143-0.0471 1.2357-0.23739 1.454-0.4228 0.21828-0.18542 0.635-0.44057 0.92604-0.567 0.42768-0.18578 0.31604-0.24703-0.58211-0.31936-2.0335-0.16377-1.7265-1.9124 0.3357-1.9124 0.46369 0 0.98841-0.17511 1.166-0.38915 0.17763-0.21403 0.56604-0.36286 0.86312-0.33073 0.29709 0.0321 0.58728-0.0733 0.64487-0.23434 0.0637-0.17799-0.43556-0.35675-1.2735-0.45599-1.6118-0.19089-2.067-0.5134-1.6523-1.1707 0.34947-0.55404 1.1736-0.79785 2.8133-0.83226 1.1068-0.0232 1.2568 0.0396 1.2568 0.52653 0 0.3041 0.26211 0.76515 0.58247 1.0246l0.58248 0.47166-0.85299 0.77908c-0.78706 0.71887-0.83633 0.85952-0.63749 1.8197 0.15607 0.75367 0.41307 1.1358 0.93197 1.3858 0.40841 0.19675 0.71648 0.56248 0.71648 0.85058 0 0.27798 0.23812 0.63286 0.52917 0.78862 0.62446 0.33421 0.69374 0.93857 0.13229 1.154-0.60152 0.23082-0.51579 1.4918 0.10143 1.4918 0.27407 0 0.55828-0.22932 0.63157-0.50959 0.0828-0.31669 0.54164-0.63195 1.212-0.83281 0.59334-0.17777 1.3265-0.58685 1.6292-0.90908l0.55039-0.58586-1.6081 0.0296c-1.7725 0.0326-2.4453-0.41922-1.7138-1.151 0.30549-0.30558 1.3734-0.39905 5.0837-0.44492 6.3124-0.078 5.9321-0.0244 4.717-0.66508-0.90974-0.47967-1.5547-0.55284-5.211-0.59112-2.295-0.024-4.2535-0.12448-4.3522-0.22322-0.30639-0.30639 0.10914-0.99569 0.60515-1.0038 0.51864-8e-3 2.1911-1.4135 2.1911-1.8406 0-0.14757-0.16402-0.26831-0.36448-0.26831-0.20047 0-0.52403-0.19224-0.71902-0.4272-0.30396-0.36624-0.26664-0.49838 0.26149-0.92604 0.33883-0.27437 0.7737-0.49884 0.96638-0.49884 0.19269 0 0.66054-0.11794 1.0397-0.26209 0.59002-0.22432 0.64813-0.33907 0.40336-0.79643-0.2364-0.44171-0.16944-0.64234 0.38623-1.1573 0.36971-0.34263 0.6722-0.69322 0.6722-0.77908 0-0.13582-1.5539-0.53129-2.2201-0.56502-0.12966-7e-3 -0.36089-0.21032-0.51383-0.45278-0.44055-0.69843 0.22234-1.2405 1.6282-1.3315 0.98637-0.0638 1.2534-0.18518 1.3334-0.60618 0.0551-0.28951 0.33407-0.69024 0.61999-0.89051 0.69229-0.4849 0.22575-1.0003-0.53629-0.59251-0.41978 0.22467-0.63116 0.19661-0.95444-0.12668-0.54997-0.54996-0.52368-0.83442 0.11391-1.2326 0.29104-0.18176 0.52917-0.58491 0.52917-0.89589 0-0.31097 0.17859-0.71363 0.39687-0.89479 0.21829-0.18116 0.39688-0.55485 0.39688-0.83043 0-0.76966 1.6421-1.4669 2.5165-1.0685 0.56559 0.2577 0.63274 0.39438 0.40388 0.82201-0.34919 0.65248-0.35483 1.7898-0.01 2.0029 0.14552 0.0899 0.26458 0.38612 0.26458 0.65818s0.18621 0.68085 0.41379 0.90844c0.25186 0.25185 0.38128 0.75108 0.33073 1.2757-0.0694 0.71972-0.2668 0.94916-1.1971 1.391-0.6127 0.29104-1.0828 0.6369-1.0447 0.76857 0.0826 0.28534 2.1737 0.9415 3.0186 0.9472 0.32742 2e-3 0.59531 0.10895 0.59531 0.23721 0 0.12825 0.37839 0.60314 0.84088 1.0553 0.82279 0.80443 0.89429 1.4997 0.0852 0.82818-0.22532-0.187-0.49609-0.2472-0.60171-0.13378-0.10562 0.11342-0.0432 0.25937 0.13869 0.32434 0.52017 0.18577 0.38671 1.0631-0.22712 1.4931-0.82529 0.57805-0.37808 0.96219 1.1202 0.96219 1.2769 0 1.3219 0.0253 1.2412 0.69906-0.0493 0.41163-0.3013 0.77485-0.61288 0.88337-0.47011 0.16373-2.5813-0.13661-4.7184-0.67126-0.41938-0.10492-1.2354-0.0418-1.8521 0.1433-0.60632 0.18196-1.2711 0.38024-1.4774 0.44061-0.78349 0.22936 0.24122 0.72054 1.3802 0.66159 0.62926-0.0326 1.8 0.11161 2.6017 0.32042 0.9563 0.24908 1.8373 0.3102 2.5618 0.17772 0.74381-0.13602 1.2483-0.0966 1.5457 0.12087 0.60819 0.44472 0.2653 1.1931-0.54665 1.1931-0.35978 0-0.72404 0.11309-0.80946 0.25131-0.21184 0.34276 0.71849 0.80616 1.628 0.81092 0.40975 2e-3 1.0427 0.15449 1.4065 0.33854 0.80876 0.40917 0.90004 1.3703 0.13229 1.393-0.29104 9e-3 -0.82682 0.14306-1.1906 0.2988-0.3638 0.15574-0.88972 0.3273-1.1687 0.38124-0.72131 0.13946-0.85448 0.75953-0.16313 0.75953 0.92677 0 2.1256 0.75463 2.1256 1.338 0 0.70998-0.57805 0.89088-1.6822 0.52647-0.95329-0.31462-2.3882-0.12631-2.1368 0.28041 0.0803 0.13 0.50215 0.23636 0.93736 0.23636 1.5193 0 2.9559 1.1833 2.0879 1.7198-0.14552 0.0899-0.26459 0.51369-0.26459 0.94166 0 0.55216-0.12901 0.77813-0.44423 0.77813-0.60208 0-2.2016 0.59198-2.2016 0.81481 0 0.42604 1.6665 0.83379 2.7826 0.68082 1.0503-0.14396 1.2277-0.0907 1.6024 0.48115 0.23173 0.35367 0.37999 0.85725 0.32946 1.1191-0.0804 0.41646-0.34317 0.4668-2.0999 0.4023-1.5721-0.0577-2.0833 0.017-2.3549 0.34431-0.27328 0.32927-0.64106 0.38129-1.732 0.24499-1.6046-0.20049-1.5554-0.27165-1.8396 2.6594-0.2001 2.0636-0.5116 2.6988-1.0887 2.2198-0.25857-0.21459-0.36177-1.003-0.36177-2.7636 0-2.2309-0.0499-2.4792-0.52917-2.6313-0.78837-0.25022-0.64134-0.91684 0.24115-1.0933 0.43789-0.0876 0.8251-0.36357 0.89727-0.63953 0.26301-1.0058-0.75384-1.0701-1.8839-0.11922-0.43236 0.3638-1.041 0.66145-1.3525 0.66145-0.31153 0-0.83318 0.17479-1.1592 0.38842-0.32603 0.21362-1.1426 0.37737-1.8146 0.36388-1.4177-0.0285-1.8073 0.14924-1.8073 0.82443 0 0.36527-0.32787 0.56581-1.3104 0.80151-0.7207 0.17289-1.4175 0.24816-1.5484 0.16725-0.23783-0.14699-2.05 0.66989-2.5128 1.1327-0.13471 0.13471-0.26114 1.2954-0.28096 2.5793-0.029 1.8781-0.11612 2.3498-0.44581 2.4132-0.22538 0.0434-0.49327-5e-3 -0.59531-0.10669zm2.7863-6.6192c0.7769 0.20317 3.4156-0.37703 3.2995-0.72547-0.13503-0.40509-1.9518-0.69471-3.2635-0.52027-0.66103 0.0879-1.164 0.0308-1.2724-0.14456-0.50802-0.82199-0.93194 0.32565-0.51838 1.4034 0.12487 0.32543 0.27175 0.35319 0.6885 0.13015 0.29137-0.15594 0.77121-0.22039 1.0663-0.14322zm-19.488-0.4043c0.95506-0.5635 0.98459-0.5651 1.3446-0.0727 0.30887 0.42241 0.45161 0.45125 0.88712 0.17927 0.28545-0.17827 0.87781-0.32412 1.3164-0.32412 0.96117 0 1.0692-0.58495 0.18264-0.98889-0.3921-0.17865-1.0388-0.19835-1.7859-0.0544-0.64418 0.12412-1.544 0.16092-1.9996 0.0818-0.66113-0.11484-0.91491-0.0204-1.2568 0.46768-0.93206 1.3307-0.30989 1.6682 1.3116 0.71143zm16.374-0.28375c-0.25951-1.21-0.3319-1.2796-1.1306-1.0882-1.0025 0.24024-1.0026 0.2453-0.0218 1.1411 1.1268 1.0291 1.382 1.0174 1.1524-0.0529zm-18.908-1.5214c0-0.14552-0.17859-0.26458-0.39687-0.26458s-0.39688 0.11906-0.39688 0.26458 0.1786 0.26458 0.39688 0.26458 0.39687-0.11906 0.39687-0.26458zm26.987-0.26458c0-0.14552-0.36421-0.26459-0.80936-0.26459-0.47221 0-0.74125 0.11022-0.64585 0.26459 0.0899 0.14552 0.45416 0.26458 0.80937 0.26458 0.35521 0 0.64584-0.11906 0.64584-0.26458zm-15.008-0.49651c0.44332-0.44332-0.0753-0.82641-1.1188-0.82641-1.0121 0-1.5448 0.50576-1.1705 1.1114 0.19084 0.30879 1.9095 0.0949 2.2894-0.28496zm24.416 0.10805c0.48036-0.36333 0.44731-0.38901-0.511-0.39688-0.88117-7e-3 -0.97848 0.0471-0.6952 0.38846 0.40989 0.4939 0.56292 0.49497 1.2062 8e-3zm-21.933-0.78678c-0.0692-0.18038-0.0243-0.49226 0.0998-0.69307 0.1823-0.29497 0.39364-0.30605 1.1-0.0577 0.67688 0.238 1.2329 0.23004 2.4618-0.0352 1.5932-0.34393 1.5487-0.46988-0.26257-0.74368-0.28994-0.0438-0.67393-0.38592-0.85333-0.76021-0.25209-0.52598-0.64314-0.74918-1.7218-0.98276-1.694-0.36683-4.8482-0.65688-7.8779-0.72441-1.2369-0.0276-2.6061-0.16759-3.0427-0.31114-0.85961-0.28267-3.8364-0.13359-3.8364 0.19214 0 0.50665 0.80973 0.68202 2.5135 0.54435 1.0186-0.0823 2.3879-0.0548 3.0427 0.0611 0.65484 0.11594 2.0836 0.29494 3.175 0.39777 1.7457 0.16449 1.9844 0.25064 1.9844 0.71615 0 0.45413-0.16882 0.52595-1.1906 0.50647-0.65485-0.0125-1.7458-0.14401-2.4244-0.29227-0.71887-0.15708-1.7679-0.18179-2.5135-0.0592-0.70388 0.11569-1.9722 0.21745-2.8185 0.22613-0.84631 9e-3 -1.7393 0.12297-1.9844 0.25399-0.24509 0.13101-1.3969 0.28173-2.5595 0.33492-2.3879 0.10924-2.8547 0.54517-1.4402 1.3451 1.0741 0.60744 2.0835 0.5841 4.4854-0.10371 1.4017-0.40138 2.614-0.55394 4.1553-0.52288 1.398 0.0282 2.5056-0.0937 3.0971-0.34089 1.6091-0.67231 5.371 0.17348 5.8052 1.3052 0.0894 0.23289 0.29051 0.34431 0.44698 0.24761s0.22785-0.32341 0.15864-0.50379zm7.7627 0.38149c0-0.14552-0.17859-0.26459-0.39687-0.26459-0.21828 0-0.39688 0.11907-0.39688 0.26459s0.1786 0.26458 0.39688 0.26458c0.21828 0 0.39687-0.11906 0.39687-0.26458zm6.4607-0.1606c0.57265-0.21975 0.52532-0.70375-0.10748-1.0989-0.3138-0.19597-0.50059-0.56612-0.46302-0.91754 0.0579-0.54149-0.0856-0.60594-1.7771-0.79823-1.1888-0.13515-2.0316-0.38311-2.3812-0.70054-0.48898-0.44398-0.70863-0.46265-2.2781-0.19369l-1.7369 0.29766 0.79996 0.66146c0.70335 0.58158 1.1206 0.67743 3.4551 0.79375l2.6551 0.13229 0.13396 0.76746c0.0764 0.4379 0.36119 0.85597 0.66312 0.97359 0.29104 0.11337 0.5492 0.2145 0.57367 0.22473 0.0245 0.0102 0.23284-0.0537 0.46302-0.142zm2.9147-0.89774c0.51889 0 0.94343-0.11906 0.94343-0.26458 0-0.33831-1.3487-0.34227-2.2317-7e-3 -0.37328 0.14192-0.67868 0.38423-0.67868 0.53847 0 0.19528 0.15541 0.19727 0.51177 6e-3 0.28147-0.15064 0.93632-0.27388 1.4552-0.27388zm6.8841-0.83622c0.66492-0.30295 0.98455-1.1876 0.34318-0.94985-0.1819 0.0674-1.1344 0.28062-2.1167 0.47372-0.98227 0.1931-1.7859 0.44832-1.7859 0.56714 0 0.32904 2.7943 0.2576 3.5594-0.091zm-1.5144-1.7049c-0.0879-0.0879-0.31612-0.0973-0.50712-0.0209-0.21106 0.0845-0.14837 0.14716 0.15986 0.15985 0.27891 0.0115 0.43518-0.0511 0.34726-0.13896zm-24.015-1.4101c0.15059-0.28137 0.60126-0.54926 1.0015-0.59531 0.40024-0.0461 0.72771-0.2028 0.72771-0.34832 0-0.24499-7.3824-0.34893-9.5912-0.13503-2.1496 0.20816-0.20414 0.72209 4.8286 1.2756 1.1642 0.12804 2.2613 0.25121 2.4381 0.27372 0.17679 0.0225 0.44463-0.18928 0.59521-0.47065zm8.7186 0.0804c0.21611-0.19199-0.19093-0.38742-1.1214-0.53841-1.2934-0.20988-3.7182 0.12322-4.3171 0.59304-0.43691 0.34277-0.16353 0.36707 2.4178 0.21489 1.6007-0.0944 2.96-0.21566 3.0207-0.26952zm11.796-1.3377c1.6132-0.34205 1.0169-0.74977-1.0271-0.70236-1.4043 0.0326-1.937 0.15844-2.3288 0.5502-0.50089 0.50088-0.48843 0.50704 0.89478 0.44225 0.77151-0.0361 1.879-0.16667 2.4611-0.29009zm5.0271-0.0831c0.0899-0.14552 0.0445-0.26459-0.10107-0.26459-0.14552 0-0.33816 0.11907-0.4281 0.26459-0.0899 0.14552-0.0445 0.26458 0.10106 0.26458 0.14552 0 0.33817-0.11906 0.42811-0.26458zm-30.89-0.94916c0.86725-0.13429 1.1402-0.49887 0.52917-0.70678-0.1819-0.0619-0.68792-0.0225-1.1245 0.0875-0.43656 0.11001-1.4974 0.28074-2.3575 0.3794-1.0877 0.12478-1.4502 0.25318-1.1906 0.42177 0.34269 0.2226 2.0018 0.14978 4.1434-0.18186zm24.672-0.90293c0-0.30288-0.37715-0.30288-1.3229 0-0.59032 0.18906-0.55475 0.21468 0.33073 0.23821 0.5457 0.0145 0.99219-0.0927 0.99219-0.23821zm-10.583-2.3812c0-0.14552-0.11204-0.26458-0.24897-0.26458s-0.32256 0.11906-0.41249 0.26458c-0.0899 0.14552 0.02209 0.26459 0.24897 0.26459 0.22686 0 0.41249-0.11907 0.41249-0.26459zm-10.12-0.67864c0.32742-0.0688 0.59532-0.23739 0.59532-0.37453 0-0.37199-2.104-0.86759-2.958-0.69678-0.87578 0.17515-2.1136 0.93461-1.9514 1.1972 0.11651 0.18852 3.2544 0.0969 4.3141-0.12588zm19.381-0.77656c0-0.21828-0.11906-0.39688-0.26458-0.39688-0.14552 0-0.26458 0.1786-0.26458 0.39688s0.11906 0.39687 0.26458 0.39687c0.14552 0 0.26458-0.17859 0.26458-0.39687zm-23.966-1.3512c0.63591-0.24402 0.4999-0.63315-0.2213-0.63315-0.86639 0-1.5058 0.26826-1.3274 0.55689 0.16848 0.27261 0.93827 0.31051 1.5487 0.0763zm-2.9032-1.1905c0.87697-0.24348 0.96994-0.33119 0.58146-0.54859-0.50484-0.28252-3.0805 0.24155-3.0805 0.62679 0 0.30327 1.268 0.26359 2.4991-0.0782zm8.1925-0.36869c-0.73447-0.73448-1.3313-0.82082-2.0265-0.29315-0.8698 0.66027-0.52679 0.95461 1.1124 0.95461h1.5755zm-0.50511-1.6181c2.0555-0.18805 3.0924-0.58153 2.9806-1.1311-0.0555-0.27253-0.32182-0.40645-0.73985-0.37196-3.9882 0.32906-4.852 0.46963-5.3466 0.87015-0.76901 0.62271-0.37532 1.1619 0.69063 0.94587 0.4553-0.0923 1.5422-0.23312 2.4153-0.313zm24.209 0.27144c0-0.37236-1.2475-1.1497-1.8521-1.154-0.67009-5e-3 -1.544 0.39374-1.3152 0.59987 0.0686 0.0618 0.71994 0.23277 1.4475 0.37998 1.763 0.3567 1.7198 0.35232 1.7198 0.17419zm-23.923-9.069c-0.13172-0.21314-1.4771-0.0969-1.4771 0.12765 0 0.0558 0.36421 0.10145 0.80936 0.10145s0.74565-0.1031 0.66777-0.2291z" stroke-width=".26458"/></g></svg>
